<svg width="782" height="750" viewBox="0 0 782 750" xmlns="http://www.w3.org/2000/svg">
  <g transform="translate(94 90.588)" fill="none" fill-rule="evenodd">
    <path d="M134.169 435.533l1.483-3.462.193-.495a303.466 303.466 0 0 0 3.407-8.49c1.456-3.764 2.747-7.556 4.204-11.238.797-2.143 1.566-4.287 2.363-6.402 1.868-5.083 4.423-11.87 7.528-18.41 1.841-3.819 3.352-6.676 4.919-9.314 1.566-2.638 3.627-5.715 5.495-8.436l1.704-2.308 2.39-1.51c.354-.24.72-.46 1.1-.66a28.109 28.109 0 0 1 3.406-1.621c1.676-.687 3.655-1.374 5.99-2.089 3.27-.961 6.87-1.868 11.348-2.747 6.375-1.402 13.436-2.748 22.229-4.067 13.16-2.088 27.201-3.929 44.21-5.797 29.977-3.243 59.789-5.496 88.612-7.034 15.25-.715 26.927-1.044 37.863-1.044h6.896c7.763.025 15.517.53 23.218 1.51 2.437.34 4.837.9 7.172 1.677.714.247 1.318.522 1.703.687l2.253 1.016 1.786 1.676c.742.687 1.484 1.374 2.198 2.116a100.153 100.153 0 0 1 7.996 9.04 196.98 196.98 0 0 1 23.685 39.841 179.01 179.01 0 0 1 13.463 40.556l3.408 17.887h-42.26l-2.527-11.925c-2.748-12.969-37.698-47.122-55.091-53.854-1.759-.66-9.26-2.748-32.12-2.748-47.123 0-114.001 8.38-123.645 10.386-11.266 5.248-28.741 27.697-38.66 49.788l-4.067 9.095" fill="#FFFFFF" fill-rule="nonzero"/>
    <path d="M423.91 367.665a89.244 89.244 0 0 0-6.842-7.776l-1.73-1.648-.44-.165a24.564 24.564 0 0 0-4.287-.962 169.833 169.833 0 0 0-21.184-1.346c-14.508-.192-29.153.275-43.77.962-29.263 1.428-58.553 3.791-87.706 6.979-14.563 1.593-29.098 3.407-43.496 5.687-7.171 1.127-14.342 2.363-21.349 3.902-3.49.742-6.952 1.566-10.221 2.555a48.96 48.96 0 0 0-4.561 1.567 15.58 15.58 0 0 0-1.759.824l-.275.165a95.964 95.964 0 0 0-4.808 7.171c-1.511 2.473-2.913 5.276-4.231 8.05-2.61 5.496-4.864 11.321-7.035 17.201-2.17 5.88-4.286 11.843-6.621 17.778-1.127 2.967-2.308 5.028-3.545 7.995-.577 1.402-1.181 3.298-1.786 3.298h19.756c10.688-24.73 30.746-50.228 47.59-57.097 4.643-1.896 79.297-10.743 128.645-10.743 18.3 0 30.966.66 37.67 3.27 20.224 7.803 60.45 45.336 64.598 64.57h11.458a145.434 145.434 0 0 0-12.31-36.462 174.23 174.23 0 0 0-21.76-35.775z" fill="#BA8449" fill-rule="nonzero"/>
    <path fill="#FFFFFF" fill-rule="nonzero" d="M415.182 358.113l-.032-.032-.032-.032.096.096z"/>
    <path fill="#BA8449" fill-rule="nonzero" d="M415.182 358.113l-.032-.032-.032-.032.096.096z"/>
    <path d="M445.122 456.388l-2.363-12.2a149.39 149.39 0 0 0-11.238-33.714 166.096 166.096 0 0 0-19.81-33.412c-1.457-1.813-2.748-3.407-4.232-4.89a168.899 168.899 0 0 0-18.464-1.045h-6.265c-10.441 0-21.679.303-36.38.99-28.218 1.4-57.398 3.709-86.743 6.896-16.486 1.841-30.087 3.6-42.781 5.496-8.243 1.291-14.7 2.472-20.47 3.736a137.66 137.66 0 0 0-9.095 2.253l-.962.303c-.55.879-1.099 1.73-1.648 2.747-1.044 1.786-2.17 3.875-3.572 6.787-2.5 5.276-4.644 10.99-6.43 15.827-.797 2.143-1.566 4.204-2.308 6.292-1.401 3.847-2.747 7.803-4.424 11.815-1.181 3.022-2.418 6.155-3.709 9.177l-.165.44c-.55 1.319-1.126 2.308-1.703 3.654l-4.012 8.848h-27.092l-3.874-1.567h-.412a15.964 15.964 0 0 1-8.985-16.486v-.687l.494-2.088.66-2.528a192.04 192.04 0 0 1 1.456-5.11c.99-3.435 2.033-6.705 3.132-9.892 2.061-6.127 4.562-12.502 7.611-19.426 3.05-6.924 6.348-13.381 9.617-19.234a155.35 155.35 0 0 1 5.77-9.534c2.226-3.407 4.397-6.512 6.787-9.534a26.323 26.323 0 0 1 5.248-5.084 38.055 38.055 0 0 1 3.49-2.225 46.298 46.298 0 0 1 4.946-2.308 75.479 75.479 0 0 1 7.308-2.5c4.671-1.374 9.04-2.336 12.365-3.05 6.76-1.402 13.738-2.748 22.998-4.04 13.381-2.033 27.477-3.791 44.87-5.495 30.224-3.105 60.448-5.303 89.463-6.54 13.931-.576 24.73-.824 34.813-.824h10.689c8.428.039 16.844.626 25.196 1.759h.275a50.942 50.942 0 0 1 8.957 2.198h.192a28.878 28.878 0 0 1 3.902 1.731c.95.522 1.867 1.1 2.748 1.731l1.126.824.88.715.906.824c.88.824 1.759 1.649 2.583 2.5a120.073 120.073 0 0 1 8.902 10.167 208.988 208.988 0 0 1 24.922 42.506 220.226 220.226 0 0 1 8.765 22.833 157.579 157.579 0 0 1 5.66 22.806l2.885 17.503-42.479.055z" fill="#FFFFFF" fill-rule="nonzero"/>
    <path d="M148.979 456.388l10.386-21.57c8.627-18.382 29.345-51.793 52.205-61.163h.44c7.721-2.885 85.178-11.815 132.3-11.815 26.515 0 36.407 2.748 41.545 4.644 23.905 9.205 65.394 48.194 71 71.302l4.616 18.684-312.492-.082z" fill="#FFFFFF" fill-rule="nonzero"/>
    <path d="M429.763 456.388l-2.748-11.403c-2.748-10.854-35.308-43.523-52.206-50.035-1.566-.605-8.243-2.473-30.471-2.473-45.557 0-111.198 8.078-121.942 10.166-8.847 4.396-24.729 22.888-35.197 45.227l-4.232 8.518h-38.714l9.754-21.35c11.403-25.443 33.741-56.74 55.777-65.752 8.49-3.49 86.964-12.254 134.471-12.254 20.718 0 34.456 1.621 43.221 5 23.822 9.205 68.554 49.459 74.187 76.166l3.82 18.19h-35.72z" fill="#FFFFFF" fill-rule="nonzero"/>
    <path d="M447.458 456.388l-4.424-3.765c-16.733-15.552-21.322-47.534-16.101-60.806 2.877-8.73 12.11-13.656 20.964-11.183 2.94-.192 10.002-5.907 12.09-9.342a18.492 18.492 0 0 1 17.008-9.726c11.403 0 29.84 9.04 35.885 17.585a17.255 17.255 0 0 1 2.472 15.854c-.164.44-.44 1.346-.879 2.582-6.264 18.822-14.343 41.435-20.964 51.959l-4.424 6.842h-41.627z" fill="#FFFFFF" fill-rule="nonzero"/>
    <path d="M446.056 456.388l14.343-23.08a240.86 240.86 0 0 0 14.947-27.67c-8.105 5.66-19.508 9.452-36.324 10.194l-.467-.33-.302 1.566a18.876 18.876 0 0 1-13.738-31.515 18.354 18.354 0 0 1 12.804-6.045c16.486-.742 18.629-4.644 21.734-10.524 4.204-7.886 13.298-12.447 24.976-12.447 2.947-.013 5.887.3 8.765.935 13.994 2.58 24.292 14.572 24.73 28.795.659 14.673-7.31 35.72-23.686 62.977l-4.478 7.144h-43.304z" fill="#FFFFFF" fill-rule="nonzero"/>
    <path d="M507.164 411.436c-18.766 0-39.181-12.227-49.65-24.29-9.534-10.99-10.469-20.662-9.59-26.872 1.326-9.208 9.48-15.87 18.767-15.332 2.008.028 4.01.212 5.99.55 1.841-8.243 6.237-25.636 24.015-25.636.805-.04 1.612-.04 2.418 0a20.195 20.195 0 0 1 17.64 14.453 20.827 20.827 0 0 1 9.754-2.418 20.168 20.168 0 0 1 14.782 6.594 21.981 21.981 0 0 1 3.765 24.73 20.113 20.113 0 0 1 8.765 11.622 21.789 21.789 0 0 1-3.517 19.233c-8.243 11.238-26.845 16.734-41.792 17.228l-1.347.138zM488.48 29.592c-16.98 10.634-35.527 35.033-58.113 68.417a18.767 18.767 0 0 1-15.909 8.243c-8.38 0-18.904-5.028-31.213-14.947-19.536-15.717-19.948-24.729-20.113-27.944-.473-9.402 6.656-17.459 16.046-18.134 18.767-1.759 34.318-12.997 49.458-23.85C443.776 10.524 457.706.412 474.357.412a38.471 38.471 0 0 1 9.864 1.264" fill="#FFFFFF" fill-rule="nonzero"/>
    <path d="M380.717 60.531C426.108 56.3 452.65 9.26 480.32 16.568c-18.465 11.54-36.929 34.73-62.675 72.814-6.072 8.93-49.293-27.697-36.928-28.85z" fill="#FFF8EF" fill-rule="nonzero"/>
    <path d="M86.414 38.742c11.32-10.469 26.653-15.772 45.529-15.772 16.266 0 35.472 3.985 57.097 11.843a60.256 60.256 0 0 0 19.233 2.39h8.408c5.495 0 16.788 0 21.46 10.524a21.981 21.981 0 0 1-2.583 21.68c-7.502 11.76-27.752 24.288-47.123 24.288h-.934c-10.414 0-20.223-5.495-31.598-11.952-14.178-7.913-30.225-16.87-49.101-16.87a59.185 59.185 0 0 0-7.886.521M436 151.396c-8.408 0-24.015-3.49-34.209-27.037a94.355 94.355 0 0 1-7.446-34.648c0-16.486 8.6-20.717 13.739-21.981 3.709-3.764 10.66-13.161 15.909-20.25C445.287 18.822 460.509 0 478.23 0a23.192 23.192 0 0 1 8.573 1.621c23.96 9.59 35.445 29.675 31.516 55.118-2.748 18.794-14.535 41.215-32.01 61.383-8.243 9.48-29.29 31.736-47.892 33.137l-2.418.137z" fill="#FFFFFF" fill-rule="nonzero"/>
    <path d="M162.112 159.64a37.011 37.011 0 0 1-6.044 0c-29.675-4.836-66.714-34.676-80.7-65.505-9.561-21.075-5.275-35.417 0-43.825a42.04 42.04 0 0 1 37.04-20.8c18.903 0 37.944 10.414 54.733 19.59 6.374 3.38 15.744 8.601 19.7 9.563a16.98 16.98 0 0 1 4.48-.687 17.2 17.2 0 0 1 14.754 8.957c7.694 13.381 3.05 49.266-9.04 70.23-8.408 14.756-20.882 22.476-34.923 22.476z" fill="#FFFFFF" fill-rule="nonzero"/>
    <path d="M265.37 417.92c-69.599 0-138.345-33.796-161.206-58.47-23.877-25.773-32.587-54.789-25.91-86.634 5.495-26.158 20.085-49.623 32.972-70.423 8.875-14.288 17.255-27.779 19.453-37.478C158.953 40.034 229.897 24.042 288.505 24.042c3.737 0 7.666 0 11.98.192C425.339 28 437.868 88.31 445.259 124.36a109.849 109.849 0 0 0 4.397 17.173c41.902 102.955 48.798 164.64 23.135 206.323-25.223 40.967-80.589 60.915-191.018 69.818-5.495.412-10.99.247-16.486.247h.083z" fill="#FFFFFF" fill-rule="nonzero"/>
    <path d="M145.626 168.35c-9.754 43.083-94.877 111.28-30.224 181.043 21.981 23.74 95.124 58.965 165.135 53.333 189.589-15.277 233.332-62.565 154.858-255.396-12.749-31.351 1.54-103.587-135.377-107.681-57.454-1.731-126.585 6.155-154.392 128.7z"/>
    <path d="M262.787 418.937c-70.862 0-136.532-35.28-158.623-59.102-23.877-25.774-32.587-54.954-25.91-86.827 5.495-26.158 20.085-49.705 32.972-70.505 8.875-14.315 17.255-27.834 19.453-37.533 28.274-124.882 99.218-140.9 157.826-140.9 3.737 0 7.666 0 11.98.192 124.854 3.737 137.383 64.048 144.774 100.097a109.849 109.849 0 0 0 4.397 17.173c41.215 101.334 48.029 162.387 22.695 204.152-29.042 47.892-97.13 63.554-190.385 72.346-6.21.605-12.695.907-19.18.907z" fill="#FFFFFF" fill-rule="nonzero"/>
    <path d="M443.254 331.808a321.575 321.575 0 0 1 2.747-6.567c9.59-22.805 16.486-42.698 5.22-55.31-13.408-14.865-70.394-41.6-120.677-65.422-96.608-45.556-156.26-74.956-164.86-104.411a26.24 26.24 0 0 1 2.748-21.57c16.486-26.13 63.196-54.239 126.86-54.239h1.923c59.927.522 103.615 17.805 129.827 51.327 22.147 28.328 27.175 61.355 30.83 85.452 1.263 8.243 2.747 18.465 4.423 21.267 45.446 78.116 24.729 135.707 8.243 163.074l-27.284-13.6z" fill="#FFFFFF" fill-rule="nonzero"/>
    <path d="M181.593 86.826c-24.976 39.594 243.114 130.652 281.032 172.801 20.772 23.08 3.6 56.41-5.11 77.951 8.077-13.463 38.192-67.427-8.244-147.44-14.92-25.635 8.243-148.978-151.918-150.38-61.686-.549-102.956 26.818-115.76 47.068z"/>
    <path d="M395.801 242.07c-23.437 0-62.536-5.826-76.11-18.795-10.633-10.166-14.727-26.954-18.657-43.358A145.791 145.791 0 0 0 294 156.892h-.22c-.989 2.747-2.115 5.495-3.05 8.243-6.346 17.695-15.002 41.902-33.438 54.953-7.941 5.688-36.297 10.99-58.333 10.99-21.982 0-38.66-4.78-49.733-14.15-15.964-13.49-28.136-38.275-36.16-73.61l-1.099-.714a28.713 28.713 0 0 1-11.183-10.99c-4.176-8.381-2.472-23.273 1.869-31.022a18.876 18.876 0 0 1 14.865-10.029h1.95c3.453.12 6.89.524 10.277 1.21a76.11 76.11 0 0 0 11.705 1.4c.695.047 1.393.047 2.088 0a435.34 435.34 0 0 1 61.465-4.973c45.694 0 69.681 9.37 78.694 12.887l1.813.687a53.827 53.827 0 0 0 12.475 1.566 37.156 37.156 0 0 0 5.495-.385 393.576 393.576 0 0 1 58.443-4.726c48.221 0 73.802 10.99 84.738 15.717l2.418 1.016h.934a61.877 61.877 0 0 0 11.155-1.758c2.886-.632 5.633-1.21 8.243-1.511.72-.087 1.446-.133 2.171-.138a19.976 19.976 0 0 1 17.585 11.183c4.396 8.051 7.364 25.059 1.182 34.786-4.122 6.484-10.991 9.562-16.486 12.035l-2.336 1.071c-1.84 3.16-5.138 9.7-7.886 15.112-8.05 15.91-17.145 33.907-25.525 43.606-7.31 8.545-21.157 12.721-42.315 12.721z" fill="#FFFFFF" fill-rule="nonzero"/>
    <path d="M386.46 238.168c-18.575 0-44.65-2.748-63.444-16.02-10.771-7.555-15.607-22.997-22.311-47.506a215.857 215.857 0 0 0-6.705-21.68c-1.181 2.748-2.527 6.485-3.654 9.48-6.98 18.684-16.486 44.292-33.851 54.953-8.93 5.496-36.956 10.579-58.773 10.579-23.355 0-40.198-5.22-50.035-15.497-24.729-25.938-29.73-50.722-32.642-65.504-.412-2.116-.934-4.781-1.401-6.595-14.563-7.638-15.525-19.041-15.223-23.794.394-8.74 7.546-15.651 16.294-15.745a20.443 20.443 0 0 1 12.172 4.616l.852.577 1.237.385a21.981 21.981 0 0 1 16.898 18.272 247.702 247.702 0 0 0 10.221 32.972c9.617 24.73 16.321 28.988 16.898 29.318a85.178 85.178 0 0 0 27.477 4.066 127.437 127.437 0 0 0 37.203-5.495c3.435-5.495 10.414-19.234 15.25-28.796 14.7-29.042 17.2-33.439 23.3-36.626a27.12 27.12 0 0 1 12.86-2.748 67.785 67.785 0 0 1 21.678 3.792c10.716 4.534 16.486 18.547 28.686 54.459 2.198 6.457 5.083 14.865 6.814 19.234 9.232 4.45 30.224 7.528 52.453 7.528 6.265 0 10.826-.247 13.738-.522 2.089-4.314 5.056-10.606 7.611-16.019 17.778-37.725 20.443-42.012 25.087-45.556a56.52 56.52 0 0 1 28.685-9.727 16.486 16.486 0 0 1 17.09 13.271c2.474 13.546-10.633 18.547-14.92 20.196-1.043.384-2.747 1.044-3.9 1.566-1.594 2.748-4.562 8.71-7.062 13.738-18.932 37.121-25.306 47.26-32.478 51.546-8.518 4.946-29.894 7.282-46.106 7.282z" fill="#FFFFFF" fill-rule="nonzero" opacity=".3" style="mix-blend-mode:multiply"/>
    <path d="M142.302 128.426a59.377 59.377 0 0 1-18.822-3.984c-2.912-.962-5.193-1.869-6.76-2.473-3.406-1.319-12.309-4.781-12.309-15.414V90.948h15.085c1.561.031 3.108.3 4.589.797 3.214.467 13.738 1.264 17.228 1.51l2.033.166c2.747 0 11.32-1.154 15.002-1.704a51.546 51.546 0 0 1 7.803-.77h13.3l2.06 13.08a15.497 15.497 0 0 1-11.156 17.145l-3.434 1.182a85.178 85.178 0 0 1-23.245 6.127l-1.374-.055zm306.172 22.311a32.395 32.395 0 0 1-17.97-6.952c-6.676-4.67-12.859-9.177-12.859-17.337v-15.36h16.13c2.298.002 4.575.45 6.704 1.32 1.73.74 8.243 2.747 10.99 3.406.934-.137 2.968-.934 6.65-1.703a21.542 21.542 0 0 1 4.835-1.127h13.08l2.115 13.409a15.58 15.58 0 0 1-10.414 17.337c-.55.22-1.95 1.045-2.747 1.512a47.562 47.562 0 0 1-13.739 5.303c-.918.14-1.846.205-2.775.192z" fill="#FFFFFF" fill-rule="nonzero" opacity=".3" style="mix-blend-mode:multiply"/>
    <path fill="#FFFFFF" fill-rule="nonzero" d="M340.711 439.902h54.953v49.458h-54.953z"/>
    <path d="M423.91 367.665a89.244 89.244 0 0 0-6.842-7.776l-1.73-1.648-.44-.165a24.564 24.564 0 0 0-4.287-.962 169.833 169.833 0 0 0-21.184-1.346c-14.508-.192-29.153.275-43.77.962-29.263 1.428-58.553 3.791-87.706 6.979-14.563 1.593-29.098 3.407-43.496 5.687-7.171 1.127-14.342 2.363-21.349 3.902-3.49.742-6.952 1.566-10.221 2.555a48.96 48.96 0 0 0-4.561 1.567 15.58 15.58 0 0 0-1.759.824l-.275.165a95.964 95.964 0 0 0-4.808 7.171c-1.511 2.473-2.913 5.276-4.231 8.05-2.61 5.496-4.864 11.321-7.035 17.201-2.17 5.88-4.286 11.843-6.621 17.778-1.127 2.967-2.308 5.028-3.545 7.995-.577 1.402-1.181 3.298-1.786 3.298h19.756c10.688-24.73 30.746-50.228 47.59-57.097 4.643-1.896 79.297-10.743 128.645-10.743 18.3 0 30.966.66 37.67 3.27 20.224 7.803 60.45 45.336 64.598 64.57h11.458a145.434 145.434 0 0 0-12.31-36.462 174.23 174.23 0 0 0-21.76-35.775zm-8.728-9.552l-.032-.032-.032-.032.096.096z" fill="#BA8449" fill-rule="nonzero"/>
    <path d="M456.278 399.566a193.49 193.49 0 0 0-22.998-39.347c-2.4-3.096-4.978-6.05-7.721-8.847l-2.17-2.089-.413-.384-.302-.247-.44-.33a14.15 14.15 0 0 0-1.236-.77 22.973 22.973 0 0 0-2.034-.879 35.72 35.72 0 0 0-6.457-1.539 177.554 177.554 0 0 0-22.86-1.62c-14.948-.303-29.758 0-44.567.686a1473.738 1473.738 0 0 0-88.503 6.457c-14.727 1.539-29.427 3.27-44.155 5.496-7.364 1.126-14.7 2.363-21.981 3.901-3.71.797-7.419 1.649-11.238 2.748a66.854 66.854 0 0 0-5.853 1.978c-1.11.45-2.192.963-3.242 1.539a17.1 17.1 0 0 0-1.896 1.182 12.557 12.557 0 0 0-2.363 2.28 95.811 95.811 0 0 0-5.935 8.243c-1.868 2.748-3.654 5.77-5.275 8.71-3.517 6.127-6.265 12.09-9.013 18.107-2.747 6.018-5.055 12.063-7.144 18.217a225.498 225.498 0 0 0-2.912 9.26 148.494 148.494 0 0 0-1.319 4.671l-.632 2.336-.275 1.181c0 .192.385-.385 1.347.165l.247-.77h13.436c.605 0 1.209-1.895 1.786-3.297 1.236-2.967 2.418-5.495 3.545-8.435 2.335-5.935 4.423-11.678 6.621-17.558 2.199-5.88 4.424-11.567 7.034-17.09 1.32-2.748 2.748-5.495 4.232-7.996 1.484-2.5 3.077-4.808 4.808-7.144l.275-.137a15.58 15.58 0 0 1 1.759-.824 42.067 42.067 0 0 1 4.56-1.567c3.27-.989 6.732-1.813 10.222-2.555 7.007-1.539 14.178-2.748 21.35-3.902 14.397-2.28 28.932-4.094 43.495-5.687 29.153-3.188 58.443-5.496 87.705-6.98 14.618-.686 29.263-1.153 43.77-.961a169.92 169.92 0 0 1 21.185 1.346c1.455.192 2.89.514 4.287.962l.44.165 1.73 1.648a89.244 89.244 0 0 1 6.842 7.776 174.23 174.23 0 0 1 21.762 35.72 145.434 145.434 0 0 1 12.2 36.517h11.54c-1.155-5.496-2.94-13.244-5.111-20.031a190.743 190.743 0 0 0-8.133-20.305z" fill="#895C2F" fill-rule="nonzero"/>
    <path d="M380.277 379.865c-6.182-2.39-18.3-3.132-36.022-3.132-49.65 0-122.903 8.71-126.915 10.221-15.057 6.237-33.796 30.966-44.237 52.948H441.77c-4.122-16.486-41.49-52.206-61.493-60.037z" fill="#FFF8EF" fill-rule="nonzero"/>
    <path d="M381.926 375.551c-6.705-2.747-19.371-3.49-37.67-3.49-49.459 0-124.003 8.6-128.647 10.497-16.843 6.896-37.01 32.615-47.59 57.344h5.084c10.359-21.982 29.098-46.573 44.155-52.728 4.012-1.511 77.264-10.441 126.915-10.441 17.722 0 29.84.522 36.022 2.912 20.003 7.721 57.371 43.77 61.575 60.257h4.671c-4.067-19.234-44.292-56.547-64.515-64.35z" fill="#E5D1AE" fill-rule="nonzero"/>
    <path d="M473.67 378.354c-2.747 5.633-17.42 19.81-29.757 16.293-6.457-1.84-5.275 31.516 9.59 45.255h26.982c7.418-10.991 19.04-47.15 20.36-50.887 1.538-4.37-24.372-16.294-27.175-10.661z" fill="#BA8449" fill-rule="nonzero"/>
    <path d="M502.246 386.047c-.33-7.446-4.973-12.282-12.75-14.04-6.264-1.402-14.672 0-16.76 3.929-4.121 7.803-9.26 17.612-34.648 18.711a3.132 3.132 0 0 0-2.94 3.27 3.105 3.105 0 0 0 3.187 2.968c26.515-1.154 34.209-11.293 39.732-21.68a16.816 16.816 0 0 1 12.447 0 7.281 7.281 0 0 1 5.495 7.117c.66 14.425-14.343 39.841-22.586 53.58h7.419c9.177-16.486 21.981-39.017 21.404-53.855z" fill="#895C2F" fill-rule="nonzero"/>
    <path d="M450.068 442.457c16.486-3.847 31.021-20.25 32.312-43.963.248-4.369-8.71-12.804-8.71-15.112s27.697.495 28.96 6.924c1.265 6.43-17.172 45.639-23.327 52.041-6.155 6.402-38.824 2.363-29.235.11z" fill="#C7893E" fill-rule="nonzero" opacity=".15" style="mix-blend-mode:multiply"/>
    <path d="M463.147 362.472c-2.06 14.233 25.938 34.181 44.87 33.467 15.908-.522 33.603-7.94 31.02-16.651-2.582-8.71-17.942 1.539-19.233-4.616-1.292-6.155 17.97-17.448 10.276-25.663-7.116-7.556-15.387 12.062-23.85 9.232-8.463-2.83 1.649-21.981-8.71-23.08-12.31-1.264-7.693 26.157-16.926 26.68-6.676.466-16.788-4.067-17.447.631z" stroke="#F38089" stroke-width="1.411" fill="#F8B1AB" fill-rule="nonzero"/>
    <path d="M471.005 362.39c3.05 2.253 13.738 5.33 15.607 1.346 1.868-3.984 3.325-11.732 2.06-12.886-.851 3.654-2.033 10.606-6.1 12.144-3.104 1.21-9.424-.247-11.567-.604zm30.032-15.387c-.55 2.555-2.5 14.563 3.6 16.239 5.495 1.456 9.287-1.814 13.436-8.656-2.226 2.171-7.996 7.144-12.612 5.194-4.616-1.951-4.781-6.622-4.424-12.777z" fill="#F8B1AB" fill-rule="nonzero" opacity=".5" style="mix-blend-mode:multiply"/>
    <path d="M473.973 379.453c31.543-15.387 37.972 9.672 36.434 14.81-12.31 2.17-34.511-10.716-36.434-14.81z" fill="#F8B1AB" fill-rule="nonzero" opacity=".25" style="mix-blend-mode:multiply"/>
    <path d="M519.941 369.534c-5.495 6.072-2.748 10.99.714 11.513 4.534.851 10.057-3.6 9.343-3.655-1.237 0-9.755 2.913-11.403-1.346-1.237-3.215.714-5.056 1.346-6.512z" fill="#F8B1AB" fill-rule="nonzero" opacity=".5" style="mix-blend-mode:multiply"/>
    <path d="M160.08 409.897c101.14 58.086 302.243-.852 291.527-20.003-14.096-25.114-19.729-41.215-50.695-39.539-30.966 1.676-229.238 17.31-237.316 23.465-8.078 6.155-16.76 28.466-3.517 36.077z" fill="#C7893E" fill-rule="nonzero" opacity=".15" style="mix-blend-mode:multiply"/>
    <path d="M380.717 60.531C426.108 56.3 452.65 9.26 480.32 16.568c-18.465 11.54-36.929 34.73-62.675 72.814-6.072 8.93-49.293-27.697-36.928-28.85z" stroke="#E5D1AE" stroke-width="2.117" fill="#FFF8EF" fill-rule="nonzero" stroke-linecap="round" stroke-linejoin="round"/>
    <path d="M96.855 50.145c20.525-18.959 57.18-11.568 86.936-.77 16.926 6.155 38.852 1.155 40.391 4.617 3.627 8.243-18.272 24.729-36.351 24.426-18.08-.302-47.892-34.043-90.976-28.273z" stroke="#895C2F" stroke-width="1.411" fill="#BA8449" fill-rule="nonzero" stroke-linecap="round" stroke-linejoin="round"/>
    <path d="M411.875 82.842c10.387 3.078 49.98-74.626 69.214-66.933 61.19 24.482-18.464 118.15-43.963 120.018-25.498 1.869-31.213-54.843-25.25-53.085zM190.716 73.61C173.79 80.919 113.78 18.217 88.392 58.608c-16.705 26.597 33.852 80.396 70.011 86.167 36.16 5.77 41.243-75.012 32.313-71.165z" stroke="#F38089" stroke-width="1.411" fill="#F8B1AB" fill-rule="nonzero"/>
    <path d="M459.053 30.911c-3.352 10.634-30.637 38.22-26.79 61.933 1.401 8.71 10.743 34.73 14.728 33.714 3.984-1.017 13.985-7.172 13.078-5.77a115.402 115.402 0 0 1-18.849 13.463c-4.726-2.555-25.525-50.42-22.558-53.085 8.848-7.94 36.544-49.733 40.39-50.255zM89.3 60.146c18.464-11.292 52.205-6.539 71.933 12.695 6.98 6.841 8.958 30.224-6.814 46.023-6.237 6.32 37.176-22.42 37.313-30.664.138-8.243-2.747-10.688-9.232-13.079-23.822-8.902-48.88-29.07-70.642-28.63a25.938 25.938 0 0 0-22.559 13.655z" fill="#F8B1AB" fill-rule="nonzero" style="mix-blend-mode:multiply"/>
    <path d="M466.471 25.004c42.122 23.273-25.745 58.47-20.772 102.323-8.82-.962-30.581-43.386-25.169-47.123 7.502-5.248 38.88-57.206 45.941-55.2z" fill="#F8B1AB" fill-rule="nonzero" opacity=".25" style="mix-blend-mode:multiply"/>
    <path d="M150.27 169.504l-.22.824c0 .55-.33 1.374-.742 2.748a73.885 73.885 0 0 1-3.846 9.946 322.274 322.274 0 0 1-19.234 33.22c-4.341 6.814-8.958 14.507-13.574 23.08a162.524 162.524 0 0 0-12.2 28.383 81.77 81.77 0 0 0-3.516 33.714 72.868 72.868 0 0 0 13.985 34.373c1.951 2.748 4.04 5.303 6.32 7.859a69.818 69.818 0 0 0 7.144 7.116 128.289 128.289 0 0 0 17.393 12.2 237.261 237.261 0 0 0 41.215 19.508 263.254 263.254 0 0 0 46.71 12.42 210.526 210.526 0 0 0 50.035 2.747c34.62-2.747 70.615-6.21 105.593-15.524 17.393-4.67 34.675-10.688 50.007-20.415a83.502 83.502 0 0 0 20.25-18.08c1.43-1.786 2.748-3.71 4.287-5.495a22.119 22.119 0 0 0 3.93-5.77 80.617 80.617 0 0 0 4.808-13.107c4.698-18.134 3.819-37.093.796-55.255a352.69 352.69 0 0 0-14.068-53.222c-5.825-17.31-12.611-34.154-19.233-50.75-1.731-4.204-3.462-8.078-5.166-12.53a62.647 62.647 0 0 1-2.143-6.758c-.632-2.254-1.154-4.48-1.649-6.677-2.005-8.793-3.49-17.31-5.99-25.361a86.689 86.689 0 0 0-10.138-22.394 71.027 71.027 0 0 0-16.24-17.53 116.171 116.171 0 0 0-43.083-19.563 255.12 255.12 0 0 0-45.583-6.595 254.324 254.324 0 0 0-43.221.22 125.706 125.706 0 0 0-38.165 9.81 100.95 100.95 0 0 0-48.277 44.704 169.586 169.586 0 0 0-10.496 24.262c-2.528 7.583-4.534 14.398-6.072 20.415-.77 2.995-1.457 5.77-1.951 8.243a56.382 56.382 0 0 1-2.748 6.622 67.702 67.702 0 0 0-3.846 9.15c-.715 2.115-.962 3.242-.962 3.242l-.11.22zm-9.15-2.199a73.363 73.363 0 0 0 1.676-13.738 61.163 61.163 0 0 1 1.127-7.474 35.72 35.72 0 0 1 1.703-3.874l1.704-4.396a214.538 214.538 0 0 1 9.287-20.305 183.324 183.324 0 0 1 36.077-47.81 110.813 110.813 0 0 1 30.499-20.277 136.779 136.779 0 0 1 39.1-10.689 271.607 271.607 0 0 1 43.962-1.621 267.65 267.65 0 0 1 46.903 5.166c15.881 3.49 32.367 8.984 46.71 19.536a79.38 79.38 0 0 1 18.602 19.233 91.882 91.882 0 0 1 11.348 24.73 262.238 262.238 0 0 1 6.044 26.377c.468 2.143.907 4.259 1.457 6.32a47.81 47.81 0 0 0 1.813 5.99 1873.05 1873.05 0 0 0 4.754 12.501c6.393 16.908 12.099 34.31 17.118 52.206a341.04 341.04 0 0 1 10.99 54.624 180.11 180.11 0 0 1 1.1 28.026 110.319 110.319 0 0 1-4.37 27.476 79.105 79.105 0 0 1-4.973 13.08c-.494 1.043-.934 2.115-1.401 3.214-.467 1.1-.714 2.253-1.182 3.352a23.053 23.053 0 0 1-1.483 3.242l-1.869 3.023a87.348 87.348 0 0 1-19.398 20.827 122.38 122.38 0 0 1-11.76 8.106c-4.122 2.39-8.243 4.616-12.612 6.622a189.59 189.59 0 0 1-26.378 9.836 409.402 409.402 0 0 1-53.964 11.348c-17.915 2.748-35.72 4.561-53.222 5.99a214.318 214.318 0 0 1-52.59-2.528 274.135 274.135 0 0 1-48.524-12.941 251.302 251.302 0 0 1-43.056-20.415 140.13 140.13 0 0 1-18.767-13.409 78.885 78.885 0 0 1-8.243-8.243 110.264 110.264 0 0 1-6.896-8.71 82.76 82.76 0 0 1-15.525-39.182 91.113 91.113 0 0 1 4.479-37.725 177.664 177.664 0 0 1 13.216-29.895c4.809-8.765 9.672-16.486 13.958-23.465A315.405 315.405 0 0 0 137 179.065a65.697 65.697 0 0 0 3.324-8.682 22.64 22.64 0 0 0 .605-2.308l.22-.824-.028.054z" fill="#E5D1AE" fill-rule="nonzero"/>
    <path d="M145.626 168.35c-9.754 43.083-94.877 111.28-30.224 181.043 21.981 23.74 93.42 60.092 165.135 53.333C466.8 385.14 513.869 340.16 435.395 147.33c-12.749-31.351 1.54-103.587-135.377-107.681-57.454-1.731-126.585 6.155-154.392 128.7z" fill="#FFF8EF" fill-rule="nonzero"/>
    <path d="M182.665 86.936l-.385.632a17.97 17.97 0 0 0-1.016 1.814 41.545 41.545 0 0 0-2.94 7.28 87.43 87.43 0 0 0-2.748 30.747 139.829 139.829 0 0 0 11.65 47.068 132.108 132.108 0 0 0 37.616 49.843 127.162 127.162 0 0 0 30.691 18.546 150.078 150.078 0 0 0 37.121 10.194 193.49 193.49 0 0 0 41.023 1.237c3.49-.22 7.034-.605 10.55-.99h1.265l1.291-.22c.797-.164 1.566-.302 2.446-.521 1.676-.413 3.407-.907 5.138-1.402 6.951-1.978 14.04-4.149 21.349-5.797 14.563-3.27 30.224-4.919 45.501-1.566a69.406 69.406 0 0 1 21.625 8.874 58.608 58.608 0 0 1 4.835 3.133l2.336 1.84 2.198 1.952c1.511 1.291 2.748 2.747 4.231 4.176a30.56 30.56 0 0 1 2.006 2.198 26.57 26.57 0 0 1 1.841 2.5 43.66 43.66 0 0 1 5.743 23.273 110.93 110.93 0 0 1-2.748 23.713 204.107 204.107 0 0 1-2.885 11.595l-1.539 5.688-.796 2.747-.303 1.32v.166c-.577-.414 1.347 1.097-1.373-2.173-3.847 0-1.951.66-2.5.467v-.164a120.265 120.265 0 0 0 9.918-20.773 115.237 115.237 0 0 0 6.512-45.199 144.527 144.527 0 0 0-9.836-44.292 182.885 182.885 0 0 0-9.288-20.608 191.905 191.905 0 0 0-5.495-9.864 38.605 38.605 0 0 1-2.912-5.853 49.458 49.458 0 0 1-1.869-6.1c-1.84-7.94-2.747-15.414-3.929-22.832-1.181-7.42-2.253-14.618-3.792-21.68A136.257 136.257 0 0 0 418.8 98.724a93.86 93.86 0 0 0-25.883-29.318 117.71 117.71 0 0 0-33.85-16.926 184.094 184.094 0 0 0-35.226-7.418 264.655 264.655 0 0 0-33.412-1.676c-10.042.07-20.067.832-30.004 2.28a146.478 146.478 0 0 0-46.38 14.233 89.684 89.684 0 0 0-24.73 18.547 80.04 80.04 0 0 0-5.22 6.265l-1.566 2.308.137-.083zm-4.616-2.747l1.676-2.5a79.682 79.682 0 0 1 5.495-6.87 95.949 95.949 0 0 1 26.048-20.113 155.326 155.326 0 0 1 48.03-15.964 220.583 220.583 0 0 1 31.02-3.05 272.706 272.706 0 0 1 34.429 1.017 190.139 190.139 0 0 1 37.093 6.979 124.442 124.442 0 0 1 36.901 17.695 104.741 104.741 0 0 1 29.346 32.12 143.373 143.373 0 0 1 15.634 42.287c1.62 7.418 2.747 14.92 3.929 22.393 1.181 7.474 1.923 15.03 3.49 21.982a42.77 42.77 0 0 0 1.373 4.863 30.417 30.417 0 0 0 2.171 4.424c1.896 3.407 3.764 6.869 5.495 10.413a195.084 195.084 0 0 1 9.178 21.982 149.913 149.913 0 0 1 8.6 47.314 120.897 120.897 0 0 1-8.82 47.48 122.326 122.326 0 0 1-11.376 21.432 5.495 5.495 0 0 1-.33.467c-.714 0 1.045.852-3.022.88-2.912-3.463-.879-2.254-1.456-2.886v-.55a18.09 18.09 0 0 1 .44-1.565l.934-2.748 1.758-5.495a179.145 179.145 0 0 0 3.105-11.238 110.236 110.236 0 0 0 3.242-22.861 40.61 40.61 0 0 0-4.726-21.707 32.124 32.124 0 0 0-1.538-2.225 27.477 27.477 0 0 0-1.896-2.116 137.61 137.61 0 0 0-4.067-3.984l-2.115-1.896-2.226-1.73c-1.456-1.21-3.077-2.199-4.616-3.27a59.734 59.734 0 0 0-20.772-8.244c-14.7-2.885-29.73-.714-43.77 2.995-7.09 1.786-13.986 4.094-20.966 6.292-1.73.55-3.49 1.1-5.303 1.594-.879.247-1.868.467-2.747.687l-1.347.247h-1.428c-3.627.44-7.2.907-10.799 1.182a199.316 199.316 0 0 1-42.314-.55 149.308 149.308 0 0 1-39.017-10.248 132.273 132.273 0 0 1-32.45-19.234 138.757 138.757 0 0 1-38.989-52.865 147.193 147.193 0 0 1-11.705-49.238 93.668 93.668 0 0 1 3.462-32.753 49.87 49.87 0 0 1 3.462-8.243c.495-.989.88-1.483 1.127-1.923l.384-.632-.027-.027z" fill="#E5BFA1" fill-rule="nonzero"/>
    <path d="M188.353 90.206l-.742 1.484-.193.357v.687a8.93 8.93 0 0 0 .99 3.215 37.396 37.396 0 0 0 6.731 8.435 142.879 142.879 0 0 0 19.674 15.36c14.315 9.369 29.73 17.914 44.951 26.157 30.857 16.321 62.565 31.351 94.163 46.71 15.8 7.666 31.598 15.387 47.287 23.41 7.859 4.04 15.662 8.244 23.383 12.448 7.721 4.203 15.414 8.765 22.888 13.738 3.737 2.5 7.419 5.11 10.99 7.996 1.76 1.483 3.518 3.022 5.194 4.67l1.264 1.32.604.659.165.165.247.33.248.33 1.978 2.747.99 1.319c.329.494.659 1.099.96 1.62l1.87 3.353a35.335 35.335 0 0 1 1.373 3.407c.475 1.113.86 2.261 1.154 3.435a42.314 42.314 0 0 1 1.319 7.089c0 1.181.302 2.363.302 3.544v3.545a87.596 87.596 0 0 1-5.715 26.735c-2.995 8.462-6.732 16.486-10.111 24.509l-5.496-2.748a114.743 114.743 0 0 0 12.035-29.565 119.359 119.359 0 0 0 3.545-31.653c-.138-2.748 0-5.303-.33-7.968l-.852-7.941c-.275-2.748-.934-5.248-1.374-7.858a74.49 74.49 0 0 0-1.73-7.804l-2.116-7.72c-.605-2.748-1.759-5.056-2.583-7.584l-2.748-7.556-3.325-7.31c-1.154-2.417-2.115-4.917-3.407-7.28l-3.874-7.062-1.95-3.517-.99-1.978-.632-1.21-.467-.933c-.302-.66-.604-1.154-.907-1.924l-.906-2.418-.413-1.209-.302-1.071-.577-2.143c-2.747-11.348-3.847-21.982-5.935-32.725a185.138 185.138 0 0 0-8.243-30.829 111.67 111.67 0 0 0-14.7-27.477 92.102 92.102 0 0 0-22.146-21.294 113.067 113.067 0 0 0-27.861-13.738 71.632 71.632 0 0 0-7.501-2.308c-2.556-.66-5.056-1.402-7.639-2.006-5.193-.962-10.304-2.17-15.607-2.748-2.747-.33-5.248-.77-7.886-1.017l-7.968-.577-3.984-.302h-4.012l-7.94-.137h-7.968c-2.748 0-5.496 0-8.051.33l-7.721.659-7.803 1.072a166.261 166.261 0 0 0-30.417 7.748 130.844 130.844 0 0 0-27.889 13.518l-3.215 2.116-3.105 2.39c-2.088 1.484-3.929 3.188-5.825 4.81a61.246 61.246 0 0 0-9.507 10.935l.358-.742zm-13.134-7.501a89.107 89.107 0 0 1 25.91-24.73 146.423 146.423 0 0 1 31.076-15.469 182.995 182.995 0 0 1 33.412-8.243l8.518-1.071 8.682-.632c2.968-.275 5.496-.22 8.408-.275h8.491l8.462.357 4.204.193 4.232.412 8.435.797c2.748.33 5.495.824 8.408 1.236 5.495.714 11.183 2.143 16.76 3.297 2.748.715 5.496 1.566 8.244 2.336 2.747.77 5.495 1.73 8.243 2.747a125.019 125.019 0 0 1 30.801 15.882 104.933 104.933 0 0 1 24.729 24.729 123.645 123.645 0 0 1 15.69 30.746 193.546 193.546 0 0 1 8.242 32.972c1.924 10.991 2.94 21.982 5.138 32.203l.44 1.813.247.907.248.742.44 1.484c.164.522.549 1.209.823 1.813l.44.934s-.275-.522 0-.192v.22l.247.467.99 1.868 1.923 3.737 3.902 7.474c1.291 2.473 2.28 5.138 3.407 7.693l3.324 7.749 2.748 7.996c.824 2.747 1.95 5.275 2.555 8.05l2.034 8.243a70.642 70.642 0 0 1 1.593 8.243c.412 2.748 1.017 5.496 1.237 8.243l.66 8.463c.301 2.748 0 5.66 0 8.49a129.14 129.14 0 0 1-4.7 33.494 121.227 121.227 0 0 1-13.6 30.884 3.077 3.077 0 0 1-5.496-2.747c3.243-8.243 6.705-16.24 9.342-24.4a80.452 80.452 0 0 0 4.672-24.729 35.088 35.088 0 0 0-6.897-22.146l-2.06-2.555-.248-.33c-.193-.22.192.22 0 .165l-.138-.138-.522-.522-1.044-1.044a59.44 59.44 0 0 0-4.67-3.984c-3.325-2.555-6.897-4.918-10.497-7.226a520.243 520.243 0 0 0-45.886-24.73c-15.717-7.665-31.598-15.029-47.535-22.393-31.9-14.562-63.965-28.85-95.508-44.87-15.772-7.995-31.434-16.265-46.71-25.937-3.793-2.445-7.557-4.973-11.239-7.694a108.396 108.396 0 0 1-10.826-8.93 50.337 50.337 0 0 1-9.754-11.98 23.685 23.685 0 0 1-2.747-9.259 13.738 13.738 0 0 1 0-2.748 13.189 13.189 0 0 1 0-1.428c0-.55.247-1.127.412-1.676.165-.55.33-1.127.522-1.65l.275-.74.192-.358.742-1.484.577-.77z" fill="#895C2F" fill-rule="nonzero"/>
    <path d="M180.33 85.452c-25.444 39.32 5 190.771 164.997 170.356 16.953-2.143 73.225-32.148 111.143 10.001 20.772 23.08-7.254 81.716 0 69.626 8.078-13.463 39.237-65.394-7.309-145.406-15.03-25.526 9.7-149.254-150.627-150.655-61.603-.632-101.279 20.003-118.205 46.078z" fill="#BA8449" fill-rule="nonzero"/>
    <path d="M175.85 95.014c46.162-29.73 185.66-27.696 230.255 43.606 29.675 47.37-24.729 164.09-44.594 178.983-19.866 14.892-47.865 27.779-121.035 10.249-61.878-14.893 31.543-72.621-41.435-81.029-66.658-7.694-73.225-119.469-23.19-151.809z" fill="#C7893E" fill-rule="nonzero" opacity=".15" style="mix-blend-mode:multiply"/>
    <path d="M304.991 209.894c0 3.545-6.76 6.402-15.112 6.402-8.353 0-15.14-2.747-15.14-6.402 0-3.654 6.705-6.292 15.085-6.292s15.167 2.748 15.167 6.292z" fill="#C7893E" fill-rule="nonzero" opacity=".25" style="mix-blend-mode:multiply"/>
    <path d="M278.394 190.908c3.462-2.308 21.981-1.539 24.234.77 2.253 2.307 7.501 12.116 1.539 16.156-2.034 1.4-2.198-4.397-6.732-3.463-5.495 1.155-2.748 8.408-6.924 8.243-6.732-.192-.247-7.803-6.155-8.847-4.424-.77-5.495 3.407-7.309 3.077-6.54-1.126-3.49-12.694 1.347-15.936z" fill="#F38089" fill-rule="nonzero"/>
    <path d="M288.505 191.073c4.465-.272 8.94.306 13.189 1.703a15.936 15.936 0 0 1 3.82 10.167 4.644 4.644 0 0 1-1.704 3.352l-.358-.44a5.907 5.907 0 0 0-4.918-3.105 5.083 5.083 0 0 0-1.264 0 7.199 7.199 0 0 0-5.193 6.375c-.55 2.116-.742 2.583-1.374 2.583-1.896 0-1.95-.797-1.896-3.105.055-2.308 0-5.495-4.039-6.265a7.776 7.776 0 0 0-1.319-.22c-2 .05-3.89.925-5.22 2.418l-.77.715a2.748 2.748 0 0 1-2.335-2.473 12.392 12.392 0 0 1 4.259-10.716 23.602 23.602 0 0 1 9.122-1.127v.138zm0-1.676a24.07 24.07 0 0 0-9.974 1.374c-4.836 3.242-7.886 14.81-1.346 15.963h.22c1.62 0 2.747-3.187 6.044-3.187.33 0 .687-.384 1.044-.302 5.908 1.017-.577 8.435 6.155 8.435 4.15 0 1.292-6.731 6.814-7.858a3.6 3.6 0 0 1 .962 0c3.187 0 3.792 3.874 5.166 3.874.197.061.407.061.604 0 5.963-4.039.77-13.738-1.538-16.129-1.347-1.346-8.243-2.143-14.26-2.143l.11-.027z" fill="#F38089" fill-rule="nonzero"/>
    <path d="M432.785 251.769c6.814 44.484-48.716 100.51-123.48 111.967-74.764 11.458-130.102-55.503-136.944-99.987-6.842-44.485 39.21-27.505 113.864-38.99 74.654-11.485 139.663-17.475 146.56 27.01z" fill="#F6E8D0" fill-rule="nonzero" opacity=".25" style="mix-blend-mode:multiply"/>
    <path d="M237.673 319.334a13.271 13.271 0 0 0 5.303 4.286 32.972 32.972 0 0 0 6.457 2.336 81.523 81.523 0 0 0 13.739 2.17c9.143.71 18.325.765 27.476.165 9.205-.55 18.355-1.538 27.477-2.912 4.534-.715 9.067-1.484 13.546-2.5a69.269 69.269 0 0 0 12.996-3.957c.88-.412 2.006-1.182 1.951-1.457l.852-3.324c.66-2.226 1.429-4.506 2.198-6.705 1.621-4.34 3.352-8.627 5.138-12.914 3.572-8.545 7.474-16.925 11.486-25.278 1.978-4.177 4.066-8.243 6.154-12.474 2.089-4.232 4.26-8.243 6.43-12.338a232.379 232.379 0 0 1 6.951-12.2c1.264-2.005 2.473-4.01 3.875-6.044l2.198-2.995c.879-1.044 1.868-2.088 2.747-3.105l4.452 7.913c-8.463 2.748-16.926 5.496-25.471 7.859-4.26 1.236-8.573 2.308-12.86 3.434-4.286 1.127-8.627 2.089-12.94 3.133-4.315 1.044-8.656 1.868-12.997 2.747-4.342.88-8.738 1.649-13.08 2.473-4.34.825-8.764 1.402-13.16 2.143-4.397.742-8.793 1.237-13.19 1.759-4.396.522-8.82 1.072-13.27 1.401-4.452.33-8.848.852-13.3.99l-13.298.549h-13.381c-4.451 0-8.93-.412-13.381-.632l-6.677-.412-6.677-.797-6.594-.88-3.325-.411-3.325-.907-13.216-2.748 2.473-8.6 5.578 2.967 1.374.825 1.291.934 2.583 1.868a28.026 28.026 0 0 1 2.473 1.896l2.28 2.116 2.253 2.116c.715.77 1.32 1.593 1.979 2.363a44.265 44.265 0 0 1 3.736 4.808 58.498 58.498 0 0 1 3.188 5.056c.879 1.813 1.95 3.49 2.747 5.303.797 1.813 1.65 3.6 2.39 5.495l2.034 5.495 1.814 5.496a274.25 274.25 0 0 1 3.132 11.265 325.737 325.737 0 0 0 3.105 11.266c.604 1.868 1.099 3.737 1.84 5.495a36.434 36.434 0 0 0 2.446 5.468zm0 0a34.428 34.428 0 0 1-2.583-5.248c-.796-1.786-1.318-3.682-1.95-5.495l-3.38-11.183a245.296 245.296 0 0 0-3.737-10.991l-2.116-5.495-2.472-5.221c-.907-1.731-1.869-3.38-2.748-5.056-.88-1.676-2.116-3.215-3.187-4.78a42.287 42.287 0 0 0-3.572-4.397 30.224 30.224 0 0 0-3.985-3.957c-.714-.604-1.373-1.264-2.088-1.84l-2.528-1.484-2.28-1.512c-.78-.477-1.599-.89-2.446-1.236l-2.473-1.127-1.044-.549-1.319-.385-5.193-1.374a4.561 4.561 0 0 1-3.242-5.495 4.506 4.506 0 0 1 4.754-3.27l.989.165 12.667 2.39 3.16.55 3.214.385 6.43.797 6.43.77 6.456.384c4.342.192 8.628.687 12.97.604h13.023l12.997-.55c4.34 0 8.682-.659 13.024-.961 4.34-.302 8.655-.824 12.969-1.374 4.313-.55 8.627-.989 12.941-1.73 4.314-.743 8.628-1.237 12.887-2.089 4.259-.852 8.6-1.539 12.859-2.418 4.259-.88 8.545-1.786 12.776-2.748 4.232-.961 8.49-1.95 12.722-3.077 4.231-1.127 8.463-2.143 12.64-3.352a476.638 476.638 0 0 0 24.948-7.694 4.589 4.589 0 0 1 4.836 7.501l-.385.413-2.005 1.813-2.116 2.418c-1.401 1.621-2.748 3.435-4.122 5.193-2.747 3.655-5.193 7.446-7.693 11.266-2.5 3.819-4.89 7.72-7.226 11.677-2.336 3.957-4.671 7.886-6.897 11.898-4.479 8.023-8.765 16.156-12.75 24.426a180.344 180.344 0 0 0-5.495 12.53 126.144 126.144 0 0 0-2.363 6.374l-.989 3.297a3.49 3.49 0 0 1-1.566 1.896c-.532.35-1.093.653-1.676.907a71.44 71.44 0 0 1-13.573 3.6 255.092 255.092 0 0 1-13.739 2.17 311.186 311.186 0 0 1-27.477 2.28c-9.222.445-18.464.298-27.669-.439a81.633 81.633 0 0 1-13.738-2.308 33.989 33.989 0 0 1-6.484-2.39 13.271 13.271 0 0 1-5.468-4.397l.082-.082z" opacity=".5" fill="#D7CAB2" fill-rule="nonzero"/>
    <path d="M237.646 319.361a13.738 13.738 0 0 0 5.303 4.287 32.065 32.065 0 0 0 6.484 2.335 84.024 84.024 0 0 0 13.739 2.198c9.144.677 18.323.74 27.476.193a298.128 298.128 0 0 0 27.477-2.748c4.534-.66 9.095-1.401 13.573-2.363a70.038 70.038 0 0 0 13.107-3.902c.934-.467 2.115-1.099 2.28-1.758l.88-3.352c.659-2.198 1.456-4.424 2.225-6.595a281.95 281.95 0 0 1 5.248-12.859c3.71-8.463 7.721-16.76 11.87-25.031 2.033-4.149 4.15-8.243 6.292-12.337a365.435 365.435 0 0 1 6.65-12.172c2.253-3.93 4.67-8.023 7.171-11.953 1.291-1.95 2.528-3.929 3.93-5.825l2.17-2.747a25.936 25.936 0 0 1 2.748-2.748l2.225 3.957c-8.38 2.747-16.816 5.495-25.333 7.803-4.232 1.237-8.546 2.308-12.804 3.435-4.26 1.126-8.573 2.06-12.887 3.105-4.314 1.044-8.628 1.868-12.942 2.747-4.313.88-8.682 1.621-13.023 2.446-4.342.824-8.71 1.4-13.08 2.115-4.368.715-8.737 1.237-13.133 1.786-4.396.55-8.765 1.072-13.189 1.374-4.424.302-8.82.852-13.244.99l-13.326.439h-13.299c-4.423 0-8.847-.412-13.27-.632l-6.65-.412-6.622-.825-6.622-.796-3.297-.412-3.27-1.155-13.079-3.132 1.264-3.929 5.495 2.885 1.374.77 1.264.879 2.556 1.703c.824.577 1.73 1.044 2.5 1.704l2.253 2.006 2.28 1.978c.687.714 1.32 1.511 1.979 2.253a37.78 37.78 0 0 1 3.93 4.589 52.948 52.948 0 0 1 3.296 4.918c.934 1.758 2.006 3.407 2.748 5.166.742 1.758 1.703 3.544 2.473 5.495l2.143 5.495 1.896 5.496a275.143 275.143 0 0 1 3.27 11.237c1.016 3.765 2.06 7.53 3.187 11.238.604 1.841 1.099 3.737 1.868 5.496a35.555 35.555 0 0 0 2.446 5.165zm0 0a34.29 34.29 0 0 1-2.556-5.248c-.769-1.786-1.291-3.682-1.923-5.495l-3.325-11.21a205.902 205.902 0 0 0-3.572-10.991l-2.033-5.495-2.363-5.303c-.852-1.759-1.813-3.435-2.748-5.166-.934-1.731-2.033-3.27-3.05-4.891a57.701 57.701 0 0 0-3.489-4.589 35.088 35.088 0 0 0-3.764-4.231c-.687-.66-1.347-1.346-2.061-1.95l-2.445-1.732-2.281-1.676c-.784-.52-1.6-.988-2.445-1.401l-2.5-1.32-1.237-.659-1.32-.44-5.302-1.785a2.308 2.308 0 0 1-1.456-2.913 2.088 2.088 0 0 1 2.5-1.209l.192.385 12.804 2.17 3.215.44 3.242.303 6.485.769 6.484.77 6.54.384c4.341.192 8.683.687 13.079.604l13.216.083 13.106-.55c4.37 0 8.71-.66 13.08-.961 4.368-.303 8.71-.825 13.05-1.374 4.342-.55 8.683-1.017 12.997-1.759s8.683-1.236 12.97-2.088c4.286-.852 8.627-1.539 12.913-2.445 4.287-.907 8.573-1.786 12.832-2.748a431.062 431.062 0 0 0 12.777-3.077c4.258-1.1 8.49-2.171 12.694-3.408 8.435-2.308 16.788-4.918 25.058-7.72a2.308 2.308 0 0 1 2.94 1.428 2.363 2.363 0 0 1-.522 2.363l-.192.165-2.226 2.143-2.143 2.556c-1.401 1.73-2.747 3.6-4.066 5.495-2.583 3.737-5.056 7.584-7.474 11.485a394.756 394.756 0 0 0-7.034 11.843c-2.28 3.984-4.561 7.995-6.732 12.034-4.341 8.243-8.518 16.322-12.392 24.73a1724.241 1724.241 0 0 0-5.495 12.611c-.824 2.143-1.621 4.26-2.336 6.43l-.961 3.324a2.748 2.748 0 0 1-1.347 1.594 9.19 9.19 0 0 1-1.593.88 70.642 70.642 0 0 1-13.437 3.68c-4.534.88-9.095 1.649-13.739 2.253a296.103 296.103 0 0 1-27.476 2.5c-9.212.49-18.447.362-27.642-.384a81.633 81.633 0 0 1-13.738-2.308 33.989 33.989 0 0 1-6.485-2.39c-2.13-1-3.96-2.546-5.303-4.48l.028-.027z" opacity=".5" fill="#D7CAB2" fill-rule="nonzero"/>
    <path d="M237.618 319.389c11.925 18.464 108.368 5.742 109.907-1.539 4.231-18.849 38.852-85.013 50.008-94.245-20.004 6.924-123.48 40.006-207.697 20.003 38.22 12.2 38.523 61.438 47.782 75.78z" fill="#333333" fill-rule="nonzero"/>
    <path d="M384.893 232.563c-14.48 21.844-36.709 64.46-41.435 83.034-5.715 3.132-35.72 8.71-65.202 8.71-23.52 0-34.4-3.82-36.709-7.419a76.632 76.632 0 0 1-6.154-17.392c-3.984-14.233-9.425-33.577-22.724-47.123a290.181 290.181 0 0 0 36.38 2.198c55.502 0 109.631-14.04 135.872-21.981l-.028-.027zm12.777-8.93c-15.47 5.495-80.836 26.35-148.621 26.35a257.072 257.072 0 0 1-59.075-6.347c38.082 12.172 38.385 61.41 47.644 75.753 4.561 7.034 21.432 9.534 40.61 9.534 31.132 0 68.39-6.567 69.407-10.99 4.231-18.85 38.852-85.013 50.007-94.245l.028-.055z" fill="#333333" fill-rule="nonzero"/>
    <path d="M231.876 303.233c6.402 5.495 28.19-18.987 25.883-28.466-5.908-24.097-32.56-20.773-42.314-22.311-9.755-1.539-28.604-9.864-20.773-7.419 22.586 6.924 65.642 3.847 70.78 5.495 6.485 1.924 10.99 28.191 4.616 34.099-6.374 5.907-28.933 40.253-32.312 34.373-3.38-5.88-4.204-12.172-5.88-15.771zm102.048-28.466c5.166 5.028 18.712 10.99 27.174 7.94a65.587 65.587 0 0 1-6.154 13.601c-58.47-5.138-42.562-46.16-38.22-50.007 4.34-3.847 58.47-11.54 68.994-13.738-15.91 3.49-69.736 24.784-51.794 42.204z" fill="#818181" fill-rule="nonzero" style="mix-blend-mode:multiply"/>
    <path d="M277.514 329.06c-19.893 0-32.972-2.747-37.972-8.242-.385-.467-.467-3.243 1.813-8.436 5.495-12.694 22.668-34.648 52.206-36.434 1.978 0 3.956-.192 5.88-.192 34.758 0 55.695 17.64 55.75 20.8l-1.704 4.094c-1.868 4.506-4.726 11.32-7.253 18.904-2.473 2.473-37.479 9.507-68.72 9.507z" fill="#F8B1AB" fill-rule="nonzero"/>
    <path d="M299.496 275.041v2.226c30.224 0 51.793 14.92 54.046 19.234-.384.961-.906 2.143-1.483 3.544-1.841 4.397-4.616 10.99-7.09 18.355-4.918 2.747-37.423 9.122-67.592 9.122-18.876 0-31.845-2.748-36.626-7.529-.22-1.62 1.373-8.023 7.144-16.266 5.165-7.364 20.003-24.729 45.693-26.24 1.924 0 3.93-.192 5.853-.192v-3.078l.055.824zm-.055-.824c-1.951 0-3.957 0-5.99.193-40.666 2.417-59.46 42.726-55.173 47.342 5.935 6.512 21.514 8.765 39.099 8.765 31.35 0 69.131-7.199 70.258-10.551 3.462-10.386 7.446-19.234 8.985-23.08 1.538-3.847-21.982-22.751-57.234-22.751l.055.082z" fill="#F38089" fill-rule="nonzero"/>
    <path d="M239.047 319.499c-2.748 12.612 73.967-48.826 115.402-19.234 8.243-11.485-37.45-30.719-64.13-26.268-22.504 3.792-45.64 18.217-51.272 45.502z" fill="#F8B1AB" fill-rule="nonzero" style="mix-blend-mode:multiply"/>
    <path d="M254.544 253.61c3.737 6.924 11.155 40.665 14.233 41.544 3.077.88 21.981 6.155 24.729 5.001 2.747-1.154 2.5-7.693 5.495-5.77 2.308 1.539 3.462 4.616 5.77 3.462 4.122-2.06 16.486-9.617 18.465-13.079 1.978-3.462 1.538-22.695 0-38.082-8.298 3.462-54.844 8.462-68.692 6.924z" fill="#FEF6E4" fill-rule="nonzero"/>
    <path d="M321.67 248.774c1.456 15.799 1.483 32.587 0 35.252-1.484 2.666-12.777 9.92-17.805 12.447a.962.962 0 0 1-.303 0c-.357 0-1.044-.742-1.62-1.374a14.37 14.37 0 0 0-2.309-2.088 3.407 3.407 0 0 0-1.813-.604c-1.979 0-2.748 2.006-3.462 3.627-.413.989-.962 2.363-1.54 2.747-.2.028-.403.028-.604 0a136.916 136.916 0 0 1-20.717-4.506l-2.116-.55c-1.456-1.648-4.533-12.474-6.786-20.442-2.034-7.089-3.957-13.738-5.496-17.942h4.287c17.667 0 50.09-3.682 60.448-6.677l-.165.11zm1.51-2.198c-7.033 3.022-43.358 7.226-61.712 7.226a65.367 65.367 0 0 1-6.76-.302c3.573 7.034 10.991 40.775 14.069 41.654 3.077.88 18.464 5.166 23.437 5.166.401.02.802-.036 1.182-.165 2.363-1.016 2.5-6.127 4.424-6.127.349.019.684.144.961.357 1.951 1.291 3.078 3.71 4.781 3.71a2.28 2.28 0 0 0 .99-.248c4.12-2.06 16.485-9.617 18.464-13.079 1.978-3.462 1.538-22.695 0-38.082l.165-.11z" fill="#FFD085" fill-rule="nonzero"/>
    <path d="M259.93 269.766c-1.265-12.447 56.409-16.486 63.608-15.524 0-2.94-.522-4.974-.385-8.243-9.507 4.78-61.3 9.809-68.472 7.748a113.204 113.204 0 0 1 5.248 16.019z" fill="#EADCBE" fill-rule="nonzero" style="mix-blend-mode:multiply"/>
    <path d="M288.725 260.369a53.607 53.607 0 0 1 2.143 5.056c1.209 3.077 2.748 7.226 3.984 11.375 1.237 4.149 2.748 8.243 3.6 11.458l1.566 5.165-3.984 1.154-1.21-5.495c-.714-3.187-1.675-7.419-2.747-11.65-1.072-4.231-2.143-8.408-3.077-11.513-.935-3.105-1.704-5.083-1.704-5.083l1.429-.467z" fill="#FFD085" fill-rule="nonzero" style="mix-blend-mode:multiply"/>
    <path d="M93.42 64.13c30.637 7.804 25.636 60.751 43.963 64.873 18.327 4.121 42.177-43.55 44.485-54.047-35.307-15.002-51.656-32.724-76.935-27.476-8.352 1.593-20.085 14.425-11.512 16.65z" fill="#F8B1AB" fill-rule="nonzero" opacity=".4" style="mix-blend-mode:multiply"/>
    <path d="M178.269 218.88c38.467 3.077 70.258 4.615 81.55-7.2 11.293-11.815 15.387-64.103 34.099-62.811 15.69 1.071 21.02 69.24 31.268 71.274 10.25 2.033 82.43 21.817 100.263 3.352 17.832-18.464 26.158-30.004 21.981-41.215-4.176-11.21-109.467-47.37-130.954-49.32-21.486-1.951-167.168 16.156-170.85 25.388-3.682 9.232-7.528 7.913-6.841 17.777 1.346 18.382 1.016 39.677 39.484 42.754z" fill="#C7893E" fill-rule="nonzero" opacity=".5" style="mix-blend-mode:multiply"/>
    <path d="M286.087 141.313c2.748 0 13.738-.77 16.156 1.154 13.959 10.99 13.354 55.53 28.082 69.598 12.996 12.42 83.858 21.542 96.168 7.309 12.31-14.233 30.362-57.29 34.593-60.449 4.231-3.16 13.464-5.495 16.156-9.617 2.693-4.121.385-23.08-6.154-22.31-6.54.769-18.85 5-26.543 2.747-7.693-2.253-44.98-25.773-138.84-11.54a64.46 64.46 0 0 1-24.234-1.539c-6.155-1.539-41.545-21.981-135.762-8.463-9.425 1.346-22.311-2.748-26.927-2.308-4.616.44-6.128 15.03-4.232 18.877 1.896 3.846 11.54 6.924 12.694 11.54 1.154 4.616 9.617 49.98 31.928 68.829 23.493 19.865 83.887 6.127 89.217 2.308 24.235-17.31 29.62-66.136 37.698-66.136z" fill="#333333" fill-rule="nonzero"/>
    <path d="M205.003 108.258c41.93 0 63.362 8.38 71.44 11.513a34.4 34.4 0 0 0 3.82 1.401 74.187 74.187 0 0 0 17.612 2.226c2.814.013 5.624-.19 8.407-.605a371.897 371.897 0 0 1 55.558-4.369c44.1 0 67.043 9.865 76.935 14.096 1.978.852 3.407 1.456 4.561 1.813 2.181.614 4.439.91 6.704.88a74.764 74.764 0 0 0 15.36-2.226c2.143-.44 4.176-.88 5.77-1.126 2.143 2.335 3.435 12.721 2.308 15.167a24.4 24.4 0 0 1-7.858 4.368 40.336 40.336 0 0 0-7.227 3.82c-2.473 1.786-5.11 6.732-12.611 21.569-7.144 14.123-16.02 31.708-22.779 39.511-2.363 2.748-10.743 5.496-27.202 5.496-24.426 0-55.283-6.567-62.29-13.244-6.374-6.1-9.78-20.168-13.05-33.741-3.655-15.168-7.227-29.483-15.47-35.967-2.088-1.649-5.495-2.308-11.925-2.308h-7.088c-6.485 0-9.37 8.05-14.151 21.431-5.303 15.415-12.777 36.215-26.048 45.64-2.94 1.785-24.73 7.363-46.71 7.363-16.816 0-29.565-3.242-36.847-9.397-8.82-7.446-21.184-24.73-29.977-64.488-.192-.907-.33-1.566-.44-1.95-1.071-4.287-5.192-6.98-8.847-9.343-1.5-.88-2.9-1.922-4.176-3.105a22.97 22.97 0 0 1 1.319-12.2 63.58 63.58 0 0 1 6.374.907 93.42 93.42 0 0 0 15.085 1.677c1.604.067 3.21.02 4.808-.138a419.816 419.816 0 0 1 58.635-4.67zm0-4.616a418.442 418.442 0 0 0-59.377 4.589c-1.402.19-2.816.282-4.231.274-8.243 0-17.668-2.747-21.981-2.747h-.687c-4.616.384-6.155 15.002-4.232 18.849 1.924 3.846 11.54 6.924 12.695 11.54 1.154 4.616 9.616 49.98 31.927 68.829 9.37 7.913 24.565 10.496 39.814 10.496 23.053 0 46.216-5.88 49.458-8.243 24.235-17.31 29.62-66.136 37.698-66.136 1.237 0 4.094-.165 7.09-.165 3.736 0 7.72.247 9.066 1.319 13.959 10.99 13.354 55.53 28.082 69.598 8.243 7.94 40.28 14.535 65.476 14.535 14.206 0 26.24-2.088 30.692-7.226 12.31-14.233 30.362-57.289 34.593-60.449 4.231-3.16 13.464-5.495 16.156-9.617 2.693-4.121.495-22.338-5.77-22.338h-.384c-5.166.604-13.904 3.38-21.157 3.38-1.855.03-3.706-.2-5.496-.687-5.907-1.786-29.4-16.102-82.705-16.102a375.716 375.716 0 0 0-56.134 4.561 52.645 52.645 0 0 1-7.721.55 69.543 69.543 0 0 1-16.486-2.088c-4.562-.687-25.856-12.722-76.386-12.722z" fill="#1A1A1A" fill-rule="nonzero"/>
    <path d="M153.402 136.696c-2.143 2.748-3.462 43.826 13.739 54.954 11.347 7.336 59.624 5.77 69.24.384 15.278-8.462 30.143-47.48 25.856-53.03-6.924-9.232-56.904-21.541-94.63-11.924a34.154 34.154 0 0 0-14.205 9.616h0z" stroke="#333333" stroke-width="2.822" opacity=".5" style="mix-blend-mode:multiply"/>
    <path d="M153.402 136.696c-2.143 2.748-3.462 43.826 13.739 54.954 11.347 7.336 59.624 5.77 69.24.384 15.278-8.462 30.143-47.48 25.856-53.03-6.924-9.232-56.904-21.541-94.63-11.924a34.154 34.154 0 0 0-14.205 9.616z" fill="#FFFFFF" fill-rule="nonzero"/>
    <path d="M436.632 154.666c1.758 2.995-2.253 43.963-20.855 52.755-12.2 5.77-59.872-2.005-68.692-8.6-13.958-10.386-23.547-50.996-18.684-55.97 8.05-8.243 59.24-13.985 95.344.44a33.989 33.989 0 0 1 12.887 11.375h0z" stroke="#333333" stroke-width="2.822" opacity=".5" style="mix-blend-mode:multiply"/>
    <path d="M436.632 154.666c1.758 2.995-2.253 43.963-20.855 52.755-12.2 5.77-59.872-2.005-68.692-8.6-13.958-10.386-23.547-50.996-18.684-55.97 8.05-8.243 59.24-13.985 95.344.44a33.989 33.989 0 0 1 12.887 11.375z" fill="#FFFFFF" fill-rule="nonzero"/>
    <path d="M208.3 161.618c-1.263 8.93-5.797 15.689-10.11 15.057-4.315-.632-6.76-8.243-5.496-17.283 1.264-9.04 5.797-15.689 10.111-15.057 4.314.632 6.76 8.353 5.496 17.283zm184.616 10.386c.962 8.985-1.813 16.486-6.127 17.063-4.314.577-8.6-6.457-9.534-15.442-.934-8.985 1.813-16.623 6.154-17.063 4.342-.44 8.6 6.457 9.507 15.442z" fill="#010101" fill-rule="nonzero"/>
    <path d="M119.359 119.001c5.248 3.49 10.194 1.347 11.348 8.243 1.154 6.897 17.118 67.29 37.12 74.187 32.753 11.403 73.968.248 79.463-3.324 5.495-3.572 31.736-62.097 36.16-64.406 4.423-2.308 18.354.248 21.349 1.54 9.04 3.846 25.608 67.345 30.224 70.56 20.195 14.232 84.82 13.078 87.925 9.231 3.105-3.846 27.477-59.35 31.709-62.674 6.347-4.808 20.964-8.078 21.349-5.962.385 2.115-11.733 4.039-15.387 8.655s-28.054 57.7-35.72 62.29c-7.666 4.588-64.323 12.227-92.898-7.886-13.739-9.617-19.042-67.483-29.813-70.56a30.829 30.829 0 0 0-17.31-.577c-6.732 4.423-16.156 53.442-36.351 65.944-7.996 4.973-70.89 17.063-89.602-2.5-35.005-36.517-24.427-69.215-35.72-74.023-7.803-3.297-9.424-7.309-9.232-10.194.193-2.885 2.5-.467 5.386 1.456zm.577-12.309c-3.655-1.346 15.771 6.732 22.943 6.237 7.171-.494 19.233-5.495 23.08-6.732 3.847-1.236-18.08 2.748-23.465 2.5-5.385-.247-20.443-1.263-22.558-2.005zm150.38 10.771c6.731 3.077 9.809 10.578 16.486 11.348 6.676.769 14.425 1.923 18.08-.193a102.57 102.57 0 0 1 15.441-7.446c2.748-.577-20.195 3.078-28.658 2.308-8.985-.88-18.85-5.633-21.35-6.017zm164.447 9.04c-2.747-1.154 10.167 9.424 14.014 8.847 3.846-.577 10.99-4.973 13.738-5.962 2.308-.77-9.232 2.308-12.694 1.73a108.038 108.038 0 0 1-15.058-4.615z" fill="#333333" fill-rule="nonzero" opacity=".3" style="mix-blend-mode:multiply"/>
    <path d="M146.093 130.734c17.118-16.926 57.866-11.156 65.285-9.617-48.936 3.545-49.815 7.2-58.36 15.854a100.235 100.235 0 0 0 4.753 48.304c-8.408-4.836-17.393-48.88-11.678-54.541zm299.853 18.19c-14.727-19.014-55.887-18.657-63.443-18.108 48.056 9.947 48.414 13.739 55.777 23.383a100.647 100.647 0 0 1-10.99 47.26c8.902-3.682 23.602-46.16 18.656-52.535z" fill="#333333" fill-rule="nonzero" opacity=".3" style="mix-blend-mode:multiply"/>
    <path d="M153.87 164.97c1.703-20.086 3.461-36.077 43-37.313 31.653-.99 56.905 6.43 60.641 14.04 2.336 4.781.495 26.158-15.36 45.666 10.277-9.15 26.488-44.896 19.427-49.458-25.773-16.486-76.935-16.925-95.976-10.084a36.27 36.27 0 0 0-12.777 9.315c-.494 5.028-.577 25.031 1.044 27.834z" fill="#D0DDDC" fill-rule="nonzero" style="mix-blend-mode:multiply"/>
    <path d="M155.078 166.316c6.018 38.825 77.182 27.037 81.414 25.499-.275 2.17-37.314 12.447-68.472.522-12.53-4.809-13.656-30.472-12.942-26.02zm278.257 16.019c.769-20.14.989-36.214-38.083-42.314-31.296-4.863-57.289-.577-61.905 6.485-2.913 4.478-3.71 25.91 9.644 47.232-9.094-10.331-20.8-47.81-13.216-51.436 27.477-13.244 78.5-7.364 96.47 1.758a35.885 35.885 0 0 1 11.54 10.826c-.137 5-2.472 24.866-4.45 27.45z" fill="#D0DDDC" fill-rule="nonzero" style="mix-blend-mode:multiply"/>
    <path d="M431.988 183.517c-10.743 37.808-79.902 17.392-83.914 15.332 0 2.198 35.5 16.925 67.868 8.902 13.024-3.215 17.283-28.576 16.046-24.234z" fill="#D0DDDC" fill-rule="nonzero" style="mix-blend-mode:multiply"/>
    <circle fill="#FFFFFF" fill-rule="nonzero" opacity=".25" style="mix-blend-mode:screen" cx="204.968" cy="150.372" r="2.52"/>
    <circle fill="#FFFFFF" fill-rule="nonzero" opacity=".25" style="mix-blend-mode:screen" cx="388.045" cy="161.143" r="2.52"/>
    <path d="M120.513 116.501c5.495 6.347 8.93 6.952 16.486 5.963 72.18-9.535 111.967-9.04 131.585 9.424 4.26 4.012 1.924-11.733-6.154-13.738-60.751-16.074-104.796-1.649-114.056-.495-9.26 1.154-16.129-.962-27.861-1.154zm199.233 9.232c-1.621 1.676-.934 18.382 6.924 12.117 22.696-18.08 70.203-13.738 103.285-2.747-5.495-10.386-43.963-17.695-65.78-17.31-10.22.22-39.95 3.38-44.429 7.94z" fill="#D0DDDC" fill-rule="nonzero" opacity=".1" style="mix-blend-mode:screen"/>
    <ellipse fill="#D0DDDC" fill-rule="nonzero" cx="448.969" cy="140.37" rx="8.078" ry="2.52"/>
    <path d="M144.637 118.919c0 .66-3.792.605-8.243 0-4.451-.604-7.858-1.896-7.748-2.583.11-.687 3.792-.632 8.243 0 4.451.632 7.858 1.896 7.748 2.583z" fill="#D0DDDC" fill-rule="nonzero"/>
    <path d="M593.304 490.404c-1.402-14.123-11.733-20.443-21.35-20.443-3.182.01-6.334.626-9.287 1.813l-1.896.825-1.593 1.181a41.023 41.023 0 0 1-9.754 5.33 54.761 54.761 0 0 1 .33-9.671v-.522c2.61-24.866-2.584-39.374-15.47-43.138a23.602 23.602 0 0 0-6.677-.935 34.099 34.099 0 0 0-19.234 7.034 22.201 22.201 0 0 0-17.997-7.473c-11.787 0-21.267 5.495-24.729 14.37-.33.852-.797 2.253-1.374 4.04a36.214 36.214 0 0 0-34.236-21.213 55.338 55.338 0 0 0-29.097 8.243l-.715.522a87.403 87.403 0 0 0-27.476 31.653 50.09 50.09 0 0 0-22.559-29.043l-.22-.137-.961-.577c12.172-21.652 22.943-50.365 16.486-77.677-6.87-29.152-24.015-33.521-33.604-33.521a36.819 36.819 0 0 0-12.172 2.198h-.522c-18.08 7.117-26.048 17.805-27.78 20.36a181.346 181.346 0 0 0-26.377 76.935 2056.77 2056.77 0 0 1-1.649 14.92 26.79 26.79 0 0 0-14.727-9.81 23.987 23.987 0 0 0-6.98-1.043c-9.973 0-18.161 6.127-22.475 10.193a21.047 21.047 0 0 0-16.486-9.232h-1.621a39.154 39.154 0 0 0-25.389 9.974 22.393 22.393 0 0 0-19.865-11.265h-3.407c-11.843 0-21.157 5.495-24.95 14.865a56.758 56.758 0 0 0-.96 2.747c-9.288-11.54-21.13-16.953-37.012-16.953h-1.594c-9.891.193-34.593 4.342-49.787 38.468a97.377 97.377 0 0 0-5.496 15.744 21.157 21.157 0 0 0-8.71-1.896 20.58 20.58 0 0 0-16.76 8.792c-2.364 3.462-9.81 15.635-6.155 27.477a21.487 21.487 0 0 0 13.051 13.738c5.688 2.226 12.86 4.397 18.3 5.963a61.987 61.987 0 0 0 19.838 24.564 45.639 45.639 0 0 0 28.246 8.49 104.054 104.054 0 0 0 39.236-9.15l.742-.33.193-.137a26.323 26.323 0 0 0 14.397 7.611 38.09 38.09 0 0 0 6.815.632c10.248 0 17.447-5.083 24.042-14.892a30.856 30.856 0 0 0 26.844 13.519c.632 0 1.292.33 1.979.33 6.1 0 13.738-2.254 20.168-12.503a29.455 29.455 0 0 0 26.652 14.92 50.035 50.035 0 0 0 20.855-5.083l.33-.165c3.462-1.84 6.292-3.407 8.6-4.753a71.44 71.44 0 0 0 33.686 8.682 65.12 65.12 0 0 0 7.309-.384h1.291c30.225-5.935 49.843-13.19 61.575-18.657a58.415 58.415 0 0 0 39.732 19.234c2.115.165 4.231.247 6.32.247a77.072 77.072 0 0 0 36.653-9.15 31.186 31.186 0 0 0 11.156 7.721 22.393 22.393 0 0 0 8.627 1.731c18.795 0 27.477-22.31 29.978-29.922l4.56-12.117a33.44 33.44 0 0 0 15.36 9.644 40.28 40.28 0 0 0 11.183 1.539c20.608 0 40.528-14.618 43.66-17.036a29.977 29.977 0 0 0 10.909-27.421z" fill="#FFFFFF" fill-rule="nonzero"/>
    <g transform="translate(493.777 521.326)">
      <circle fill="#FFFFFF" cx="16.358" cy="17.688" r="15.927"/>
      <path d="M16.399 8.326a9.322 9.322 0 0 1 9.321 9.362 9.362 9.362 0 1 1-9.32-9.362zm0 1.54a7.822 7.822 0 1 0 0 15.644 7.862 7.862 0 0 0 7.822-7.822 7.822 7.822 0 0 0-7.822-7.822zm.284 2.675a6.403 6.403 0 0 1 2.27.283c.469.18.867.507 1.134.933.286.46.427.997.405 1.54a2.472 2.472 0 0 1-.648 1.783c-.509.52-1.182.85-1.905.932.391.214.747.487 1.054.81.421.466.8.968 1.134 1.5l1.216 1.905h-2.35l-1.46-2.148c-.486-.73-1.013-1.216-1.013-1.419a1.783 1.783 0 0 0-.607-.405 2.837 2.837 0 0 0-.973 0h-.405v4.053H12.63V12.54zm.81 1.661h-2.958v2.473h1.418a7.011 7.011 0 0 0 1.783-.163.973.973 0 0 0 .568-.405c.132-.22.202-.472.202-.73a1.297 1.297 0 0 0-.243-.81 1.256 1.256 0 0 0-.77-.365z" fill="#E24C32" fill-rule="nonzero"/>
    </g>
    <path d="M578 491.942c-.935-9.452-9.453-5.935-9.453-5.935s-13.738 10.606-25.745 9.425c-12.008-1.182-8.243-28.136-8.243-28.136s2.747-24.73-4.479-26.762c-7.226-2.034-15.854 6.457-15.854 6.457a88.777 88.777 0 0 0-16.046 27.476l-1.43.467s1.65-26.927-.247-32.972c-1.4-3.05-14.397-2.747-16.486 2.61-2.088 5.359-12.501 43.249-13.216 59.075 0 0-20.333 17.256-38.055 20.086-17.722 2.83-21.981-8.243-21.981-8.243s48.221-13.464 46.71-51.986c-1.511-38.522-38.88-24.29-43.083-21.102-4.204 3.187-25.828 16.184-32.176 52.508-.22 1.236-.604 6.622-.604 6.622s-18.657 12.53-29.07 15.854c0 0 29.07-48.909-6.375-71.137-16.294-9.92-28.933 10.413-28.933 10.413s47.974-53.387 37.34-98.531c-5.082-21.487-15.798-23.795-25.662-20.333-14.975 5.935-20.663 14.673-20.663 14.673a164.86 164.86 0 0 0-23.987 69.928c-4.479 41.82-10.99 92.404-10.99 92.404s-9.205 8.957-17.696 9.452c-8.49.495-4.726-25.306-4.726-25.306s6.595-39.21 6.128-45.831c-.467-6.622-.934-10.167-8.738-12.53-7.803-2.363-16.403 7.557-16.403 7.557s-22.449 34.043-24.345 39.236l-1.181 2.116-1.182-1.401s15.827-46.326.715-47.013c-15.113-.687-25.06 16.486-25.06 16.486s-17.254 28.823-17.969 32.12l-1.181-1.429s7.226-33.494 5.687-41.764a7.584 7.584 0 0 0-9.232-6.594s-9.919-1.182-12.502 5.193c-2.583 6.374-12.062 48.66-13.243 62.152 0 0-24.73 17.695-41.215 17.942-16.486.247-14.646-10.331-14.646-10.331s59.762-20.47 43.469-60.888c-7.337-10.387-15.827-13.739-27.89-13.409-12.062.33-27.146 7.584-36.818 29.318a73.115 73.115 0 0 0-7.281 27.724s-10.332 2.115-16.02-2.61c-5.687-4.727-8.517 0-8.517 0s-9.7 13.875 0 17.64a197.557 197.557 0 0 0 24.729 7.006 46.05 46.05 0 0 0 17.228 25.36c17.722 13.464 51.738-1.95 51.738-1.95l13.931-8.243s.467 12.612 10.634 14.48c10.166 1.869 14.425-.137 32.147-43.138 10.386-21.982 10.991-20.828 10.991-20.828l1.181-.274s-8.05 42.039-4.973 53.387c3.078 11.348 16.486 10.166 16.486 10.166s7.336 1.951 13.244-18.821a283.999 283.999 0 0 1 17.53-43.166h1.401s-4.945 42.451 2.748 56.162c7.694 13.711 27.092 4.287 27.092 4.287a145.764 145.764 0 0 0 15.827-9.178 55.915 55.915 0 0 0 39.209 11.266c51.299-10.084 69.516-23.768 69.516-23.768a42.342 42.342 0 0 0 36.05 24.427 59.954 59.954 0 0 0 48.22-17.283s-.247 12.75 10.634 17.256 18.19-19.619 18.19-19.619l18.19-49.045h1.648s.962 31.488 18.904 36.68c17.942 5.194 41.215-12.72 41.215-12.72s5.825-3.683 4.863-13.135zm-508.32 4.644c.715-28.109 19.235-40.39 25.527-34.236 6.292 6.155 4.011 19.371-8.024 27.642-12.034 8.27-17.447 6.594-17.447 6.594h-.055zm239.9-108.89s16.788-43.716 20.8-22.449c4.011 21.267-35.226 84.601-35.226 84.601.495-14.205 14.426-62.152 14.426-62.152zm20.14 121.667c-10.99 29.07-38.055 17.255-38.055 17.255s-3.05-10.414 5.688-39.484c8.737-29.07 29.29-17.695 29.29-17.695s14.068 10.853 3.077 39.924zm74.434-12.777s-2.61-9.205 7.09-26.927c9.699-17.723 17.255-8.023 17.255-8.023s8.243 8.984-1.182 22.448a27.806 27.806 0 0 1-23.218 12.502h.055z" fill="#E24C32" fill-rule="nonzero"/>
  </g>
</svg>
