<svg width="256" height="67" viewBox="0 0 256 67" fill="none" xmlns="http://www.w3.org/2000/svg"><path fill-rule="evenodd" clip-rule="evenodd" d="M19.2209 33.0983L0 66.2232L19.2608 66.2631C29.8416 66.2764 47.175 66.2764 57.7691 66.2631L77.0299 66.2232L57.8356 33.1249C47.2813 14.9275 38.6014 0.013328 38.5482 3.5518e-05C38.4817 -0.0265495 29.7884 14.8743 19.2209 33.0983ZM48.9429 38.6413L59.2313 56.3868L48.8764 56.4267C43.174 56.4399 33.8426 56.4399 28.1535 56.4267L17.7986 56.3868L20.6831 51.4021L23.5809 46.4174L32.5666 46.3775C37.5247 46.3642 41.5656 46.3111 41.5656 46.2712C41.5656 46.2313 39.5584 42.7354 37.0993 38.5084L32.6463 30.812L35.5308 25.8273C37.1259 23.0758 38.4817 20.8427 38.5349 20.856C38.6014 20.8825 43.2803 28.8846 48.9429 38.6413ZM103.713 29.0904L103.708 29.1003C101.224 33.6785 99.523 36.8139 99.4143 37.0062L99.0953 37.5778H103.07H107.044L112.401 27.6748C115.365 22.2249 117.811 17.7719 117.864 17.7719C117.917 17.7719 120.363 22.2249 123.314 27.6748L128.684 37.5778H132.659H136.633L136.314 37.0062C136.206 36.8151 134.525 33.7169 132.066 29.1844L132.019 29.0982L132.018 29.0961L131.984 29.0339C130.526 26.3451 128.8 23.1643 126.97 19.7924C122.012 10.6472 117.917 3.1502 117.864 3.1502C117.824 3.1502 113.73 10.6472 108.759 19.7924C106.916 23.1879 105.179 26.3898 103.713 29.0904ZM142.191 37.578V21.627V5.67604H149.342C157.198 5.67604 158.155 5.7425 160.215 6.4603C165.014 8.10857 167.659 12.1229 167.406 17.3734C167.18 22.2119 164.389 25.761 159.657 27.2497C157.836 27.8213 156.134 28.0074 152.506 28.0074H149.236V32.7927V37.578H145.713H142.191ZM159.989 15.0605C159.444 13.5984 158.155 12.5615 156.44 12.2027C156.028 12.1229 154.367 12.0564 152.492 12.0564H149.236V16.9082V21.76H152.466C156.746 21.76 157.49 21.5871 158.846 20.3244C159.843 19.3806 160.175 18.6229 160.242 17.1076C160.282 16.0442 160.242 15.7252 159.989 15.0605ZM173.827 21.627V37.578H177.349H180.872V32.7927V28.0074H184.142C187.77 28.0074 189.472 27.8213 191.293 27.2497C196.025 25.761 198.816 22.2119 199.042 17.3734C199.295 12.1229 196.65 8.10857 191.851 6.4603C189.791 5.7425 188.834 5.67604 180.978 5.67604H173.827V21.627ZM188.076 12.2027C189.791 12.5615 191.08 13.5984 191.625 15.0605C191.878 15.7252 191.918 16.0442 191.878 17.1076C191.811 18.6229 191.479 19.3806 190.482 20.3244C189.126 21.5871 188.382 21.76 184.102 21.76H180.872V16.9082V12.0564H184.128C186.002 12.0564 187.664 12.1229 188.076 12.2027ZM204.931 37.578V21.627V5.67604H208.454H211.976V18.4368V31.1976H219.885H227.794V34.3878V37.578H216.363H204.931ZM224.909 6.16786C224.999 6.31431 225.8 7.58393 227.001 9.4892L227.007 9.49913L227.073 9.60277L227.119 9.6762C228.191 11.3764 229.561 13.5499 231.023 15.8714L236.832 25.0698V31.3305V37.578H240.288H243.744V31.2508V24.9236L249.673 15.6055C251.303 13.0444 252.809 10.6796 253.921 8.9345L253.94 8.9041L253.947 8.89392L253.965 8.86616L253.981 8.84087C255.057 7.1524 255.748 6.06653 255.801 5.98177L256 5.67604H252.026H248.038L244.196 12.0431C242.083 15.5524 240.328 18.397 240.288 18.3704C240.248 18.3438 238.534 15.4726 236.5 12.0033L232.791 5.67604H228.697H224.603L224.909 6.16786ZM147.973 55.0177C148.518 52.7181 150.286 50.8971 152.573 50.2856C153.45 50.0463 154.952 50.0198 155.909 50.2191C156.733 50.3919 158.036 50.9901 158.607 51.4421C158.98 51.7478 158.98 51.7744 158.78 52.0801C158.661 52.2529 158.355 52.6384 158.102 52.9175L157.664 53.4359L157.092 53.0239C155.789 52.0801 153.849 51.8674 152.533 52.5055C151.589 52.9707 150.791 53.848 150.419 54.8449C150.021 55.9083 150.1 57.6762 150.579 58.713C151.217 60.0689 152.4 60.893 153.968 61.0525C154.872 61.1456 156.188 60.8664 156.906 60.4278L157.345 60.1486V58.9656V57.7826H155.75H154.154V56.7856V55.7887H156.813H159.471V58.5004V61.212L158.514 61.8235C155.524 63.7376 151.589 63.4319 149.489 61.1323C148 59.4973 147.442 57.2642 147.973 55.0177ZM218.993 56.48L215.591 62.7674L216.667 62.8073C217.252 62.8339 217.797 62.8206 217.89 62.794C217.97 62.7541 219.02 60.9064 220.216 58.66C221.426 56.4269 222.436 54.6058 222.476 54.6058C222.516 54.6058 223.526 56.4269 224.723 58.66C225.919 60.8932 226.982 62.7541 227.062 62.7807C227.142 62.8206 227.7 62.8339 228.285 62.8073L229.362 62.7674L225.959 56.48C224.098 53.0373 222.529 50.206 222.476 50.206C222.436 50.206 220.868 53.0373 218.993 56.48ZM103.109 62.8337V56.5863V50.3388H105.941C109.091 50.3388 109.889 50.4584 111.244 51.1496C112.281 51.6681 113.464 52.8511 113.903 53.7948C115.352 56.9053 114.209 60.4544 111.258 62.0096C109.982 62.6875 109.011 62.8337 105.874 62.8337H103.109ZM112.148 56.7059C112.148 54.8051 111.351 53.4758 109.782 52.758C109.118 52.4523 108.812 52.4124 107.203 52.3593L105.369 52.2928V56.5863V60.8665L107.27 60.8133C108.812 60.7734 109.264 60.7069 109.769 60.481C110.646 60.0822 111.284 59.4707 111.749 58.5536C112.095 57.8491 112.148 57.5965 112.148 56.7059ZM129.961 56.5861V62.8336H131.024H132.088V56.5861V50.3387H131.024H129.961V56.5861ZM175.42 62.8336V56.5861V50.3387H176.484H177.547V56.5861V62.8336H176.484H175.42ZM193.498 51.3357V52.3194L195.466 52.3593L197.42 52.3991L197.46 57.6098L197.486 62.8337H198.55H199.613L199.64 57.6098L199.679 52.3991L201.647 52.3593L203.601 52.3194V51.3357V50.3388H198.55H193.498V51.3357ZM244.542 62.8336V56.5861V50.3387H245.672H246.802V55.5892V60.8397H250.059H253.315V61.8367V62.8336H248.929H244.542Z" fill="white" style="fill:white;fill-opacity:1;"/></svg>