<svg width="256" height="67" viewBox="0 0 256 67" fill="none" xmlns="http://www.w3.org/2000/svg"><path fill-rule="evenodd" clip-rule="evenodd" d="M19.2209 33.0983L0 66.2232L19.2608 66.2631C29.8416 66.2764 47.175 66.2764 57.7691 66.2631L77.0299 66.2232L57.8356 33.1249C47.2813 14.9275 38.6014 0.013328 38.5482 3.5518e-05C38.4817 -0.0265495 29.7884 14.8743 19.2209 33.0983ZM48.9429 38.6413L59.2313 56.3868L48.8764 56.4267C43.174 56.4399 33.8426 56.4399 28.1535 56.4267L17.7986 56.3868L20.6831 51.4021L23.5809 46.4174L32.5666 46.3775C37.5247 46.3642 41.5656 46.3111 41.5656 46.2712C41.5656 46.2313 39.5584 42.7354 37.0993 38.5084L32.6463 30.812L35.5308 25.8273C37.1259 23.0758 38.4817 20.8427 38.5349 20.856C38.6014 20.8825 43.2803 28.8846 48.9429 38.6413ZM103.713 29.0904L103.708 29.1003C101.224 33.6785 99.523 36.8139 99.4143 37.0062L99.0953 37.5778H103.07H107.044L112.401 27.6748C115.365 22.2249 117.811 17.7719 117.864 17.7719C117.917 17.7719 120.363 22.2249 123.314 27.6748L128.684 37.5778H132.659H136.633L136.314 37.0062C136.206 36.8151 134.525 33.7169 132.066 29.1844L132.019 29.0982L132.018 29.0961L131.984 29.0339C130.526 26.3451 128.8 23.1643 126.97 19.7924C122.012 10.6472 117.917 3.1502 117.864 3.1502C117.824 3.1502 113.73 10.6472 108.759 19.7924C106.916 23.1879 105.179 26.3898 103.713 29.0904ZM142.191 37.5779V21.6269V5.67591H149.342C157.198 5.67591 158.155 5.74237 160.215 6.46017C165.014 8.10844 167.659 12.1228 167.406 17.3733C167.18 22.2118 164.389 25.7609 159.657 27.2496C157.836 27.8212 156.134 28.0073 152.506 28.0073H149.236V32.7926V37.5779H145.713H142.191ZM159.989 15.0604C159.444 13.5982 158.155 12.5614 156.44 12.2025C156.028 12.1228 154.367 12.0563 152.492 12.0563H149.236V16.9081V21.7598H152.466C156.746 21.7598 157.49 21.587 158.846 20.3242C159.843 19.3805 160.175 18.6228 160.242 17.1075C160.282 16.0441 160.242 15.725 159.989 15.0604ZM173.827 21.6269V37.5779H177.349H180.872V32.7926V28.0073H184.142C187.77 28.0073 189.472 27.8212 191.293 27.2496C196.025 25.7609 198.816 22.2118 199.042 17.3733C199.295 12.1228 196.65 8.10844 191.851 6.46017C189.791 5.74237 188.834 5.67591 180.978 5.67591H173.827V21.6269ZM188.076 12.2025C189.791 12.5614 191.08 13.5982 191.625 15.0604C191.878 15.725 191.918 16.0441 191.878 17.1075C191.811 18.6228 191.479 19.3805 190.482 20.3242C189.126 21.587 188.382 21.7598 184.102 21.7598H180.872V16.9081V12.0563H184.128C186.002 12.0563 187.664 12.1228 188.076 12.2025ZM204.931 37.5779V21.6269V5.67591H208.454H211.976V18.4367V31.1975H219.885H227.794V34.3877V37.5779H216.363H204.931ZM224.909 6.16773C224.999 6.31418 225.8 7.5838 227.001 9.48907L227.007 9.499L227.069 9.59713C228.148 11.3088 229.538 13.5137 231.023 15.8712L236.832 25.0697V31.3304V37.5779H240.288H243.744V31.2507V24.9234L249.673 15.6054C251.303 13.0442 252.809 10.6795 253.921 8.93437L253.94 8.90397L253.947 8.89379L253.965 8.86603L253.981 8.84074C255.057 7.15227 255.748 6.0664 255.801 5.98164L256 5.67591H252.026H248.038L244.196 12.043C242.083 15.5522 240.328 18.3968 240.288 18.3702C240.248 18.3437 238.534 15.4725 236.5 12.0031L232.791 5.67591H228.697H224.603L224.909 6.16773ZM147.973 55.0177C148.518 52.7181 150.286 50.8971 152.573 50.2856C153.45 50.0463 154.952 50.0198 155.909 50.2191C156.733 50.3919 158.036 50.9901 158.607 51.4421C158.98 51.7478 158.98 51.7744 158.78 52.0801C158.661 52.2529 158.355 52.6384 158.102 52.9175L157.664 53.4359L157.092 53.0239C155.789 52.0801 153.849 51.8674 152.533 52.5055C151.589 52.9707 150.791 53.848 150.419 54.8449C150.021 55.9083 150.1 57.6762 150.579 58.713C151.217 60.0689 152.4 60.893 153.968 61.0525C154.872 61.1456 156.188 60.8664 156.906 60.4278L157.345 60.1486V58.9656V57.7826H155.75H154.154V56.7856V55.7887H156.813H159.471V58.5004V61.212L158.514 61.8235C155.524 63.7376 151.589 63.4319 149.489 61.1323C148 59.4973 147.442 57.2642 147.973 55.0177ZM218.993 56.4799L215.591 62.7673L216.667 62.8071C217.252 62.8337 217.797 62.8204 217.89 62.7938C217.97 62.754 219.02 60.9063 220.216 58.6599C221.426 56.4267 222.436 54.6057 222.476 54.6057C222.516 54.6057 223.526 56.4267 224.723 58.6599C225.919 60.893 226.982 62.754 227.062 62.7806C227.142 62.8204 227.7 62.8337 228.285 62.8071L229.362 62.7673L225.959 56.4799C224.098 53.0372 222.529 50.2059 222.476 50.2059C222.436 50.2059 220.868 53.0372 218.993 56.4799ZM103.109 62.8339V56.5864V50.3389H105.941C109.091 50.3389 109.889 50.4586 111.244 51.1498C112.281 51.6682 113.464 52.8512 113.903 53.795C115.352 56.9054 114.209 60.4545 111.258 62.0097C109.982 62.6877 109.011 62.8339 105.874 62.8339H103.109ZM112.148 56.706C112.148 54.8052 111.351 53.476 109.782 52.7582C109.118 52.4524 108.812 52.4126 107.203 52.3594L105.369 52.2929V56.5864V60.8666L107.27 60.8134C108.812 60.7735 109.264 60.7071 109.769 60.4811C110.646 60.0823 111.284 59.4709 111.749 58.5537C112.095 57.8492 112.148 57.5966 112.148 56.706ZM129.961 56.5861V62.8336H131.024H132.088V56.5861V50.3387H131.024H129.961V56.5861ZM175.42 62.8336V56.5861V50.3387H176.484H177.547V56.5861V62.8336H176.484H175.42ZM193.498 51.3359V52.3195L195.466 52.3594L197.42 52.3993L197.46 57.6099L197.486 62.8339H198.55H199.613L199.64 57.6099L199.679 52.3993L201.647 52.3594L203.601 52.3195V51.3359V50.3389H198.55H193.498V51.3359ZM244.542 62.8336V56.5861V50.3387H245.672H246.802V55.5892V60.8397H250.059H253.315V61.8367V62.8336H248.929H244.542Z" fill="black" style="fill:black;fill-opacity:1;"/></svg>