<svg width="338" height="99" viewBox="0 0 338 99" fill="none" xmlns="http://www.w3.org/2000/svg"><g clip-path="url(#a)"><path d="M107.918 62.3897C107.918 51.8559 116.69 47.8763 127.733 47.8763H138.464C139.247 47.8763 139.639 47.4856 139.639 46.7056V45.0674C139.639 39.3714 135.332 36.6406 128.987 36.6406C124.052 36.6406 120.685 38.2801 118.882 41.7909C118.256 43.0398 117.707 43.5073 116.377 43.5073H111.756C110.268 43.5073 109.562 42.7272 109.562 41.5565C109.562 41.0096 109.719 40.2296 110.345 38.9039C113.322 32.7404 119.118 28.7607 129.927 28.7607C141.988 28.7607 149.117 34.0673 149.117 45.6924V64.9655C149.117 66.9163 149.821 67.3851 151.466 67.3851H151.544C153.11 67.3851 153.893 68.1651 153.893 69.7252V73.6267C153.893 75.1868 153.11 75.9669 151.544 75.9669H148.803C144.337 75.9669 142.067 74.7962 140.656 71.7528C140.421 71.2059 140.264 71.0509 139.952 71.0509C139.639 71.0509 139.403 71.2072 138.777 71.7528C135.252 74.8743 130.866 76.5125 124.991 76.5125C116.062 76.5125 107.916 72.3766 107.916 62.3897H107.918ZM139.639 57.0831V56.3031C139.639 55.523 139.247 55.1324 138.464 55.1324H126.715C121.233 55.1324 117.395 57.1613 117.395 61.9991C117.395 66.8369 121.311 68.8658 126.011 68.8658C133.296 68.8658 139.639 64.3392 139.639 57.0831Z" fill="white" style="fill:white;fill-opacity:1;"/><path d="M157.811 55.6012V31.6466C157.811 30.0865 158.594 29.3065 160.16 29.3065H164.937C166.503 29.3065 167.287 30.0865 167.287 31.6466V54.7431C167.287 62.2335 170.028 67.7733 177.86 67.7733C186.164 67.7733 190.079 61.2191 190.079 53.6505V31.6453C190.079 30.0852 190.862 29.3052 192.428 29.3052H197.206C198.772 29.3052 199.555 30.0852 199.555 31.6453V73.6255C199.555 75.1856 198.772 75.9656 197.206 75.9656H192.898C191.488 75.9656 190.705 75.2637 190.47 73.8586L190.077 71.7516C189.999 71.2828 189.764 71.0497 189.373 71.0497C189.06 71.0497 188.825 71.206 188.434 71.5966C185.222 74.4837 181.306 76.5126 175.51 76.5126C163.213 76.5126 157.808 67.6951 157.808 55.6012H157.811Z" fill="white" style="fill:white;fill-opacity:1;"/><path d="M208.331 63.248V15.9624C208.331 14.4024 209.114 13.6223 210.68 13.6223H215.458C217.024 13.6223 217.807 14.4024 217.807 15.9624V28.1345C217.807 28.9145 218.199 29.3052 218.982 29.3052H232.846C234.412 29.3052 235.195 30.0852 235.195 31.6453V35.5468C235.195 37.1069 234.412 37.8882 232.846 37.8882H218.982C218.199 37.8882 217.807 38.2789 217.807 39.0589V62.3898C217.807 65.8225 219.373 67.3839 222.897 67.3839H233.785C235.351 67.3839 236.134 68.1639 236.134 69.724V73.6255C236.134 75.1856 235.351 75.9656 233.785 75.9656H222.428C212.637 75.9656 208.33 72.0641 208.33 63.2467L208.331 63.248Z" fill="white" style="fill:white;fill-opacity:1;"/><path d="M242.637 73.6255V15.9624C242.637 14.4024 243.42 13.6223 244.986 13.6223H249.764C251.33 13.6223 252.113 14.4024 252.113 15.9624V34.143C252.113 34.6118 252.425 34.923 252.817 34.923C253.053 34.923 253.287 34.8449 253.993 34.2211C257.438 31.0997 261.198 28.7595 267.543 28.7595C279.761 28.7595 285.245 37.3426 285.245 49.9834V73.6268C285.245 75.1869 284.462 75.9669 282.896 75.9669H278.118C276.552 75.9669 275.769 75.1869 275.769 73.6268V50.4522C275.769 43.1948 272.949 37.4988 265.274 37.4988C257.049 37.4988 252.115 44.1311 252.115 53.4955V73.6268C252.115 75.1869 251.332 75.9669 249.766 75.9669H244.989C243.423 75.9669 242.64 75.1869 242.64 73.6268L242.637 73.6255Z" fill="white" style="fill:white;fill-opacity:1;"/><path d="M291.198 44.8331C291.198 23.6874 299.421 13.0754 314.147 13.0754C328.872 13.0754 337.095 23.6874 337.095 44.8331C337.095 65.9788 328.871 76.5126 314.147 76.5126C299.423 76.5126 291.198 65.9007 291.198 44.8331ZM302.712 51.9342L323.468 28.994C323.782 28.6033 323.938 28.3702 323.938 27.8233C323.938 27.4326 323.859 26.9651 323.312 26.2619C321.197 23.6874 318.221 21.8147 314.148 21.8147C305.532 21.8147 300.676 29.6178 300.676 44.9112C300.676 47.0951 300.755 49.0471 301.068 51.6998C301.147 52.1686 301.381 52.4798 301.773 52.4798C302.008 52.4798 302.322 52.4017 302.713 51.9342H302.712ZM327.619 44.6768C327.619 42.4917 327.54 40.5409 327.227 37.8883C327.148 37.4195 326.914 37.1082 326.522 37.1082C326.287 37.1082 325.973 37.1864 325.582 37.6552L304.825 60.5954C304.513 60.986 304.356 61.2191 304.356 61.7661C304.356 62.1567 304.435 62.6242 304.982 63.3262C307.097 65.9007 310.072 67.7733 314.147 67.7733C322.763 67.7733 327.618 59.9703 327.618 44.6768H327.619Z" fill="white" style="fill:white;fill-opacity:1;"/><path d="M5.28782 42.6981C21.4161 40.0531 34.0561 27.4597 36.7125 11.3926L38.0046 3.57934C38.2528 2.06792 37.0069 0.734548 35.473 0.851106C23.193 1.79766 11.6201 5.84774 5.22868 8.45814C2.12492 9.72747 0.0947418 12.7324 0.0947418 16.0767V40.7743C0.0947418 42.2267 1.39848 43.3321 2.8385 43.0965L5.28782 42.6968V42.6981Z" fill="white" style="fill:white;fill-opacity:1;"/><path d="M44.4911 11.3939C47.1462 27.461 59.7875 40.0532 75.9158 42.6994L78.3651 43.0991C79.8051 43.3347 81.1089 42.2294 81.1089 40.7769V16.0793C81.1089 12.7337 79.0787 9.73008 75.9749 8.46075C69.5835 5.84523 58.0055 1.80027 45.7306 0.853718C44.1967 0.735879 42.9457 2.06541 43.199 3.58195L44.4911 11.3952V11.3939Z" fill="white" style="fill:white;fill-opacity:1;"/><path d="M75.9145 50.4409C59.7862 53.0859 47.1462 65.6793 44.4899 81.7464L42.8788 96.9963C42.731 98.372 44.2661 99.3416 45.422 98.5718C45.4336 98.5654 45.44 98.5603 45.4516 98.5539C55.5665 91.7576 78.6403 73.9678 80.9237 51.7461C81.0356 50.6523 80.0623 49.7595 78.9758 49.935L75.9184 50.4345L75.9119 50.4409H75.9145Z" fill="white" style="fill:white;fill-opacity:1;"/><path d="M36.7125 81.7464C34.0574 65.6793 21.4161 53.0871 5.28782 50.4409L2.0002 49.9003C1.03204 49.7415 0.165459 50.5408 0.259317 51.5168C2.42449 73.8627 25.8171 91.764 36.0207 98.5718C37.0776 99.2711 38.4752 98.4309 38.3402 97.1731L36.7112 81.7464H36.7125Z" fill="white" style="fill:white;fill-opacity:1;"/></g><defs><clipPath id="a"><rect width="338" height="99" fill="white" style="fill:white;fill-opacity:1;"/></clipPath></defs></svg>