<svg width="338" height="99" viewBox="0 0 338 99" fill="none" xmlns="http://www.w3.org/2000/svg"><g clip-path="url(#a)"><path d="M107.855 62.3897C107.855 51.8559 116.628 47.8763 127.671 47.8763H138.402C139.185 47.8763 139.577 47.4856 139.577 46.7056V45.0674C139.577 39.3714 135.27 36.6406 128.925 36.6406C123.99 36.6406 120.623 38.2801 118.82 41.7909C118.194 43.0398 117.645 43.5073 116.314 43.5073H111.693C110.206 43.5073 109.5 42.7272 109.5 41.5565C109.5 41.0096 109.657 40.2296 110.283 38.9039C113.259 32.7404 119.055 28.7607 129.864 28.7607C141.926 28.7607 149.054 34.0673 149.054 45.6924V64.9655C149.054 66.9163 149.759 67.3851 151.403 67.3851H151.481C153.047 67.3851 153.831 68.1651 153.831 69.7252V73.6267C153.831 75.1868 153.047 75.9669 151.481 75.9669H148.74C144.275 75.9669 142.004 74.7962 140.594 71.7528C140.359 71.2059 140.202 71.0509 139.889 71.0509C139.577 71.0509 139.34 71.2072 138.714 71.7528C135.19 74.8743 130.803 76.5125 124.928 76.5125C115.999 76.5125 107.854 72.3766 107.854 62.3897H107.855ZM139.577 57.0831V56.3031C139.577 55.523 139.185 55.1324 138.402 55.1324H126.653C121.17 55.1324 117.332 57.1613 117.332 61.9991C117.332 66.8369 121.249 68.8658 125.948 68.8658C133.233 68.8658 139.577 64.3392 139.577 57.0831Z" fill="black" style="fill:black;fill-opacity:1;"/><path d="M157.748 55.6012V31.6466C157.748 30.0865 158.531 29.3065 160.097 29.3065H164.875C166.441 29.3065 167.224 30.0865 167.224 31.6466V54.7431C167.224 62.2335 169.965 67.7733 177.798 67.7733C186.101 67.7733 190.016 61.2191 190.016 53.6505V31.6453C190.016 30.0852 190.799 29.3052 192.365 29.3052H197.143C198.709 29.3052 199.492 30.0852 199.492 31.6453V73.6255C199.492 75.1856 198.709 75.9656 197.143 75.9656H192.836C191.425 75.9656 190.642 75.2637 190.407 73.8586L190.015 71.7516C189.937 71.2828 189.701 71.0497 189.31 71.0497C188.998 71.0497 188.763 71.206 188.372 71.5966C185.16 74.4837 181.244 76.5126 175.448 76.5126C163.151 76.5126 157.746 67.6951 157.746 55.6012H157.748Z" fill="black" style="fill:black;fill-opacity:1;"/><path d="M208.268 63.248V15.9624C208.268 14.4024 209.052 13.6223 210.618 13.6223H215.395C216.961 13.6223 217.744 14.4024 217.744 15.9624V28.1345C217.744 28.9145 218.137 29.3052 218.92 29.3052H232.784C234.35 29.3052 235.133 30.0852 235.133 31.6453V35.5468C235.133 37.1069 234.35 37.8882 232.784 37.8882H218.92C218.137 37.8882 217.744 38.2789 217.744 39.0589V62.3898C217.744 65.8225 219.31 67.3839 222.835 67.3839H233.722C235.288 67.3839 236.071 68.1639 236.071 69.724V73.6255C236.071 75.1856 235.288 75.9656 233.722 75.9656H222.365C212.574 75.9656 208.267 72.0641 208.267 63.2467L208.268 63.248Z" fill="black" style="fill:black;fill-opacity:1;"/><path d="M242.574 73.6255V15.9624C242.574 14.4024 243.357 13.6223 244.924 13.6223H249.701C251.267 13.6223 252.05 14.4024 252.05 15.9624V34.143C252.05 34.6118 252.363 34.923 252.755 34.923C252.99 34.923 253.224 34.8449 253.93 34.2211C257.376 31.0997 261.135 28.7595 267.48 28.7595C279.699 28.7595 285.182 37.3426 285.182 49.9834V73.6268C285.182 75.1869 284.399 75.9669 282.833 75.9669H278.056C276.49 75.9669 275.707 75.1869 275.707 73.6268V50.4522C275.707 43.1948 272.887 37.4988 265.211 37.4988C256.986 37.4988 252.053 44.1311 252.053 53.4955V73.6268C252.053 75.1869 251.27 75.9669 249.704 75.9669H244.926C243.36 75.9669 242.577 75.1869 242.577 73.6268L242.574 73.6255Z" fill="black" style="fill:black;fill-opacity:1;"/><path d="M291.135 44.8331C291.135 23.6874 299.359 13.0754 314.084 13.0754C328.81 13.0754 337.032 23.6874 337.032 44.8331C337.032 65.9788 328.809 76.5126 314.084 76.5126C299.36 76.5126 291.135 65.9007 291.135 44.8331ZM302.649 51.9342L323.406 28.994C323.72 28.6033 323.875 28.3702 323.875 27.8233C323.875 27.4326 323.797 26.9651 323.249 26.2619C321.134 23.6874 318.159 21.8147 314.086 21.8147C305.47 21.8147 300.614 29.6178 300.614 44.9112C300.614 47.0951 300.692 49.0471 301.006 51.6998C301.084 52.1686 301.318 52.4798 301.711 52.4798C301.946 52.4798 302.26 52.4017 302.65 51.9342H302.649ZM327.556 44.6768C327.556 42.4917 327.478 40.5409 327.164 37.8883C327.086 37.4195 326.852 37.1082 326.46 37.1082C326.224 37.1082 325.911 37.1864 325.52 37.6552L304.763 60.5954C304.45 60.986 304.294 61.2191 304.294 61.7661C304.294 62.1567 304.372 62.6242 304.92 63.3262C307.035 65.9007 310.01 67.7733 314.084 67.7733C322.7 67.7733 327.555 59.9703 327.555 44.6768H327.556Z" fill="black" style="fill:black;fill-opacity:1;"/><path d="M5.22532 42.6981C21.3536 40.0531 33.9936 27.4597 36.65 11.3926L37.9421 3.57934C38.1903 2.06792 36.9444 0.734548 35.4105 0.851106C23.1305 1.79766 11.5576 5.84774 5.16618 8.45814C2.06242 9.72747 0.0322418 12.7324 0.0322418 16.0767V40.7743C0.0322418 42.2267 1.33598 43.3321 2.776 43.0965L5.22532 42.6968V42.6981Z" fill="black" style="fill:black;fill-opacity:1;"/><path d="M44.4286 11.3939C47.0837 27.461 59.725 40.0532 75.8533 42.6994L78.3026 43.0991C79.7426 43.3347 81.0464 42.2294 81.0464 40.7769V16.0793C81.0464 12.7337 79.0162 9.73008 75.9124 8.46075C69.521 5.84523 57.943 1.80027 45.6681 0.853718C44.1342 0.735879 42.8832 2.06541 43.1365 3.58195L44.4286 11.3952V11.3939Z" fill="black" style="fill:black;fill-opacity:1;"/><path d="M75.852 50.4409C59.7237 53.0859 47.0837 65.6793 44.4274 81.7464L42.8163 96.9963C42.6685 98.372 44.2036 99.3416 45.3595 98.5718C45.3711 98.5654 45.3775 98.5603 45.3891 98.5539C55.504 91.7576 78.5778 73.9678 80.8612 51.7461C80.9731 50.6523 79.9998 49.7595 78.9133 49.935L75.8559 50.4345L75.8494 50.4409H75.852Z" fill="black" style="fill:black;fill-opacity:1;"/><path d="M36.65 81.7464C33.9949 65.6793 21.3536 53.0871 5.22532 50.4409L1.9377 49.9003C0.969543 49.7415 0.102959 50.5408 0.196817 51.5168C2.36199 73.8627 25.7546 91.764 35.9582 98.5718C37.0151 99.2711 38.4127 98.4309 38.2777 97.1731L36.6487 81.7464H36.65Z" fill="black" style="fill:black;fill-opacity:1;"/></g><defs><clipPath id="a"><rect width="338" height="99" fill="white" style="fill:white;fill-opacity:1;"/></clipPath></defs></svg>