<svg width="180" height="108" viewBox="0 0 180 108" fill="none" xmlns="http://www.w3.org/2000/svg"><path d="M51.1578 39.3158C51.1578 41.5066 51.3947 43.2829 51.8092 44.5856C52.2828 45.8882 52.8749 47.3093 53.7039 48.8487C53.9999 49.3224 54.1184 49.7961 54.1184 50.2106C54.1184 50.8027 53.7631 51.3948 52.9934 51.9869L49.2631 54.4737C48.7302 54.829 48.1973 55.0066 47.7236 55.0066C47.1315 55.0066 46.5394 54.7106 45.9473 54.1777C45.1184 53.2895 44.4078 52.3422 43.8157 51.3948C43.2236 50.3882 42.6315 49.2632 41.9802 47.9014C37.3618 53.3487 31.5592 56.0724 24.5723 56.0724C19.5986 56.0724 15.6315 54.6514 12.7302 51.8093C9.8289 48.9672 8.34863 45.1777 8.34863 40.4408C8.34863 35.4079 10.1249 31.3224 13.7368 28.2435C17.3486 25.1645 22.1447 23.6251 28.2434 23.6251C30.2565 23.6251 32.3289 23.8027 34.5197 24.0987C36.7105 24.3948 38.9605 24.8685 41.3289 25.4014V21.079C41.3289 16.579 40.3815 13.4408 38.546 11.6053C36.6513 9.76979 33.4539 8.88163 28.8947 8.88163C26.8223 8.88163 24.6907 9.11847 22.4999 9.65137C20.3092 10.1843 18.1776 10.8356 16.1052 11.6645C15.1578 12.079 14.4473 12.3158 14.0328 12.4343C13.6184 12.5527 13.3223 12.6119 13.0855 12.6119C12.2565 12.6119 11.8421 12.0198 11.8421 10.7764V7.87505C11.8421 6.92768 11.9605 6.21716 12.2565 5.80268C12.5526 5.38821 13.0855 4.97374 13.9144 4.55926C15.9868 3.49347 18.4736 2.60531 21.3749 1.89479C24.2763 1.12505 27.3552 0.769788 30.6118 0.769788C37.6578 0.769788 42.8092 2.36847 46.125 5.56584C49.3815 8.76321 51.0394 13.6185 51.0394 20.1316V39.3158H51.1578ZM27.1184 48.3158C29.0723 48.3158 31.0855 47.9606 33.2171 47.2501C35.3486 46.5395 37.2434 45.2369 38.8421 43.4606C39.7894 42.3356 40.5 41.0922 40.8552 39.6711C41.2105 38.2501 41.4473 36.5329 41.4473 34.5198V32.0329C39.7302 31.6185 37.8947 31.2632 35.9999 31.0264C34.1052 30.7895 32.2697 30.6711 30.4342 30.6711C26.4671 30.6711 23.5657 31.4408 21.6118 33.0395C19.6578 34.6382 18.7105 36.8882 18.7105 39.8487C18.7105 42.6316 19.421 44.704 20.9013 46.1251C22.3223 47.6053 24.3947 48.3158 27.1184 48.3158ZM74.6644 54.7106C73.5986 54.7106 72.8881 54.5329 72.4144 54.1185C71.9407 53.7632 71.5263 52.9343 71.171 51.8093L57.2565 6.03953C56.9013 4.85531 56.7236 4.08558 56.7236 3.6711C56.7236 2.72374 57.1973 2.19084 58.1447 2.19084H63.9473C65.0723 2.19084 65.8421 2.36847 66.2565 2.78295C66.7302 3.13821 67.0855 3.96716 67.4407 5.09216L77.3881 44.2895L86.6249 5.09216C86.921 3.90795 87.2763 3.13821 87.7499 2.78295C88.2236 2.42768 89.0526 2.19084 90.1184 2.19084H94.8552C95.9802 2.19084 96.7499 2.36847 97.2236 2.78295C97.6973 3.13821 98.1118 3.96716 98.3486 5.09216L107.704 44.7632L117.947 5.09216C118.303 3.90795 118.717 3.13821 119.132 2.78295C119.605 2.42768 120.375 2.19084 121.441 2.19084H126.947C127.895 2.19084 128.428 2.66453 128.428 3.6711C128.428 3.96716 128.368 4.26321 128.309 4.61847C128.25 4.97374 128.132 5.44742 127.895 6.09874L113.625 51.8685C113.27 53.0527 112.855 53.8224 112.382 54.1777C111.908 54.5329 111.138 54.7698 110.132 54.7698H105.039C103.914 54.7698 103.145 54.5922 102.671 54.1777C102.197 53.7632 101.783 52.9935 101.546 51.8093L92.3684 13.6185L83.25 51.7501C82.9539 52.9343 82.5986 53.704 82.1249 54.1185C81.6513 54.5329 80.8223 54.7106 79.7565 54.7106H74.6644ZM150.75 56.3093C147.671 56.3093 144.592 55.954 141.632 55.2435C138.671 54.5329 136.362 53.7632 134.822 52.8751C133.875 52.3422 133.224 51.7501 132.987 51.2172C132.75 50.6843 132.632 50.0922 132.632 49.5593V46.5395C132.632 45.2961 133.105 44.704 133.993 44.704C134.349 44.704 134.704 44.7632 135.059 44.8816C135.414 45.0001 135.947 45.2369 136.539 45.4737C138.553 46.3619 140.743 47.0724 143.053 47.5461C145.421 48.0198 147.73 48.2566 150.099 48.2566C153.829 48.2566 156.73 47.6053 158.743 46.3027C160.757 45 161.822 43.1053 161.822 40.6777C161.822 39.0198 161.289 37.6579 160.224 36.5329C159.158 35.4079 157.145 34.4014 154.243 33.454L145.658 30.7895C141.335 29.4277 138.138 27.4145 136.184 24.7501C134.23 22.1448 133.224 19.2435 133.224 16.1645C133.224 13.6777 133.757 11.4869 134.822 9.59216C135.888 7.69742 137.309 6.03953 139.085 4.73689C140.862 3.37505 142.875 2.36847 145.243 1.65795C147.612 0.94742 150.099 0.651367 152.704 0.651367C154.007 0.651367 155.368 0.710578 156.671 0.888209C158.033 1.06584 159.276 1.30268 160.52 1.53953C161.704 1.83558 162.829 2.13163 163.895 2.48689C164.96 2.84216 165.789 3.19742 166.382 3.55268C167.21 4.02637 167.803 4.50005 168.158 5.03295C168.513 5.50663 168.691 6.15795 168.691 6.98689V9.76979C168.691 11.0132 168.217 11.6645 167.329 11.6645C166.855 11.6645 166.085 11.4277 165.079 10.954C161.704 9.41453 157.914 8.64479 153.71 8.64479C150.335 8.64479 147.671 9.17768 145.835 10.3027C144 11.4277 143.053 13.1448 143.053 15.5724C143.053 17.2303 143.645 18.6514 144.829 19.7764C146.013 20.9014 148.204 22.0264 151.342 23.0329L159.75 25.6974C164.013 27.0593 167.092 28.954 168.928 31.3816C170.763 33.8093 171.651 36.5922 171.651 39.6711C171.651 42.2172 171.118 44.5264 170.112 46.5395C169.046 48.5527 167.625 50.329 165.789 51.7501C163.954 53.2303 161.763 54.2961 159.217 55.0658C156.553 55.8948 153.77 56.3093 150.75 56.3093Z" fill="white" style="fill:white;fill-opacity:1;"/><path fill-rule="evenodd" clip-rule="evenodd" d="M161.941 85.0855C142.461 99.4737 114.159 107.112 89.823 107.112C55.7178 107.112 24.9875 94.5 1.77698 73.5395C-0.0585508 71.8816 1.59934 69.6316 3.79013 70.9342C28.8954 85.5 59.8625 94.3224 91.8954 94.3224C113.507 94.3224 137.251 89.8224 159.099 80.5855C162.356 79.1053 165.139 82.7171 161.941 85.0855Z" fill="white" style="fill:white;fill-opacity:1;"/><path fill-rule="evenodd" clip-rule="evenodd" d="M170.052 75.8487C167.565 72.6513 153.592 74.3092 147.256 75.079C145.361 75.3158 145.065 73.6579 146.782 72.4145C157.914 64.5987 176.21 66.8487 178.342 69.454C180.473 72.1184 177.749 90.4145 167.328 99.1776C165.73 100.539 164.19 99.8289 164.901 98.0526C167.269 92.1908 172.539 78.9868 170.052 75.8487Z" fill="white" style="fill:white;fill-opacity:1;"/></svg>