<svg width="321" height="73" viewBox="0 0 321 73" fill="none" xmlns="http://www.w3.org/2000/svg"><path fill-rule="evenodd" clip-rule="evenodd" d="M98.4818 39.9707C96.4759 37.2294 93.1997 35.0229 88.3187 35.0229C80.6295 35.0229 74.2776 40.3051 74.2108 48.596C74.2108 56.82 80.4958 62.169 88.2518 62.169C92.3973 62.169 95.8073 60.6312 98.4149 58.2242V71.5298C98.4149 71.9978 98.0806 72.3321 97.6126 72.3321H0.795957C-0.00639045 72.3321 -0.273838 71.396 0.327923 70.8611L36.233 44.5842V61.1661C36.233 61.5004 36.5004 61.701 36.7679 61.701H50.4746C55.4893 61.701 58.0969 58.5585 58.0969 54.5467C58.0969 51.7385 56.4922 49.3983 54.2858 48.4623C53.9515 48.3285 53.9515 47.8605 54.2858 47.7268C56.2248 46.8576 57.6289 44.8517 57.6289 42.1103C57.6289 38.6335 55.0881 35.4241 50.0735 35.4241H48.8031L97.0108 0.187678C97.6126 -0.280358 98.4818 0.187677 98.4818 0.923162V39.9707ZM68.6612 61.701C68.9286 61.701 69.1292 61.5004 69.1292 61.233V35.8921C69.1292 35.6247 68.9286 35.4241 68.6612 35.4241H64.0477C63.7802 35.4241 63.5797 35.6247 63.5797 35.8921V61.233C63.5797 61.5004 63.7802 61.701 64.0477 61.701H68.6612ZM48.8704 45.8547H42.3847C42.1173 45.8547 41.8498 45.6541 41.8498 45.3867V40.6394C41.8498 40.5057 41.9836 40.372 42.1173 40.372H48.8704C50.7425 40.372 51.946 41.5086 51.946 43.1133C51.946 44.7849 50.7425 45.8547 48.8704 45.8547ZM42.3847 56.8201H49.1378C51.2106 56.8201 52.4809 55.6834 52.4809 53.8113C52.4809 52.1397 51.2774 50.8025 49.1378 50.8025H42.3847C42.1173 50.8025 41.8498 51.0031 41.8498 51.3374V56.2852C41.8498 56.5526 42.1173 56.8201 42.3847 56.8201ZM88.3181 39.9707C90.8588 39.9707 92.9984 41.308 94.2688 42.9795C94.4025 43.1801 94.7369 43.3138 95.0043 43.247L98.548 41.308V47.2587H87.5157C87.2483 47.2587 86.9808 47.4593 86.9808 47.7936V51.5379C86.9808 51.8053 87.1814 52.0728 87.5157 52.0728H93.4665C93.6671 52.0728 93.8676 52.2734 93.8676 52.474V55.0147C93.8676 55.1485 93.8008 55.2822 93.7339 55.349C92.5973 56.2851 90.5245 57.2212 88.3181 57.2212C83.504 57.2212 80.0271 53.5438 80.0271 48.596C80.0271 43.6481 83.504 39.9707 88.3181 39.9707ZM102.627 48.5961C102.627 40.5058 108.444 35.0231 115.932 35.0231C120.813 35.0231 123.956 37.497 125.828 40.5058C125.962 40.7064 125.895 41.0407 125.627 41.1076L122.619 42.7122C122.418 42.846 122.151 42.7791 122.084 42.5785C120.813 40.5727 118.473 39.1017 115.932 39.1017C110.918 39.1017 107.173 43.0466 107.173 48.5961C107.173 54.0788 110.918 58.0906 115.932 58.0906C118.473 58.0906 120.813 56.6196 122.084 54.6137C122.217 54.4131 122.418 54.3463 122.619 54.48L125.627 56.0178C125.895 56.1516 125.962 56.419 125.828 56.6865C123.889 59.6953 120.746 62.236 115.932 62.236C108.444 62.1692 102.627 56.6196 102.627 48.5961ZM137.797 35.491C132.181 36.962 128.436 42.0435 128.436 48.596C128.436 56.4189 133.785 62.1691 141.408 62.2359C147.893 62.2359 152.774 58.0236 154.045 51.8723C156.117 41.9098 147.358 32.9502 137.797 35.491ZM141.341 39.1016C146.422 39.1016 149.766 43.1802 149.766 48.596C149.766 53.945 146.489 58.0905 141.341 58.0905C136.192 58.0905 132.916 54.0119 132.916 48.596C132.916 43.1802 136.192 39.1016 141.341 39.1016ZM181.59 61.3667V41.3749L173.634 61.5005C173.634 61.5673 173.5 61.6342 173.433 61.6342H171.761C171.695 61.6342 171.561 61.5673 171.561 61.5005L163.537 41.3749V61.3667C163.537 61.5673 163.404 61.701 163.203 61.701H159.191C158.991 61.701 158.857 61.5673 158.857 61.3667V35.6916C158.857 35.491 158.991 35.3573 159.191 35.3573H164.942C165.209 35.3573 165.41 35.491 165.543 35.7585L172.564 53.8113L179.518 35.7585C179.584 35.491 179.852 35.3573 180.119 35.3573H185.869C186.07 35.3573 186.204 35.491 186.204 35.6916V61.3667C186.204 61.5673 186.07 61.701 185.869 61.701H181.858C181.791 61.701 181.59 61.5673 181.59 61.3667ZM227.059 35.8921V61.2329C227.059 61.5003 227.259 61.7009 227.527 61.5003H244.577C244.844 61.5003 245.045 61.2998 245.045 61.0323V57.9566C245.045 57.6892 244.844 57.4886 244.577 57.4886H232.14C231.873 57.4886 231.672 57.288 231.672 57.0206V50.6686C231.672 50.4012 231.873 50.2006 232.14 50.2006H244.309C244.577 50.2006 244.777 50 244.777 49.7326V46.6569C244.777 46.3895 244.577 46.1889 244.309 46.1889H232.14C231.873 46.1889 231.672 45.9883 231.672 45.7208V39.9038C231.672 39.6364 231.873 39.4358 232.14 39.4358H244.577C244.844 39.4358 245.045 39.2352 245.045 38.9677V35.8921C245.045 35.6246 244.844 35.424 244.577 35.424H227.527C227.259 35.424 227.059 35.6246 227.059 35.8921ZM266.44 61.4335L260.891 52.0728C260.824 51.9391 260.623 51.8722 260.489 51.8722H256.611C256.344 51.8722 256.143 52.0728 256.143 52.3403V61.2329C256.143 61.5004 255.943 61.701 255.675 61.701H252.065C251.797 61.701 251.597 61.5004 251.597 61.2329V35.8921C251.597 35.6247 251.797 35.4241 252.065 35.4241H263.164C268.379 35.4241 271.789 38.7672 271.789 43.6482C271.789 47.9942 269.115 50.4681 266.173 51.2036C265.838 51.2705 265.705 51.6048 265.838 51.9391C266.908 53.6775 270.251 59.0265 271.522 60.9655C271.722 61.2998 271.522 61.701 271.121 61.701H266.908C266.708 61.701 266.574 61.6341 266.44 61.4335ZM267.042 43.5813C267.042 41.0405 265.17 39.4358 262.562 39.4358H256.678C256.411 39.4358 256.21 39.6364 256.21 39.9039V47.3256C256.21 47.593 256.411 47.7936 256.678 47.7936H262.562C265.17 47.7936 267.042 46.1889 267.042 43.5813ZM302.946 35.8921V61.2329C302.946 61.5003 303.146 61.7009 303.414 61.8347H320.531C320.798 61.8347 320.999 61.6341 320.999 61.3666V58.2241C320.999 57.9566 320.798 57.7561 320.531 57.7561H308.027C307.76 57.7561 307.559 57.5555 307.559 57.288V50.8692C307.559 50.6018 307.76 50.4012 308.027 50.4012H320.196C320.464 50.4012 320.664 50.2006 320.664 49.9332V46.7906C320.664 46.5232 320.464 46.3226 320.196 46.3226H308.027C307.76 46.3226 307.559 46.122 307.559 45.8546V39.9707C307.559 39.7032 307.76 39.5026 308.027 39.5026H320.531C320.798 39.5026 320.999 39.3021 320.999 39.0346V35.8921C320.999 35.6246 320.798 35.424 320.531 35.424H303.414C303.146 35.424 302.946 35.6246 302.946 35.8921ZM275.132 48.4624C275.132 40.3721 280.949 34.8894 288.437 34.8894C293.318 34.8894 296.461 37.3633 298.333 40.3721C298.467 40.5727 298.4 40.907 298.132 40.9738L295.124 42.5785C294.923 42.7122 294.656 42.6454 294.589 42.4448C293.318 40.4389 290.978 38.968 288.437 38.968C283.423 38.968 279.678 42.9128 279.678 48.4624C279.678 53.9451 283.423 57.9569 288.437 57.9569C290.978 57.9569 293.318 56.4859 294.589 54.48C294.722 54.2794 294.923 54.2126 295.124 54.3463L298.132 55.8841C298.4 56.0178 298.467 56.2853 298.333 56.5527C296.394 59.5615 293.251 62.1023 288.437 62.1023C280.949 62.0354 275.132 56.5527 275.132 48.4624ZM215.692 41.3747V61.3666C215.692 61.5671 215.825 61.7009 215.959 61.7009H219.971C220.171 61.7009 220.305 61.5671 220.305 61.3666V35.6914C220.305 35.4908 220.171 35.3571 219.971 35.3571H214.221C213.953 35.3571 213.686 35.4909 213.619 35.7583L206.665 53.8111L199.645 35.7583C199.511 35.4909 199.31 35.3571 199.043 35.3571H193.293C193.092 35.3571 192.958 35.4908 192.958 35.6914V61.3666C192.958 61.5671 193.092 61.7009 193.293 61.7009H197.304C197.505 61.7009 197.639 61.5671 197.639 61.3666V41.3747L205.662 61.5003C205.662 61.5672 205.796 61.634 205.863 61.634H207.534C207.601 61.634 207.735 61.5672 207.735 61.5003L215.692 41.3747Z" fill="black" style="fill:black;fill-opacity:1;"/></svg>