<svg width="321" height="73" viewBox="0 0 321 73" fill="none" xmlns="http://www.w3.org/2000/svg"><path fill-rule="evenodd" clip-rule="evenodd" d="M98.4818 39.9707C96.4759 37.2294 93.1997 35.0229 88.3187 35.0229C80.6295 35.0229 74.2776 40.3051 74.2108 48.596C74.2108 56.82 80.4958 62.169 88.2518 62.169C92.3973 62.169 95.8073 60.6312 98.4149 58.2242V71.5298C98.4149 71.9978 98.0806 72.3321 97.6126 72.3321H0.795957C-0.00639045 72.3321 -0.273838 71.396 0.327923 70.8611L36.233 44.5842V61.1661C36.233 61.5004 36.5004 61.701 36.7679 61.701H50.4746C55.4893 61.701 58.0969 58.5585 58.0969 54.5467C58.0969 51.7385 56.4922 49.3983 54.2858 48.4623C53.9515 48.3285 53.9515 47.8605 54.2858 47.7268C56.2248 46.8576 57.6289 44.8517 57.6289 42.1103C57.6289 38.6335 55.0881 35.4241 50.0735 35.4241H48.8031L97.0108 0.187678C97.6126 -0.280358 98.4818 0.187677 98.4818 0.923162V39.9707ZM68.6612 61.701C68.9286 61.701 69.1292 61.5004 69.1292 61.233V35.8921C69.1292 35.6247 68.9286 35.4241 68.6612 35.4241H64.0477C63.7802 35.4241 63.5797 35.6247 63.5797 35.8921V61.233C63.5797 61.5004 63.7802 61.701 64.0477 61.701H68.6612ZM48.8704 45.8547H42.3847C42.1173 45.8547 41.8498 45.6541 41.8498 45.3867V40.6394C41.8498 40.5057 41.9836 40.372 42.1173 40.372H48.8704C50.7425 40.372 51.946 41.5086 51.946 43.1133C51.946 44.7849 50.7425 45.8547 48.8704 45.8547ZM42.3847 56.8201H49.1378C51.2106 56.8201 52.4809 55.6834 52.4809 53.8113C52.4809 52.1397 51.2774 50.8025 49.1378 50.8025H42.3847C42.1173 50.8025 41.8498 51.0031 41.8498 51.3374V56.2852C41.8498 56.5526 42.1173 56.8201 42.3847 56.8201ZM88.3181 39.9706C90.8588 39.9706 92.9984 41.3078 94.2688 42.9794C94.4025 43.18 94.7369 43.3137 95.0043 43.2468L98.548 41.3078V47.2586H87.5157C87.2483 47.2586 86.9808 47.4592 86.9808 47.7935V51.5378C86.9808 51.8052 87.1814 52.0727 87.5157 52.0727H93.4665C93.6671 52.0727 93.8676 52.2733 93.8676 52.4739V55.0146C93.8676 55.1483 93.8008 55.2821 93.7339 55.3489C92.5973 56.285 90.5245 57.2211 88.3181 57.2211C83.504 57.2211 80.0271 53.5436 80.0271 48.5958C80.0271 43.648 83.504 39.9706 88.3181 39.9706ZM102.627 48.596C102.627 40.5057 108.444 35.023 115.932 35.023C120.813 35.023 123.956 37.4969 125.828 40.5057C125.962 40.7062 125.895 41.0406 125.627 41.1074L122.619 42.7121C122.418 42.8458 122.151 42.779 122.084 42.5784C120.813 40.5725 118.473 39.1016 115.932 39.1016C110.918 39.1016 107.173 43.0464 107.173 48.596C107.173 54.0787 110.918 58.0904 115.932 58.0904C118.473 58.0904 120.813 56.6195 122.084 54.6136C122.217 54.413 122.418 54.3462 122.619 54.4799L125.627 56.0177C125.895 56.1514 125.962 56.4189 125.828 56.6863C123.889 59.6951 120.746 62.2359 115.932 62.2359C108.444 62.169 102.627 56.6195 102.627 48.596ZM137.797 35.491C132.181 36.9619 128.436 42.0435 128.436 48.596C128.436 56.4189 133.785 62.169 141.408 62.2359C147.893 62.2359 152.774 58.0236 154.045 51.8722C156.117 41.9098 147.358 32.9502 137.797 35.491ZM141.341 39.1015C146.422 39.1015 149.766 43.1801 149.766 48.596C149.766 53.945 146.489 58.0904 141.341 58.0904C136.192 58.0904 132.916 54.0118 132.916 48.596C132.916 43.1801 136.192 39.1015 141.341 39.1015ZM181.59 61.3666V41.3747L173.634 61.5003C173.634 61.5672 173.5 61.634 173.433 61.634H171.761C171.695 61.634 171.561 61.5672 171.561 61.5003L163.537 41.3747V61.3666C163.537 61.5672 163.404 61.7009 163.203 61.7009H159.191C158.991 61.7009 158.857 61.5672 158.857 61.3666V35.6914C158.857 35.4909 158.991 35.3571 159.191 35.3571H164.942C165.209 35.3571 165.41 35.4909 165.543 35.7583L172.564 53.8111L179.518 35.7583C179.584 35.4909 179.852 35.3571 180.119 35.3571H185.869C186.07 35.3571 186.204 35.4909 186.204 35.6914V61.3666C186.204 61.5672 186.07 61.7009 185.869 61.7009H181.858C181.791 61.7009 181.59 61.5672 181.59 61.3666ZM227.059 35.8923V61.2331C227.059 61.5006 227.259 61.7012 227.527 61.5006H244.577C244.844 61.5006 245.045 61.3 245.045 61.0325V57.9569C245.045 57.6894 244.844 57.4888 244.577 57.4888H232.14C231.873 57.4888 231.672 57.2882 231.672 57.0208V50.6689C231.672 50.4014 231.873 50.2008 232.14 50.2008H244.309C244.577 50.2008 244.777 50.0003 244.777 49.7328V46.6571C244.777 46.3897 244.577 46.1891 244.309 46.1891H232.14C231.873 46.1891 231.672 45.9885 231.672 45.7211V39.904C231.672 39.6366 231.873 39.436 232.14 39.436H244.577C244.844 39.436 245.045 39.2354 245.045 38.968V35.8923C245.045 35.6249 244.844 35.4243 244.577 35.4243H227.527C227.259 35.4243 227.059 35.6249 227.059 35.8923ZM266.44 61.4337L260.891 52.0729C260.824 51.9392 260.623 51.8723 260.489 51.8723H256.611C256.344 51.8723 256.143 52.0729 256.143 52.3404V61.2331C256.143 61.5005 255.943 61.7011 255.675 61.7011H252.065C251.797 61.7011 251.597 61.5005 251.597 61.2331V35.8923C251.597 35.6248 251.797 35.4242 252.065 35.4242H263.164C268.379 35.4242 271.789 38.7673 271.789 43.6483C271.789 47.9943 269.115 50.4682 266.173 51.2037C265.838 51.2706 265.705 51.6049 265.838 51.9392C266.908 53.6776 270.251 59.0266 271.522 60.9656C271.722 61.2999 271.522 61.7011 271.121 61.7011H266.908C266.708 61.7011 266.574 61.6342 266.44 61.4337ZM267.042 43.5814C267.042 41.0407 265.17 39.436 262.562 39.436H256.678C256.411 39.436 256.21 39.6366 256.21 39.904V47.3257C256.21 47.5932 256.411 47.7938 256.678 47.7938H262.562C265.17 47.7938 267.042 46.1891 267.042 43.5814ZM302.946 35.8923V61.2331C302.946 61.5006 303.146 61.7012 303.414 61.8349H320.531C320.798 61.8349 320.999 61.6343 320.999 61.3668V58.2243C320.999 57.9569 320.798 57.7563 320.531 57.7563H308.027C307.76 57.7563 307.559 57.5557 307.559 57.2882V50.8695C307.559 50.602 307.76 50.4014 308.027 50.4014H320.196C320.464 50.4014 320.664 50.2008 320.664 49.9334V46.7909C320.664 46.5234 320.464 46.3228 320.196 46.3228H308.027C307.76 46.3228 307.559 46.1222 307.559 45.8548V39.9709C307.559 39.7035 307.76 39.5029 308.027 39.5029H320.531C320.798 39.5029 320.999 39.3023 320.999 39.0348V35.8923C320.999 35.6249 320.798 35.4243 320.531 35.4243H303.414C303.146 35.4243 302.946 35.6249 302.946 35.8923ZM275.132 48.4619C275.132 40.3716 280.949 34.8889 288.437 34.8889C293.318 34.8889 296.461 37.3628 298.333 40.3716C298.467 40.5722 298.4 40.9065 298.132 40.9733L295.124 42.578C294.923 42.7118 294.656 42.6449 294.589 42.4443C293.318 40.4384 290.978 38.9675 288.437 38.9675C283.423 38.9675 279.678 42.9123 279.678 48.4619C279.678 53.9446 283.423 57.9564 288.437 57.9564C290.978 57.9564 293.318 56.4854 294.589 54.4795C294.722 54.2789 294.923 54.2121 295.124 54.3458L298.132 55.8836C298.4 56.0173 298.467 56.2848 298.333 56.5523C296.394 59.5611 293.251 62.1018 288.437 62.1018C280.949 62.035 275.132 56.5523 275.132 48.4619ZM215.692 41.3747V61.3666C215.692 61.5671 215.825 61.7009 215.959 61.7009H219.971C220.171 61.7009 220.305 61.5671 220.305 61.3666V35.6914C220.305 35.4908 220.171 35.3571 219.971 35.3571H214.221C213.953 35.3571 213.686 35.4909 213.619 35.7583L206.665 53.8111L199.645 35.7583C199.511 35.4909 199.31 35.3571 199.043 35.3571H193.293C193.092 35.3571 192.958 35.4908 192.958 35.6914V61.3666C192.958 61.5671 193.092 61.7009 193.293 61.7009H197.304C197.505 61.7009 197.639 61.5671 197.639 61.3666V41.3747L205.662 61.5003C205.662 61.5672 205.796 61.634 205.863 61.634H207.534C207.601 61.634 207.735 61.5672 207.735 61.5003L215.692 41.3747Z" fill="white" style="fill:white;fill-opacity:1;"/></svg>