
<svg width="16" height="16" viewBox="0 0 16 16" fill="none" xmlns="http://www.w3.org/2000/svg">
  <defs>
    <symbol id='box' viewBox="0 0 16 16">
      <path fill-rule="evenodd" clip-rule="evenodd" d="M8 0.154663L8.34601 0.334591L14.596 3.58459L15 3.79466V4.25V11.75V12.2053L14.596 12.4154L8.34601 15.6654L8 15.8453L7.65399 15.6654L1.40399 12.4154L1 12.2053V11.75V4.25V3.79466L1.40399 3.58459L7.65399 0.334591L8 0.154663ZM2.5 11.2947V5.44058L7.25 7.81559V13.7647L2.5 11.2947ZM8.75 13.7647L13.5 11.2947V5.44056L8.75 7.81556V13.7647ZM8 1.84534L12.5766 4.22519L7.99998 6.51352L3.42335 4.2252L8 1.84534Z" fill="currentColor"/>
    </symbol>
  </defs>
</svg>