<svg width="219" height="54" viewBox="0 0 219 54" fill="none" xmlns="http://www.w3.org/2000/svg"><path fill-rule="evenodd" clip-rule="evenodd" d="M198.22 53.6408H191.055L179.965 43.4796H189.38L193.964 47.4858L205.355 14.8718H212.944L198.215 53.6469L198.22 53.6408Z" fill="white" style="fill:white;fill-opacity:1;"/><path d="M65.4416 13.7064C66.6992 12.8626 68.1747 12.4377 69.8677 12.4377C70.805 12.4377 71.6757 12.5713 72.4738 12.8384C73.2841 13.1054 73.9976 13.4878 74.6143 13.9916C75.2311 14.4954 75.739 15.1025 76.1321 15.8187C76.5251 16.5228 76.7851 17.3301 76.9121 18.2406H83.9081C83.6843 16.3347 83.1704 14.6472 82.3722 13.1722C81.5861 11.6972 80.5642 10.4528 79.3066 9.43308C78.0488 8.40725 76.6037 7.62422 74.9771 7.09007C73.3566 6.55591 71.6031 6.28882 69.7045 6.28882C66.8262 6.28882 64.2382 6.95045 61.9406 8.27978C59.6428 9.59697 57.8167 11.509 56.4745 14.022C55.1321 16.535 54.4609 19.5821 54.4609 23.1634C54.4609 26.7447 55.1199 29.7737 56.4442 32.2867C57.7744 34.7996 59.5885 36.7177 61.8741 38.041C64.1718 39.3643 66.7839 40.032 69.7045 40.032C71.8027 40.032 73.6832 39.7163 75.346 39.085C77.021 38.4416 78.454 37.5797 79.6572 36.4871C80.8726 35.3884 81.8341 34.1381 82.5476 32.748C83.2732 31.3458 83.7266 29.8951 83.9081 28.3836L76.9121 28.3532C76.7548 29.2273 76.4646 30.0103 76.0473 30.6963C75.6423 31.3822 75.1344 31.965 74.5116 32.4444C73.8948 32.9179 73.1873 33.276 72.3892 33.5189C71.6031 33.7677 70.7445 33.8891 69.8193 33.8891C68.1686 33.8891 66.7175 33.4824 65.4597 32.6691C64.202 31.8557 63.2224 30.6538 62.521 29.0635C61.8317 27.4732 61.481 25.5003 61.481 23.1634C61.481 20.8265 61.8257 18.9508 62.521 17.3605C63.2165 15.758 64.19 14.5379 65.4476 13.7064H65.4416Z" fill="white" style="fill:white;fill-opacity:1;"/><path d="M104.284 15.7579C103.014 15.0113 101.533 14.635 99.8278 14.635C97.9655 14.635 96.4115 15.0538 95.1779 15.8854C93.9444 16.7109 93.0494 17.846 92.4933 19.3027H92.2029V6.75H85.5879V39.5948H92.3964V25.3546C92.4086 24.2984 92.6081 23.3939 93.0012 22.6473C93.4063 21.8886 93.9625 21.3119 94.6639 20.9175C95.3775 20.5228 96.1998 20.3225 97.1249 20.3225C98.5096 20.3225 99.5859 20.7475 100.354 21.5912C101.134 22.4349 101.515 23.6186 101.503 25.136V39.6009H108.311V23.916C108.323 21.9918 107.973 20.3408 107.259 18.9628C106.558 17.5729 105.566 16.5106 104.29 15.77L104.284 15.7579Z" fill="white" style="fill:white;fill-opacity:1;"/><path d="M129.185 17.749C128.139 16.7109 126.917 15.934 125.509 15.4241C124.112 14.902 122.606 14.6411 120.986 14.6411C118.579 14.6411 116.481 15.1751 114.691 16.2435C112.914 17.3118 111.535 18.8051 110.555 20.7171C109.576 22.6291 109.086 24.8569 109.086 27.3881C109.086 29.9193 109.576 32.238 110.555 34.138C111.535 36.0318 112.932 37.4946 114.74 38.5326C116.56 39.5584 118.736 40.0744 121.258 40.0744C123.284 40.0744 125.067 39.7648 126.609 39.1456C128.163 38.5144 129.433 37.6403 130.412 36.5174C131.404 35.3822 132.057 34.0589 132.378 32.5415L126.083 32.1226C125.847 32.7418 125.509 33.2639 125.061 33.6947C124.614 34.1196 124.076 34.4413 123.447 34.6599C122.818 34.8724 122.129 34.9816 121.373 34.9816C120.236 34.9816 119.25 34.7388 118.416 34.2593C117.582 33.7797 116.941 33.0939 116.481 32.2076C116.034 31.3214 115.81 30.2653 115.81 29.0513V29.033H132.523V27.1575C132.523 25.0633 132.232 23.2362 131.646 21.6701C131.059 20.098 130.243 18.7929 129.185 17.7549V17.749ZM116.263 24.7901C116.306 23.9038 116.529 23.0965 116.941 22.3682C117.388 21.5669 118.005 20.9296 118.797 20.4622C119.595 19.9827 120.514 19.7398 121.542 19.7398C122.57 19.7398 123.398 19.9584 124.148 20.3954C124.904 20.8203 125.497 21.4151 125.92 22.174C126.343 22.9327 126.561 23.8068 126.561 24.7901H116.263Z" fill="white" style="fill:white;fill-opacity:1;"/><path d="M142.656 20.8264C143.443 20.2497 144.367 19.9584 145.419 19.9584C146.665 19.9584 147.675 20.3408 148.437 21.0995C149.217 21.8461 149.694 22.8355 149.875 24.0678H156.298C156.2 22.1618 155.686 20.5047 154.749 19.0964C153.812 17.6822 152.536 16.5895 150.934 15.8065C149.326 15.0234 147.452 14.635 145.31 14.635C142.831 14.635 140.691 15.1752 138.889 16.2557C137.087 17.3239 135.696 18.8172 134.717 20.7292C133.749 22.6353 133.266 24.8447 133.266 27.3698C133.266 29.895 133.743 32.0619 134.705 33.9801C135.672 35.8921 137.057 37.3915 138.859 38.4719C140.667 39.5402 142.831 40.0744 145.347 40.0744C147.529 40.0744 149.422 39.6737 151.019 38.8725C152.614 38.0713 153.867 36.9605 154.773 35.534C155.693 34.1014 156.2 32.4444 156.309 30.5626H149.888C149.76 31.4307 149.489 32.1712 149.071 32.7904C148.666 33.3973 148.152 33.8647 147.524 34.1864C146.907 34.5081 146.206 34.666 145.432 34.666C144.38 34.666 143.454 34.3746 142.668 33.7979C141.883 33.2214 141.265 32.3837 140.83 31.2789C140.407 30.1802 140.189 28.8387 140.189 27.2727C140.189 25.7067 140.407 24.4016 140.842 23.309C141.277 22.2165 141.888 21.3908 142.663 20.8203L142.656 20.8264Z" fill="white" style="fill:white;fill-opacity:1;"/><path d="M180.545 14.9567H172.546L164.685 24.3044H164.317V6.75H157.508V39.5948H164.317V31.7766L166.161 29.6643L172.849 39.6009H187.354V6.75H180.545V14.9627V14.9567ZM171.252 25.6277L180.545 14.987V39.1942L171.252 25.6277Z" fill="white" style="fill:white;fill-opacity:1;"/><path d="M195.008 14.9568H187.855L195.008 37.6342L198.642 27.3396L195.008 14.9568Z" fill="white" style="fill:white;fill-opacity:1;"/><path d="M10.0293 21.9432C9.85391 21.9797 9.68461 22.0282 9.53344 22.1254C9.04971 22.4349 9.16459 23.1512 9.20692 23.6429C9.28553 24.5716 9.48507 25.5063 9.73298 26.4168C9.90228 27.0482 10.1079 27.6794 10.3739 28.2804C10.6763 27.813 11.0028 27.382 11.3535 26.9935C11.6377 26.6717 11.9279 26.3743 12.2182 26.1073C13.8084 24.6322 15.3926 23.8917 15.3926 23.8917C13.8628 22.787 12.0005 21.5183 10.0293 21.9432Z" fill="white" style="fill:white;fill-opacity:1;"/><path d="M38.1407 21.9432C38.3161 21.9797 38.4854 22.0282 38.6366 22.1254C39.1203 22.4349 39.0053 23.1512 38.963 23.6429C38.8845 24.5716 38.6849 25.5063 38.437 26.4168C38.2677 27.0482 38.0621 27.6794 37.796 28.2804C37.4938 27.813 37.1672 27.382 36.8166 26.9935C36.5323 26.6717 36.2421 26.3743 35.9518 26.1073C34.3615 24.6322 32.7773 23.8917 32.7773 23.8917C34.3072 22.787 36.1695 21.5183 38.1407 21.9432Z" fill="white" style="fill:white;fill-opacity:1;"/><path d="M43.8969 2.99875C40.94 0.0305176 36.1753 0.0305176 26.6579 0.0305176H21.5121C11.9948 0.0305176 7.23003 0.0305176 4.27321 2.99875C1.31641 5.96697 1.31641 10.7501 1.31641 20.3043V23.6671C1.31641 33.2273 1.31641 38.0045 4.27321 40.9726C4.78718 41.4886 5.36766 41.9317 6.00256 42.2838C6.68582 42.6662 7.42957 42.9455 8.18539 43.1579C8.57238 43.2672 8.96541 43.3582 9.36449 43.431C9.43101 43.4431 10.0599 43.5524 10.338 43.6071L10.471 43.6313C10.471 43.6313 10.471 43.6253 10.471 43.6131C10.471 43.5828 10.4831 43.5221 10.4831 43.5099C10.4831 43.4917 10.4831 43.4735 10.4892 43.4613C10.5013 43.3643 10.5194 43.2672 10.5255 43.2307C10.5436 43.1214 10.5617 43.0182 10.5799 42.9151C10.5799 42.8848 10.592 42.8544 10.598 42.824L10.5799 42.8058C7.23003 40.0622 5.69418 35.3033 5.69418 35.3033C6.97001 35.2547 8.3668 34.6235 8.3668 34.6235C9.16495 34.3443 10.1022 33.7554 10.2654 32.8571C10.3561 32.3593 10.1505 31.9102 9.91474 31.4853C9.17705 30.162 8.66308 28.7173 8.27004 27.2606C7.87702 25.7917 7.5505 24.2862 7.42352 22.7809C7.35701 21.9918 7.1756 20.8384 7.95563 20.3347C8.19748 20.1768 8.47563 20.0979 8.75378 20.0373C11.9343 19.3513 14.9455 21.3969 17.4126 23.1754C17.4428 23.1633 17.467 23.1512 17.4973 23.139C17.6666 23.054 17.8479 22.9751 18.0294 22.9145C18.3257 22.8113 18.6279 22.7263 18.9303 22.6655C20.3512 22.2953 22.1047 22.0767 24.0034 22.0767C24.0276 22.0767 24.0578 22.0767 24.082 22.0767C24.1062 22.0767 24.1365 22.0767 24.1606 22.0767C26.0654 22.0767 27.8189 22.2892 29.2337 22.6655C29.5361 22.7323 29.8385 22.8113 30.1348 22.9145C30.3161 22.9813 30.4915 23.054 30.6669 23.139C30.697 23.1512 30.7273 23.1633 30.7515 23.1754C33.2185 21.3969 36.2297 19.3452 39.4102 20.0373C39.6884 20.0979 39.9726 20.1768 40.2085 20.3347C40.9824 20.8384 40.801 21.9918 40.7406 22.7809C40.6196 24.2862 40.287 25.7917 39.8939 27.2606C39.501 28.7234 38.987 30.162 38.2493 31.4853C38.0135 31.9102 37.8079 32.3593 37.8987 32.8571C38.0619 33.7554 38.9991 34.3443 39.7972 34.6235C39.7972 34.6235 41.194 35.2547 42.4699 35.3033C42.4699 35.3033 40.934 40.0622 37.5841 42.8058L37.566 42.824C37.566 42.824 37.5782 42.8848 37.5841 42.9151C37.6024 43.0182 37.6205 43.1214 37.6386 43.2307C37.6386 43.2672 37.6567 43.3643 37.6749 43.4613C37.6749 43.4797 37.6749 43.4978 37.681 43.5099C37.681 43.5099 37.693 43.5888 37.693 43.6131C37.693 43.6192 37.693 43.6253 37.693 43.6313L37.826 43.6071C38.0981 43.5585 38.7271 43.4431 38.7995 43.431C39.1986 43.3582 39.5917 43.2672 39.9786 43.1579C40.7345 42.9455 41.4722 42.6662 42.1616 42.2838C42.7964 41.9317 43.3768 41.4886 43.8908 40.9726C46.8477 38.0045 46.8477 33.2273 46.8477 23.6671V20.3043C46.8477 10.7441 46.8477 5.96697 43.8908 2.99875H43.8969Z" fill="white" style="fill:white;fill-opacity:1;"/><path d="M18.2236 44.5478C18.2297 44.5053 18.2419 44.475 18.2478 44.4387L18.399 43.7709C18.4656 43.5099 18.5321 43.2488 18.6107 42.9939C18.8042 42.3506 19.04 41.701 19.4995 41.2154C20.0196 40.6692 20.7512 40.3899 21.4406 40.0925C22.1298 39.789 22.8434 39.4127 23.2122 38.757C23.575 38.1137 23.5387 37.2942 23.2364 36.6266C23.0368 36.1956 22.7405 35.8193 22.3959 35.4975C22.2024 35.3154 21.9908 35.1576 21.7731 35.0059C20.0255 33.8221 17.6675 33.6219 15.7386 34.4778C14.0818 35.2183 12.8059 36.6691 11.9896 38.2896C11.7115 38.8481 11.4757 39.4248 11.2822 40.0196C11.0887 40.6145 10.9314 41.2215 10.7984 41.8285C10.7984 41.8285 10.7984 41.8407 10.7984 41.8589L10.7863 41.9257L10.7682 42.0045C10.7682 42.0045 10.7561 42.0652 10.75 42.0956L10.738 42.1684V42.1806C10.7259 42.2534 10.7077 42.3263 10.6956 42.399L10.6594 42.5812C10.6594 42.5812 10.6533 42.6237 10.6473 42.6419C10.6473 42.654 10.6473 42.6601 10.6473 42.6662V42.6844C10.6473 42.7026 10.6412 42.7208 10.6352 42.733C10.6352 42.7512 10.6291 42.7755 10.6231 42.7937C10.6231 42.8239 10.611 42.8543 10.6049 42.8847C10.5868 42.9879 10.5687 43.0911 10.5505 43.2004C10.5505 43.2367 10.5324 43.3338 10.5142 43.431C10.5142 43.4492 10.5142 43.4674 10.5082 43.4796C10.5082 43.4796 10.4961 43.5585 10.4961 43.5828C10.4961 43.5889 10.4961 43.5948 10.4961 43.601C10.5566 43.613 10.6231 43.6191 10.6835 43.6253C10.744 43.6314 10.8045 43.6373 10.8649 43.6496C10.9435 43.6616 11.0282 43.6677 11.1068 43.6798C11.2035 43.692 11.3063 43.7041 11.4031 43.7163C11.518 43.7284 11.6329 43.7466 11.7477 43.7588C11.8747 43.777 12.0078 43.7891 12.1347 43.8073C12.2799 43.8255 12.4189 43.8438 12.564 43.862C12.7152 43.8802 12.8724 43.9045 13.0236 43.9227C13.1869 43.947 13.3501 43.9652 13.5134 43.9895C13.6827 44.0138 13.852 44.0379 14.0213 44.0563C14.1966 44.0804 14.372 44.1047 14.5474 44.129C14.7287 44.1533 14.9041 44.1776 15.0854 44.2079C15.2669 44.2322 15.4482 44.2626 15.6297 44.2869C15.8111 44.3172 15.9925 44.3415 16.1739 44.3719C16.3554 44.4021 16.5306 44.4264 16.7121 44.4569C16.8873 44.4871 17.0627 44.5175 17.2381 44.5478C17.4074 44.5782 17.5767 44.6086 17.746 44.6389C17.8549 44.6571 17.9637 44.6814 18.0665 44.6996L18.2055 44.7178L18.2478 44.5175L18.2236 44.5478ZM18.0362 37.9072C18.0362 37.3064 18.526 36.8147 19.1247 36.8147C19.7233 36.8147 20.2131 37.3064 20.2131 37.9072C20.2131 38.5082 19.7233 38.9999 19.1247 38.9999C18.526 38.9999 18.0362 38.5082 18.0362 37.9072Z" fill="white" style="fill:white;fill-opacity:1;"/><path d="M37.6866 43.5161C37.6866 43.4979 37.6866 43.4797 37.6807 43.4675C37.6685 43.3704 37.6504 43.2732 37.6443 43.2369C37.6262 43.1276 37.6081 43.0244 37.59 42.9213C37.59 42.8908 37.5779 42.8606 37.5718 42.8302C37.5718 42.812 37.5657 42.7877 37.5597 42.7695C37.5597 42.7513 37.5537 42.7331 37.5476 42.7209V42.7027C37.5476 42.7027 37.5415 42.6906 37.5415 42.6784C37.5415 42.6602 37.5356 42.642 37.5295 42.6177L37.4933 42.4357C37.4811 42.3689 37.463 42.2899 37.4509 42.2171V42.2049L37.4388 42.1321C37.4327 42.1017 37.4267 42.0654 37.4207 42.0411L37.4025 41.9622L37.3904 41.8954V41.865C37.2574 41.2519 37.1002 40.645 36.9067 40.0561C36.7131 39.4613 36.4773 38.8846 36.1993 38.3263C35.3829 36.6995 34.1071 35.2548 32.4503 34.5143C30.5275 33.6523 28.1633 33.8588 26.4158 35.0424C26.198 35.188 25.9864 35.3519 25.7929 35.5341C25.4423 35.8558 25.146 36.2321 24.9525 36.6631C24.6442 37.3368 24.6139 38.1563 24.9767 38.7937C25.3454 39.4492 26.059 39.8316 26.7483 40.129C27.4377 40.4326 28.1692 40.7057 28.6893 41.2519C29.1488 41.7375 29.3847 42.3932 29.5782 43.0305C29.6567 43.2855 29.7233 43.5464 29.7898 43.8074L29.941 44.4752C29.9469 44.5116 29.9591 44.542 29.9652 44.5783L30.0075 44.7847L30.1465 44.7665C30.2554 44.7483 30.3642 44.724 30.467 44.7058C30.6363 44.6754 30.8056 44.6451 30.9749 44.6147C31.1503 44.5845 31.3256 44.554 31.501 44.5238C31.6824 44.4934 31.8577 44.463 32.0392 44.4388C32.2205 44.4084 32.402 44.3841 32.5833 44.3537C32.7648 44.3234 32.9461 44.2991 33.1275 44.2748C33.3089 44.2505 33.4843 44.2202 33.6657 44.1959C33.8411 44.1716 34.0165 44.1473 34.1917 44.123C34.361 44.0987 34.5303 44.0746 34.6996 44.0562C34.863 44.0321 35.0262 44.0138 35.1894 43.9896C35.3406 43.9713 35.4979 43.9471 35.649 43.9288C35.7941 43.9106 35.9332 43.8924 36.0783 43.8742C36.2052 43.856 36.3383 43.8438 36.4653 43.8256C36.5802 43.8135 36.695 43.7953 36.81 43.7831C36.9067 43.771 37.0094 43.7588 37.1063 43.7467C37.1848 43.7347 37.2695 43.7286 37.348 43.7163C37.4086 43.7104 37.4691 43.7043 37.5295 43.6922C37.59 43.6861 37.6565 43.68 37.7169 43.6679C37.7169 43.6679 37.7169 43.6618 37.7169 43.6497C37.7169 43.6193 37.7049 43.5586 37.7049 43.5464L37.6866 43.5161ZM29.0461 39C28.4474 39 27.9576 38.5083 27.9576 37.9074C27.9576 37.3065 28.4474 36.8148 29.0461 36.8148C29.6447 36.8148 30.1345 37.3065 30.1345 37.9074C30.1345 38.5083 29.6447 39 29.0461 39Z" fill="white" style="fill:white;fill-opacity:1;"/><path d="M26.8874 45.3917C26.8451 45.3188 26.7967 45.246 26.7483 45.1792C26.7 45.1124 26.6516 45.0518 26.6032 44.985C26.5549 44.9243 26.5004 44.8696 26.446 44.815C26.3915 44.7603 26.3372 44.7118 26.2827 44.6632C26.2283 44.6146 26.174 44.5722 26.1134 44.5297C26.059 44.4872 25.9986 44.4508 25.9441 44.4144C25.8897 44.3779 25.8293 44.3476 25.7688 44.3172C25.7143 44.2869 25.6539 44.2565 25.5934 44.2322C25.5389 44.2079 25.4785 44.1836 25.4241 44.1595C25.3696 44.1411 25.3153 44.117 25.2548 44.0987C25.2003 44.0805 25.146 44.0684 25.0916 44.0502C25.0371 44.038 24.9887 44.0259 24.9343 44.0137C24.8859 44.0016 24.8377 43.9955 24.7892 43.9834C24.7408 43.9773 24.6985 43.9712 24.6501 43.9652C24.6078 43.9652 24.5654 43.953 24.5231 43.953C24.3902 43.9409 24.2571 43.9348 24.118 43.9348H24.0213C23.8882 43.9348 23.7553 43.9348 23.6161 43.953C23.5738 43.953 23.5315 43.9591 23.4892 43.9652C23.4408 43.9652 23.3984 43.9773 23.3502 43.9834C23.3017 43.9895 23.2533 44.0016 23.2051 44.0137C23.1506 44.0259 23.1021 44.038 23.0478 44.0502C22.9934 44.0623 22.9389 44.0805 22.8846 44.0987C22.8301 44.117 22.7696 44.1352 22.7153 44.1595C22.6548 44.1836 22.6003 44.202 22.546 44.2322C22.4854 44.2565 22.431 44.2869 22.3706 44.3172C22.3101 44.3476 22.2556 44.384 22.1952 44.4144C22.1347 44.4508 22.0804 44.4872 22.0259 44.5297C21.9654 44.5722 21.9111 44.6146 21.8566 44.6632C21.8022 44.7118 21.7477 44.7603 21.6934 44.815C21.6389 44.8696 21.5845 44.9243 21.5361 44.985C21.4817 45.0456 21.4333 45.1124 21.391 45.1792C21.3426 45.246 21.2943 45.3188 21.252 45.3917C21.2097 45.4705 21.1673 45.5494 21.125 45.6284C21.125 45.6284 21.125 45.6405 21.1309 45.6405C21.252 45.8468 21.3971 46.035 21.5542 46.2111C21.8566 46.551 22.2074 46.8545 22.6064 47.0731C23.0478 47.3158 23.5496 47.4312 24.0516 47.4433C24.5534 47.4373 25.0552 47.3158 25.4966 47.0731C25.8958 46.8545 26.2464 46.551 26.5488 46.2111C26.7059 46.035 26.8512 45.8468 26.9721 45.6405L26.9782 45.6284C26.9418 45.5494 26.8995 45.4705 26.8512 45.3917H26.8874Z" fill="white" style="fill:white;fill-opacity:1;"/></svg>