<svg width="218" height="54" viewBox="0 0 218 54" fill="none" xmlns="http://www.w3.org/2000/svg"><path fill-rule="evenodd" clip-rule="evenodd" d="M198.068 53.6408H190.902L179.812 43.4796H189.228L193.811 47.4858L205.202 14.8718H212.791L198.062 53.6469L198.068 53.6408Z" fill="black" style="fill:black;fill-opacity:1;"/><path d="M65.2893 13.7064C66.5469 12.8626 68.0224 12.4377 69.7154 12.4377C70.6526 12.4377 71.5234 12.5713 72.3215 12.8384C73.1318 13.1054 73.8452 13.4878 74.462 13.9916C75.0788 14.4954 75.5867 15.1025 75.9798 15.8187C76.3727 16.5228 76.6328 17.3301 76.7598 18.2406H83.7557C83.5319 16.3347 83.0181 14.6472 82.2198 13.1722C81.4337 11.6972 80.4118 10.4528 79.1542 9.43308C77.8965 8.40725 76.4513 7.62422 74.8248 7.09007C73.2042 6.55591 71.4508 6.28882 69.5522 6.28882C66.6739 6.28882 64.0859 6.95045 61.7883 8.27978C59.4905 9.59697 57.6644 11.509 56.3221 14.022C54.9797 16.535 54.3086 19.5821 54.3086 23.1634C54.3086 26.7447 54.9675 29.7737 56.2918 32.2867C57.6221 34.7996 59.4361 36.7177 61.7217 38.041C64.0195 39.3643 66.6315 40.032 69.5522 40.032C71.6504 40.032 73.5308 39.7163 75.1937 39.085C76.8686 38.4416 78.3016 37.5797 79.5049 36.4871C80.7203 35.3884 81.6818 34.1381 82.3952 32.748C83.1208 31.3458 83.5742 29.8951 83.7557 28.3836L76.7598 28.3532C76.6025 29.2273 76.3123 30.0103 75.895 30.6963C75.49 31.3822 74.9821 31.965 74.3592 32.4444C73.7424 32.9179 73.0349 33.276 72.2368 33.5189C71.4508 33.7677 70.5922 33.8891 69.667 33.8891C68.0163 33.8891 66.5652 33.4824 65.3074 32.6691C64.0497 31.8557 63.0701 30.6538 62.3687 29.0635C61.6794 27.4732 61.3286 25.5003 61.3286 23.1634C61.3286 20.8265 61.6733 18.9508 62.3687 17.3605C63.0641 15.758 64.0376 14.5379 65.2952 13.7064H65.2893Z" fill="black" style="fill:black;fill-opacity:1;"/><path d="M104.132 15.7579C102.862 15.0113 101.381 14.635 99.6755 14.635C97.8131 14.635 96.2591 15.0538 95.0256 15.8854C93.792 16.7109 92.8971 17.846 92.3409 19.3027H92.0506V6.75H85.4355V39.5948H92.2441V25.3546C92.2563 24.2984 92.4557 23.3939 92.8488 22.6473C93.254 21.8886 93.8101 21.3119 94.5116 20.9175C95.2252 20.5228 96.0475 20.3225 96.9726 20.3225C98.3573 20.3225 99.4336 20.7475 100.202 21.5912C100.982 22.4349 101.362 23.6186 101.35 25.136V39.6009H108.159V23.916C108.171 21.9918 107.82 20.3408 107.107 18.9628C106.405 17.5729 105.414 16.5106 104.138 15.77L104.132 15.7579Z" fill="black" style="fill:black;fill-opacity:1;"/><path d="M129.033 17.749C127.987 16.7109 126.765 15.934 125.356 15.4241C123.96 14.902 122.454 14.6411 120.833 14.6411C118.427 14.6411 116.329 15.1751 114.539 16.2435C112.761 17.3118 111.383 18.8051 110.403 20.7171C109.423 22.6291 108.934 24.8569 108.934 27.3881C108.934 29.9193 109.423 32.238 110.403 34.138C111.383 36.0318 112.779 37.4946 114.587 38.5326C116.407 39.5584 118.584 40.0744 121.105 40.0744C123.131 40.0744 124.915 39.7648 126.457 39.1456C128.011 38.5144 129.281 37.6403 130.26 36.5174C131.252 35.3822 131.905 34.0589 132.225 32.5415L125.931 32.1226C125.695 32.7418 125.356 33.2639 124.909 33.6947C124.461 34.1196 123.923 34.4413 123.294 34.6599C122.666 34.8724 121.976 34.9816 121.22 34.9816C120.084 34.9816 119.098 34.7388 118.264 34.2593C117.429 33.7797 116.788 33.0939 116.329 32.2076C115.881 31.3214 115.657 30.2653 115.657 29.0513V29.033H132.37V27.1575C132.37 25.0633 132.08 23.2362 131.494 21.6701C130.907 20.098 130.091 18.7929 129.033 17.7549V17.749ZM116.111 24.7901C116.153 23.9038 116.377 23.0965 116.788 22.3682C117.236 21.5669 117.852 20.9296 118.645 20.4622C119.443 19.9827 120.362 19.7398 121.39 19.7398C122.418 19.7398 123.246 19.9584 123.996 20.3954C124.752 20.8203 125.344 21.4151 125.767 22.174C126.191 22.9327 126.408 23.8068 126.408 24.7901H116.111Z" fill="black" style="fill:black;fill-opacity:1;"/><path d="M142.503 20.8264C143.29 20.2497 144.215 19.9584 145.267 19.9584C146.512 19.9584 147.523 20.3408 148.285 21.0995C149.065 21.8461 149.542 22.8355 149.723 24.0678H156.145C156.048 22.1618 155.534 20.5047 154.597 19.0964C153.659 17.6822 152.384 16.5895 150.782 15.8065C149.174 15.0234 147.299 14.635 145.157 14.635C142.679 14.635 140.538 15.1752 138.737 16.2557C136.935 17.3239 135.544 18.8172 134.564 20.7292C133.597 22.6353 133.113 24.8447 133.113 27.3698C133.113 29.895 133.591 32.0619 134.552 33.9801C135.52 35.8921 136.905 37.3915 138.706 38.4719C140.514 39.5402 142.679 40.0744 145.194 40.0744C147.377 40.0744 149.27 39.6737 150.867 38.8725C152.462 38.0713 153.715 36.9605 154.621 35.534C155.541 34.1014 156.048 32.4444 156.157 30.5626H149.736C149.608 31.4307 149.336 32.1712 148.919 32.7904C148.514 33.3973 148 33.8647 147.371 34.1864C146.754 34.5081 146.054 34.666 145.279 34.666C144.227 34.666 143.302 34.3746 142.516 33.7979C141.73 33.2214 141.113 32.3837 140.678 31.2789C140.254 30.1802 140.037 28.8387 140.037 27.2727C140.037 25.7067 140.254 24.4016 140.69 23.309C141.125 22.2165 141.736 21.3908 142.51 20.8203L142.503 20.8264Z" fill="black" style="fill:black;fill-opacity:1;"/><path d="M180.393 14.9567H172.393L164.532 24.3044H164.164V6.75H157.355V39.5948H164.164V31.7766L166.009 29.6643L172.696 39.6009H187.202V6.75H180.393V14.9627V14.9567ZM171.099 25.6277L180.393 14.987V39.1942L171.099 25.6277Z" fill="black" style="fill:black;fill-opacity:1;"/><path d="M194.856 14.9568H187.703L194.856 37.6342L198.49 27.3396L194.856 14.9568Z" fill="black" style="fill:black;fill-opacity:1;"/><path d="M9.87692 21.9432C9.70157 21.9797 9.53227 22.0282 9.3811 22.1254C8.89736 22.4349 9.01225 23.1512 9.05458 23.6429C9.13318 24.5716 9.33273 25.5063 9.58064 26.4168C9.74994 27.0482 9.95553 27.6794 10.2216 28.2804C10.5239 27.813 10.8504 27.382 11.2011 26.9935C11.4853 26.6717 11.7756 26.3743 12.0658 26.1073C13.6561 24.6322 15.2403 23.8917 15.2403 23.8917C13.7105 22.787 11.8481 21.5183 9.87692 21.9432Z" fill="black" style="fill:black;fill-opacity:1;"/><path d="M37.9884 21.9432C38.1638 21.9797 38.3331 22.0282 38.4842 22.1254C38.968 22.4349 38.853 23.1512 38.8107 23.6429C38.7321 24.5716 38.5325 25.5063 38.2846 26.4168C38.1153 27.0482 37.9098 27.6794 37.6437 28.2804C37.3414 27.813 37.0149 27.382 36.6642 26.9935C36.38 26.6717 36.0898 26.3743 35.7994 26.1073C34.2092 24.6322 32.625 23.8917 32.625 23.8917C34.1548 22.787 36.0172 21.5183 37.9884 21.9432Z" fill="black" style="fill:black;fill-opacity:1;"/><path d="M43.7446 2.99875C40.7877 0.0305176 36.023 0.0305176 26.5056 0.0305176H21.3598C11.8424 0.0305176 7.07768 0.0305176 4.12087 2.99875C1.16406 5.96697 1.16406 10.7501 1.16406 20.3043V23.6671C1.16406 33.2273 1.16406 38.0045 4.12087 40.9726C4.63484 41.4886 5.21531 41.9317 5.85022 42.2838C6.53348 42.6662 7.27722 42.9455 8.03305 43.1579C8.42004 43.2672 8.81306 43.3582 9.21214 43.431C9.27866 43.4431 9.90751 43.5524 10.1857 43.6071L10.3187 43.6313C10.3187 43.6313 10.3187 43.6253 10.3187 43.6131C10.3187 43.5828 10.3308 43.5221 10.3308 43.5099C10.3308 43.4917 10.3308 43.4735 10.3368 43.4613C10.3489 43.3643 10.367 43.2672 10.3731 43.2307C10.3912 43.1214 10.4094 43.0182 10.4275 42.9151C10.4275 42.8848 10.4396 42.8544 10.4457 42.824L10.4275 42.8058C7.07768 40.0622 5.54183 35.3033 5.54183 35.3033C6.81767 35.2547 8.21445 34.6235 8.21445 34.6235C9.0126 34.3443 9.94983 33.7554 10.1131 32.8571C10.2038 32.3593 9.9982 31.9102 9.7624 31.4853C9.02471 30.162 8.51074 28.7173 8.1177 27.2606C7.72468 25.7917 7.39816 24.2862 7.27118 22.7809C7.20466 21.9918 7.02325 20.8384 7.80328 20.3347C8.04514 20.1768 8.32328 20.0979 8.60143 20.0373C11.782 19.3513 14.7932 21.3969 17.2603 23.1754C17.2904 23.1633 17.3146 23.1512 17.3449 23.139C17.5142 23.054 17.6956 22.9751 17.877 22.9145C18.1733 22.8113 18.4755 22.7263 18.7779 22.6655C20.1989 22.2953 21.9524 22.0767 23.8511 22.0767C23.8753 22.0767 23.9054 22.0767 23.9296 22.0767C23.9539 22.0767 23.9841 22.0767 24.0082 22.0767C25.913 22.0767 27.6665 22.2892 29.0814 22.6655C29.3838 22.7323 29.6861 22.8113 29.9824 22.9145C30.1637 22.9813 30.3391 23.054 30.5145 23.139C30.5447 23.1512 30.575 23.1633 30.5992 23.1754C33.0661 21.3969 36.0773 19.3452 39.2579 20.0373C39.536 20.0979 39.8203 20.1768 40.0561 20.3347C40.83 20.8384 40.6487 21.9918 40.5882 22.7809C40.4672 24.2862 40.1347 25.7917 39.7416 27.2606C39.3486 28.7234 38.8346 30.162 38.097 31.4853C37.8611 31.9102 37.6556 32.3593 37.7463 32.8571C37.9095 33.7554 38.8468 34.3443 39.6449 34.6235C39.6449 34.6235 41.0417 35.2547 42.3175 35.3033C42.3175 35.3033 40.7816 40.0622 37.4318 42.8058L37.4137 42.824C37.4137 42.824 37.4258 42.8848 37.4318 42.9151C37.45 43.0182 37.4682 43.1214 37.4863 43.2307C37.4863 43.2672 37.5044 43.3643 37.5225 43.4613C37.5225 43.4797 37.5225 43.4978 37.5286 43.5099C37.5286 43.5099 37.5406 43.5888 37.5406 43.6131C37.5406 43.6192 37.5406 43.6253 37.5406 43.6313L37.6737 43.6071C37.9458 43.5585 38.5747 43.4431 38.6472 43.431C39.0463 43.3582 39.4394 43.2672 39.8262 43.1579C40.5822 42.9455 41.3198 42.6662 42.0092 42.2838C42.6441 41.9317 43.2245 41.4886 43.7385 40.9726C46.6954 38.0045 46.6954 33.2273 46.6954 23.6671V20.3043C46.6954 10.7441 46.6954 5.96697 43.7385 2.99875H43.7446Z" fill="black" style="fill:black;fill-opacity:1;"/><path d="M18.0713 44.5478C18.0774 44.5053 18.0896 44.475 18.0955 44.4387L18.2467 43.7709C18.3132 43.5099 18.3798 43.2488 18.4583 42.9939C18.6518 42.3506 18.8877 41.701 19.3472 41.2154C19.8672 40.6692 20.5988 40.3899 21.2882 40.0925C21.9775 39.789 22.6911 39.4127 23.0598 38.757C23.4226 38.1137 23.3864 37.2942 23.084 36.6266C22.8844 36.1956 22.5881 35.8193 22.2436 35.4975C22.0501 35.3154 21.8385 35.1576 21.6207 35.0059C19.8732 33.8221 17.5151 33.6219 15.5862 34.4778C13.9294 35.2183 12.6536 36.6691 11.8373 38.2896C11.5591 38.8481 11.3233 39.4248 11.1298 40.0196C10.9363 40.6145 10.7791 41.2215 10.6461 41.8285C10.6461 41.8285 10.6461 41.8407 10.6461 41.8589L10.634 41.9257L10.6158 42.0045C10.6158 42.0045 10.6038 42.0652 10.5977 42.0956L10.5856 42.1684V42.1806C10.5735 42.2534 10.5554 42.3263 10.5433 42.399L10.507 42.5812C10.507 42.5812 10.501 42.6237 10.4949 42.6419C10.4949 42.654 10.4949 42.6601 10.4949 42.6662V42.6844C10.4949 42.7026 10.4889 42.7208 10.4828 42.733C10.4828 42.7512 10.4768 42.7755 10.4707 42.7937C10.4707 42.8239 10.4586 42.8543 10.4526 42.8847C10.4344 42.9879 10.4163 43.0911 10.3982 43.2004C10.3982 43.2367 10.38 43.3338 10.3619 43.431C10.3619 43.4492 10.3619 43.4674 10.3558 43.4796C10.3558 43.4796 10.3438 43.5585 10.3438 43.5828C10.3438 43.5889 10.3438 43.5948 10.3438 43.601C10.4042 43.613 10.4707 43.6191 10.5312 43.6253C10.5917 43.6314 10.6521 43.6373 10.7126 43.6496C10.7912 43.6616 10.8759 43.6677 10.9545 43.6798C11.0512 43.692 11.154 43.7041 11.2507 43.7163C11.3656 43.7284 11.4805 43.7466 11.5954 43.7588C11.7224 43.777 11.8554 43.7891 11.9824 43.8073C12.1275 43.8255 12.2666 43.8438 12.4117 43.862C12.5629 43.8802 12.7201 43.9045 12.8712 43.9227C13.0345 43.947 13.1978 43.9652 13.361 43.9895C13.5303 44.0138 13.6996 44.0379 13.8689 44.0563C14.0443 44.0804 14.2196 44.1047 14.395 44.129C14.5764 44.1533 14.7518 44.1776 14.9331 44.2079C15.1146 44.2322 15.2959 44.2626 15.4774 44.2869C15.6587 44.3172 15.8402 44.3415 16.0215 44.3719C16.203 44.4021 16.3783 44.4264 16.5597 44.4569C16.735 44.4871 16.9104 44.5175 17.0858 44.5478C17.2551 44.5782 17.4244 44.6086 17.5937 44.6389C17.7025 44.6571 17.8114 44.6814 17.9142 44.6996L18.0532 44.7178L18.0955 44.5175L18.0713 44.5478ZM17.8839 37.9072C17.8839 37.3064 18.3737 36.8147 18.9723 36.8147C19.571 36.8147 20.0608 37.3064 20.0608 37.9072C20.0608 38.5082 19.571 38.9999 18.9723 38.9999C18.3737 38.9999 17.8839 38.5082 17.8839 37.9072Z" fill="black" style="fill:black;fill-opacity:1;"/><path d="M37.5343 43.5161C37.5343 43.4979 37.5343 43.4797 37.5284 43.4675C37.5162 43.3704 37.4981 43.2732 37.492 43.2369C37.4738 43.1276 37.4557 43.0244 37.4376 42.9213C37.4376 42.8908 37.4256 42.8606 37.4195 42.8302C37.4195 42.812 37.4134 42.7877 37.4073 42.7695C37.4073 42.7513 37.4014 42.7331 37.3953 42.7209V42.7027C37.3953 42.7027 37.3892 42.6906 37.3892 42.6784C37.3892 42.6602 37.3833 42.642 37.3772 42.6177L37.3409 42.4357C37.3288 42.3689 37.3106 42.2899 37.2986 42.2171V42.2049L37.2864 42.1321C37.2803 42.1017 37.2744 42.0654 37.2683 42.0411L37.2502 41.9622L37.238 41.8954V41.865C37.1051 41.2519 36.9478 40.645 36.7543 40.0561C36.5608 39.4613 36.325 38.8846 36.0469 38.3263C35.2306 36.6995 33.9547 35.2548 32.2979 34.5143C30.3751 33.6523 28.011 33.8588 26.2634 35.0424C26.0457 35.188 25.8341 35.3519 25.6406 35.5341C25.2899 35.8558 24.9936 36.2321 24.8001 36.6631C24.4918 37.3368 24.4615 38.1563 24.8243 38.7937C25.1931 39.4492 25.9067 39.8316 26.5959 40.129C27.2853 40.4326 28.0169 40.7057 28.537 41.2519C28.9965 41.7375 29.2323 42.3932 29.4258 43.0305C29.5044 43.2855 29.5709 43.5464 29.6375 43.8074L29.7886 44.4752C29.7946 44.5116 29.8068 44.542 29.8128 44.5783L29.8552 44.7847L29.9942 44.7665C30.103 44.7483 30.2119 44.724 30.3147 44.7058C30.484 44.6754 30.6533 44.6451 30.8226 44.6147C30.998 44.5845 31.1732 44.554 31.3486 44.5238C31.5301 44.4934 31.7053 44.463 31.8868 44.4388C32.0682 44.4084 32.2496 44.3841 32.431 44.3537C32.6125 44.3234 32.7938 44.2991 32.9751 44.2748C33.1566 44.2505 33.332 44.2202 33.5133 44.1959C33.6887 44.1716 33.8641 44.1473 34.0394 44.123C34.2087 44.0987 34.378 44.0746 34.5473 44.0562C34.7106 44.0321 34.8738 44.0138 35.0371 43.9896C35.1882 43.9713 35.3455 43.9471 35.4967 43.9288C35.6418 43.9106 35.7808 43.8924 35.9259 43.8742C36.0529 43.856 36.186 43.8438 36.3129 43.8256C36.4279 43.8135 36.5427 43.7953 36.6576 43.7831C36.7543 43.771 36.8571 43.7588 36.9539 43.7467C37.0325 43.7347 37.1171 43.7286 37.1957 43.7163C37.2563 43.7104 37.3167 43.7043 37.3772 43.6922C37.4376 43.6861 37.5041 43.68 37.5646 43.6679C37.5646 43.6679 37.5646 43.6618 37.5646 43.6497C37.5646 43.6193 37.5526 43.5586 37.5526 43.5464L37.5343 43.5161ZM28.8937 39C28.2951 39 27.8053 38.5083 27.8053 37.9074C27.8053 37.3065 28.2951 36.8148 28.8937 36.8148C29.4924 36.8148 29.9822 37.3065 29.9822 37.9074C29.9822 38.5083 29.4924 39 28.8937 39Z" fill="black" style="fill:black;fill-opacity:1;"/><path d="M26.7351 45.3917C26.6927 45.3188 26.6443 45.246 26.5959 45.1792C26.5477 45.1124 26.4992 45.0518 26.4508 44.985C26.4026 44.9243 26.3481 44.8696 26.2937 44.815C26.2392 44.7603 26.1848 44.7118 26.1303 44.6632C26.076 44.6146 26.0216 44.5722 25.961 44.5297C25.9067 44.4872 25.8462 44.4508 25.7917 44.4144C25.7374 44.3779 25.6769 44.3476 25.6165 44.3172C25.562 44.2869 25.5015 44.2565 25.4411 44.2322C25.3866 44.2079 25.3261 44.1836 25.2718 44.1595C25.2173 44.1411 25.1629 44.117 25.1025 44.0987C25.048 44.0805 24.9936 44.0684 24.9393 44.0502C24.8848 44.038 24.8364 44.0259 24.782 44.0137C24.7336 44.0016 24.6853 43.9955 24.6369 43.9834C24.5885 43.9773 24.5462 43.9712 24.4977 43.9652C24.4554 43.9652 24.4131 43.953 24.3708 43.953C24.2378 43.9409 24.1048 43.9348 23.9656 43.9348H23.8689C23.7359 43.9348 23.603 43.9348 23.4638 43.953C23.4215 43.953 23.3792 43.9591 23.3368 43.9652C23.2884 43.9652 23.2461 43.9773 23.1978 43.9834C23.1494 43.9895 23.101 44.0016 23.0527 44.0137C22.9982 44.0259 22.9498 44.038 22.8954 44.0502C22.8411 44.0623 22.7866 44.0805 22.7322 44.0987C22.6777 44.117 22.6173 44.1352 22.5629 44.1595C22.5025 44.1836 22.448 44.202 22.3936 44.2322C22.333 44.2565 22.2787 44.2869 22.2182 44.3172C22.1578 44.3476 22.1033 44.384 22.0428 44.4144C21.9824 44.4508 21.928 44.4872 21.8735 44.5297C21.8131 44.5722 21.7587 44.6146 21.7042 44.6632C21.6499 44.7118 21.5954 44.7603 21.541 44.815C21.4865 44.8696 21.4322 44.9243 21.3837 44.985C21.3294 45.0456 21.281 45.1124 21.2386 45.1792C21.1902 45.246 21.142 45.3188 21.0996 45.3917C21.0573 45.4705 21.015 45.5494 20.9727 45.6284C20.9727 45.6284 20.9727 45.6405 20.9786 45.6405C21.0996 45.8468 21.2447 46.035 21.4019 46.2111C21.7042 46.551 22.055 46.8545 22.4541 47.0731C22.8954 47.3158 23.3973 47.4312 23.8992 47.4433C24.4011 47.4373 24.9029 47.3158 25.3443 47.0731C25.7435 46.8545 26.0941 46.551 26.3965 46.2111C26.5536 46.035 26.6988 45.8468 26.8197 45.6405L26.8258 45.6284C26.7894 45.5494 26.7471 45.4705 26.6988 45.3917H26.7351Z" fill="black" style="fill:black;fill-opacity:1;"/></svg>