<svg width="200" height="57" viewBox="0 0 200 57" fill="none" xmlns="http://www.w3.org/2000/svg"><path d="M51.0195 27.896C51.0195 13.7517 43.326 2.85474 23.7684 2.85474H2.84473V52.9374H23.7684C43.326 52.9374 51.0195 42.0405 51.0195 27.896ZM36.7828 27.896C36.7828 37.7827 31.2463 41.4632 23.5528 41.4632H16.4343V14.329H23.5528C31.2463 14.329 36.7828 18.0094 36.7828 27.896Z" fill="black" style="fill:black;fill-opacity:1;"/><path d="M54.2734 52.9374H93.8199V41.5353H67.8631V32.9477H90.6561V22.1228H67.8631V14.2568H93.1728V2.85474H54.2734V52.9374Z" fill="black" style="fill:black;fill-opacity:1;"/><path d="M139.855 20.2466C139.855 7.61765 131.802 2.85474 119.291 2.85474H97.6484V52.9374H111.238V37.6384H119.291C131.802 37.6384 139.855 32.8754 139.855 20.2466ZM125.763 20.2466C125.763 25.1539 123.462 27.1745 117.925 27.1745H111.238V13.3187H117.925C123.462 13.3187 125.763 15.3393 125.763 20.2466Z" fill="black" style="fill:black;fill-opacity:1;"/><path d="M141.339 14.5455H157.085V52.9374H170.675V14.5455H186.422V2.85474H141.339V14.5455Z" fill="black" style="fill:black;fill-opacity:1;"/><path d="M180.774 45.9256C180.774 50.4578 184.43 54.1266 188.946 54.1266C193.462 54.1266 197.154 50.4578 197.154 45.9256C197.154 41.3934 193.462 37.6885 188.946 37.6885C184.43 37.6885 180.774 41.3934 180.774 45.9256ZM182.351 45.9256C182.351 42.1848 185.29 39.1273 188.946 39.1273C192.601 39.1273 195.576 42.1848 195.576 45.9256C195.576 49.6664 192.601 52.6878 188.946 52.6878C185.29 52.6878 182.351 49.6664 182.351 45.9256ZM185.111 49.9901H187.691V47.1845H189.161L190.701 49.9901H193.497L191.633 46.681C192.494 46.3213 193.138 45.3501 193.138 44.271C193.138 42.3645 191.92 41.4653 189.841 41.4653H185.111V49.9901ZM190.522 44.3069C190.522 44.9903 190.093 45.2782 189.268 45.2782H187.691V43.4796H189.268C190.093 43.4796 190.522 43.6955 190.522 44.3069Z" fill="black" style="fill:black;fill-opacity:1;"/></svg>