<svg width="161" height="41" viewBox="0 0 161 41" fill="none" xmlns="http://www.w3.org/2000/svg"><g clip-path="url(#a)"><path fill-rule="evenodd" clip-rule="evenodd" d="M130.514 26.0897C130.514 34.1441 136.934 40.7133 145.477 40.7133C153.961 40.7133 160.439 34.3726 160.439 26.0897V0H154.763L154.706 15.522C152.413 13.0085 148.973 11.352 145.19 11.352C136.705 11.352 130.514 17.5784 130.514 26.0897ZM154.763 26.0326C154.763 31.1737 150.751 35.4008 145.477 35.4008C140.26 35.4008 136.189 31.1737 136.189 26.0326C136.189 20.9486 140.26 16.7216 145.477 16.7216C150.751 16.7216 154.763 20.9486 154.763 26.0326ZM99.6608 17.9809C98.4767 20.2277 97.8838 22.8554 97.8838 25.8639C97.8838 28.8343 98.4953 31.4429 99.7183 33.6897C100.979 35.9365 102.738 37.6883 104.993 38.945C107.286 40.1636 109.961 40.7729 113.018 40.7729C116.535 40.7729 119.458 39.8209 121.79 37.9168C124.16 36.0127 125.612 33.5755 126.147 30.605H119.955C119.535 32.2425 118.675 33.5183 117.376 34.4323C116.076 35.3082 114.471 35.7461 112.56 35.7461C110.152 35.7461 108.222 35.0035 106.77 33.5183C105.317 32.0331 104.515 30.0148 104.362 27.4633V27.1205H126.491C126.606 26.3209 126.663 25.5401 126.663 24.7785C126.624 21.9604 125.975 19.5041 124.714 17.4096C123.491 15.3151 121.79 13.6966 119.611 12.5542C117.471 11.4117 114.987 10.8405 112.159 10.8405C109.369 10.8405 106.885 11.4688 104.706 12.7256C102.566 13.9441 100.884 15.696 99.6608 17.9809ZM117.777 17.6381C119.229 18.8186 120.089 20.4753 120.356 22.6078H104.592C104.821 20.5514 105.662 18.9138 107.114 17.6953C108.604 16.4385 110.363 15.8102 112.388 15.8102C114.566 15.8102 116.363 16.4195 117.777 17.6381ZM87.2494 0.0070455H93.4803V41H87.2494V0.0070455ZM56.4225 17.9809C55.2377 20.2277 54.6453 22.8554 54.6453 25.8639C54.6453 28.8343 55.2568 31.4429 56.4799 33.6897C57.741 35.9365 59.4991 37.6883 61.754 38.945C64.0472 40.1636 66.7225 40.7729 69.78 40.7729C73.2962 40.7729 76.2199 39.8209 78.5512 37.9168C80.9209 36.0127 82.3732 33.5755 82.9082 30.605H76.7167C76.2964 32.2425 75.4365 33.5183 74.137 34.4323C72.8375 35.3082 71.2323 35.7461 69.3214 35.7461C66.9136 35.7461 64.9836 35.0035 63.5313 33.5183C62.0789 32.0331 61.2763 30.0148 61.1234 27.4633V27.1205H83.2522C83.3669 26.3209 83.4241 25.5401 83.4241 24.7785C83.386 21.9604 82.7363 19.5041 81.475 17.4096C80.252 15.3151 78.5512 13.6966 76.3728 12.5542C74.2326 11.4117 71.7483 10.8405 68.9201 10.8405C66.1301 10.8405 63.6459 11.4688 61.4674 12.7256C59.3271 13.9441 57.6455 15.696 56.4225 17.9809ZM74.5383 17.6381C75.9906 18.8186 76.8505 20.4753 77.118 22.6078H61.3528C61.5821 20.5514 62.4228 18.9138 63.8751 17.6953C65.3658 16.4385 67.1238 15.8102 69.1494 15.8102C71.3279 15.8102 73.1242 16.4195 74.5383 17.6381ZM37.5549 35.229C42.7717 35.229 45.6382 30.7163 45.6382 25.5181V12.0371H51.3137V26.2036C51.3137 34.3151 46.3834 40.7128 37.5549 40.7128C28.841 40.7128 23.9107 34.258 23.9107 26.1465V12.0371H29.5863V25.5752C29.5863 30.7163 32.3953 35.229 37.5549 35.229ZM5.54169 7.86713L5.54168 11.9484H0.439453V17.3751H5.54168L5.54169 40.9716H11.7905V17.3751H19.6444V11.9484H11.7905V8.32411C11.7905 7.33398 12.0007 6.61042 12.4211 6.15344C12.8797 5.69646 13.6059 5.46797 14.5996 5.46797H19.7018V0.0412799H13.7397C10.9497 0.0412799 8.88585 0.707715 7.54819 2.04059C6.21052 3.33537 5.54169 5.27755 5.54169 7.86713Z" fill="white" style="fill:white;fill-opacity:1;"/></g><defs><clipPath id="a"><rect width="161" height="41" fill="white" style="fill:white;fill-opacity:1;"/></clipPath></defs></svg>