<svg width="160" height="41" viewBox="0 0 160 41" fill="none" xmlns="http://www.w3.org/2000/svg"><g clip-path="url(#a)"><path fill-rule="evenodd" clip-rule="evenodd" d="M130.074 26.0897C130.074 34.1441 136.495 40.7133 145.037 40.7133C153.521 40.7133 160 34.3726 160 26.0897V0H154.324L154.266 15.522C151.973 13.0085 148.534 11.352 144.75 11.352C136.266 11.352 130.074 17.5784 130.074 26.0897ZM154.324 26.0326C154.324 31.1737 150.312 35.4008 145.037 35.4008C139.82 35.4008 135.75 31.1737 135.75 26.0326C135.75 20.9486 139.82 16.7216 145.037 16.7216C150.312 16.7216 154.324 20.9486 154.324 26.0326ZM99.2214 17.9809C98.0373 20.2277 97.4444 22.8554 97.4444 25.8639C97.4444 28.8343 98.0559 31.4429 99.2789 33.6897C100.54 35.9365 102.298 37.6883 104.553 38.945C106.846 40.1636 109.521 40.7729 112.579 40.7729C116.096 40.7729 119.019 39.8209 121.351 37.9168C123.72 36.0127 125.173 33.5755 125.707 30.605H119.516C119.096 32.2425 118.235 33.5183 116.936 34.4323C115.636 35.3082 114.032 35.7461 112.12 35.7461C109.712 35.7461 107.782 35.0035 106.33 33.5183C104.878 32.0331 104.075 30.0148 103.922 27.4633V27.1205H126.051C126.166 26.3209 126.223 25.5401 126.223 24.7785C126.185 21.9604 125.535 19.5041 124.274 17.4096C123.051 15.3151 121.351 13.6966 119.172 12.5542C117.032 11.4117 114.548 10.8405 111.72 10.8405C108.929 10.8405 106.445 11.4688 104.266 12.7256C102.127 13.9441 100.444 15.696 99.2214 17.9809ZM117.337 17.6381C118.789 18.8186 119.65 20.4753 119.917 22.6078H104.152C104.382 20.5514 105.222 18.9138 106.674 17.6953C108.165 16.4385 109.923 15.8102 111.949 15.8102C114.127 15.8102 115.923 16.4195 117.337 17.6381ZM86.81 0.0070455H93.0408V41H86.81V0.0070455ZM55.9831 17.9809C54.7983 20.2277 54.2059 22.8554 54.2059 25.8639C54.2059 28.8343 54.8174 31.4429 56.0404 33.6897C57.3016 35.9365 59.0597 37.6883 61.3145 38.945C63.6077 40.1636 66.283 40.7729 69.3405 40.7729C72.8567 40.7729 75.7804 39.8209 78.1118 37.9168C80.4814 36.0127 81.9337 33.5755 82.4688 30.605H76.2773C75.8569 32.2425 74.997 33.5183 73.6975 34.4323C72.3981 35.3082 70.7928 35.7461 68.882 35.7461C66.4741 35.7461 64.5441 35.0035 63.0918 33.5183C61.6394 32.0331 60.8368 30.0148 60.6839 27.4633V27.1205H82.8127C82.9274 26.3209 82.9847 25.5401 82.9847 24.7785C82.9465 21.9604 82.2968 19.5041 81.0356 17.4096C79.8126 15.3151 78.1118 13.6966 75.9334 12.5542C73.7931 11.4117 71.3089 10.8405 68.4806 10.8405C65.6906 10.8405 63.2064 11.4688 61.0279 12.7256C58.8876 13.9441 57.2061 15.696 55.9831 17.9809ZM74.0989 17.6381C75.5512 18.8186 76.4111 20.4753 76.6786 22.6078H60.9133C61.1426 20.5514 61.9834 18.9138 63.4357 17.6953C64.9263 16.4385 66.6844 15.8102 68.7099 15.8102C70.8884 15.8102 72.6847 16.4195 74.0989 17.6381ZM37.1154 35.229C42.3323 35.229 45.1987 30.7163 45.1987 25.5181V12.0371H50.8742V26.2036C50.8742 34.3151 45.944 40.7128 37.1154 40.7128C28.4015 40.7128 23.4713 34.258 23.4713 26.1465V12.0371H29.1468V25.5752C29.1468 30.7163 31.9559 35.229 37.1154 35.229ZM5.10224 7.86713L5.10223 11.9484H0V17.3751H5.10223L5.10224 40.9716H11.351V17.3751H19.205V11.9484H11.351V8.32411C11.351 7.33398 11.5612 6.61042 11.9816 6.15344C12.4402 5.69646 13.1664 5.46797 14.1601 5.46797H19.2623V0.0412799H13.3002C10.5102 0.0412799 8.4464 0.707715 7.10874 2.04059C5.77107 3.33537 5.10224 5.27755 5.10224 7.86713Z" fill="black" style="fill:black;fill-opacity:1;"/></g><defs><clipPath id="a"><rect width="160" height="41" fill="white" style="fill:white;fill-opacity:1;"/></clipPath></defs></svg>