<svg width="266" height="70" viewBox="0 0 266 70" fill="none" xmlns="http://www.w3.org/2000/svg"><g clip-path="url(#a)"><g clip-path="url(#b)"><path d="M62.7518 27.0699H52.9886L57.8449 10.3786L62.7518 27.0699ZM64.4235 0.000408173H51.3812L35.4141 44.0266H47.4945L49.7737 36.5003H65.9096L68.4657 44.0266H80.3906L64.4235 0.000408173Z" fill="black" style="fill:black;fill-opacity:1;"/><path d="M161.393 27.0699H151.629L156.486 10.3786L161.393 27.0699ZM163.065 0.000408173H150.022L134.055 44.0266H146.135L148.415 36.5003H164.55L167.106 44.0266H179.031L163.065 0.000408173Z" fill="black" style="fill:black;fill-opacity:1;"/><path d="M247.338 27.0699H237.574L242.431 10.3786L247.338 27.0699ZM249.01 0.000408173H235.966L220 44.0266H232.079L234.36 36.5003H250.494L253.05 44.0266H264.976L249.01 0.000408173Z" fill="black" style="fill:black;fill-opacity:1;"/><path d="M113.232 21.6012L129.039 0.0237274H114.99L100.517 20.5577V0.0237274H88.6406V44.0266H100.517V22.7189L115.112 44.0266H129.644L113.232 21.6012Z" fill="black" style="fill:black;fill-opacity:1;"/><path d="M199.19 34.647V0.0240479H187.367V44.0839H212.817V34.647H199.19Z" fill="black" style="fill:black;fill-opacity:1;"/><path d="M27.3373 65.659V58.6197L21.1159 55.0993L14.8945 58.6197V65.659L21.1159 69.1787L27.3373 65.659Z" fill="black" style="fill:black;fill-opacity:1;"/><path d="M27.3373 65.659V58.6197L21.1159 55.0993L14.8945 58.6197V65.659L21.1159 69.1787L27.3373 65.659Z" fill="black" style="fill:black;fill-opacity:1;"/><path d="M15.1302 38.5441C12.8722 40.1942 10.9237 40.5099 8.5386 40.0592C6.56242 39.6852 5.34428 38.9874 4.13711 38.3457L0 47.1227C4.64247 50.4541 9.94368 51.1316 15.1302 49.5762V38.5441Z" fill="black" style="fill:black;fill-opacity:1;"/><path d="M15.1309 49.5762C22.0284 47.8583 27.1033 40.913 27.1033 34.2397V0.000385284H15.1309V27.3943V31.6329V48.9848V49.5762Z" fill="black" style="fill:black;fill-opacity:1;"/></g></g><defs><clipPath id="a"><rect width="266" height="70" fill="white" style="fill:white;fill-opacity:1;"/></clipPath><clipPath id="b"><rect width="266" height="70" fill="white" style="fill:white;fill-opacity:1;"/></clipPath></defs></svg>