<svg width="266" height="71" viewBox="0 0 266 71" fill="none" xmlns="http://www.w3.org/2000/svg"><g clip-path="url(#a)"><g clip-path="url(#b)"><path d="M62.7518 28.0523H52.9886L57.8449 11.3611L62.7518 28.0523ZM64.4235 0.98283H51.3812L35.4141 45.009H47.4945L49.7737 37.4827H65.9096L68.4657 45.009H80.3906L64.4235 0.98283Z" fill="white" style="fill:white;fill-opacity:1;"/><path d="M161.393 28.0523H151.629L156.486 11.3611L161.393 28.0523ZM163.065 0.98283H150.022L134.055 45.009H146.135L148.415 37.4827H164.55L167.106 45.009H179.031L163.065 0.98283Z" fill="white" style="fill:white;fill-opacity:1;"/><path d="M247.338 28.0523H237.574L242.431 11.3611L247.338 28.0523ZM249.01 0.98283H235.966L220 45.009H232.079L234.36 37.4827H250.494L253.05 45.009H264.976L249.01 0.98283Z" fill="white" style="fill:white;fill-opacity:1;"/><path d="M113.232 22.5836L129.039 1.00615H114.99L100.517 21.5401V1.00615H88.6406V45.009H100.517V23.7013L115.112 45.009H129.644L113.232 22.5836Z" fill="white" style="fill:white;fill-opacity:1;"/><path d="M199.19 35.6294V1.00647H187.367V45.0663H212.817V35.6294H199.19Z" fill="white" style="fill:white;fill-opacity:1;"/><path d="M27.3373 66.6415V59.6021L21.1159 56.0817L14.8945 59.6021V66.6415L21.1159 70.1611L27.3373 66.6415Z" fill="white" style="fill:white;fill-opacity:1;"/><path d="M27.3373 66.6415V59.6021L21.1159 56.0817L14.8945 59.6021V66.6415L21.1159 70.1611L27.3373 66.6415Z" fill="white" style="fill:white;fill-opacity:1;"/><path d="M15.1302 39.5265C12.8722 41.1766 10.9237 41.4923 8.5386 41.0417C6.56242 40.6676 5.34428 39.9698 4.13711 39.3281L0 48.1051C4.64247 51.4365 9.94368 52.114 15.1302 50.5586V39.5265Z" fill="white" style="fill:white;fill-opacity:1;"/><path d="M15.1309 50.5586C22.0284 48.8407 27.1033 41.8954 27.1033 35.2221V0.982807H15.1309V28.3767V32.6154V49.9672V50.5586Z" fill="white" style="fill:white;fill-opacity:1;"/></g></g><defs><clipPath id="a"><rect width="266" height="71" fill="white" style="fill:white;fill-opacity:1;"/></clipPath><clipPath id="b"><rect width="266" height="70" fill="white" style="fill:white;fill-opacity:1;" transform="translate(0 0.982422)"/></clipPath></defs></svg>