<svg width="229" height="75" viewBox="0 0 229 75" fill="none" xmlns="http://www.w3.org/2000/svg"><path d="M0.90625 72.9912V7.99121H14.097V45.2666H14.466L28.9482 26.9999H43.7071L27.6568 45.9157L44.9062 72.9912H30.2397L19.9084 55.0954L14.097 61.6789V72.9912H0.90625Z" fill="white" style="fill:white;fill-opacity:1;"/><path d="M47.9062 72.9912V27.1015H58.913L59.8301 32.9303H60.1971C62.1538 31.0798 64.294 29.4761 66.6177 28.1192C68.9413 26.7005 71.6624 25.9912 74.7809 25.9912C79.734 25.9912 83.3112 27.6258 85.5126 30.8947C87.7749 34.1638 88.9062 38.6973 88.9062 44.4952V72.9912H75.4231V46.253C75.4231 42.9224 74.9644 40.6402 74.0472 39.4066C73.1911 38.1729 71.7847 37.5562 69.8279 37.5562C68.1158 37.5562 66.6482 37.9572 65.4252 38.759C64.2022 39.4992 62.857 40.5785 61.3894 41.9971V72.9912H47.9062Z" fill="white" style="fill:white;fill-opacity:1;"/><path d="M115.952 74.9912C113.097 74.9912 110.334 74.4573 107.662 73.3893C104.99 72.2586 102.621 70.6566 100.556 68.5836C98.5521 66.5104 96.9429 63.9662 95.7281 60.9508C94.5135 57.8726 93.9062 54.3861 93.9062 50.4912C93.9062 46.5963 94.5135 43.1412 95.7281 40.1258C96.9429 37.0476 98.5521 34.472 100.556 32.3988C102.621 30.3258 104.99 28.7553 107.662 27.6874C110.334 26.5566 113.097 25.9912 115.952 25.9912C118.806 25.9912 121.539 26.5566 124.151 27.6874C126.823 28.7553 129.161 30.3258 131.165 32.3988C133.23 34.472 134.87 37.0476 136.084 40.1258C137.299 43.1412 137.906 46.5963 137.906 50.4912C137.906 54.3861 137.299 57.8726 136.084 60.9508C134.87 63.9662 133.23 66.5104 131.165 68.5836C129.161 70.6566 126.823 72.2586 124.151 73.3893C121.539 74.4573 118.806 74.9912 115.952 74.9912ZM115.952 63.7777C118.685 63.7777 120.75 62.5842 122.146 60.197C123.543 57.8098 124.242 54.5746 124.242 50.4912C124.242 46.408 123.543 43.1726 122.146 40.7854C120.75 38.3982 118.685 37.2047 115.952 37.2047C113.158 37.2047 111.063 38.3982 109.666 40.7854C108.33 43.1726 107.662 46.408 107.662 50.4912C107.662 54.5746 108.33 57.8098 109.666 60.197C111.063 62.5842 113.158 63.7777 115.952 63.7777Z" fill="white" style="fill:white;fill-opacity:1;"/><path d="M163.268 74.9912C159.963 74.9912 156.88 74.4573 154.019 73.3893C151.222 72.2586 148.774 70.6566 146.676 68.5836C144.579 66.5104 142.926 63.9662 141.718 60.9508C140.51 57.8726 139.906 54.3861 139.906 50.4912C139.906 46.5963 140.574 43.1412 141.909 40.1258C143.244 37.0476 145.024 34.472 147.249 32.3988C149.537 30.3258 152.175 28.7553 155.164 27.6874C158.152 26.5566 161.266 25.9912 164.508 25.9912C167.433 25.9912 170.006 26.4623 172.232 27.4047C174.52 28.347 176.554 29.5405 178.334 30.9854L171.756 39.9373C169.53 38.1156 167.4 37.2047 165.366 37.2047C161.933 37.2047 159.232 38.3982 157.261 40.7854C155.29 43.1726 154.305 46.408 154.305 50.4912C154.305 54.5746 155.29 57.8098 157.261 60.197C159.295 62.5842 161.838 63.7777 164.889 63.7777C166.414 63.7777 167.877 63.4636 169.275 62.8354C170.737 62.1444 172.105 61.3277 173.375 60.3855L178.906 69.4315C176.554 71.4419 174.011 72.8867 171.278 73.7663C168.545 74.5828 165.875 74.9912 163.268 74.9912Z" fill="white" style="fill:white;fill-opacity:1;"/><path d="M182.906 72.9912V7.99121H196.097V45.2666H196.467L210.949 26.9999H225.708L209.658 45.9157L226.906 72.9912H212.241L201.91 55.0954L196.097 61.6789V72.9912H182.906Z" fill="white" style="fill:white;fill-opacity:1;"/><path d="M228.906 11.9912C228.906 18.0663 223.981 22.9912 217.906 22.9912C211.831 22.9912 206.906 18.0663 206.906 11.9912C206.906 5.91607 211.831 0.991211 217.906 0.991211C223.981 0.991211 228.906 5.91607 228.906 11.9912Z" fill="white" style="fill:white;fill-opacity:1;"/></svg>