<svg width="230" height="75" viewBox="0 0 230 75" fill="none" xmlns="http://www.w3.org/2000/svg"><path d="M0 72V7H13.1908V44.2754H13.5598L28.0419 26.0086H42.8009L26.7505 44.9245L44 72H29.3334L19.0021 54.1042L13.1908 60.6876V72H0Z" fill="black" style="fill:black;fill-opacity:1;"/><path d="M47 72V26.1103H58.0068L58.9239 31.9391H59.2908C61.2475 30.0886 63.3877 28.4849 65.7114 27.1279C68.0351 25.7093 70.7562 25 73.8746 25C78.8278 25 82.405 26.6346 84.6063 29.9035C86.8687 33.1726 88 37.7061 88 43.504V72H74.5168V45.2618C74.5168 41.9312 74.0581 39.649 73.141 38.4154C72.2849 37.1817 70.8785 36.565 68.9216 36.565C67.2096 36.565 65.742 36.966 64.5189 37.7678C63.296 38.508 61.9507 39.5873 60.4832 41.0059V72H47Z" fill="black" style="fill:black;fill-opacity:1;"/><path d="M115.046 74C112.191 74 109.428 73.4661 106.756 72.3981C104.083 71.2674 101.715 69.6654 99.6502 67.5924C97.6459 65.5192 96.0366 62.975 94.8219 59.9596C93.6073 56.8814 93 53.3949 93 49.5C93 45.6051 93.6073 42.15 94.8219 39.1346C96.0366 36.0564 97.6459 33.4808 99.6502 31.4076C101.715 29.3346 104.083 27.7641 106.756 26.6962C109.428 25.5653 112.191 25 115.046 25C117.9 25 120.633 25.5653 123.244 26.6962C125.917 27.7641 128.255 29.3346 130.259 31.4076C132.324 33.4808 133.964 36.0564 135.178 39.1346C136.393 42.15 137 45.6051 137 49.5C137 53.3949 136.393 56.8814 135.178 59.9596C133.964 62.975 132.324 65.5192 130.259 67.5924C128.255 69.6654 125.917 71.2674 123.244 72.3981C120.633 73.4661 117.9 74 115.046 74ZM115.046 62.7865C117.778 62.7865 119.843 61.593 121.24 59.2058C122.637 56.8186 123.336 53.5834 123.336 49.5C123.336 45.4167 122.637 42.1814 121.24 39.7942C119.843 37.407 117.778 36.2135 115.046 36.2135C112.252 36.2135 110.157 37.407 108.76 39.7942C107.424 42.1814 106.756 45.4167 106.756 49.5C106.756 53.5834 107.424 56.8186 108.76 59.2058C110.157 61.593 112.252 62.7865 115.046 62.7865Z" fill="black" style="fill:black;fill-opacity:1;"/><path d="M162.362 74C159.056 74 155.974 73.4661 153.112 72.3981C150.315 71.2674 147.868 69.6654 145.77 67.5924C143.672 65.5192 142.02 62.975 140.812 59.9596C139.604 56.8814 139 53.3949 139 49.5C139 45.6051 139.667 42.15 141.002 39.1346C142.337 36.0564 144.117 33.4808 146.342 31.4076C148.631 29.3346 151.269 27.7641 154.257 26.6962C157.245 25.5653 160.36 25 163.602 25C166.527 25 169.1 25.4711 171.325 26.4134C173.614 27.3558 175.648 28.5493 177.427 29.9942L170.849 38.9461C168.624 37.1244 166.493 36.2135 164.459 36.2135C161.027 36.2135 158.326 37.407 156.355 39.7942C154.384 42.1814 153.399 45.4167 153.399 49.5C153.399 53.5834 154.384 56.8186 156.355 59.2058C158.389 61.593 160.932 62.7865 163.983 62.7865C165.508 62.7865 166.971 62.4724 168.369 61.8442C169.831 61.1532 171.199 60.3365 172.469 59.3943L178 68.4403C175.648 70.4507 173.105 71.8955 170.372 72.7751C167.638 73.5916 164.969 74 162.362 74Z" fill="black" style="fill:black;fill-opacity:1;"/><path d="M182 72V7H195.191V44.2754H195.561L210.043 26.0086H224.802L208.752 44.9245L226 72H211.334L201.003 54.1042L195.191 60.6876V72H182Z" fill="black" style="fill:black;fill-opacity:1;"/><path d="M228 11C228 17.0751 223.075 22 217 22C210.925 22 206 17.0751 206 11C206 4.92486 210.925 0 217 0C223.075 0 228 4.92486 228 11Z" fill="black" style="fill:black;fill-opacity:1;"/></svg>