<svg width="380" height="39" viewBox="0 0 380 39" fill="none" xmlns="http://www.w3.org/2000/svg"><path d="M0 38.083V0.632961H9.91631L23.1557 31.0678H23.4721L36.606 0.632961H46.575V38.083H40.1928V8.86143H39.8235L27.0588 38.083H19.5162L6.80427 8.86143H6.43506V38.083H0ZM74.6972 38.716C61.1942 38.716 52.702 30.8041 52.702 19.358C52.702 7.91198 61.1942 0 74.6972 0C88.2002 0 96.5868 7.91198 96.5868 19.358C96.5868 30.8041 88.2002 38.716 74.6972 38.716ZM59.8755 20.7821C59.8755 28.114 65.3083 32.8612 74.6972 32.8612C84.0861 32.8612 89.4133 28.114 89.4133 20.7821V17.9338C89.4133 10.6021 84.0861 5.85486 74.6972 5.85486C65.3083 5.85486 59.8755 10.6021 59.8755 17.9338V20.7821ZM102.711 38.083V0.632961H112.153L133.621 30.5931H133.99V0.632961H140.425V38.083H131.089L109.568 8.12298H109.252V38.083H102.711ZM168.549 38.716C155.046 38.716 146.553 30.8041 146.553 19.358C146.553 7.91198 155.046 0 168.549 0C182.052 0 190.438 7.91198 190.438 19.358C190.438 30.8041 182.052 38.716 168.549 38.716ZM153.727 20.7821C153.727 28.114 159.16 32.8612 168.549 32.8612C177.938 32.8612 183.265 28.114 183.265 20.7821V17.9338C183.265 10.6021 177.938 5.85486 168.549 5.85486C159.16 5.85486 153.727 10.6021 153.727 17.9338V20.7821ZM216.178 38.716C203.044 38.716 194.921 31.0149 194.921 19.4635C194.921 7.91198 203.466 0 216.864 0C227.73 0 234.956 4.53621 237.751 12.9756H230.525C228.046 7.85924 223.985 5.80212 216.864 5.80212C207.528 5.80212 202.095 10.6021 202.095 18.0921V20.9404C202.095 28.5358 207.58 33.1249 217.18 33.1249C225.62 33.1249 231 29.2744 231 24.6326V23.1557H217.866V18.1976H237.645V38.083H231.422V32.5445H231.053C228.732 36.395 222.982 38.716 216.178 38.716ZM245.652 38.083V0.632961H266.54C276.034 0.632961 281.677 4.79993 281.677 11.3932C281.677 15.9295 279.358 18.6195 274.663 20.0964V20.4657C279.673 21.2041 280.623 24.1579 280.623 27.903V31.1205C280.623 33.8105 280.939 36.1313 283.787 37.9247V38.083H276.034C273.87 36.2896 273.766 34.4435 273.766 32.1755V28.4831C273.766 26.004 273.028 23.1557 266.434 23.1557H252.509V38.083H245.652ZM252.509 17.6701H266.592C272.132 17.6701 274.769 15.8767 274.769 12.3954V11.3405C274.769 7.85924 272.132 6.06586 266.54 6.06586H252.509V17.6701ZM284.554 38.083L301.907 0.632961H311.93L329.388 38.083H322.056L317.098 27.3754H296.791L291.886 38.083H284.554ZM299.27 21.6788H314.567L307.077 5.53838H306.708L299.27 21.6788ZM333.425 38.083V0.632961H343.342L356.581 31.0678H356.898L370.031 0.632961H380V38.083H373.618V8.86143H373.249L360.483 38.083H352.942L340.23 8.86143H339.861V38.083H333.425Z" fill="white" style="fill:white;fill-opacity:1;"/></svg>