<svg width="220" height="69" viewBox="0 0 220 69" fill="none" xmlns="http://www.w3.org/2000/svg"><path fill-rule="evenodd" clip-rule="evenodd" d="M136.745 0.329833C131.97 0.329833 128.1 4.17244 128.1 8.91186V34.6633C128.1 44.1312 120.339 51.8342 110.8 51.8342C101.261 51.8342 93.4999 44.1312 93.4999 34.6633V8.91186C93.4999 4.17244 89.6287 0.329833 84.8551 0.329833C80.0815 0.329833 76.2103 4.17244 76.2103 8.91186V34.6633C76.2103 53.5949 91.7275 68.9971 110.801 68.9971C129.875 68.9971 145.393 53.5949 145.393 34.6633V8.91186C145.393 4.17244 141.521 0.329833 136.747 0.329833H136.745ZM136.745 14.8172C133.459 14.8172 130.795 12.1735 130.795 8.91186C130.795 5.65016 133.459 3.00647 136.745 3.00647C140.031 3.00647 142.695 5.65016 142.695 8.91186C142.695 12.1735 140.031 14.8172 136.745 14.8172ZM173.182 34.6635L153.35 54.3476C149.974 57.6988 149.974 63.133 153.35 66.4836C156.726 69.8347 162.201 69.8347 165.577 66.4836L185.409 46.7997L205.24 66.4836C208.616 69.8347 214.092 69.8347 217.468 66.4836C220.844 63.133 220.844 57.6988 217.468 54.3476L197.636 34.6635L217.468 14.9794C220.844 11.6285 220.844 6.19415 217.468 2.8432C214.092 -0.507746 208.616 -0.507746 205.24 2.8432L185.409 22.5273L165.577 2.8432C162.201 -0.507746 156.726 -0.507746 153.35 2.8432C149.974 6.19415 149.974 11.6285 153.35 14.9794L173.182 34.6635ZM211.353 66.3203C208.067 66.3203 205.404 63.6769 205.404 60.415C205.404 57.1534 208.067 54.5096 211.353 54.5096C214.64 54.5096 217.303 57.1534 217.303 60.415C217.303 63.6769 214.64 66.3203 211.353 66.3203ZM54.4229 2.84336C56.8955 0.3892 60.6148 -0.344166 63.8454 0.983856H63.8471C67.0776 2.31188 69.1839 5.44172 69.1839 8.91217V60.4152C69.1839 65.1546 65.3122 68.9974 60.5374 68.9974C55.7623 68.9974 51.8909 65.1546 51.8909 60.4152V29.629L40.7055 40.7311C37.3294 44.082 31.8543 44.082 28.4782 40.7311L17.2928 29.629V60.4152C17.2928 65.1546 13.4214 68.9974 8.64639 68.9974C3.87144 68.9974 0 65.1546 0 60.4152V8.91217C0 5.44034 2.10591 2.31188 5.33672 0.983856C8.56753 -0.344166 12.2868 0.3892 14.7594 2.84336L34.5912 22.5274L54.4229 2.84336ZM54.5876 60.4163C54.5876 63.6782 57.2511 66.3221 60.5374 66.3221C63.8232 66.3221 66.4871 63.6782 66.4871 60.4163C66.4871 57.1549 63.8232 54.5112 60.5374 54.5112C57.2511 54.5112 54.5876 57.1549 54.5876 60.4163Z" fill="white" style="fill:white;fill-opacity:1;"/></svg>