<svg width="220" height="69" viewBox="0 0 220 69" fill="none" xmlns="http://www.w3.org/2000/svg"><path fill-rule="evenodd" clip-rule="evenodd" d="M136.745 0C131.97 0 128.1 3.84261 128.1 8.58202V34.3335C128.1 43.8013 120.339 51.5044 110.8 51.5044C101.261 51.5044 93.4999 43.8013 93.4999 34.3335V8.58202C93.4999 3.84261 89.6287 0 84.8551 0C80.0815 0 76.2103 3.84261 76.2103 8.58202V34.3335C76.2103 53.265 91.7275 68.6672 110.801 68.6672C129.875 68.6672 145.393 53.265 145.393 34.3335V8.58202C145.393 3.84261 141.521 0 136.747 0H136.745ZM136.745 14.4874C133.459 14.4874 130.795 11.8437 130.795 8.58202C130.795 5.32032 133.459 2.67664 136.745 2.67664C140.031 2.67664 142.695 5.32032 142.695 8.58202C142.695 11.8437 140.031 14.4874 136.745 14.4874ZM173.182 34.3337L153.35 54.0178C149.974 57.369 149.974 62.8031 153.35 66.1537C156.726 69.5049 162.201 69.5049 165.577 66.1537L185.409 46.4699L205.24 66.1537C208.616 69.5049 214.092 69.5049 217.468 66.1537C220.844 62.8031 220.844 57.369 217.468 54.0178L197.636 34.3337L217.468 14.6496C220.844 11.2986 220.844 5.86432 217.468 2.51337C214.092 -0.83758 208.616 -0.83758 205.24 2.51337L185.409 22.1975L165.577 2.51337C162.201 -0.83758 156.726 -0.83758 153.35 2.51337C149.974 5.86432 149.974 11.2986 153.35 14.6496L173.182 34.3337ZM211.353 65.9904C208.067 65.9904 205.404 63.347 205.404 60.0852C205.404 56.8235 208.067 54.1798 211.353 54.1798C214.64 54.1798 217.303 56.8235 217.303 60.0852C217.303 63.347 214.64 65.9904 211.353 65.9904ZM54.4229 2.51353C56.8955 0.0593664 60.6148 -0.673999 63.8454 0.654022H63.8471C67.0776 1.98204 69.1839 5.11189 69.1839 8.58234V60.0854C69.1839 64.8248 65.3122 68.6675 60.5374 68.6675C55.7623 68.6675 51.8909 64.8248 51.8909 60.0854V29.2991L40.7055 40.4013C37.3294 43.7522 31.8543 43.7522 28.4782 40.4013L17.2928 29.2991V60.0854C17.2928 64.8248 13.4214 68.6675 8.64639 68.6675C3.87144 68.6675 0 64.8248 0 60.0854V8.58234C0 5.11051 2.10591 1.98204 5.33672 0.654022C8.56753 -0.673999 12.2868 0.0593664 14.7594 2.51353L34.5912 22.1976L54.4229 2.51353ZM54.5876 60.0865C54.5876 63.3483 57.2511 65.9923 60.5374 65.9923C63.8232 65.9923 66.4871 63.3483 66.4871 60.0865C66.4871 56.825 63.8232 54.1814 60.5374 54.1814C57.2511 54.1814 54.5876 56.825 54.5876 60.0865Z" fill="black" style="fill:black;fill-opacity:1;"/></svg>