<svg width="280" height="80" viewBox="0 0 280 80" fill="none" xmlns="http://www.w3.org/2000/svg"><path fill-rule="evenodd" clip-rule="evenodd" d="M13.6628 0C6.11706 0 0 6.11713 0 13.663V65.5824C0 73.1281 6.11706 79.2453 13.6628 79.2453H37.2995C44.0905 79.2453 49.596 73.7399 49.596 66.9486V43.5833L64.5744 62.8516C69.3656 69.015 79.2443 65.627 79.2443 57.8203V13.663C79.2443 6.11713 73.1274 0 65.5816 0H13.6628ZM10.9303 13.663C10.9303 12.1538 12.1536 10.9304 13.6628 10.9304H66.9478C68.3344 10.9304 68.3263 11.9632 68.3159 13.3015C68.3149 13.4198 68.314 13.5404 68.314 13.663V49.8527L53.3356 30.5845C48.5444 24.421 38.6657 27.809 38.6657 35.6157V66.9486C38.6657 67.7032 38.4639 68.315 37.7094 68.315H13.6628C12.1536 68.315 10.9303 67.0915 10.9303 65.5824V13.663ZM234.076 40.2814C234.076 51.7588 225.393 58.3448 212.031 58.3448C198.67 58.3448 190.035 51.7588 190.035 40.2814C190.035 28.804 198.67 22.2178 212.031 22.2178C225.393 22.2178 234.076 28.804 234.076 40.2814ZM200.02 40.2814C200.02 46.6739 204.603 50.3059 212.031 50.3059C219.46 50.3059 224.042 46.6739 224.042 40.2814C224.042 33.8889 219.46 30.2569 212.031 30.2569C204.651 30.2569 200.02 33.8889 200.02 40.2814ZM133.323 23.3313V44.0585L113.305 23.3313H102.886V57.2306H112.388V34.954L134.191 57.2306H142.826V23.3313H133.323ZM160.442 49.6759V43.671H181.715V36.4552H160.442V30.8861H186.249V23.3314H150.746V57.2307H186.779V49.6759H160.442ZM270.498 23.3313V44.0585L250.479 23.3313H240.06V57.2306H249.563V34.954L271.365 57.2306H280V23.3313H270.498Z" fill="black" style="fill:black;fill-opacity:1;"/></svg>