<svg width="360" height="84" viewBox="0 0 360 84" fill="none" xmlns="http://www.w3.org/2000/svg"><path fill-rule="evenodd" clip-rule="evenodd" d="M28.6808 27.6067V17.7643C33.5408 17.7643 38.2208 15.8438 41.6408 12.603C45.1208 9.24222 47.0408 4.74114 47.0408 0H57.3008C57.3008 7.38177 54.2408 14.4035 48.9008 19.6247C43.5609 24.7859 36.2409 27.7266 28.681 27.7267V37.5691C23.821 37.5691 19.141 39.4295 15.721 42.7903C12.241 46.1511 10.321 50.6522 10.321 55.3934C10.321 60.1345 12.301 64.6356 15.721 67.9964C19.1409 71.3571 23.8209 73.2176 28.6808 73.2176H28.621V83.06H28.561C24.841 83.06 21.121 82.3398 17.641 80.9595C14.161 79.5791 10.981 77.5387 8.34098 74.958C5.70098 72.3774 3.60098 69.3167 2.16098 65.9559C0.720977 62.5951 0.00097656 58.9942 0.00097656 55.3333C0.0609766 51.6725 0.780976 48.0716 2.22098 44.7108C3.66098 41.35 5.82098 38.2892 8.46098 35.7086C11.161 33.128 14.281 31.0875 17.761 29.7072C21.1809 28.3269 24.9009 27.6067 28.6808 27.6067ZM28.6808 73.2176V73.2174C33.5408 73.1573 38.2208 71.2969 41.6408 68.0561C45.1208 64.6953 47.0408 60.1942 47.0408 55.4531H57.3008C57.3008 62.8349 54.2408 69.9166 48.9008 75.0778C43.5608 80.239 36.2408 83.1797 28.6808 83.1797V73.2176ZM28.6808 55.6332V45.6108C33.6008 45.6108 38.2808 43.6904 41.7608 40.3896C45.1808 37.0288 47.1608 32.4677 47.1608 27.7265H57.4207V17.7645C62.3407 17.7645 66.9607 15.844 70.3807 12.6033C73.8608 9.24246 75.7808 4.74138 75.7808 0.00024414H86.0408C86.0408 7.38201 82.9808 14.4037 77.6408 19.625C72.3149 24.7725 65.0195 27.7113 57.4808 27.7268C57.4807 35.1085 54.4207 42.2501 49.0208 47.4713C43.6208 52.6925 36.3008 55.6332 28.6808 55.6332ZM139.08 41.4698H133.8V78.8587H140.94V66.7958C141.54 67.336 142.2 67.8161 142.92 68.1762C143.7 68.5363 144.48 68.8363 145.26 69.0764C146.28 69.3765 147.3 69.4965 148.38 69.4965C150.12 69.4965 151.86 69.1364 153.48 68.4162C155.1 67.7561 156.54 66.7358 157.74 65.4755C159 64.1552 160.02 62.6548 160.68 60.9744C162.12 57.3136 162.12 53.2926 160.68 49.6317C159.96 47.9513 159 46.451 157.74 45.1306C156.54 43.8703 155.1 42.9101 153.48 42.1899C151.86 41.5298 150.12 41.1697 148.38 41.1697C147.24 41.1697 146.1 41.2897 145.02 41.6498C144.18 41.9499 143.34 42.2499 142.5 42.6701C141.72 43.0902 141 43.5703 140.34 44.1704L139.08 41.4698ZM150.24 62.3548C149.4 62.7148 148.44 62.8349 147.48 62.8349C146.52 62.8949 145.62 62.7148 144.66 62.3548C143.76 61.9947 142.98 61.4546 142.32 60.7944C140.94 59.4741 140.28 57.6136 140.28 55.3331C140.28 53.0525 140.94 51.2521 142.32 49.8718C142.98 49.2116 143.76 48.7315 144.66 48.3714C145.56 48.0113 146.46 47.8313 147.42 47.8313C148.38 47.8313 149.28 48.0113 150.18 48.3714C151.08 48.7315 151.86 49.2116 152.52 49.8718C153.24 50.5919 153.78 51.4322 154.14 52.3924C154.5 53.3526 154.68 54.3128 154.62 55.3331C154.62 57.6136 153.96 59.4141 152.58 60.7944C151.92 61.4546 151.14 61.9947 150.24 62.3548ZM174.96 68.7763C176.22 69.2564 177.54 69.4965 178.86 69.4965C179.7 69.4965 180.54 69.4365 181.26 69.2564C181.62 69.1964 181.98 69.0764 182.28 68.9563V62.9549C182.16 63.0149 181.98 63.0749 181.8 63.135C181.62 63.195 181.38 63.255 181.2 63.255H180.42H179.82C179.34 63.255 178.86 63.135 178.44 62.8949C178.02 62.6548 177.6 62.3548 177.3 61.9947C177 61.6346 176.76 61.2145 176.58 60.7344C176.4 60.2543 176.34 59.7742 176.4 59.294V47.8313H182.64V41.5298H176.4V34.8682H170.16V38.7691C170.16 40.9896 169.02 42.0699 166.74 42.0699H164.88V47.7713H169.2V59.5341C169.2 60.9144 169.44 62.2947 169.92 63.6151C170.34 64.7553 171.06 65.8356 171.9 66.7358C172.74 67.636 173.82 68.3562 174.96 68.7763ZM189.6 37.3288C190.32 37.8689 191.28 38.169 192.24 38.169C192.695 38.169 193.107 38.0838 193.584 37.9852C193.674 37.9668 193.765 37.9478 193.86 37.9289C194.34 37.6889 194.76 37.3888 195.12 37.0287C195.78 36.3685 196.2 35.4683 196.32 34.5681C196.38 33.6079 196.14 32.7077 195.6 31.9275C195.06 31.1473 194.22 30.5471 193.32 30.3071C192.36 30.067 191.4 30.127 190.5 30.4871C189.6 30.8472 188.88 31.5074 188.46 32.3476C188.04 33.1878 187.92 34.148 188.1 35.0482C188.34 35.9484 188.82 36.7286 189.6 37.3288ZM195.66 41.4698H188.52V69.1964H195.66V41.4698ZM207.78 41.4698H202.5L202.68 69.0764H209.82V53.1125C209.7 51.6722 210.24 50.2319 211.2 49.1516C211.238 49.1136 211.276 49.0696 211.316 49.0234C211.402 48.9236 211.497 48.8135 211.62 48.7315C212.04 48.3714 212.52 48.1314 213.06 47.9513C213.6 47.7713 214.2 47.7113 214.74 47.7713C215.28 47.7713 215.88 47.9513 216.36 48.1914C216.84 48.4314 217.32 48.7915 217.68 49.2116C218.64 50.2919 219.12 51.7322 219.06 53.1726V69.1364H226.2V53.1726C226.08 51.7322 226.62 50.2919 227.58 49.2116C227.618 49.1736 227.656 49.1296 227.696 49.0834C227.782 48.9836 227.877 48.8736 228 48.7915C228.42 48.4314 228.9 48.1914 229.44 48.0113C229.98 47.8313 230.58 47.7713 231.12 47.8313C231.66 47.8313 232.26 48.0113 232.74 48.2514C233.22 48.4914 233.7 48.8515 234.06 49.2716C235.02 50.3519 235.5 51.7922 235.44 53.2326V69.1964H242.58V52.6324C242.58 48.8515 241.62 45.9708 239.76 44.0504C237.9 42.1299 235.44 41.1697 232.32 41.1697C231.12 41.1097 229.98 41.3497 228.9 41.7098C227.94 42.0699 227.04 42.49 226.2 42.9701C225.36 43.4502 224.58 44.0504 223.92 44.7706C223.44 44.0504 222.84 43.4502 222.12 42.9701C221.34 42.43 220.5 42.0099 219.6 41.7098C218.4 41.3497 217.14 41.1097 215.88 41.1697C214.92 41.1697 213.96 41.3497 213.06 41.6498C212.34 41.9499 211.62 42.2499 210.96 42.6701C210.3 43.0902 209.64 43.6303 209.04 44.1704L207.78 41.4698ZM250.2 37.3288C250.92 37.8689 251.88 38.169 252.84 38.169C253.295 38.169 253.707 38.0838 254.185 37.9852C254.274 37.9668 254.365 37.9478 254.46 37.9289C254.94 37.6889 255.36 37.3888 255.72 37.0287C256.38 36.3685 256.8 35.5283 256.92 34.5681C256.98 33.6079 256.74 32.7077 256.2 31.9275C255.66 31.1473 254.82 30.5471 253.92 30.3071C252.96 30.067 252 30.127 251.1 30.4871C250.2 30.8472 249.48 31.5074 249.06 32.3476C248.64 33.1878 248.52 34.148 248.7 35.0482C248.94 35.9484 249.42 36.7286 250.2 37.3288ZM256.26 41.4698H249.12V69.1964H256.26V41.4698ZM273.9 48.0713L261.48 63.435H261.42V69.1964H283.5V62.5948H270.48L282.9 47.1711V41.4698H261.48V48.0713H273.9ZM296.1 68.3562C297.84 69.1364 299.7 69.4965 301.62 69.4965C303.18 69.4965 304.68 69.2564 306.06 68.6563C307.38 68.1161 308.64 67.456 309.78 66.6158C310.86 65.8356 311.82 64.8754 312.6 63.7951C313.32 62.8349 313.92 61.8146 314.34 60.6744H306.9C306.54 61.0945 306.12 61.4545 305.64 61.7546C305.16 62.0547 304.62 62.2948 304.02 62.4748C303.24 62.7149 302.4 62.7749 301.62 62.7749C300 62.8949 298.44 62.3548 297.18 61.3945C296.1 60.4943 295.38 59.294 295.08 57.9737H314.94C314.97 57.8237 314.985 57.6736 315 57.5236C315.015 57.3736 315.03 57.2235 315.06 57.0735C315.09 56.9235 315.105 56.7734 315.12 56.6234C315.135 56.4734 315.15 56.3233 315.18 56.1733C315.24 55.8134 315.24 55.5134 315.24 55.2135V55.2131C315.24 53.2326 314.88 51.3121 314.16 49.4517C313.5 47.7713 312.48 46.2709 311.22 44.9506C310.02 43.7503 308.52 42.7301 306.9 42.0699C305.16 41.4097 303.36 41.0497 301.5 41.0497C299.64 41.1097 297.78 41.4698 296.1 42.1899C294.36 42.9101 292.86 43.9904 291.54 45.2507C290.22 46.571 289.14 48.0713 288.42 49.7517C287.64 51.4922 287.28 53.3526 287.28 55.2731C287.28 57.1935 287.64 59.054 288.42 60.7944C289.14 62.4748 290.22 63.9752 291.54 65.2955C292.86 66.6158 294.42 67.636 296.1 68.3562ZM306.06 49.2716C307.32 50.2919 308.16 51.6722 308.46 53.2326H294.78C295.08 51.6722 295.92 50.2919 297.18 49.2716C298.44 48.2514 300 47.7113 301.62 47.7113C303.24 47.7113 304.8 48.2514 306.06 49.2716ZM327.72 31.2073H320.58V69.1964H327.72V31.2073ZM337.62 79.0988C337.92 79.1588 338.28 79.1588 338.58 79.1588C339.6 79.1588 340.68 78.9788 341.64 78.6787C342.54 78.3186 343.44 77.7785 344.16 77.1183C345.06 76.2781 345.78 75.3179 346.38 74.2976C347.16 72.9173 347.88 71.537 348.48 70.0966C348.51 70.0066 348.585 69.8265 348.698 69.5564C348.81 69.2864 348.96 68.9263 349.14 68.4762C349.343 67.9346 349.584 67.3357 349.853 66.6688C350.061 66.1533 350.285 65.5972 350.52 64.9954C351.027 63.83 351.533 62.5362 352.076 61.1502C352.176 60.8946 352.277 60.6359 352.38 60.3743C352.8 59.3942 353.2 58.3937 353.602 57.3848C353.89 56.6638 354.18 55.9384 354.48 55.2131C356.1 51.1321 357.96 46.511 360 41.4698H352.56L346.02 59.5341L338.88 41.4698H331.44L342.36 67.9961L341.76 69.4965C341.34 70.5167 340.62 71.3569 339.78 72.0771C338.7 72.7973 337.44 73.1574 336.12 73.0974V78.7987C336.2 78.8187 336.28 78.8454 336.36 78.8721C336.52 78.9254 336.68 78.9788 336.84 78.9788C337.08 79.0388 337.38 79.0988 337.62 79.0988ZM95.3399 31.2073C98.9399 28.8667 103.08 27.6665 107.34 27.6665C110.16 27.6665 112.98 28.2066 115.62 29.2868C118.26 30.3071 120.66 31.8675 122.64 33.7879C124.62 35.7084 126.24 38.0489 127.32 40.5695C128.4 43.0902 128.94 45.7908 128.94 48.5515C128.94 52.6324 127.62 56.7134 125.28 60.1342C122.94 63.5551 119.58 66.2557 115.62 67.8161C111.66 69.4365 107.34 69.7965 103.14 69.0164C98.9399 68.2362 95.0999 66.2557 92.0999 63.315C89.0999 60.4343 87.0599 56.7134 86.2199 52.6324C85.3799 48.6115 85.7999 44.4105 87.4199 40.5695C89.0399 36.7886 91.7999 33.4878 95.3399 31.2073ZM99.4799 60.0142C101.82 61.5146 104.58 62.2948 107.34 62.2347C111.06 62.1747 114.6 60.7344 117.18 58.3338C119.82 55.7532 121.26 52.3324 121.26 48.7315V48.5515C121.2 45.8508 120.36 43.2102 118.8 40.9897C117.24 38.7691 115.02 37.0287 112.44 36.0084C109.86 34.9882 106.98 34.7482 104.28 35.2883C101.52 35.8284 98.9999 37.1487 97.0799 39.0692C95.0999 40.9896 93.8399 43.4502 93.2999 46.0909C92.8199 48.7315 93.1199 51.4922 94.1999 53.9527C95.3399 56.4133 97.1399 58.5138 99.4799 60.0142Z" fill="black" style="fill:black;fill-opacity:1;"/></svg>