<svg width="360" height="84" viewBox="0 0 360 84" fill="none" xmlns="http://www.w3.org/2000/svg"><path fill-rule="evenodd" clip-rule="evenodd" d="M57.4205 17.7643V27.7267C64.9805 27.7267 72.3005 24.7859 77.6405 19.6247C82.9805 14.4035 86.0405 7.38177 86.0405 0H75.7805C75.7805 4.74114 73.8605 9.24222 70.3805 12.603C66.9605 15.8438 62.3405 17.7643 57.4205 17.7643ZM28.6804 27.6067V17.7645C33.5404 17.7645 38.2204 15.844 41.6404 12.6032C45.1204 9.24242 47.0404 4.74134 47.0404 0.00020455H57.3004C57.3004 7.38197 54.2404 14.4037 48.9004 19.6249C43.5606 24.786 36.2408 27.7267 28.681 27.7269V37.5691C23.821 37.5691 19.141 39.4295 15.721 42.7903C12.241 46.1511 10.321 50.6522 10.321 55.3934C10.321 60.1345 12.301 64.6356 15.721 67.9964C19.141 71.3572 23.821 73.2176 28.681 73.2176H28.621V83.06H28.561C24.841 83.06 21.121 82.3398 17.641 80.9595C14.161 79.5791 10.981 77.5387 8.34098 74.958C5.70098 72.3774 3.60098 69.3167 2.16098 65.9559C0.720977 62.5951 0.00097656 58.9942 0.00097656 55.3333C0.0609766 51.6725 0.780976 48.0716 2.22098 44.7108C3.66098 41.35 5.82098 38.2892 8.46098 35.7086C11.161 33.128 14.281 31.0875 17.761 29.7072C21.1808 28.3269 24.9006 27.6068 28.6804 27.6067ZM28.6804 55.6335V45.6111C33.6004 45.6111 38.2804 43.6907 41.7604 40.3899C45.1804 37.0291 47.1604 32.468 47.1604 27.7268H57.4804C57.4804 35.1086 54.4204 42.2503 49.0204 47.4716C43.6204 52.6928 36.3004 55.6335 28.6804 55.6335ZM28.6804 73.218V83.1804C36.2404 83.1804 43.5604 80.2397 48.9004 75.0784C54.2404 69.9172 57.3004 62.8355 57.3004 55.4537H47.0404C47.0404 60.1948 45.1204 64.6959 41.6404 68.0567C38.2204 71.2975 33.5404 73.158 28.6804 73.218ZM139.079 41.4701H133.799V78.859H140.939V66.7961C141.539 67.3363 142.199 67.8164 142.919 68.1765C143.699 68.5365 144.479 68.8366 145.26 69.0767C146.28 69.3767 147.299 69.4968 148.379 69.4968C150.119 69.4968 151.859 69.1367 153.48 68.4165C155.099 67.7563 156.54 66.7361 157.74 65.4758C159 64.1555 160.02 62.6551 160.68 60.9747C162.12 57.3139 162.12 53.2929 160.68 49.632C159.959 47.9516 159 46.4512 157.74 45.1309C156.54 43.8706 155.099 42.9104 153.48 42.1902C151.859 41.5301 150.119 41.17 148.379 41.17C147.239 41.17 146.099 41.29 145.019 41.6501C144.179 41.9502 143.34 42.2502 142.499 42.6703C141.719 43.0904 140.999 43.5706 140.339 44.1707L139.079 41.4701ZM150.24 62.3551C149.399 62.7151 148.439 62.8352 147.479 62.8352C146.52 62.8952 145.62 62.7151 144.66 62.3551C143.759 61.995 142.979 61.4549 142.319 60.7947C140.939 59.4744 140.279 57.6139 140.279 55.3334C140.279 53.0528 140.939 51.2524 142.319 49.8721C142.979 49.2119 143.759 48.7318 144.66 48.3717C145.559 48.0116 146.459 47.8316 147.419 47.8316C148.379 47.8316 149.28 48.0116 150.179 48.3717C151.08 48.7318 151.859 49.2119 152.519 49.8721C153.239 50.5922 153.78 51.4324 154.14 52.3927C154.5 53.3529 154.679 54.3131 154.619 55.3334C154.619 57.6139 153.959 59.4144 152.579 60.7947C151.919 61.4549 151.139 61.995 150.24 62.3551ZM174.96 68.7766C176.22 69.2567 177.54 69.4968 178.86 69.4968C179.7 69.4968 180.54 69.4367 181.26 69.2567C181.62 69.1967 181.98 69.0767 182.28 68.9566V62.9552C182.16 63.0152 181.98 63.0752 181.8 63.1353C181.62 63.1953 181.38 63.2553 181.2 63.2553H180.42H179.82C179.34 63.2553 178.86 63.1353 178.44 62.8952C178.02 62.6551 177.6 62.3551 177.3 61.995C177 61.6349 176.76 61.2148 176.58 60.7347C176.4 60.2546 176.34 59.7744 176.4 59.2943V47.8316H182.64V41.5301H176.4V34.8685H170.16V38.7694C170.16 40.9899 169.02 42.0702 166.74 42.0702H164.88V47.7716H169.2V59.5344C169.2 60.9147 169.44 62.295 169.92 63.6154C170.34 64.7556 171.06 65.8359 171.9 66.7361C172.74 67.6363 173.82 68.3565 174.96 68.7766ZM189.6 37.3291C190.32 37.8692 191.28 38.1693 192.24 38.1693C192.694 38.1693 193.107 38.0841 193.584 37.9855C193.673 37.967 193.765 37.9481 193.86 37.9292C194.34 37.6891 194.76 37.3891 195.12 37.029C195.78 36.3688 196.2 35.4686 196.32 34.5684C196.38 33.6082 196.14 32.708 195.6 31.9278C195.06 31.1476 194.22 30.5474 193.32 30.3074C192.36 30.0673 191.4 30.1273 190.5 30.4874C189.6 30.8475 188.88 31.5077 188.46 32.3479C188.04 33.1881 187.92 34.1483 188.1 35.0485C188.34 35.9487 188.82 36.7289 189.6 37.3291ZM195.66 41.4701H188.52V69.1967H195.66V41.4701ZM207.78 41.4701H202.5L202.68 69.0767H209.82V53.1128C209.7 51.6725 210.24 50.2321 211.2 49.1519C211.238 49.1139 211.276 49.0699 211.315 49.0236C211.402 48.9239 211.497 48.8138 211.62 48.7318C212.04 48.3717 212.52 48.1316 213.06 47.9516C213.6 47.7716 214.2 47.7115 214.74 47.7716C215.28 47.7716 215.88 47.9516 216.36 48.1917C216.84 48.4317 217.32 48.7918 217.68 49.2119C218.64 50.2922 219.12 51.7325 219.06 53.1729V69.1367H226.2V53.1729C226.08 51.7325 226.62 50.2922 227.58 49.2119C227.618 49.1739 227.656 49.1299 227.695 49.0836C227.782 48.9839 227.877 48.8738 228 48.7918C228.42 48.4317 228.9 48.1917 229.44 48.0116C229.98 47.8316 230.58 47.7716 231.12 47.8316C231.66 47.8316 232.26 48.0116 232.74 48.2517C233.22 48.4917 233.7 48.8518 234.06 49.2719C235.02 50.3522 235.5 51.7925 235.44 53.2329V69.1967H242.58V52.6327C242.58 48.8518 241.62 45.9711 239.76 44.0507C237.9 42.1302 235.44 41.17 232.32 41.17C231.12 41.11 229.98 41.35 228.9 41.7101C227.94 42.0702 227.04 42.4903 226.2 42.9704C225.36 43.4505 224.58 44.0507 223.92 44.7708C223.44 44.0507 222.84 43.4505 222.12 42.9704C221.34 42.4303 220.5 42.0102 219.6 41.7101C218.4 41.35 217.14 41.11 215.88 41.17C214.92 41.17 213.96 41.35 213.06 41.6501C212.34 41.9502 211.62 42.2502 210.96 42.6703C210.3 43.0904 209.64 43.6306 209.04 44.1707L207.78 41.4701ZM250.2 37.3291C250.92 37.8692 251.88 38.1693 252.84 38.1693C253.294 38.1693 253.707 38.0841 254.184 37.9855C254.273 37.967 254.365 37.9481 254.46 37.9292C254.94 37.6891 255.36 37.3891 255.72 37.029C256.38 36.3688 256.8 35.5286 256.92 34.5684C256.98 33.6082 256.74 32.708 256.2 31.9278C255.66 31.1476 254.82 30.5474 253.92 30.3074C252.96 30.0673 252 30.1273 251.1 30.4874C250.2 30.8475 249.48 31.5077 249.06 32.3479C248.64 33.1881 248.52 34.1483 248.7 35.0485C248.94 35.9487 249.42 36.7289 250.2 37.3291ZM256.26 41.4701H249.12V69.1967H256.26V41.4701ZM273.9 48.0716L261.48 63.4353H261.42V69.1967H283.5V62.5951H270.48L282.9 47.1714V41.4701H261.48V48.0716H273.9ZM296.1 68.3565C297.84 69.1367 299.7 69.4968 301.62 69.4968C303.18 69.4968 304.68 69.2567 306.06 68.6566C307.38 68.1164 308.64 67.4563 309.78 66.6161C310.86 65.8359 311.82 64.8757 312.6 63.7954C313.32 62.8352 313.92 61.8149 314.34 60.6747H306.9C306.54 61.0948 306.12 61.4548 305.64 61.7549C305.16 62.055 304.62 62.295 304.02 62.4751C303.24 62.7151 302.4 62.7752 301.62 62.7752C300 62.8952 298.44 62.3551 297.18 61.3948C296.1 60.4946 295.38 59.2943 295.08 57.974H314.94C314.97 57.824 314.985 57.6739 315 57.5239C315.015 57.3739 315.03 57.2238 315.06 57.0738C315.09 56.9238 315.105 56.7737 315.12 56.6237C315.135 56.4736 315.15 56.3236 315.18 56.1736C315.24 55.8137 315.24 55.5137 315.24 55.2138V55.2133C315.24 53.2329 314.88 51.3124 314.16 49.452C313.5 47.7716 312.48 46.2712 311.22 44.9509C310.02 43.7506 308.52 42.7304 306.9 42.0702C305.16 41.41 303.36 41.0499 301.5 41.0499C299.64 41.11 297.78 41.4701 296.1 42.1902C294.36 42.9104 292.86 43.9906 291.54 45.2509C290.22 46.5713 289.14 48.0716 288.42 49.752C287.64 51.4924 287.28 53.3529 287.28 55.2734C287.28 57.1938 287.64 59.0543 288.42 60.7947C289.14 62.4751 290.22 63.9755 291.54 65.2958C292.86 66.6161 294.42 67.6363 296.1 68.3565ZM306.06 49.2719C307.32 50.2922 308.16 51.6725 308.46 53.2329H294.78C295.08 51.6725 295.92 50.2922 297.18 49.2719C298.44 48.2517 300 47.7115 301.62 47.7115C303.24 47.7115 304.8 48.2517 306.06 49.2719ZM327.72 31.2076H320.58V69.1967H327.72V31.2076ZM337.62 79.0991C337.92 79.1591 338.28 79.1591 338.58 79.1591C339.6 79.1591 340.68 78.979 341.64 78.679C342.54 78.3189 343.44 77.7788 344.16 77.1186C345.06 76.2784 345.78 75.3182 346.38 74.2979C347.16 72.9176 347.88 71.5373 348.48 70.0969C348.51 70.0069 348.585 69.8268 348.697 69.5567C348.81 69.2867 348.96 68.9266 349.14 68.4765C349.343 67.9349 349.584 67.336 349.853 66.6691C350.06 66.1536 350.284 65.5975 350.52 64.9957C351.026 63.8299 351.533 62.5357 352.076 61.1492C352.176 60.8941 352.277 60.6358 352.38 60.3746C352.8 59.3945 353.199 58.394 353.602 57.3851C353.89 56.664 354.18 55.9387 354.48 55.2133C356.1 51.1324 357.96 46.5113 360 41.4701H352.56L346.02 59.5344L338.88 41.4701H331.44L342.36 67.9964L341.76 69.4968C341.34 70.517 340.62 71.3572 339.78 72.0774C338.7 72.7976 337.44 73.1577 336.12 73.0976V78.799C336.2 78.819 336.28 78.8457 336.36 78.8724C336.52 78.9257 336.68 78.979 336.84 78.979C337.08 79.0391 337.38 79.0991 337.62 79.0991ZM95.3395 31.2076C98.9395 28.867 103.079 27.6667 107.339 27.6667C110.159 27.6667 112.979 28.2069 115.619 29.2871C118.259 30.3074 120.659 31.8678 122.639 33.7882C124.619 35.7087 126.239 38.0492 127.319 40.5698C128.399 43.0904 128.939 45.7911 128.939 48.5517C128.939 52.6327 127.619 56.7137 125.279 60.1345C122.939 63.5554 119.579 66.256 115.619 67.8164C111.659 69.4368 107.339 69.7968 103.139 69.0167C98.9395 68.2365 95.0995 66.256 92.0995 63.3153C89.0995 60.4346 87.0594 56.7137 86.2194 52.6327C85.3794 48.6118 85.7994 44.4108 87.4194 40.5698C89.0395 36.7889 91.7994 33.4881 95.3395 31.2076ZM99.4795 60.0145C101.819 61.5149 104.579 62.295 107.339 62.235C111.059 62.175 114.599 60.7347 117.179 58.3341C119.819 55.7535 121.259 52.3327 121.259 48.7318V48.5517C121.199 45.8511 120.359 43.2105 118.799 40.9899C117.239 38.7694 115.019 37.029 112.439 36.0087C109.859 34.9885 106.979 34.7484 104.279 35.2886C101.519 35.8287 98.9995 37.149 97.0794 39.0695C95.0995 40.9899 93.8395 43.4505 93.2995 46.0912C92.8195 48.7318 93.1195 51.4924 94.1995 53.953C95.3395 56.4136 97.1395 58.5141 99.4795 60.0145Z" fill="white" style="fill:white;fill-opacity:1;"/></svg>