<svg width="220" height="74" viewBox="0 0 220 74" fill="none" xmlns="http://www.w3.org/2000/svg"><g clip-path="url(#a)"><path d="M220 73.9395H0V0.939453H220V73.9395ZM3.652 70.2895H216.348V4.58945H3.652V70.2895Z" fill="white" style="fill:white;fill-opacity:1;"/><path d="M25.6523 56.569V18.3099H34.0563C39.9083 18.3099 41.0963 21.1244 41.0963 25.3901V28.9081C41.0963 33.7015 38.8083 35.9443 33.9243 35.9443H29.8323V56.569H25.6523ZM29.7883 32.2503H33.6163C35.8163 32.2503 36.9603 31.0629 36.9603 28.7762V24.9503C36.9603 22.6635 35.7723 21.4762 33.5283 21.4762H29.7883V32.2503ZM45.2763 56.569V18.3099H49.4564V52.7431H56.0124V56.569H45.2763ZM95.2604 56.569L85.8444 27.4569V56.569H82.3244V18.3099H86.5044L96.0084 46.8063V18.3099H99.3524V56.569H95.2604ZM105.292 56.569V18.3099H117.656V22.1798H109.472V31.5907H116.556V35.2846H109.472V52.7431H117.656V56.569H105.292ZM127.38 56.569V22.1798H122.056V18.3099H136.928V22.1798H131.56V56.569H127.38ZM184.184 56.569V37.3075L178.376 18.3099H182.38L186.252 32.9539L190.124 18.3099H194.216L188.364 37.3075V56.569H184.184ZM72.8204 56.569L71.9404 50.7202H64.7683L63.8883 56.569H59.7083L66.4844 18.3099H70.2683L77.0444 56.569H72.8204ZM65.2963 47.0262H71.3684L68.3324 27.1931L65.2963 47.0262ZM151.36 56.569L150.48 50.7202H143.308L142.428 56.569H138.248L145.024 18.3099H148.808L155.584 56.569H151.36ZM143.836 47.0262H149.908L146.872 27.1931L143.836 47.0262ZM171.688 56.569L165.704 36.1202H164.032V56.569H159.896V18.3099H168.3C174.152 18.3099 175.34 21.0364 175.34 25.3901V29.084C175.34 33.0419 173.888 35.1967 170.764 35.8563L169.972 36.0322L175.956 56.569H171.688ZM164.032 32.4262H167.86C170.06 32.4262 171.204 31.2388 171.204 28.9521V24.9503C171.204 22.6635 170.016 21.4762 167.772 21.4762H164.032V32.4262Z" fill="white" style="fill:white;fill-opacity:1;"/></g><defs><clipPath id="a"><rect width="220" height="74" fill="white" style="fill:white;fill-opacity:1;"/></clipPath></defs></svg>