<svg width="280" height="57" viewBox="0 0 280 57" fill="none" xmlns="http://www.w3.org/2000/svg"><g clip-path="url(#a)"><path d="M208.753 19.9043V55.3516H197.334V14.3533L208.753 19.9043Z" fill="#525252" style="fill:#525252;fill:color(display-p3 0.3208 0.3208 0.3208);fill-opacity:1;"/><path d="M47.1387 48.7699L55.7031 56.2241L91.7848 37.4299L88.0577 28.469L47.1387 48.7699ZM197.334 25.9314L226.358 10.8643L221.441 2.37915L197.334 14.3535V25.9314Z" fill="#A7A7A7" style="fill:#A7A7A7;fill:color(display-p3 0.6542 0.6542 0.6542);fill-opacity:1;"/><path d="M115.654 17.1289V55.3517H104.711V0.872314L115.654 17.1289ZM47.1387 48.7698L55.7031 56.224L72.1976 14.9878L66.8845 0.872314L47.1387 48.7698Z" fill="#525252" style="fill:#525252;fill:color(display-p3 0.3208 0.3208 0.3208);fill-opacity:1;"/><path d="M66.8848 0.872314H78.1454L99.0014 55.3517H87.4236L66.8848 0.872314ZM117.32 0.872314L141.348 38.0642V55.3517L104.711 0.872314H117.32ZM161.966 0.872314H173.306V55.3517H161.966V0.872314ZM197.334 10.8642H179.888V0.872314H220.569L226.358 10.8642H208.753H197.334Z" fill="black" style="fill:black;fill-opacity:1;"/><path d="M259.902 34.6541V55.3515H248.642V34.6541" fill="#A7A7A7" style="fill:#A7A7A7;fill:color(display-p3 0.6542 0.6542 0.6542);fill-opacity:1;"/><path d="M267.674 0.872314L248.642 34.6543H259.902L279.648 0.872314H267.674Z" fill="black" style="fill:black;fill-opacity:1;"/><path d="M248.641 34.6543L228.975 0.872314H241.345L254.589 24.028L248.641 34.6543Z" fill="#525252" style="fill:#525252;fill:color(display-p3 0.3208 0.3208 0.3208);fill-opacity:1;"/><path d="M4.87221 7.21606C4.87221 14.7496 9.55094 19.2697 18.9084 21.6487L28.8209 23.9485C37.7026 26.0103 43.095 31.0855 43.095 39.3327C43.1743 42.9012 41.9848 46.3905 39.8437 49.2453C39.8437 40.998 35.5615 36.5572 25.3317 33.861L15.5778 31.6406C7.72703 29.896 1.7002 25.6931 1.7002 16.7321C1.7002 13.3222 2.8104 9.91228 4.87221 7.21606Z" fill="black" style="fill:black;fill-opacity:1;"/><path d="M141.348 35.2884V0.87207H152.291V55.3514H141.348V35.2884Z" fill="#525252" style="fill:#525252;fill:color(display-p3 0.3208 0.3208 0.3208);fill-opacity:1;"/><path d="M33.737 37.2712C37.94 39.9674 39.8432 43.7738 39.8432 49.2456C36.2747 53.7657 30.1685 56.224 22.9522 56.224C10.8192 56.224 2.17547 50.1972 0.351562 39.8088H12.0087C13.5154 44.5668 17.4805 46.7872 22.8729 46.7872C29.2962 46.8665 33.6577 43.3773 33.737 37.2712ZM10.9778 18.3977C7.0128 16.0187 4.71309 11.7365 4.87169 7.13704C8.2816 2.69621 14.1498 0 21.2869 0C33.737 0 40.8741 6.58193 42.698 15.7808H31.4373C30.1685 12.133 27.0758 9.27815 21.4455 9.27815C15.3393 9.35745 11.2157 12.8467 10.9778 18.3977Z" fill="#525252" style="fill:#525252;fill:color(display-p3 0.3208 0.3208 0.3208);fill-opacity:1;"/></g><defs><clipPath id="a"><rect width="280" height="56.224" fill="white" style="fill:white;fill-opacity:1;"/></clipPath></defs></svg>