<svg width="280" height="57" viewBox="0 0 280 57" fill="none" xmlns="http://www.w3.org/2000/svg"><g clip-path="url(#a)"><path d="M208.753 19.9048V55.3521H197.334V14.3538L208.753 19.9048Z" fill="#A5A5A5" style="fill:#A5A5A5;fill:color(display-p3 0.6458 0.6458 0.6458);fill-opacity:1;"/><path d="M47.1387 48.7697L55.7031 56.224L91.7848 37.4298L88.0577 28.4688L47.1387 48.7697ZM197.334 25.9312L226.358 10.8641L221.441 2.379L197.334 14.3534V25.9312Z" fill="#BFBFBF" style="fill:#BFBFBF;fill:color(display-p3 0.7500 0.7500 0.7500);fill-opacity:1;"/><path d="M115.654 17.1294V55.3522H104.711V0.872803L115.654 17.1294ZM47.1387 48.7702L55.7031 56.2245L72.1976 14.9883L66.8845 0.872803L47.1387 48.7702Z" fill="#A5A5A5" style="fill:#A5A5A5;fill:color(display-p3 0.6458 0.6458 0.6458);fill-opacity:1;"/><path d="M66.8848 0.872803H78.1454L99.0014 55.3522H87.4236L66.8848 0.872803ZM117.32 0.872803L141.348 38.0647V55.3522L104.711 0.872803H117.32ZM161.966 0.872803H173.306V55.3522H161.966V0.872803ZM197.334 10.8647H179.888V0.872803H220.569L226.358 10.8647H208.753H197.334Z" fill="white" style="fill:white;fill-opacity:1;"/><path d="M259.902 34.6545V55.3519H248.642V34.6545" fill="#BFBFBF" style="fill:#BFBFBF;fill:color(display-p3 0.7500 0.7500 0.7500);fill-opacity:1;"/><path d="M267.674 0.872803L248.642 34.6548H259.902L279.648 0.872803H267.674Z" fill="white" style="fill:white;fill-opacity:1;"/><path d="M248.641 34.6548L228.975 0.872803H241.345L254.589 24.0285L248.641 34.6548Z" fill="#A5A5A5" style="fill:#A5A5A5;fill:color(display-p3 0.6458 0.6458 0.6458);fill-opacity:1;"/><path d="M4.87221 7.21655C4.87221 14.7501 9.55094 19.2702 18.9084 21.6492L28.8209 23.9489C37.7026 26.0107 43.095 31.086 43.095 39.3332C43.1743 42.9017 41.9848 46.391 39.8437 49.2458C39.8437 40.9985 35.5615 36.5577 25.3317 33.8615L15.5778 31.6411C7.72703 29.8965 1.7002 25.6935 1.7002 16.7326C1.7002 13.3227 2.8104 9.91277 4.87221 7.21655Z" fill="white" style="fill:white;fill-opacity:1;"/><path d="M141.348 35.2892V0.872864H152.291V55.3522H141.348V35.2892Z" fill="#A5A5A5" style="fill:#A5A5A5;fill:color(display-p3 0.6458 0.6458 0.6458);fill-opacity:1;"/><path d="M33.737 37.2715C37.94 39.9677 39.8432 43.7741 39.8432 49.2459C36.2747 53.766 30.1685 56.2243 22.9522 56.2243C10.8192 56.2243 2.17547 50.1975 0.351562 39.8091H12.0087C13.5154 44.5671 17.4805 46.7875 22.8729 46.7875C29.2962 46.8668 33.6577 43.3776 33.737 37.2715ZM10.9778 18.398C7.0128 16.019 4.71309 11.7368 4.87169 7.13734C8.2816 2.69652 14.1498 0.000305176 21.2869 0.000305176C33.737 0.000305176 40.8741 6.58224 42.698 15.7811H31.4373C30.1685 12.1333 27.0758 9.27845 21.4455 9.27845C15.3393 9.35775 11.2157 12.847 10.9778 18.398Z" fill="#A5A5A5" style="fill:#A5A5A5;fill:color(display-p3 0.6458 0.6458 0.6458);fill-opacity:1;"/></g><defs><clipPath id="a"><rect width="280" height="56.224" fill="white" style="fill:white;fill-opacity:1;"/></clipPath></defs></svg>