<svg width="300" height="67" viewBox="0 0 300 67" fill="none" xmlns="http://www.w3.org/2000/svg"><path d="M43.4305 3.39911C42.8079 2.36384 41.9284 1.50695 40.8773 0.911429C39.8262 0.315912 38.6391 0.00196379 37.4311 5.14779e-07C36.2222 -0.000463251 35.034 0.312437 33.9821 0.908172C32.9303 1.50391 32.0509 2.36213 31.4296 3.39911L21.5558 20.3518C29.1024 24.1301 35.529 29.8174 40.1971 36.8486C44.8703 43.8871 47.6252 52.0236 48.1892 60.4534H41.2548C40.6927 53.2275 38.257 46.2727 34.1878 40.275C30.1227 34.2839 24.563 29.4587 18.0593 26.2773L8.92377 42.1177C12.5792 43.762 15.7624 46.2994 18.1801 49.4964C20.6009 52.6974 22.1795 56.4548 22.7713 60.4242H6.85317C6.56718 60.4046 6.29914 60.2777 6.10267 60.069C5.90621 59.8602 5.79579 59.585 5.79352 59.2983C5.79055 59.1087 5.83473 58.9213 5.92208 58.7529L10.334 51.234C8.8398 49.9836 7.1311 49.0148 5.29096 48.3744L0.927704 55.8953C0.473116 56.6768 0.177935 57.5407 0.0592277 58.4369C-0.0594801 59.3332 0.000638726 60.2441 0.236109 61.117C0.47158 61.9898 0.877731 62.8074 1.43108 63.5223C1.98444 64.2373 2.67401 64.8355 3.45995 65.2823C4.49623 65.8667 5.66496 66.1784 6.85317 66.1842H28.6539C29.0589 61.1759 28.1666 56.1478 26.0632 51.5846C23.9625 47.0254 20.7205 43.0856 16.651 40.1465L20.1163 34.1294C25.2521 37.6675 29.3769 42.4833 32.0841 48.1017C34.7952 53.7247 35.9968 59.9563 35.5708 66.1842H54.0407C54.4692 56.7485 52.4239 47.3654 48.1016 38.9719C43.7855 30.5822 37.3436 23.4719 29.4194 18.3513L36.4259 6.31708C36.5824 6.05623 36.8352 5.86747 37.1298 5.79164C37.4243 5.71581 37.7369 5.75902 37.9998 5.91191C38.7965 6.34824 68.4453 58.2133 68.9985 58.8133C69.0959 58.9891 69.1454 59.1874 69.1419 59.3883C69.1385 59.5893 69.0822 59.7858 68.9788 59.9581C68.8753 60.1304 68.7284 60.2724 68.5527 60.37C68.377 60.4675 68.1787 60.5171 67.9778 60.5138H60.8368C60.9264 62.4286 60.9264 64.3395 60.8368 66.2446H68.0089C69.3824 66.2541 70.7272 65.8521 71.8701 65.0904C73.013 64.3287 73.9016 63.2422 74.4214 61.9709C74.8232 60.9917 74.995 59.9335 74.9238 58.8775C74.8525 57.8216 74.54 56.796 74.0104 55.8797L43.4305 3.39911ZM186.45 42.5385L164.303 13.8691H158.784V52.3014H164.381V22.849L187.157 52.3014H192.048V13.8691H186.452L186.45 42.5385ZM130.68 35.4091H150.529V30.4147H130.667V18.848H153.067V13.8535H124.963V52.3014H153.352V47.307H130.665L130.68 35.4091ZM107.335 30.5355C99.6075 28.6694 97.4473 27.1948 97.4473 23.6165C97.4473 20.3966 100.281 18.2149 104.514 18.2149C108.369 18.3294 112.085 19.6741 115.12 22.0523L118.12 17.7942C114.277 14.7731 109.505 13.1786 104.617 13.2828C97.0266 13.2828 91.7303 17.7942 91.7303 24.2184C91.7303 31.1374 96.2299 33.5294 104.423 35.528C111.716 37.2129 113.95 38.7771 113.95 42.2833C113.95 45.7876 110.95 47.9517 106.314 47.9517C101.697 47.9298 97.2543 46.1808 93.8613 43.0489L90.4856 47.0966C94.8319 50.8424 100.382 52.8982 106.119 52.8878C114.339 52.8878 119.622 48.4504 119.622 41.5899C119.577 35.7851 116.155 32.6704 107.335 30.5355ZM293.549 13.8691L282.009 31.9185L270.548 13.8691H263.855L278.994 37.1077V52.3151H284.756V36.9266L300 13.8691H293.549ZM196.577 19.074H209.135V52.3151H214.897V19.074H227.455V13.8711H196.593L196.577 19.074ZM254.102 37.3045C259.895 35.6935 263.105 31.6321 263.105 25.8274C263.105 18.4409 257.719 13.7932 249.032 13.7932H231.988V52.2839H237.689V38.4771H247.366L257.088 52.3151H263.75L253.247 37.5441L254.102 37.3045ZM237.674 33.545V18.9532H248.432C254.044 18.9532 257.254 21.616 257.254 26.2325C257.254 30.8491 253.818 33.543 248.492 33.543H237.674V33.545Z" fill="white" style="fill:white;fill-opacity:1;"/></svg>