<svg width="321" height="55" viewBox="0 0 321 55" fill="none" xmlns="http://www.w3.org/2000/svg"><g clip-path="url(#a)"><g clip-path="url(#b)"><path opacity="0.3" fill-rule="evenodd" clip-rule="evenodd" d="M15.6734 0.735138L0.00195312 27.676L15.6734 54.6169H47.0163L62.6878 27.676L47.0163 0.735138L15.6734 0.735138ZM19.214 6.82189L7.08322 27.676L19.214 48.5302H43.4756L55.6064 27.676L43.4756 6.82189H19.214Z" fill="white" style="fill:white;fill-opacity:1;"/><path opacity="0.6" fill-rule="evenodd" clip-rule="evenodd" d="M21.9702 43.792L21.9903 43.8266H40.78L50.1749 27.6759L40.78 11.5252H21.9903L21.9702 11.5598L31.345 27.6759L21.9702 43.792Z" fill="white" style="fill:white;fill-opacity:1;"/><path opacity="0.6" fill-rule="evenodd" clip-rule="evenodd" d="M15.6718 0.719727L0.00195312 27.6579L15.6734 54.5988H47.0163L47.0242 54.5852L43.4824 48.5002L43.4756 48.5119H19.214L7.08322 27.6578L19.2135 6.8046L15.6718 0.719727Z" fill="white" style="fill:white;fill-opacity:1;"/><path opacity="0.3" fill-rule="evenodd" clip-rule="evenodd" d="M50.1116 27.7158L50.1349 27.6759L40.74 11.5252H21.9504L21.9302 11.5598L31.3049 27.6759L31.2817 27.7158H50.1116Z" fill="white" style="fill:white;fill-opacity:1;"/><path opacity="0.6" d="M307.993 23.7717C311.65 23.7717 314.552 24.7542 316.701 26.7192C318.881 28.6508 319.972 31.2652 319.972 34.5623C319.972 38.026 318.831 40.7569 316.55 42.7552C314.267 44.7535 311.147 45.7526 307.188 45.7526C303.228 45.7526 300.091 44.6036 297.775 42.3056C295.494 40.0076 294.352 36.6938 294.352 32.3643C294.352 26.2029 295.946 21.2072 299.134 17.3773C302.355 13.514 307.053 10.9162 313.227 9.58408L315.09 13.5806C311.164 14.28 307.959 15.7287 305.476 17.9268C303.027 20.1249 301.366 22.9891 300.493 26.5193C302.439 24.6876 304.939 23.7717 307.993 23.7717ZM307.188 41.5063C309.469 41.5063 311.247 40.9068 312.523 39.7079C313.832 38.5089 314.485 36.7937 314.485 34.5623C314.485 32.4642 313.848 30.8489 312.573 29.7166C311.331 28.5842 309.553 28.018 307.237 28.018C304.016 28.018 301.55 29.2502 299.839 31.7148V32.3643C299.839 35.1286 300.443 37.3432 301.651 39.0085C302.859 40.6737 304.704 41.5063 307.188 41.5063Z" fill="white" style="fill:white;fill-opacity:1;"/><path d="M277.758 35.9611H263.313L260.545 45.1531H254.605L263.414 16.8278C263.984 14.9627 264.572 13.514 265.175 12.4816C265.812 11.4491 266.551 10.7164 267.391 10.2835C268.229 9.8172 269.286 9.58408 270.56 9.58408C271.802 9.58408 272.843 9.8172 273.681 10.2835C274.52 10.7164 275.258 11.4491 275.896 12.4816C276.533 13.514 277.138 14.9627 277.708 16.8278L286.466 45.1531H280.527L277.758 35.9611ZM276.45 31.5649L272.07 16.9277C271.869 16.2616 271.651 15.7787 271.417 15.4789C271.215 15.1792 270.93 15.0293 270.56 15.0293C270.192 15.0293 269.89 15.1792 269.655 15.4789C269.42 15.7787 269.201 16.2616 269 16.9277L264.622 31.5649H276.45Z" fill="white" style="fill:white;fill-opacity:1;"/><path d="M247.721 45.1531H241.429L239.064 37.0102C238.594 35.3782 238.107 34.1127 237.603 33.2135C237.1 32.2809 236.396 31.5815 235.49 31.1153C234.618 30.649 233.426 30.4159 231.916 30.4159H225.776V45.1531H219.836V10.1835H234.382C238.342 10.1835 241.295 11.0161 243.241 12.6813C245.188 14.3465 246.16 16.861 246.16 20.2248C246.16 22.5893 245.557 24.4877 244.349 25.9198C243.14 27.3519 241.446 28.2511 239.265 28.6175C240.909 29.1836 242.168 30.1495 243.04 31.515C243.913 32.8804 244.684 34.7122 245.356 37.0102L247.721 45.1531ZM234.382 25.77C236.128 25.77 237.536 25.3037 238.61 24.3712C239.684 23.4386 240.221 22.0898 240.221 20.3247C240.221 18.5263 239.684 17.1608 238.61 16.2283C237.536 15.2957 236.128 14.8295 234.382 14.8295H225.776V25.77H234.382Z" fill="white" style="fill:white;fill-opacity:1;"/><path d="M201.481 35.9611H187.036L184.267 45.1531H178.328L187.136 16.8278C187.706 14.9627 188.293 13.514 188.898 12.4816C189.535 11.4491 190.274 10.7164 191.112 10.2835C191.951 9.8172 193.009 9.58408 194.283 9.58408C195.525 9.58408 196.565 9.8172 197.405 10.2835C198.243 10.7164 198.982 11.4491 199.619 12.4816C200.256 13.514 200.861 14.9627 201.431 16.8278L210.189 45.1531H204.249L201.481 35.9611ZM200.172 31.5649L195.793 16.9277C195.592 16.2616 195.374 15.7787 195.139 15.4789C194.938 15.1792 194.653 15.0293 194.283 15.0293C193.914 15.0293 193.612 15.1792 193.378 15.4789C193.143 15.7787 192.925 16.2616 192.724 16.9277L188.345 31.5649H200.172Z" fill="white" style="fill:white;fill-opacity:1;"/><path d="M160.42 45.1531C156.259 45.1531 153.239 44.2539 151.36 42.4555C149.515 40.6236 148.592 37.9427 148.592 34.4125V10.1835H154.531V34.4125C154.531 36.5106 155.001 38.0593 155.941 39.0584C156.914 40.0241 158.406 40.5071 160.42 40.5071H171.695V45.1531H160.42Z" fill="white" style="fill:white;fill-opacity:1;"/><path d="M124.299 45.7526C119.702 45.7526 116.178 44.6702 113.729 42.5054C111.279 40.3406 110.055 37.1768 110.055 33.0137V22.323C110.055 18.1599 111.279 14.9961 113.729 12.8313C116.178 10.6665 119.702 9.58408 124.299 9.58408C128.896 9.58408 132.402 10.6665 134.819 12.8313C137.268 14.9961 138.493 18.1599 138.493 22.323V33.0137C138.493 37.1768 137.268 40.3406 134.819 42.5054C132.402 44.6702 128.896 45.7526 124.299 45.7526ZM124.299 41.1066C126.95 41.1066 128.98 40.4239 130.389 39.0584C131.832 37.6596 132.553 35.6447 132.553 33.0137V22.323C132.553 19.692 131.832 17.6937 130.389 16.3282C128.98 14.9294 126.95 14.23 124.299 14.23C121.614 14.23 119.551 14.9294 118.108 16.3282C116.699 17.6937 115.994 19.692 115.994 22.323V33.0137C115.994 35.6447 116.699 37.6596 118.108 39.0584C119.551 40.4239 121.614 41.1066 124.299 41.1066Z" fill="white" style="fill:white;fill-opacity:1;"/><path d="M87.2972 45.7526C84.9819 45.7526 83.0189 45.5195 81.4083 45.0532C79.8312 44.5536 78.4722 43.8376 77.3314 42.9051C76.1905 41.9726 75.0329 40.7403 73.8584 39.2083L77.885 35.8612C79.2608 37.7596 80.6365 39.1084 82.0123 39.9077C83.4216 40.707 85.1664 41.1066 87.2469 41.1066C90.0655 41.1066 92.1627 40.657 93.5385 39.7578C94.9143 38.8586 95.6021 37.4765 95.6021 35.6114C95.6021 34.579 95.3001 33.7463 94.6961 33.1136C94.1256 32.4475 93.1023 31.8814 91.6258 31.4151C90.183 30.9155 88.0187 30.366 85.1329 29.7665C81.8445 29.1004 79.395 27.9348 77.7843 26.2696C76.1737 24.6043 75.3684 22.3896 75.3684 19.6253C75.3684 17.5938 75.8885 15.8286 76.9287 14.3299C77.9689 12.7979 79.4453 11.6323 81.358 10.833C83.2706 10.0004 85.5188 9.58408 88.1025 9.58408C91.2567 9.58408 93.8236 10.067 95.8034 11.0328C97.8167 11.9986 99.4106 13.4307 100.585 15.3291L96.6591 18.5263C95.3504 17.0276 94.0586 15.9453 92.7835 15.2791C91.542 14.5797 89.9648 14.23 88.0522 14.23C85.9047 14.23 84.2437 14.7129 83.0693 15.6788C81.8948 16.6112 81.3076 17.9435 81.3076 19.6753C81.3076 21.2406 81.962 22.4396 83.2706 23.2722C84.5793 24.0715 86.3912 24.7209 88.7065 25.2205C91.693 25.8199 94.0753 26.4861 95.8538 27.2187C97.6322 27.9181 99.0247 28.9339 100.031 30.2661C101.038 31.5982 101.541 33.3801 101.541 35.6114C101.541 42.3722 96.7933 45.7526 87.2972 45.7526Z" fill="white" style="fill:white;fill-opacity:1;"/></g></g><defs><clipPath id="a"><rect width="321" height="55" fill="white" style="fill:white;fill-opacity:1;"/></clipPath><clipPath id="b"><rect width="320" height="54" fill="white" style="fill:white;fill-opacity:1;" transform="translate(0.00195312 0.719727)"/></clipPath></defs></svg>