<svg width="280" height="49" viewBox="0 0 280 49" fill="none" xmlns="http://www.w3.org/2000/svg"><g clip-path="url(#a)"><path d="M45.9174 11.6709L30.8415 34.2104L23.5898 23.4012L6.79199 48.4419L6.86573 48.5539H37.0914C38.1323 48.5539 39.1039 48.0373 39.6807 47.1763L53.5552 26.4833C54.2491 25.4459 54.2491 24.0987 53.5552 23.0612L45.913 11.6665L45.9174 11.6709Z" fill="black" style="fill:black;fill-opacity:1;"/><path d="M23.5898 14.4946L30.8329 25.2952L47.0885 0.994904H16.9843C15.9434 0.994904 14.9718 1.51147 14.395 2.37243L0.520457 23.061C-0.173486 24.0984 -0.173486 25.4459 0.520457 26.4833L8.03241 37.6843L23.5898 14.4946Z" fill="black" style="fill:black;fill-opacity:1;"/><path d="M238.348 43.0339H229.687V6.43774H238.348V43.0339Z" fill="black" style="fill:black;fill-opacity:1;"/><path d="M154.991 37.3077L137.407 37.279L135.015 43.0404H125.628L142.034 6.39306L150.312 6.37708L166.779 43.0243L157.326 43.0404L154.991 37.3077ZM146.969 18.0691C146.748 17.5389 146.17 15.9198 146.17 15.9198C146.17 15.9198 145.605 17.5102 145.397 18.0308C145.052 18.8899 140.422 30.0708 140.422 30.0708H151.928C151.928 30.0708 147.495 19.3402 146.969 18.0691Z" fill="black" style="fill:black;fill-opacity:1;"/><path d="M128.702 13.863H119.332V43.0309H110.725V13.863H101.332V6.43774H128.699V13.863H128.702Z" fill="black" style="fill:black;fill-opacity:1;"/><path d="M191.075 13.863H181.705V43.0309H173.098V13.863H163.705V6.43774H191.072V13.863H191.075Z" fill="black" style="fill:black;fill-opacity:1;"/><path d="M263.193 29.1842H272.029V34.0482C270.713 34.9391 268.52 36.2423 264.201 36.2423C256.249 36.2423 252.007 31.6913 252.007 24.7387C252.007 17.786 256.422 13.2031 264.32 13.2031C267.951 13.2031 270.524 14.0845 273.917 16.7225L278.056 10.5523C274.344 7.1926 269.276 5.75543 264.381 5.75543C252.579 5.75543 243.532 13.6023 243.532 24.7898C243.532 35.9772 252.397 43.7155 263.881 43.7155C272.307 43.7155 277.842 40.1098 280 38.433V21.8068H263.198V29.1842H263.193Z" fill="black" style="fill:black;fill-opacity:1;"/><path d="M78.998 16.5587C78.998 14.6553 81.5402 13.3619 85.0915 13.3619C88.3936 13.3619 90.6612 13.9654 93.0692 15.1886L97.3263 8.84281L97.3648 8.78212L97.3744 8.76934C93.954 6.88827 90.3802 5.71939 85.3246 5.71939C76.475 5.71939 69.9248 10.1554 70.0271 17.1591C70.0271 30.5758 90.7156 26.3058 90.7156 32.7283C90.7156 35.1491 87.7422 36.12 84.1813 36.12C80.087 36.12 76.2036 34.5518 72.8564 32.722L68.5132 39.1986C71.7803 41.447 77.5128 43.8293 84.0886 43.8293C93.344 43.8293 99.5428 39.8981 99.5428 32.0577C99.5428 18.0949 78.998 23.2654 78.998 16.5587Z" fill="black" style="fill:black;fill-opacity:1;"/><path d="M203.959 16.5589C203.959 14.6554 206.501 13.362 210.052 13.362C213.355 13.362 215.622 13.9656 218.03 15.1888L222.287 8.84297L222.326 8.78228L222.335 8.76951C218.915 6.88843 215.341 5.71954 210.286 5.71954C201.436 5.71954 194.886 10.1556 194.988 17.1593C194.988 30.5758 215.676 26.306 215.676 32.7285C215.676 35.1491 212.703 36.12 209.142 36.12C205.048 36.12 201.164 34.552 197.817 32.722L193.474 39.1988C196.741 41.447 202.474 43.8296 209.05 43.8296C218.305 43.8296 224.504 39.8981 224.504 32.0577C224.504 18.095 203.959 23.2656 203.959 16.5589Z" fill="black" style="fill:black;fill-opacity:1;"/></g><defs><clipPath id="a"><rect width="280" height="49" fill="white" style="fill:white;fill-opacity:1;"/></clipPath></defs></svg>