<svg width="269" height="103" viewBox="0 0 269 103" fill="none" xmlns="http://www.w3.org/2000/svg"><g clip-path="url(#a)"><path d="M249.881 63.3102L244.714 63.2651C243.321 63.2651 242.197 64.3931 242.197 65.7919V68.5443C242.197 69.9431 243.321 71.0711 244.714 71.0711L249.881 71.1163V83.0736C249.791 88.6236 251.813 93.7224 255.588 97.4675C259.048 100.942 264.395 102.792 261.429 101.574L263.991 102.657C265.294 103.153 266.732 102.566 267.226 101.303L268.304 98.7309C268.799 97.4224 268.214 95.9785 266.956 95.4821C266.956 95.4821 265.653 94.9407 265.518 94.8955C263.901 94.3541 262.418 93.4065 261.07 92.0528C258.733 89.7065 257.655 86.6833 257.655 83.1638V71.1614C257.655 71.1614 264.889 71.2065 262.822 71.2065H265.563C266.956 71.2065 268.08 70.0785 268.08 68.6797V65.9272C268.08 64.5285 266.956 63.4004 265.563 63.4004H257.655L257.61 46.3894C257.61 44.9907 256.486 43.8626 255.093 43.8626H252.352C250.96 43.8626 249.836 44.9907 249.836 46.3894L249.881 63.3102Z" fill="white" style="fill:white;fill-opacity:1;"/><path d="M236.669 50.8565C236.669 50.8565 235.591 51.3528 235.321 51.4431C233.703 51.9845 232.221 52.9321 230.873 54.2858C228.536 56.6321 227.458 59.6553 227.458 63.1748L235.456 63.1297C236.849 63.1297 237.972 64.2577 237.972 65.6565V68.4089C237.972 69.8077 236.849 70.9358 235.456 70.9358H227.458V99.9943C227.458 101.393 226.334 102.521 224.941 102.521H222.2C220.807 102.521 219.684 101.393 219.684 99.9943V70.8906H214.516C213.123 70.8906 212 69.7626 212 68.3638V65.6114C212 64.2126 213.123 63.0845 214.516 63.0845L219.684 63.1297C219.594 57.5797 221.616 52.4809 225.391 48.7358C227.997 46.0285 233.703 43.5919 233.703 43.5919C235.007 43.0955 236.444 43.6821 236.939 44.9455L238.017 47.5175C238.556 48.8711 237.972 50.3602 236.669 50.8565Z" fill="white" style="fill:white;fill-opacity:1;"/><path d="M207.597 99.9492C207.597 101.348 206.474 102.476 205.081 102.476H202.34C200.947 102.476 199.823 101.348 199.823 99.9492V98.5955C196.498 101.348 192.814 102.386 188.41 102.386C177.401 102.386 168.684 94.1736 168.684 83.1187C168.684 72.0638 177.401 63.3102 188.41 63.3102C192.814 63.3102 196.723 64.709 199.868 67.0553V65.6565C199.868 64.2577 200.992 63.1297 202.385 63.1297H205.126C206.519 63.1297 207.642 64.2577 207.642 65.6565C207.732 65.7919 207.912 100.175 207.597 99.9492ZM188.455 71.0712C181.894 71.0712 176.367 76.6212 176.367 83.209C176.367 89.7968 181.894 94.8053 188.455 94.8053C194.656 94.8053 199.464 90.3382 199.958 84.337V82.1712C199.419 76.0346 194.656 71.0712 188.455 71.0712Z" fill="white" style="fill:white;fill-opacity:1;"/><path d="M169.358 68.5895C169.358 69.9883 168.235 71.1163 166.842 71.1163H164.505C164.37 71.1163 164.011 71.1614 163.831 71.2066C163.876 71.2066 163.157 71.2968 163.112 71.3419C163.022 71.3419 162.753 71.4322 162.573 71.4773C162.483 71.4773 162.259 71.5675 162.124 71.6127C162.079 71.6127 161.719 71.748 161.629 71.7931C161.585 71.7931 161.18 71.9736 161.135 71.9736C161.09 71.9736 160.686 72.1541 160.641 72.1992C160.596 72.1992 160.192 72.4248 160.147 72.4248C160.102 72.47 159.787 72.6505 159.652 72.6956C159.248 72.9212 159.068 73.0566 159.203 72.9663C158.933 73.1468 158.619 73.3273 158.349 73.5529H158.304C158.259 73.598 158.035 73.7785 157.945 73.8236C157.9 73.8688 157.63 74.1395 157.54 74.1846C157.451 74.2748 157.046 74.6809 156.956 74.7712C156.866 74.8614 156.372 75.448 156.237 75.6285C156.282 75.5834 156.058 75.8541 155.923 76.0797C155.923 76.0797 155.743 76.3053 155.743 76.3505C155.743 76.3505 155.384 76.937 155.428 76.8919C155.428 76.8919 155.294 77.1627 155.204 77.2529C155.024 77.5688 154.71 78.3358 154.754 78.2005C154.799 78.1553 154.665 78.4261 154.62 78.5163C154.62 78.5614 154.44 78.9675 154.35 79.2834C154.35 79.2383 154.26 79.5541 154.215 79.6895C154.215 79.6895 154.125 80.0053 154.125 80.0505C154.125 80.0053 154.08 80.2309 154.035 80.4114C153.901 81.1334 153.811 82.3066 153.811 81.8553C153.811 82.0358 153.766 82.487 153.766 82.2614C153.766 82.3517 153.766 82.5322 153.766 82.5322C153.766 82.6224 153.766 82.7127 153.766 82.8029V99.9492C153.766 101.348 152.643 102.476 151.25 102.476H148.509C147.116 102.476 145.992 101.348 145.992 99.9492V82.8029C145.992 82.6224 145.992 82.487 145.992 82.3066C145.992 82.0809 145.992 81.8553 146.037 81.6297C146.037 81.8102 146.082 80.9529 146.172 80.1407C146.352 78.8773 146.576 77.8846 146.442 78.4712C146.486 78.1553 146.711 77.298 146.801 77.1175C146.891 76.8919 147.026 76.3956 147.026 76.3956C147.026 76.3505 147.116 76.1248 147.205 75.8541C147.205 75.8541 147.295 75.5834 147.43 75.2675C147.475 75.1322 147.79 74.4102 147.835 74.32C147.924 74.1395 148.374 73.237 148.419 73.1919C148.598 72.8309 148.823 72.47 149.048 72.109C149.093 72.0639 149.227 71.8383 149.407 71.5675C149.452 71.4773 149.632 71.2066 149.677 71.1614C149.632 71.2066 150.036 70.7102 150.171 70.5297C150.261 70.3944 150.441 70.2139 150.486 70.1236C150.845 69.6724 151.25 69.2212 151.699 68.8151C151.834 68.6797 152.418 68.1383 152.912 67.7322C153.406 67.3261 153.946 66.9651 153.991 66.8749C154.305 66.6492 154.62 66.4687 154.979 66.2431C155.518 65.9273 156.327 65.4761 156.777 65.2053C156.911 65.1151 157.046 65.07 157.226 64.9797C157.451 64.8895 158.169 64.5736 157.81 64.709C157.855 64.6639 158.484 64.4383 158.529 64.4383C158.664 64.3931 159.023 64.2578 159.383 64.1675C159.428 64.1675 160.102 63.9419 160.461 63.8517C160.686 63.8066 160.776 63.7614 160.731 63.7614C160.866 63.7163 161 63.7163 161.135 63.6712C161.315 63.6261 161.809 63.5358 162.079 63.4907C162.169 63.4907 163.022 63.3553 163.112 63.3553C163.247 63.3553 163.652 63.22 164.146 63.22H164.595C164.91 63.22 165.179 63.22 165.539 63.22C165.674 63.22 165.808 63.22 165.943 63.22H166.932C168.325 63.22 169.448 64.348 169.448 65.7468V68.5444H169.358V68.5895Z" fill="white" style="fill:white;fill-opacity:1;"/><path d="M141.498 98.6858V100.085C141.498 101.483 140.374 102.611 138.981 102.611H136.24C134.847 102.611 133.724 101.483 133.724 100.085V98.2346C133.634 96.0687 133.005 93.948 131.792 92.1431C131.522 91.737 131.253 91.376 130.893 90.9699C130.938 91.0602 130.848 90.9248 130.713 90.7895C130.848 90.9248 130.624 90.6541 130.354 90.4285C129.635 89.7065 128.781 88.9846 127.838 88.4882C127.928 88.5334 127.748 88.4431 127.613 88.3529C127.613 88.3529 126.669 87.9016 126.894 87.9919C126.445 87.7663 125.95 87.6309 125.501 87.4504C124.468 87.1346 123.524 86.9992 124.018 87.0895C123.883 87.0443 123.524 86.9992 123.479 86.9992C123.03 86.9541 122.76 86.909 122.625 86.909V100.22C122.625 101.619 121.502 102.747 120.109 102.747H117.368C115.975 102.747 114.852 101.619 114.852 100.22V46.3443C114.852 44.9456 115.975 43.8175 117.368 43.8175H120.109C121.502 43.8175 122.625 44.9456 122.625 46.3443V67.1907C123.03 66.8748 123.344 66.6943 123.569 66.559C123.479 66.6041 124.468 65.9724 125.411 65.4309C125.95 65.1602 126.13 65.0699 125.995 65.1602C126.265 65.0248 126.579 64.8895 126.894 64.7541C126.894 64.7541 126.894 64.7541 126.939 64.7541C127.119 64.6638 127.343 64.6187 127.523 64.5285C127.838 64.4382 128.107 64.3029 128.467 64.2126C128.691 64.1675 128.871 64.0773 129.096 64.0321C129.051 64.0321 129.141 64.0321 129.41 63.9419C129.051 64.0321 129.86 63.8065 130.084 63.7614C130.309 63.7163 131.792 63.4456 131.702 63.4907C131.972 63.4456 132.825 63.3553 133.005 63.3553H133.41C133.904 63.3102 134.803 63.3553 134.758 63.3553H135.746C137.139 63.3553 138.263 64.4834 138.263 65.8821V68.6346C138.263 70.0334 137.139 71.1614 135.746 71.1614H133.41C133.32 71.1614 133.095 71.2065 133.05 71.2065L132.331 71.2968C132.376 71.2968 132.017 71.3419 131.882 71.387C131.837 71.387 131.208 71.5675 131.343 71.5224C131.388 71.5224 130.624 71.748 130.669 71.748C130.713 71.748 130.354 71.8382 130.219 71.9285C130.354 71.8834 129.635 72.1541 129.68 72.1541C129.635 72.1992 129.321 72.3346 129.231 72.3797C129.276 72.3346 128.736 72.6504 128.691 72.6504C128.557 72.7407 128.332 72.876 128.287 72.876C128.287 72.876 127.748 73.237 127.523 73.4175C127.343 73.5529 126.939 73.8687 127.074 73.7785C126.894 73.9138 126.624 74.1395 126.714 74.0943C126.669 74.1395 126.4 74.3651 126.355 74.4102C126.445 74.3199 126.13 74.6358 125.95 74.8163C125.861 74.9065 125.636 75.1773 125.726 75.0419C125.546 75.2675 125.276 75.5834 125.411 75.448C125.456 75.4029 125.276 75.6285 125.231 75.6736C125.187 75.7187 125.007 75.9443 124.917 76.0797C124.962 76.0346 124.782 76.2602 124.737 76.3504C124.782 76.3053 124.513 76.7565 124.423 76.8468C124.378 76.8919 124.243 77.2077 124.198 77.298C124.243 77.1626 123.838 78.0651 123.749 78.3358C123.749 78.2907 123.524 78.9224 123.524 78.9675C123.928 79.0126 124.378 79.0577 124.782 79.1029C124.917 79.1029 125.052 79.148 125.187 79.148C126.624 79.3736 128.062 79.7346 129.455 80.3212C129.59 80.3663 129.725 80.4114 129.86 80.5017C130.354 80.7273 130.938 80.9529 131.432 81.2236C131.567 81.2687 131.657 81.359 131.792 81.4041C132.286 81.6748 132.78 81.9907 133.23 82.3517C133.365 82.4419 133.455 82.487 133.544 82.5773C133.634 82.6675 133.769 82.7577 133.859 82.8029C134.308 83.1187 134.758 83.4797 135.162 83.8858C135.252 83.976 135.342 84.0663 135.477 84.1565C136.51 85.1492 137.409 86.2321 138.263 87.4053C138.352 87.5407 138.397 87.6309 138.487 87.7663C138.847 88.3529 139.206 88.9846 139.566 89.6163C139.745 89.9773 139.79 90.1126 139.88 90.248C139.611 89.6163 140.15 90.7443 140.554 92.0078C140.779 92.6846 140.959 93.4065 141.138 94.0834C141.273 94.8053 141.408 95.5273 141.498 96.2492C141.588 96.4748 141.588 96.7004 141.588 96.9712C141.498 97.287 141.498 99.1821 141.498 98.6858Z" fill="white" style="fill:white;fill-opacity:1;"/><path d="M105.73 102.611H102.989C101.596 102.611 100.473 101.483 100.473 100.085L100.428 68.5443C100.428 68.5443 100.428 68.5443 100.383 68.5443V65.7919C100.383 64.3931 101.506 63.2651 102.899 63.2651H105.64C107.033 63.2651 108.157 64.3931 108.157 65.7919V96.8809C108.201 97.0163 108.201 97.1968 108.201 97.3321V100.085C108.201 101.483 107.123 102.611 105.73 102.611ZM105.685 55.5041H102.944C101.551 55.5041 100.428 54.376 100.428 52.9773V50.2248C100.428 48.826 101.551 47.698 102.944 47.698H105.685C107.078 47.698 108.201 48.826 108.201 50.2248V52.9773C108.157 54.376 107.078 55.5041 105.685 55.5041Z" fill="white" style="fill:white;fill-opacity:1;"/><path d="M93.9564 100.039C93.9564 101.438 92.833 102.566 91.4401 102.566H88.6991C87.3061 102.566 86.1827 101.438 86.1827 100.039V97.287H86.2277V82.8931C86.2277 76.3053 80.9254 71.0261 74.4099 71.0261C67.8494 71.0261 62.592 76.3505 62.592 82.8931V97.287H62.637V100.039C62.637 101.438 61.5136 102.566 60.1206 102.566H57.3796C55.9867 102.566 54.8633 101.438 54.8633 100.039V82.848C54.8633 71.9285 63.6705 63.22 74.4099 63.22C85.1492 63.22 93.9564 71.9736 93.9564 82.848V100.039Z" fill="white" style="fill:white;fill-opacity:1;"/><path d="M89.2829 42.509C89.2829 42.509 90.6309 40.3882 90.4063 36.6882C90.1816 32.9882 89.8671 29.7846 86.9912 25.0919C84.3401 20.8053 83.037 20.2187 82.4079 15.3907C81.8238 10.5626 83.7559 5.73457 86.9014 3.79432C90.0468 1.85408 93.8662 0.184567 97.5059 1.22237C101.146 2.26018 102.943 4.38091 102.898 8.03579C102.808 11.4651 100.606 13.4955 98.5394 14.0821C96.5174 14.6236 93.7314 14.759 92.9226 13.0894C92.1587 11.5102 93.4618 11.059 95.0795 10.7882C97.6407 10.3821 99.3932 9.25408 98.7641 6.86262C97.8654 3.52359 93.1922 4.96749 90.1816 6.54676C86.6767 8.39676 86.5419 14.037 87.171 16.7443C88.1595 20.8504 92.3834 23.5126 94.001 27.8894C95.6636 32.2663 95.7984 41.9675 94.5403 45.6675C92.6979 51.1272 90.1816 55.4138 85.2837 57.4894C80.6555 59.4748 76.8809 59.4748 74.095 58.798C72.4324 58.3919 69.287 57.0382 66.501 58.2565C63.8499 59.4297 61.9626 60.7833 60.9291 60.1065C59.9406 59.5651 59.5362 58.3016 60.5697 57.0833C62.5019 54.7821 63.9398 53.8797 66.3213 53.1126C68.568 52.3907 69.8711 52.887 69.8711 52.887C69.8711 52.887 65.3777 50.1797 63.4455 48.3748C61.5133 46.5699 60.6595 43.5919 62.3671 40.7943C63.7151 38.6285 65.9618 37.4553 68.7478 37.3651C71.5337 37.2748 73.8703 39.3504 73.8703 39.3504C73.8703 39.3504 72.7919 35.876 71.3091 32.3114C69.9161 28.9724 68.613 27.709 68.613 27.709C68.613 27.709 66.5909 29.8297 64.9283 31.2285C62.9512 32.898 59.8058 34.8382 58.278 35.5602C55.8066 36.7333 46.2805 40.2529 42.5059 39.1248C41.2028 38.7638 38.9112 38.6285 39.1358 37.1394C39.2706 36.4175 43.4046 37.2297 45.0672 36.6431C46.8197 36.0565 46.6399 33.0785 47.7184 33.0785C48.5721 33.0785 48.0329 34.748 49.6506 34.8382C51.403 34.8833 57.2894 31.6346 58.2331 30.8675C60.7943 28.7919 67.0852 23.5126 63.0411 25.4529C61.6032 26.0846 55.537 27.6187 50.1448 27.2577C48.0778 27.1224 48.7519 30.0102 47.6285 30.0102C46.3254 30.0102 46.9545 27.4382 45.2919 26.8968C42.1015 25.7236 38.9561 27.1224 38.8662 26.1297C38.7764 25.0468 40.7535 24.5053 42.461 24.0541C43.5394 23.7833 45.921 23.8285 47.1342 23.8285C48.5272 23.8285 52.1669 23.8285 55.4921 23.1968C60.1203 22.2943 63.7151 20.4894 63.7151 20.4894C63.7151 20.4894 64.2094 18.3236 62.1424 18.9102C59.3115 19.7675 57.2445 19.0004 56.7502 19.0455C56.211 19.0907 54.5035 19.3163 54.4136 17.9175C54.3238 16.5187 53.1555 16.3382 53.6947 15.3455C54.1889 14.3077 54.9528 14.8492 55.4022 14.2175C55.8515 13.6309 56.6154 12.4577 56.3907 11.3748C56.1211 10.2919 54.9528 10.9687 54.863 10.9236C54.0991 10.8785 54.9079 8.8931 54.9978 8.75774C55.8965 7.26871 56.1661 6.63701 57.1097 5.64432C58.3229 4.42603 59.8956 3.79432 61.1089 3.88457C61.8278 3.92969 62.5917 4.01993 63.3107 4.1553C63.3107 4.1553 64.7935 2.44066 66.546 2.35042C68.0288 2.26018 69.7813 2.93701 69.4667 4.83213C69.2421 6.32115 68.2535 6.50164 68.2535 6.50164C68.2535 6.50164 70.0509 7.71993 70.8597 8.98335C71.6236 10.2919 72.3425 12.6833 72.2976 14.0821C72.2976 15.3004 73.2412 15.2102 77.1506 17.2858C86.5868 22.0687 89.5076 36.1016 89.2829 42.509Z" fill="#EDEDED" style="fill:#EDEDED;fill:color(display-p3 0.9294 0.9294 0.9294);fill-opacity:1;"/><path d="M40.7097 28.0699H43.1811C44.5741 28.0699 45.6974 29.198 45.6974 30.5968V33.0785C45.6974 34.4773 44.5741 35.6053 43.1811 35.6053H40.7097C39.3167 35.6053 38.1934 34.4773 38.1934 33.0785V30.5968C38.1934 29.198 39.3617 28.0699 40.7097 28.0699Z" fill="#A0A0A0" style="fill:#A0A0A0;fill:color(display-p3 0.6275 0.6275 0.6275);fill-opacity:1;"/><path d="M31.1374 95.076H33.6088C35.0018 95.076 36.1252 96.2041 36.1252 97.6029V100.085C36.1252 101.483 35.0018 102.611 33.6088 102.611H31.1374C29.7445 102.611 28.6211 101.483 28.6211 100.085V97.6029C28.6211 96.2492 29.7445 95.076 31.1374 95.076Z" fill="#7D7D7D" style="fill:#7D7D7D;fill:color(display-p3 0.4902 0.4902 0.4902);fill-opacity:1;"/><path d="M45.9675 64.6638H48.4389C49.8319 64.6638 50.9553 65.7919 50.9553 67.1907V69.6724C50.9553 71.0711 49.8319 72.1992 48.4389 72.1992H45.9675C44.5745 72.1992 43.4512 71.0711 43.4512 69.6724V67.1907C43.4512 65.7467 44.5745 64.6638 45.9675 64.6638Z" fill="#8F8F8F" style="fill:#8F8F8F;fill:color(display-p3 0.5608 0.5608 0.5608);fill-opacity:1;"/><path d="M12.0417 92.2784H14.5131C15.9061 92.2784 17.0295 93.4065 17.0295 94.8053V97.287C17.0295 98.6858 15.9061 99.8138 14.5131 99.8138H12.0417C10.6488 99.8138 9.52539 98.6858 9.52539 97.287V94.8053C9.52539 93.3614 10.6488 92.2784 12.0417 92.2784Z" fill="white" style="fill:white;fill-opacity:1;"/><path d="M11.6374 43.6821H14.1088C15.5018 43.6821 16.6252 44.8102 16.6252 46.209V48.6907C16.6252 50.0894 15.5018 51.2175 14.1088 51.2175H11.6374C10.2445 51.2175 9.12109 50.0894 9.12109 48.6907V46.209C9.12109 44.7651 10.2894 43.6821 11.6374 43.6821Z" fill="#8F8F8F" style="fill:#8F8F8F;fill:color(display-p3 0.5608 0.5608 0.5608);fill-opacity:1;"/><path d="M6.37962 85.7358H8.85103C10.244 85.7358 11.3674 86.8638 11.3674 88.2626V90.7443C11.3674 92.1431 10.244 93.2712 8.85103 93.2712H6.37962C4.98665 93.2712 3.86328 92.1431 3.86328 90.7443V88.2626C3.90822 86.8187 5.03158 85.7358 6.37962 85.7358Z" fill="#7D7D7D" style="fill:#7D7D7D;fill:color(display-p3 0.4902 0.4902 0.4902);fill-opacity:1;"/><path d="M28.2175 83.4797H30.5991C31.992 83.4797 33.1154 84.6077 33.1154 86.0065V88.4882C33.1154 89.887 31.992 91.015 30.5991 91.015H28.1277C26.7347 91.015 25.6113 89.887 25.6113 88.4882V86.0065C25.7012 84.6077 26.8246 83.4797 28.2175 83.4797Z" fill="#7D7D7D" style="fill:#7D7D7D;fill:color(display-p3 0.4902 0.4902 0.4902);fill-opacity:1;"/><path d="M11.1882 70.3943H13.6596C15.0526 70.3943 16.176 71.5224 16.176 72.9212V75.4029C16.176 76.8017 15.0526 77.9297 13.6596 77.9297H11.1882C9.79524 77.9297 8.67188 76.8017 8.67188 75.4029V72.9212C8.71681 71.5224 9.79524 70.3943 11.1882 70.3943Z" fill="white" style="fill:white;fill-opacity:1;"/><path d="M38.5534 58.1212H41.0249C42.4178 58.1212 43.5412 59.2492 43.5412 60.648V63.1297C43.5412 64.5285 42.4178 65.6565 41.0249 65.6565H38.5534C37.1605 65.6565 36.0371 64.5285 36.0371 63.1297V60.648C36.082 59.2041 37.1605 58.1212 38.5534 58.1212Z" fill="white" style="fill:white;fill-opacity:1;"/><path d="M6.19993 46.4797H8.67134C10.0643 46.4797 11.1877 47.6077 11.1877 49.0065V51.4882C11.1877 52.887 10.0643 54.015 8.67134 54.015H6.19993C4.80696 54.015 3.68359 52.887 3.68359 51.4882V49.0065C3.72853 47.6077 4.80696 46.4797 6.19993 46.4797Z" fill="white" style="fill:white;fill-opacity:1;"/><path d="M12.0418 52.0297H14.4233C15.8163 52.0297 16.9396 53.1577 16.9396 54.5565V57.0382C16.9396 58.437 15.8163 59.565 14.4233 59.565H11.9519C10.5589 59.565 9.43555 58.437 9.43555 57.0382V54.5565C9.52542 53.1577 10.6488 52.0297 12.0418 52.0297Z" fill="white" style="fill:white;fill-opacity:1;"/><path d="M34.8679 81.7651H37.3393C38.7323 81.7651 39.8556 82.8931 39.8556 84.2919V86.7736C39.8556 88.1724 38.7323 89.3004 37.3393 89.3004H34.8679C33.4749 89.3004 32.3516 88.1724 32.3516 86.7736V84.2919C32.3516 82.8931 33.4749 81.7651 34.8679 81.7651Z" fill="#8F8F8F" style="fill:#8F8F8F;fill:color(display-p3 0.5608 0.5608 0.5608);fill-opacity:1;"/><path d="M21.9265 84.1114H24.3979C25.7909 84.1114 26.9142 85.2394 26.9142 86.6382V89.1199C26.9142 90.5187 25.7909 91.6468 24.3979 91.6468H21.9265C20.5335 91.6468 19.4102 90.5187 19.4102 89.1199V86.6382C19.4102 85.1943 20.5785 84.1114 21.9265 84.1114Z" fill="#8F8F8F" style="fill:#8F8F8F;fill:color(display-p3 0.5608 0.5608 0.5608);fill-opacity:1;"/><path d="M24.8484 95.076H27.3198C28.7127 95.076 29.8361 96.2041 29.8361 97.6029V100.085C29.8361 101.483 28.7127 102.611 27.3198 102.611H24.8484C23.4554 102.611 22.332 101.483 22.332 100.085V97.6029C22.332 96.2041 23.5003 95.076 24.8484 95.076Z" fill="white" style="fill:white;fill-opacity:1;"/><path d="M18.2429 94.2188H20.7143C22.1073 94.2188 23.2306 95.3468 23.2306 96.7456V99.2273C23.2306 100.626 22.1073 101.754 20.7143 101.754H18.2429C16.8499 101.754 15.7266 100.626 15.7266 99.2273V96.7456C15.7266 95.3468 16.8499 94.2188 18.2429 94.2188Z" fill="white" style="fill:white;fill-opacity:1;"/><path d="M41.3386 87.2249H43.81C45.203 87.2249 46.3263 88.3529 46.3263 89.7517V92.2334C46.3263 93.6322 45.203 94.7602 43.81 94.7602H41.3386C39.9456 94.7602 38.8223 93.6322 38.8223 92.2334V89.7517C38.8223 88.3078 39.9906 87.2249 41.3386 87.2249Z" fill="white" style="fill:white;fill-opacity:1;"/><path d="M10.0183 88.5333H12.4897C13.8827 88.5333 15.006 89.6614 15.006 91.0602V93.5419C15.006 94.9406 13.8827 96.0687 12.4897 96.0687H10.0183C8.62532 96.0687 7.50195 94.9406 7.50195 93.5419V91.0602C7.50195 89.6614 8.62532 88.5333 10.0183 88.5333Z" fill="white" style="fill:white;fill-opacity:1;"/><path d="M11.0984 78.6968H13.5698C14.9627 78.6968 16.0861 79.8248 16.0861 81.2236V83.7053C16.0861 85.1041 14.9627 86.2321 13.5698 86.2321H11.0984C9.7054 86.2321 8.58203 85.1041 8.58203 83.7053V81.2236C8.62697 79.8248 9.75033 78.6968 11.0984 78.6968Z" fill="white" style="fill:white;fill-opacity:1;"/><path d="M31.364 88.1273H33.8354C35.2284 88.1273 36.3517 89.2553 36.3517 90.6541V93.1358C36.3517 94.5346 35.2284 95.6626 33.8354 95.6626H31.364C29.971 95.6626 28.8477 94.5346 28.8477 93.1358V90.6541C28.8477 89.2553 29.971 88.1273 31.364 88.1273Z" fill="white" style="fill:white;fill-opacity:1;"/><path d="M25.3874 90.4736H27.8588C29.2518 90.4736 30.3752 91.6016 30.3752 93.0004V95.4821C30.3752 96.8809 29.2518 98.0089 27.8588 98.0089H25.3874C23.9945 98.0089 22.8711 96.8809 22.8711 95.4821V93.0004C22.916 91.5565 23.9945 90.4736 25.3874 90.4736Z" fill="#8F8F8F" style="fill:#8F8F8F;fill:color(display-p3 0.5608 0.5608 0.5608);fill-opacity:1;"/><path d="M16.3542 86.9541H18.8256C20.2186 86.9541 21.342 88.0821 21.342 89.4809V91.9626C21.342 93.3614 20.2186 94.4895 18.8256 94.4895H16.3542C14.9613 94.4895 13.8379 93.3614 13.8379 91.9626V89.4809C13.8828 88.0821 15.0062 86.9541 16.3542 86.9541Z" fill="white" style="fill:white;fill-opacity:1;"/><path d="M44.573 58.6626H47.0444C48.4374 58.6626 49.5607 59.7906 49.5607 61.1894V63.6711C49.5607 65.0699 48.4374 66.198 47.0444 66.198H44.573C43.18 66.198 42.0566 65.0699 42.0566 63.6711V61.1894C42.0566 59.7906 43.18 58.6626 44.573 58.6626Z" fill="#A0A0A0" style="fill:#A0A0A0;fill:color(display-p3 0.6275 0.6275 0.6275);fill-opacity:1;"/><path d="M5.03197 79.509H7.50337C8.89634 79.509 10.0197 80.637 10.0197 82.0358V84.5175C10.0197 85.9163 8.89634 87.0443 7.50337 87.0443H5.03197C3.63899 87.0443 2.51562 85.9163 2.51562 84.5175V82.0358C2.56056 80.6821 3.68393 79.509 5.03197 79.509Z" fill="white" style="fill:white;fill-opacity:1;"/><path d="M44.0788 81.0883H46.5502C47.9432 81.0883 49.0666 82.2163 49.0666 83.6151V86.0968C49.0666 87.4956 47.9432 88.6236 46.5502 88.6236H44.0788C42.6859 88.6236 41.5625 87.4956 41.5625 86.0968V83.6151C41.5625 82.1712 42.6859 81.0883 44.0788 81.0883Z" fill="#8F8F8F" style="fill:#8F8F8F;fill:color(display-p3 0.5608 0.5608 0.5608);fill-opacity:1;"/><path d="M4.22337 60.4224H6.69478C8.08775 60.4224 9.21112 61.5504 9.21112 62.9492V65.4309C9.21112 66.8297 8.08775 67.9577 6.69478 67.9577H4.22337C2.8304 67.9577 1.70703 66.8297 1.70703 65.4309V62.9492C1.70703 61.5504 2.8304 60.4224 4.22337 60.4224Z" fill="white" style="fill:white;fill-opacity:1;"/><path d="M10.5574 57.1285H13.0288C14.4217 57.1285 15.5451 58.2565 15.5451 59.6553V62.137C15.5451 63.5358 14.4217 64.6638 13.0288 64.6638H10.5574C9.16438 64.6638 8.04102 63.5358 8.04102 62.137V59.6553C8.04102 58.3017 9.16438 57.1285 10.5574 57.1285Z" fill="#7D7D7D" style="fill:#7D7D7D;fill:color(display-p3 0.4902 0.4902 0.4902);fill-opacity:1;"/><path d="M5.12183 52.0297H7.50337C8.89634 52.0297 10.0197 53.1577 10.0197 54.5565V57.0382C10.0197 58.437 8.89634 59.565 7.50337 59.565H5.03197C3.63899 59.565 2.51562 58.437 2.51562 57.0382V54.5565C2.60549 53.2028 3.72886 52.0297 5.12183 52.0297Z" fill="#8F8F8F" style="fill:#8F8F8F;fill:color(display-p3 0.5608 0.5608 0.5608);fill-opacity:1;"/><path d="M13.2995 82.6224H15.7709C17.1639 82.6224 18.2873 83.7504 18.2873 85.1492V87.6309C18.2873 89.0297 17.1639 90.1577 15.7709 90.1577H13.2995C11.9066 90.1577 10.7832 89.0297 10.7832 87.6309V85.1492C10.7832 83.7053 11.9066 82.6224 13.2995 82.6224Z" fill="#7D7D7D" style="fill:#7D7D7D;fill:color(display-p3 0.4902 0.4902 0.4902);fill-opacity:1;"/><path d="M3.05345 55.7748H5.52485C6.91783 55.7748 8.04119 56.9029 8.04119 58.3017V60.7834C8.04119 62.1822 6.91783 63.3102 5.52485 63.3102H3.05345C1.66048 63.3102 0.537109 62.1822 0.537109 60.7834V58.3017C0.582044 56.9029 1.66048 55.7748 3.05345 55.7748Z" fill="#A0A0A0" style="fill:#A0A0A0;fill:color(display-p3 0.6275 0.6275 0.6275);fill-opacity:1;"/><path d="M6.55931 66.9199H9.03071C10.4237 66.9199 11.5471 68.048 11.5471 69.4468V71.9285C11.5471 73.3272 10.4237 74.4553 9.03071 74.4553H6.55931C5.16633 74.4553 4.04297 73.3272 4.04297 71.9285V69.4468C4.13284 68.048 5.2562 66.9199 6.55931 66.9199Z" fill="#8F8F8F" style="fill:#8F8F8F;fill:color(display-p3 0.5608 0.5608 0.5608);fill-opacity:1;"/><path d="M7.45775 73.8236H9.92915C11.3221 73.8236 12.4455 74.9517 12.4455 76.3504V78.8321C12.4455 80.2309 11.3221 81.359 9.92915 81.359H7.45775C6.06477 81.359 4.94141 80.2309 4.94141 78.8321V76.3504C4.94141 74.9968 6.06477 73.8236 7.45775 73.8236Z" fill="#A0A0A0" style="fill:#A0A0A0;fill:color(display-p3 0.6275 0.6275 0.6275);fill-opacity:1;"/><path d="M7.18821 83.9309H9.65962C11.0526 83.9309 12.176 85.059 12.176 86.4577V88.9394C12.176 90.3382 11.0526 91.4663 9.65962 91.4663H7.18821C5.79524 91.4663 4.67188 90.3382 4.67188 88.9394V86.4577C4.67188 85.0138 5.79524 83.9309 7.18821 83.9309Z" fill="#8F8F8F" style="fill:#8F8F8F;fill:color(display-p3 0.5608 0.5608 0.5608);fill-opacity:1;"/><path d="M4.44798 42.3736H6.91939C8.31236 42.3736 9.43573 43.5016 9.43573 44.9004V47.3821C9.43573 48.7809 8.31236 49.909 6.91939 49.909H4.44798C3.05501 49.909 1.93164 48.7809 1.93164 47.3821V44.9004C1.97658 43.5468 3.05501 42.3736 4.44798 42.3736Z" fill="#7D7D7D" style="fill:#7D7D7D;fill:color(display-p3 0.4902 0.4902 0.4902);fill-opacity:1;"/><path d="M38.9577 64.1224H41.4292C42.8221 64.1224 43.9455 65.2504 43.9455 66.6492V69.1309C43.9455 70.5297 42.8221 71.6577 41.4292 71.6577H38.9577C37.5648 71.6577 36.4414 70.5297 36.4414 69.1309V66.6492C36.4863 65.2504 37.6097 64.1224 38.9577 64.1224Z" fill="#8F8F8F" style="fill:#8F8F8F;fill:color(display-p3 0.5608 0.5608 0.5608);fill-opacity:1;"/><path d="M46.3718 48.6907H48.8432C50.2362 48.6907 51.3596 49.8187 51.3596 51.2175V53.6992C51.3596 55.098 50.2362 56.226 48.8432 56.226H46.3718C44.9788 56.226 43.8555 55.098 43.8555 53.6992V51.2175C43.9004 49.7736 44.9788 48.6907 46.3718 48.6907Z" fill="#8F8F8F" style="fill:#8F8F8F;fill:color(display-p3 0.5608 0.5608 0.5608);fill-opacity:1;"/><path d="M39.4519 81.3138H41.9233C43.3163 81.3138 44.4396 82.4419 44.4396 83.8407V86.3224C44.4396 87.7212 43.3163 88.8492 41.9233 88.8492H39.4519C38.0589 88.8492 36.9355 87.7212 36.9355 86.3224V83.8407C36.9355 82.4419 38.0589 81.3138 39.4519 81.3138Z" fill="white" style="fill:white;fill-opacity:1;"/><path d="M43.405 75.809H45.8764C47.2694 75.809 48.3928 76.937 48.3928 78.3358V80.8175C48.3928 82.2163 47.2694 83.3443 45.8764 83.3443H43.405C42.012 83.3443 40.8887 82.2163 40.8887 80.8175V78.3358C40.9336 76.8919 42.012 75.809 43.405 75.809Z" fill="white" style="fill:white;fill-opacity:1;"/><path d="M45.4284 44.5846H47.8999C49.2928 44.5846 50.4162 45.7126 50.4162 47.1114V49.5931C50.4162 50.9919 49.2928 52.12 47.8999 52.12H45.4284C44.0355 52.12 42.9121 50.9919 42.9121 49.5931V47.1114C42.957 45.7578 44.0804 44.5846 45.4284 44.5846Z" fill="white" style="fill:white;fill-opacity:1;"/><path d="M37.114 74.8163H39.5854C40.9784 74.8163 42.1017 75.9443 42.1017 77.3431V79.8248C42.1017 81.2236 40.9784 82.3516 39.5854 82.3516H37.114C35.721 82.3516 34.5977 81.2236 34.5977 79.8248V77.3431C34.6426 75.9443 35.8109 74.8163 37.114 74.8163Z" fill="#7D7D7D" style="fill:#7D7D7D;fill:color(display-p3 0.4902 0.4902 0.4902);fill-opacity:1;"/><path d="M44.4382 68.3187H46.9096C48.3026 68.3187 49.426 69.4468 49.426 70.8456V73.3273C49.426 74.726 48.3026 75.8541 46.9096 75.8541H44.4382C43.0452 75.8541 41.9219 74.726 41.9219 73.3273V70.8456C41.9219 69.4468 43.0902 68.3187 44.4382 68.3187Z" fill="white" style="fill:white;fill-opacity:1;"/><path d="M40.7097 50.2248H43.1811C44.5741 50.2248 45.6974 51.3528 45.6974 52.7516V55.2333C45.6974 56.6321 44.5741 57.7602 43.1811 57.7602H40.7097C39.3167 57.7602 38.1934 56.6321 38.1934 55.2333V52.7516C38.1934 51.3077 39.3167 50.2248 40.7097 50.2248Z" fill="#7D7D7D" style="fill:#7D7D7D;fill:color(display-p3 0.4902 0.4902 0.4902);fill-opacity:1;"/><path d="M9.97337 62.4077H12.4448C13.8377 62.4077 14.9611 63.5358 14.9611 64.9345V67.4163C14.9611 68.815 13.8377 69.9431 12.4448 69.9431H9.97337C8.5804 69.9431 7.45703 68.815 7.45703 67.4163V64.9345C7.45703 63.5358 8.5804 62.4077 9.97337 62.4077Z" fill="white" style="fill:white;fill-opacity:1;"/><path d="M3.72728 72.0638H6.19868C7.59166 72.0638 8.71502 73.1919 8.71502 74.5907V77.0724C8.71502 78.4712 7.59166 79.5992 6.19868 79.5992H3.72728C2.3343 79.5992 1.21094 78.4712 1.21094 77.0724V74.5907C1.21094 73.1919 2.3343 72.0638 3.72728 72.0638Z" fill="white" style="fill:white;fill-opacity:1;"/><path d="M36.8445 88.0822H39.3159C40.7088 88.0822 41.8322 89.2102 41.8322 90.609V93.0907C41.8322 94.4895 40.7088 95.6175 39.3159 95.6175H36.8445C35.4515 95.6175 34.3281 94.4895 34.3281 93.0907V90.609C34.3731 89.2553 35.4515 88.0822 36.8445 88.0822Z" fill="#A0A0A0" style="fill:#A0A0A0;fill:color(display-p3 0.6275 0.6275 0.6275);fill-opacity:1;"/><path d="M36.6199 92.5041H39.0913C40.4842 92.5041 41.6076 93.6321 41.6076 95.0309V97.5126C41.6076 98.9114 40.4842 100.039 39.0913 100.039H36.6199C35.2269 100.039 34.1035 98.9114 34.1035 97.5126V95.0309C34.1035 93.587 35.2269 92.5041 36.6199 92.5041Z" fill="white" style="fill:white;fill-opacity:1;"/><path d="M15.6804 91.5565H18.1518C19.5448 91.5565 20.6681 92.6846 20.6681 94.0833V96.5651C20.6681 97.9638 19.5448 99.0919 18.1518 99.0919H15.6804C14.2874 99.0919 13.1641 97.9638 13.1641 96.5651V94.0833C13.209 92.6846 14.3324 91.5565 15.6804 91.5565Z" fill="#A0A0A0" style="fill:#A0A0A0;fill:color(display-p3 0.6275 0.6275 0.6275);fill-opacity:1;"/><path d="M20.3093 88.8041H22.7807C24.1737 88.8041 25.2971 89.9321 25.2971 91.3309V93.8126C25.2971 95.2114 24.1737 96.3394 22.7807 96.3394H20.3093C18.9163 96.3394 17.793 95.2114 17.793 93.8126V91.3309C17.793 89.887 18.9163 88.8041 20.3093 88.8041Z" fill="white" style="fill:white;fill-opacity:1;"/></g><defs><clipPath id="a"><rect width="269" height="103" fill="white" style="fill:white;fill-opacity:1;"/></clipPath></defs></svg>