
<svg width="16" height="16" viewBox="0 0 16 16" fill="none" xmlns="http://www.w3.org/2000/svg">
  <defs>
    <symbol id='wrench' viewBox="0 0 16 16">
      <g clip-path="url(#clip0_103_223119)"><path d="M12.798 1.24199L13.3283 1.77232L14.0567 1.04389L13.1398 0.574402L12.798 1.24199ZM9.95705 4.0829L9.42672 3.55257L9.95705 4.0829ZM6.5844 6.95555L7.11473 7.48588L7.46767 7.13295L7.27837 6.67111L6.5844 6.95555ZM1.49995 12.04L2.03027 12.5703L2.03028 12.5703L1.49995 12.04ZM1.49994 14.54L0.969615 15.0703H0.969615L1.49994 14.54ZM3.99995 14.54L4.53028 15.0703L3.99995 14.54ZM9.10147 9.43848L9.37633 8.74066L8.91883 8.56046L8.57114 8.90815L9.10147 9.43848ZM14.7848 3.25519L15.4568 2.92229L14.9931 1.98617L14.2544 2.72486L14.7848 3.25519ZM11.9571 6.0829L11.4267 5.55257L11.9571 6.0829ZM10.5428 6.0829L11.0732 5.55257L11.0732 5.55257L10.5428 6.0829ZM9.95705 5.49711L9.42672 6.02744L9.42672 6.02745L9.95705 5.49711ZM12.2676 0.711655L9.42672 3.55257L10.4874 4.61323L13.3283 1.77232L12.2676 0.711655ZM10.7499 1.5C11.3659 1.5 11.9452 1.64794 12.4562 1.90957L13.1398 0.574402C12.4221 0.206958 11.6091 0 10.7499 0V1.5ZM6.99994 5.25C6.99994 3.17893 8.67888 1.5 10.7499 1.5V0C7.85045 0 5.49994 2.3505 5.49994 5.25H6.99994ZM7.27837 6.67111C7.09913 6.23381 6.99994 5.75443 6.99994 5.25H5.49994C5.49994 5.95288 5.63848 6.62528 5.89043 7.23999L7.27837 6.67111ZM6.05407 6.42522L0.969615 11.5097L2.03028 12.5703L7.11473 7.48588L6.05407 6.42522ZM0.969616 11.5097C-0.0136344 12.4929 -0.013635 14.0871 0.969615 15.0703L2.03027 14.0097C1.63281 13.6122 1.63281 12.9678 2.03027 12.5703L0.969616 11.5097ZM0.969615 15.0703C1.95287 16.0536 3.54703 16.0536 4.53028 15.0703L3.46962 14.0097C3.07215 14.4071 2.42774 14.4071 2.03027 14.0097L0.969615 15.0703ZM4.53028 15.0703L9.6318 9.96881L8.57114 8.90815L3.46962 14.0097L4.53028 15.0703ZM10.7499 9C10.2637 9 9.80071 8.90782 9.37633 8.74066L8.82661 10.1363C9.4232 10.3713 10.0724 10.5 10.7499 10.5V9ZM14.4999 5.25C14.4999 7.32107 12.821 9 10.7499 9V10.5C13.6494 10.5 15.9999 8.1495 15.9999 5.25H14.4999ZM14.1127 3.5881C14.3604 4.08811 14.4999 4.65168 14.4999 5.25H15.9999C15.9999 4.4156 15.8047 3.62465 15.4568 2.92229L14.1127 3.5881ZM12.4874 6.61323L15.3151 3.78552L14.2544 2.72486L11.4267 5.55257L12.4874 6.61323ZM10.0125 6.61323C10.6959 7.29665 11.804 7.29665 12.4874 6.61323L11.4267 5.55257C11.3291 5.6502 11.1708 5.6502 11.0732 5.55257L10.0125 6.61323ZM9.42672 6.02745L10.0125 6.61323L11.0732 5.55257L10.4874 4.96678L9.42672 6.02745ZM9.42672 3.55257C8.7433 4.23599 8.7433 5.34403 9.42672 6.02744L10.4874 4.96678C10.3898 4.86915 10.3897 4.71086 10.4874 4.61323L9.42672 3.55257Z" fill="currentColor"/></g><defs><clipPath id="clip0_103_223119"><rect width="16" height="16" fill="white"/></clipPath></defs>
    </symbol>
  </defs>
</svg>