<svg width="128" height="128" viewBox="0 0 128 128" fill="none" xmlns="http://www.w3.org/2000/svg">
<path fill-rule="evenodd" clip-rule="evenodd" d="M64 128C99.3462 128 128 99.3462 128 64C128 28.6538 99.3462 0 64 0C28.6538 0 0 28.6538 0 64C0 99.3462 28.6538 128 64 128ZM86.822 48.3781C89.5192 48.6382 91.9544 49.9408 93.6789 52.0459L93.6789 52.0449C95.4035 54.15 96.2111 56.8055 95.9528 59.5223C95.6944 62.2389 94.401 64.6918 92.3111 66.4287C90.4768 67.9535 88.221 68.7665 85.8729 68.7665C85.546 68.7665 85.2171 68.7506 84.8874 68.7189C82.1902 68.4586 79.7551 67.156 78.0305 65.0511C76.306 62.946 75.4984 60.2906 75.7566 57.5738C75.8048 57.0675 75.8891 56.5705 76.0076 56.0856L73.2161 55.0832C73.1912 55.1554 73.1663 55.2276 73.1456 55.2976C73.1049 55.4356 73.0543 55.5916 72.9957 55.7723C72.5221 57.2312 71.5368 60.267 72.837 63.8299C73.1388 64.6567 72.6892 65.0477 72.3918 65.3065C72.2864 65.3981 72.1869 65.4847 72.1057 65.5908C72.0168 65.7069 71.8803 65.7729 71.7379 65.7729C71.7104 65.7729 71.6829 65.7706 71.6554 65.7659C71.4847 65.735 71.3454 65.6108 71.294 65.444C71.0812 64.7533 70.8235 64.0111 70.5742 63.2932L70.5731 63.2901C70.1444 62.0555 69.7387 60.8814 69.5403 59.942C69.4846 60.5142 69.4278 61.0874 69.3725 61.6453C69.3085 62.2901 69.2466 62.9145 69.1909 63.4933C70.6183 65.1176 72.1094 67.9412 71.7136 69.7381C71.5235 70.6012 70.3337 72.0111 68.7254 73.5287C68.2784 74.1935 67.7873 74.8831 67.28 75.5559C68.1898 75.9555 68.9419 76.5438 68.5417 77.9064C68.4442 78.2385 67.2651 78.1905 65.8134 77.9634C65.9 78.0825 65.959 78.2254 65.974 78.3844C66.0168 78.8419 65.6949 79.2466 65.2549 79.2884C64.9258 79.3197 64.624 79.1389 64.4748 78.8543C63.7001 79.6232 63.0222 80.1375 62.5662 80.2112C62.4431 80.2311 62.3077 80.2167 62.1622 80.1727L58.9585 84.0847C60.2712 86.0431 60.8648 88.3784 60.6382 90.761C60.3799 93.4778 59.0867 95.9307 56.9967 97.6675C55.1099 99.2358 52.8229 99.9998 50.549 100C47.6232 100 44.7191 98.7351 42.7159 96.29C39.1558 91.9449 39.7695 85.4923 44.0837 81.9065C47.0202 79.466 50.9253 78.9749 54.2431 80.2791L56.1574 78.2221C55.7238 77.0272 55.0009 75.9869 51.0973 77.0996L50.9826 77.395L38.9083 82.2583L36.6797 81.8693L35.9672 79.8568L37.4485 78.1353L49.8613 74.2034L52.5467 73.3667L52.1529 74.3805C52.8976 73.9374 53.802 73.3923 54.8339 72.7424C47.0109 72.1774 39.4484 73.895 33.1612 79.238C32.6889 79.1429 31.6291 77.7853 32.1325 76.9663C37.3136 73.0675 41.8655 70.2804 45.7043 67.9299C49.7833 65.4324 53.0572 63.4279 55.4254 61.1062C55.299 60.9581 55.1793 60.8307 55.0669 60.7306C54.8437 60.5318 54.5928 60.313 54.3245 60.0791C52.5854 58.5624 50.1166 56.4094 49.7239 54.9589C49.3557 53.5988 50.1354 51.4246 51.3391 49.1292C50.2772 48.6054 49.4257 48.3987 48.825 48.2529C48.0292 48.0597 47.6734 47.9734 47.8512 47.3979C48.5956 44.9876 49.2363 44.1626 49.8611 43.3581C50.3049 42.7867 50.7406 42.2256 51.1999 41.114C51.4452 40.5203 51.6252 39.9693 51.7868 39.4745C52.0786 38.5812 52.3105 37.8713 52.7588 37.4244C53.6253 36.5607 54.1312 36.5598 54.4921 36.5592C54.7554 36.5588 54.9414 36.5585 55.1339 36.2233C55.2583 36.0069 55.1831 35.8163 55.1161 35.6466C55.0486 35.4754 54.9894 35.3254 55.1518 35.1914C55.3291 35.045 55.5347 35.0806 55.8093 35.1281C56.0284 35.1661 56.2914 35.2116 56.619 35.1784C56.9541 35.1444 57.1657 35.0471 57.3595 34.9317C57.2108 34.8133 57.0603 34.6903 56.9058 34.5571C55.5483 33.3864 56.1189 30.1553 57.3076 28.9417C59.4336 26.7713 65.7386 28.9752 66.4573 29.3914C67.0269 29.7213 67.1823 31.802 66.7053 31.7926C65.8453 31.7747 64.4881 32.0688 64.2752 33.036C64.0791 33.9271 64.5772 34.2645 65.0333 34.5734C65.3308 34.7749 65.6104 34.9643 65.6679 35.2872C65.8095 36.0815 65.1747 37.1368 64.415 37.8456C63.7073 37.3794 62.9828 37.2404 62.1622 37.083L62.111 37.0732C61.8846 37.3867 61.6337 37.8059 61.3782 38.386C61.2026 38.7846 61.4213 39.2593 61.6471 39.7496C61.8665 40.2262 62.0928 40.7175 61.9703 41.1678C61.8719 41.5297 61.8631 41.5285 61.7011 41.5066C61.5887 41.4913 61.4027 41.4661 61.062 41.545C60.7299 41.6219 60.6225 42.3641 60.475 43.3833C60.4226 43.7452 60.3652 44.1421 60.2908 44.5565C60.1386 45.4046 59.9084 46.1101 59.6738 46.703C59.7839 46.6581 59.8789 46.6338 59.9511 46.6408C60.399 46.681 61.1574 47.2127 61.6973 47.9112L71.2393 51.7144C71.6656 51.1108 72.1697 50.4783 72.7611 49.7934C75.9905 46.054 80.6397 44.507 83.9139 44.306C83.9233 44.3054 83.9328 44.3051 83.9422 44.3051C84.0748 44.3051 84.2016 44.3623 84.2901 44.4629C84.6357 44.8563 84.2751 45.2551 83.8933 45.6773L83.8933 45.6774C83.7185 45.8706 83.5204 46.0897 83.3947 46.2814C83.3245 46.3885 83.2137 46.4618 83.0882 46.4842C81.2024 46.8208 78.9391 48.1224 76.8784 50.0555C75.8841 50.9881 75.0156 51.9941 74.353 52.9555L76.8025 53.9318C77.4261 52.6906 78.3011 51.5802 79.3983 50.6682C81.4884 48.9313 84.1246 48.1175 86.822 48.3781ZM69.9681 53.9449C69.9706 53.9388 69.973 53.9327 69.9755 53.9268C69.9763 53.9249 69.9771 53.923 69.9779 53.9211L69.9674 53.9176L69.9681 53.9449ZM59.4944 55.1703C60.2016 54.4657 61.2346 53.9116 62.3804 53.5068L62.3804 53.5068L63.467 51.5833L61.4607 50.8629C61.4623 51.3749 61.2604 51.9099 60.9024 52.1317C60.5086 52.3757 60.0092 52.1898 59.5226 52.0087C59.035 51.8273 58.5604 51.6506 58.2181 51.9161C57.9964 52.0879 57.9741 52.3335 57.9533 52.5623C57.9348 52.7652 57.9176 52.9549 57.7636 53.0682C57.7024 53.1132 57.6313 53.1364 57.551 53.1423C57.7204 53.4508 58.2628 53.976 58.9895 54.6798C59.1496 54.8348 59.3185 54.9985 59.4944 55.1703ZM56.4172 73.581C55.536 74.1463 54.7298 74.6454 54.0198 75.0761L54.0198 75.0762C55.878 75.1239 56.7673 75.9596 57.3032 76.9913L58.1433 76.0885C57.4739 75.1715 56.8666 74.2694 56.4172 73.581ZM58.8171 80.3878C58.722 80.4117 58.6316 80.4288 58.5438 80.4425L58.5439 80.4425L57.119 82.0122C57.4939 82.3343 57.8494 82.6878 58.1822 83.0723L61.0974 79.5125C61.0565 79.4777 61.0153 79.4417 60.9737 79.4048C60.1105 79.9006 59.3622 80.2508 58.8171 80.3878ZM56.3759 85.2779C56.3229 85.2086 56.2704 85.139 56.2149 85.0713C55.9151 84.7055 55.5863 84.3782 55.2365 84.0858L52.2985 87.3224C52.5049 87.4719 52.6975 87.647 52.8669 87.8538C53.1247 88.1684 53.3076 88.52 53.4205 88.8868L56.3759 85.2779ZM55.2228 95.5023C56.7384 94.2427 57.6763 92.4638 57.8636 90.4936L57.8636 90.4937C58.0005 89.0537 57.7229 87.6383 57.0761 86.3843L53.3127 90.9799C53.1295 91.4128 52.8455 91.81 52.4602 92.1303C51.1755 93.198 49.2746 93.0146 48.2145 91.7207C47.3128 90.62 47.3129 89.0721 48.1227 87.9765L47.6703 87.3423L52.1255 82.5551C51.6028 82.4395 51.069 82.3808 50.5342 82.3808C48.8849 82.3808 47.227 82.9347 45.8586 84.0721C42.7299 86.6726 42.2849 91.352 44.8666 94.5032C47.4482 97.6544 52.0939 98.1027 55.2228 95.5023ZM90.5374 64.264C92.0531 63.0042 92.991 61.2255 93.1783 59.2554L93.1784 59.2555C93.3658 57.2853 92.7802 55.3596 91.5295 53.833C90.2789 52.3065 88.513 51.3619 86.557 51.1732C86.3178 51.1504 86.0793 51.1386 85.8422 51.1386C84.1394 51.1386 82.5037 51.7282 81.1734 52.834C80.4459 53.4386 79.8531 54.1637 79.411 54.9712L83.5322 56.6138C83.652 56.4682 83.7857 56.3308 83.9359 56.206C85.2206 55.1382 87.1215 55.3216 88.1816 56.6156C89.2417 57.9096 89.0596 59.8242 87.7749 60.892C86.4902 61.9597 84.5893 61.7763 83.5292 60.4824C83.063 59.9132 82.8376 59.2241 82.8399 58.5397L78.6543 57.0368C78.6001 57.3012 78.5583 57.5698 78.5324 57.8425C78.3451 59.8126 78.9307 61.7383 80.1813 63.2649C81.4319 64.7914 83.1979 65.736 85.1539 65.9248C87.1108 66.1131 89.0217 65.5236 90.5374 64.264Z" fill="#555555"/>
</svg>
