<svg width="48" height="48" viewBox="0 0 48 48" fill="none" xmlns="http://www.w3.org/2000/svg">
<rect width="48" height="48" rx="24" fill="black"/>
<path d="M17.2933 33V14.8182H24.2536C25.5675 14.8182 26.6594 15.0253 27.5295 15.4396C28.4054 15.848 29.0594 16.4073 29.4915 17.1175C29.9295 17.8278 30.1484 18.6327 30.1484 19.5323C30.1484 20.2721 30.0064 20.9054 29.7223 21.4322C29.4382 21.953 29.0565 22.3762 28.5771 22.7017C28.0977 23.0272 27.562 23.261 26.9702 23.4031V23.5806C27.6153 23.6161 28.2338 23.8144 28.8256 24.1754C29.4234 24.5305 29.9117 25.0336 30.2905 25.6847C30.6693 26.3357 30.8587 27.1229 30.8587 28.0462C30.8587 28.9872 30.6308 29.8336 30.1751 30.5852C29.7193 31.331 29.0328 31.9199 28.1154 32.3519C27.198 32.784 26.0439 33 24.6531 33H17.2933ZM20.587 30.2479H24.1293C25.3248 30.2479 26.186 30.02 26.7127 29.5643C27.2454 29.1026 27.5117 28.5108 27.5117 27.7887C27.5117 27.2501 27.3786 26.7648 27.1122 26.3327C26.8459 25.8948 26.4671 25.5515 25.9759 25.3029C25.4846 25.0484 24.8987 24.9212 24.218 24.9212H20.587V30.2479ZM20.587 22.5508H23.8452C24.4134 22.5508 24.9253 22.4472 25.381 22.2401C25.8368 22.027 26.1948 21.7281 26.4553 21.3434C26.7216 20.9528 26.8548 20.4911 26.8548 19.9585C26.8548 19.2541 26.6062 18.6741 26.109 18.2184C25.6178 17.7627 24.8868 17.5348 23.9162 17.5348H20.587V22.5508Z" fill="white"/>
</svg>
