<svg xmlns="http://www.w3.org/2000/svg" xmlns:xlink="http://www.w3.org/1999/xlink" viewBox="0 0 328.05 93.76"><defs><style>.cls-1{isolation:isolate;}.cls-2{fill:#fff;}.cls-19,.cls-27,.cls-3{fill:none;}.cls-19,.cls-3{stroke-miterlimit:10;}.cls-3{stroke-width:0.45px;stroke:url(#linear-gradient);}.cls-4{fill:url(#linear-gradient-2);}.cls-5{fill:#f15a24;}.cls-6{fill:#ed1c24;}.cls-7{fill:#c1272d;}.cls-8{fill:url(#linear-gradient-3);}.cls-9{fill:url(#linear-gradient-4);}.cls-10{fill:url(#linear-gradient-5);}.cls-11{fill:aqua;}.cls-12{fill:url(#linear-gradient-6);}.cls-13{opacity:0.49;fill:url(#linear-gradient-7);}.cls-14{fill:url(#linear-gradient-8);}.cls-15{fill:#2db5f9;}.cls-15,.cls-16{mix-blend-mode:screen;}.cls-16{fill:#5fd2ff;}.cls-17{fill:#219058;}.cls-18{fill:url(#linear-gradient-9);}.cls-19{stroke:#fff;stroke-width:1.12px;}.cls-20{fill:#f7b852;}.cls-21{fill:#ff8431;}.cls-22{fill:#fffb69;}.cls-23{fill:#44c688;}.cls-24{fill:#29b36e;}.cls-25{fill:#6fd191;}.cls-26{fill:#c83ad7;}.cls-28{fill:#fba9ff;}.cls-29{fill:#ff737d;}.cls-30{fill:#fff4c0;}</style><linearGradient id="linear-gradient" x1="31.06" y1="62.93" x2="30.96" y2="63.36" gradientUnits="userSpaceOnUse"><stop offset="0" stop-color="#ff1d25" stop-opacity="0.5"/><stop offset="0.06" stop-color="#ff1d25" stop-opacity="0.54"/><stop offset="0.37" stop-color="#ff1d25" stop-opacity="0.74"/><stop offset="0.64" stop-color="#ff1d25" stop-opacity="0.88"/><stop offset="0.86" stop-color="#ff1d25" stop-opacity="0.97"/><stop offset="1" stop-color="#ff1d25"/></linearGradient><linearGradient id="linear-gradient-2" x1="34.44" y1="72.55" x2="34.44" y2="62.2" gradientUnits="userSpaceOnUse"><stop offset="0" stop-color="#fffa8f"/><stop offset="1" stop-color="#fb784b"/></linearGradient><linearGradient id="linear-gradient-3" x1="111.57" y1="27.14" x2="115.39" y2="24" gradientUnits="userSpaceOnUse"><stop offset="0" stop-color="#5bcb99"/><stop offset="1" stop-color="#85a8e8"/></linearGradient><linearGradient id="linear-gradient-4" x1="39.29" y1="65.08" x2="158.3" y2="3.33" gradientUnits="userSpaceOnUse"><stop offset="0" stop-color="#34e28b"/><stop offset="1"/></linearGradient><linearGradient id="linear-gradient-5" x1="61.15" y1="77.04" x2="70.51" y2="77.04" gradientUnits="userSpaceOnUse"><stop offset="0" stop-color="#c297ff"/><stop offset="1" stop-color="#ae31bb"/></linearGradient><linearGradient id="linear-gradient-6" x1="23.01" y1="122.13" x2="141.34" y2="29.84" gradientUnits="userSpaceOnUse"><stop offset="0"/><stop offset="1" stop-color="#d23de2"/></linearGradient><linearGradient id="linear-gradient-7" x1="110.54" y1="21.93" x2="105.75" y2="38.1" gradientUnits="userSpaceOnUse"><stop offset="0"/><stop offset="1" stop-opacity="0"/></linearGradient><linearGradient id="linear-gradient-8" x1="66.74" y1="84.5" x2="100.39" y2="92.65" gradientUnits="userSpaceOnUse"><stop offset="0" stop-color="#2db5f9"/><stop offset="1"/></linearGradient><linearGradient id="linear-gradient-9" x1="40.44" y1="-0.23" x2="18.21" y2="60.84" gradientUnits="userSpaceOnUse"><stop offset="0"/><stop offset="0.21" stop-color="#48080a"/><stop offset="0.42" stop-color="#891014"/><stop offset="0.61" stop-color="#bc151b"/><stop offset="0.78" stop-color="#e01a21"/><stop offset="0.91" stop-color="#f71c24"/><stop offset="1" stop-color="#ff1d25"/></linearGradient></defs><title>dojo2-logo-white</title><g class="cls-1"><g id="Layer_2" data-name="Layer 2"><g id="Layer_1-2" data-name="Layer 1"><path class="cls-2" d="M259.41,24.11h2.43V75c0,6.12-1.83,7.35-4.78,7.35a5.3,5.3,0,0,1-1.26-.17V85.4a6.92,6.92,0,0,0,1.5.18c5.22,0,8-3.43,8-9.91V24.11h0V20.8h-5.87Z"/><path class="cls-2" d="M162.42,20.81H146.21v3.28h2.61V66.4h-2.59v3.28h16.2c16.09,0,25.32-8.88,25.32-24.36S178.27,20.81,162.42,20.81Zm.08,45.59H152.26V24.09H162.5c19,0,21.8,13.3,21.8,21.24S181.47,66.4,162.5,66.4Z"/><path class="cls-2" d="M223.58,19.68c-14.21,0-24.52,10.75-24.52,25.56s10.31,25.56,24.52,25.56S248.1,60.06,248.1,45.24,237.79,19.68,223.58,19.68Zm0,47.84c-12.41,0-21.08-9.16-21.08-22.28S211.18,23,223.58,23s21.08,9.16,21.08,22.28S236,67.52,223.58,67.52Z"/><path class="cls-2" d="M303.53,19.68C289.33,19.68,279,30.43,279,45.24s10.31,25.56,24.52,25.56,24.52-10.75,24.52-25.56S317.74,19.68,303.53,19.68Zm0,47.84c-12.41,0-21.08-9.16-21.08-22.28S291.13,23,303.53,23s21.08,9.16,21.08,22.28S315.94,67.52,303.53,67.52Z"/><line class="cls-3" x1="31.01" y1="63.14" x2="31.01" y2="63.14"/><path class="cls-4" d="M15.94,60.34l.31.49A34.84,34.84,0,0,0,21.81,67a27.17,27.17,0,0,0,17.26,6.15l1.19,0A40.43,40.43,0,0,0,52.94,70a40.47,40.47,0,0,1-5.46.5A22.17,22.17,0,0,1,31,63.14,40.13,40.13,0,0,1,15.94,60.34Z"/><path class="cls-5" d="M39.06,18.59A27.26,27.26,0,0,1,62.42,31.76a22.22,22.22,0,0,0-21.16-4.87c5,2.41,11.81,4.25,21.19,4.89,0,0-.46-8.93-11.89-13.6-16-6.51-18.21-5.22-22.26-12a18.07,18.07,0,0,0,3.62,13.3A27.3,27.3,0,0,1,39.06,18.59Z"/><path class="cls-6" d="M50.56,18.18C45.09,16,41.24,14.64,38.36,13.6a20.06,20.06,0,0,0,3,5.08,27.27,27.27,0,0,1,21.1,13.08,22.14,22.14,0,0,0-12.33-5.61,65.46,65.46,0,0,0,12,5.6l.35,0S62,22.85,50.56,18.18Z"/><path class="cls-7" d="M62.43,31.78h.06c.18-1,1.25-8.69-7.45-15.44C42.06,6.27,39.53,5.33,38.91,0a16.7,16.7,0,0,0-.55,13.6c2.87,1,6.73,2.35,12.19,4.58C62,22.85,62.45,31.78,62.45,31.78Z"/><path class="cls-8" d="M101.82,23a20.2,20.2,0,0,1,13.26,4.94,17.9,17.9,0,0,1,11.42,4.78s-10.91-15.85-30.14-9.26a25.06,25.06,0,0,0-4.92,2.41A20.2,20.2,0,0,1,101.82,23Z"/><path class="cls-9" d="M101.82,23a20.19,20.19,0,0,0-10.38,2.86l.56-.34C76.46,34.67,57.41,62.79,31,63.14h0a22.17,22.17,0,0,0,16.48,7.31,40.47,40.47,0,0,0,5.46-.5c17.18-7.08,33.68-24,41.17-32.21,6.94-7.61,14.55-10.2,21-9.81A20.2,20.2,0,0,0,101.82,23Z"/><path class="cls-10" d="M61.7,77.5A12.58,12.58,0,0,0,61.15,81a13.36,13.36,0,0,0,.62,4.05,10,10,0,0,1,3.3-8.85l.08-.3A12.23,12.23,0,0,1,70.51,69h0a22.73,22.73,0,0,0-2.39.92A12.53,12.53,0,0,0,61.7,77.5Z"/><path class="cls-11" d="M70.46,69"/><path class="cls-12" d="M131.24,47.55a25.47,25.47,0,0,0-4.77-14.87,17.91,17.91,0,0,0-11.39-4.74,20.24,20.24,0,0,1,7,15.35c0,6.81-2.47,14.6-10.48,18.79-11.66,6.1-29.55,3.2-41.17,7h0a12.23,12.23,0,0,0-5.35,6.89l-.08.3h0c3.4-3,10.11-5.13,23.2-3.44,9.35,1.2,16.77,1.53,23.15-.3a24.74,24.74,0,0,0,15.15-10.21h0A25.47,25.47,0,0,0,131.24,47.55Z"/><path class="cls-13" d="M131.24,47.55a25.47,25.47,0,0,0-4.77-14.87,17.91,17.91,0,0,0-11.39-4.74,20.24,20.24,0,0,1,7,15.35c0,6.81-2.47,14.6-10.48,18.79-11.66,6.1-29.55,3.2-41.17,7h0a12.23,12.23,0,0,0-5.35,6.89l-.08.3h0c3.4-3,10.11-5.13,23.2-3.44,9.35,1.2,16.77,1.53,23.15-.3a24.74,24.74,0,0,0,15.15-10.21h0A25.47,25.47,0,0,0,131.24,47.55Z"/><path class="cls-14" d="M73.31,91.25a12.28,12.28,0,0,1-8.22-15.08h0v0a10,10,0,0,0-3.3,8.85A12.57,12.57,0,0,0,82,90.69,12.23,12.23,0,0,1,73.31,91.25Z"/><path class="cls-15" d="M77.57,90.36c1.27-3.71,5.39-9.43,9.8-6.81,0,0,3.59,2,4.34-3.67,0,0,2.69,13.38-10.27,12.93,0,0,2.92-2.13,2.89-4.32A14.85,14.85,0,0,1,77.57,90.36Z"/><path class="cls-16" d="M82.75,82.17a4.72,4.72,0,0,1,4.85-.26c1.83.81,4.13-2.36,2.14-5.2,0,0,.13,2.93-2.23,2.9A5.29,5.29,0,0,0,82.75,82.17Z"/><path class="cls-17" d="M95.77,39.6c-3.1,4.23-7.66,7.77-8.19,8.64s.9,3.67,3,3.87.49-.81.31-1.8.63.63,3.17.25-.92-1.32-.68-2.6,2.85-3.71,3.89-6.15,2.82,0,1.91,1.91c-.36.76,2.89-2.13,1.25-4.33S97.58,37.13,95.77,39.6Z"/><path class="cls-17" d="M86.92,48.85c-.46.44-1.8,1.42-1.8,1.42s1.32,1.83,3,1.8c0,0,.36-.17-.16-.71A4.84,4.84,0,0,1,86.92,48.85Z"/><path class="cls-18" d="M41.26,26.89a25,25,0,0,1-9.33-7.35,27.28,27.28,0,0,0-16,40.8A40.13,40.13,0,0,0,31,63.14h0A22.23,22.23,0,0,1,41.26,26.89Z"/><line class="cls-19" x1="31.01" y1="63.14" x2="31.01" y2="63.14"/><path class="cls-20" d="M41.31,18.68c1.21,1.75,4.69,4.77,8.79,7.47a22.14,22.14,0,0,1,12.32,5.61A27.27,27.27,0,0,0,41.31,18.68Z"/><path class="cls-21" d="M41.31,18.68c-.74-.06-1.49-.09-2.24-.09a27.3,27.3,0,0,0-7.14,1,25,25,0,0,0,9.33,7.35,22.05,22.05,0,0,1,8.84-.73C46,23.45,42.52,20.43,41.31,18.68Z"/><path class="cls-22" d="M56.45,24.89a20,20,0,0,0-7.33-4.38C50.88,23.86,52.4,24.89,56.45,24.89Z"/><path class="cls-7" d="M48.73,10.64a37.93,37.93,0,0,1,3.93,2.75c.31.24-.56-2.13-1.57-2.58A4.5,4.5,0,0,0,48.73,10.64Z"/><path class="cls-7" d="M53.58,14.07a42.49,42.49,0,0,1,3.9,2.79c.32.23-.54-2.14-1.55-2.6A4.5,4.5,0,0,0,53.58,14.07Z"/><path class="cls-7" d="M58.14,17.43a11.76,11.76,0,0,1,2.11,2.64c.16.23,0-1.55-.55-2.06A3.17,3.17,0,0,0,58.14,17.43Z"/><path class="cls-23" d="M37.12,60.67c-.12-.39,1.41-.89,1.82-.91a7.15,7.15,0,0,1,2.14.71,9.82,9.82,0,0,1-2.94.62A2.68,2.68,0,0,1,37.12,60.67Z"/><path class="cls-23" d="M42.63,59.36c-.13-.3,1.05-.83,1.38-.88a5.75,5.75,0,0,1,1.77.39,7.9,7.9,0,0,1-2.3.74A2.15,2.15,0,0,1,42.63,59.36Z"/><path class="cls-23" d="M47.25,57.67c-.13-.24.79-.77,1.05-.85a4.76,4.76,0,0,1,1.49.16A6.53,6.53,0,0,1,48,57.8,1.78,1.78,0,0,1,47.25,57.67Z"/><path class="cls-23" d="M50.92,56c-.14-.21.67-.76.9-.85a4.35,4.35,0,0,1,1.37,0,6,6,0,0,1-1.61.87A1.63,1.63,0,0,1,50.92,56Z"/><path class="cls-23" d="M54.34,54.13c-.13-.17.54-.69.74-.78a3.79,3.79,0,0,1,1.19,0,5.2,5.2,0,0,1-1.35.84A1.42,1.42,0,0,1,54.34,54.13Z"/><path class="cls-23" d="M31.59,61.11c-.06-.44,1.64-.7,2.08-.65a7.67,7.67,0,0,1,2.14,1.12,10.52,10.52,0,0,1-3.21.16A2.87,2.87,0,0,1,31.59,61.11Z"/><path class="cls-7" d="M32.64,9.54a10.87,10.87,0,0,0,4,2.25,11.42,11.42,0,0,1-.56-4.55c0-.11-3.45-.06-4-2.89C31.93,3.78,31.44,8.18,32.64,9.54Z"/><path class="cls-5" d="M20.9,74.92a3.3,3.3,0,0,1,1.35-2.33l.11-.06a8.41,8.41,0,0,0-.86-.15c-4.11-.61-5.16,1.84-5.37,4.59,0,.16,0,.32,0,.47a5,5,0,0,1,4.74-2.52Z"/><path class="cls-5" d="M25.91,74c-4.09-2.48-6.39-2.66-7.3,4.29,0,0,4.3-3.4,6.34-1.15,2.21,2.45,5.21.19,3.64-1.23A11.27,11.27,0,0,0,25.91,74Z"/><path class="cls-5" d="M24.22,74.83C21.9,76.37,21.9,80,21.9,80s4.23-2.29,3.9-3.72A1.76,1.76,0,0,0,24.22,74.83Z"/><path class="cls-5" d="M5,46.26a3.3,3.3,0,0,1,2.66-.41l.12,0a8.41,8.41,0,0,0-.42-.76C5.22,41.54,2.66,42.26.38,43.81.24,43.9.12,44,0,44.1a5,5,0,0,1,4.93,2.12Z"/><path class="cls-5" d="M9.34,50.53c-1.49-5.9-2.69-8.18-8.39-4.1,0,0,4.88-1.4,5.44,5.54.26,3.28,3.42,3.94,3.38,1.82A11.27,11.27,0,0,0,9.34,50.53Z"/><path class="cls-5" d="M7.26,47.37c-2.71-.64-5.37,1.84-5.37,1.84s4.17-.14,4.67,2.38C6.85,53,7.26,47.37,7.26,47.37Z"/><path class="cls-24" d="M94.11,37.75a33.26,33.26,0,0,1,9.3-7.51,25.19,25.19,0,0,1,11.11-2.77l1.11,1-.58,0a22.67,22.67,0,0,0-11.44,2.26A33,33,0,0,0,94.11,37.75Z"/><path class="cls-25" d="M114.94,27.51a20.72,20.72,0,0,1,6.28,1.61,16.47,16.47,0,0,1,5.29,3.6A16.25,16.25,0,0,0,121,29.53a26.21,26.21,0,0,0-5.41-1.1l-1.11-1Z"/><path class="cls-26" d="M65.33,75.39a16.47,16.47,0,0,1,1.87-1.14,15.22,15.22,0,0,1,1.39-.62c.47-.2,1-.35,1.43-.51A27.4,27.4,0,0,1,75.93,72a57.46,57.46,0,0,1,11.92.47,116.71,116.71,0,0,0,11.81,1.13,39.79,39.79,0,0,0,11.77-1.16,39.9,39.9,0,0,1-11.77,1.38,117,117,0,0,1-11.86-.91A56.91,56.91,0,0,0,76,72.7a26.68,26.68,0,0,0-5.73,1.16c-.46.16-.92.31-1.36.51a14.41,14.41,0,0,0-1.31.62,12.84,12.84,0,0,0-2.36,1.62l-.32.28A11.06,11.06,0,0,1,65.33,75.39Z"/><line class="cls-27" x1="65.07" y1="76.21" x2="65.07" y2="76.21"/><path class="cls-7" d="M42,28.65c-3.82.84-3.23,3.87-3.23,3.87s1.21-1.46,7.86-2.25A31.44,31.44,0,0,1,42,28.65Z"/><path class="cls-28" d="M61.77,85.07a9.85,9.85,0,0,1-.05-2.54A11.19,11.19,0,0,1,62.27,80a11.33,11.33,0,0,1,1.12-2.35,11.9,11.9,0,0,1,1.67-2l.27-.25s-.38,1.21-.42,1.51a11.57,11.57,0,0,0-1,1.16,10.71,10.71,0,0,0-2,4.5A9.74,9.74,0,0,0,61.77,85.07Z"/><path class="cls-29" d="M30.12,63.14a22.48,22.48,0,0,1-4.77-9.73,22.09,22.09,0,0,1-.49-5.7l.08-1.43.2-1.42a13.78,13.78,0,0,1,.28-1.4,11.8,11.8,0,0,1,.36-1.38,21.38,21.38,0,0,1,2.3-5.19,23.69,23.69,0,0,1,1.61-2.34l.92-1.08c.3-.36.66-.68,1-1a22.34,22.34,0,0,1,4.49-3.41,23.91,23.91,0,0,1,5.18-2.17,23.83,23.83,0,0,0-5.09,2.32,22.09,22.09,0,0,0-4.33,3.5c-.31.34-.65.66-.94,1L30,34.82a23.23,23.23,0,0,0-1.51,2.34,20.79,20.79,0,0,0-2.09,5.12,11.27,11.27,0,0,0-.31,1.35A13.15,13.15,0,0,0,25.89,45l-.15,1.37,0,1.38a21.17,21.17,0,0,0,.64,5.45,21.72,21.72,0,0,0,5.17,9.51l.4.43S30.45,63.17,30.12,63.14Z"/><path class="cls-30" d="M52.94,70a28.31,28.31,0,0,1-6,.68,22.27,22.27,0,0,1-6-1,28,28,0,0,1-5.6-2.35,20.76,20.76,0,0,1-4.88-3.7l-.42-.44,1.78,0a20.16,20.16,0,0,0,4,3.3A27.18,27.18,0,0,0,41.23,69,21.74,21.74,0,0,0,47,70.25,28.69,28.69,0,0,0,52.94,70Z"/></g></g></g></svg>