<svg width="64" height="64" viewBox="0 0 64 64" fill="none" xmlns="http://www.w3.org/2000/svg">
<path d="M58 46.222C56.1085 46.7003 54.9385 46.243 53.8887 44.6756L46.4235 34.4047L45.3445 32.9827L36.6264 44.7095C35.6303 46.1202 34.5854 46.7343 32.7264 46.2349L43.8901 31.3328L33.4966 17.8721C35.2841 17.5263 36.5191 17.7025 37.616 19.2941L45.3591 29.6927L53.1591 19.3507C54.1585 17.94 55.2326 17.4035 57.0266 17.9238L52.9966 23.237L47.5366 30.3067C46.8866 31.1147 46.976 31.6673 47.574 32.4478L58 46.222ZM6.013 31.084L6.92625 26.6175C9.4125 17.7784 19.6013 14.1054 26.6278 19.5672C30.7341 22.7797 31.7546 27.3237 31.5515 32.4139H8.405C8.05725 41.5762 14.6889 47.1059 23.1438 44.2845C26.1094 43.2939 27.8562 40.9848 28.7305 38.0955C29.1741 36.6476 29.9086 36.4214 31.2769 36.8351C30.5781 40.4483 29.0019 43.4668 25.6706 45.3559C20.6932 48.1837 13.5887 47.2691 9.85125 43.3392C7.625 41.0591 6.70525 38.1698 6.2925 35.0802C6.2275 34.5695 6.0975 34.0831 6 33.5935C6.00867 32.7575 6.013 31.9216 6.013 31.0856V31.084ZM8.44725 30.4699H29.3643C29.2278 23.8446 25.0791 19.139 19.4095 19.0986C13.1857 19.0501 8.717 23.6442 8.44725 30.4699Z" fill="white"/>
</svg>
