<svg width="153" height="37" viewBox="0 0 153 37" fill="none" xmlns="http://www.w3.org/2000/svg">
<path d="M11.8799 25.2507V3.59985H25.9377V6.61877H15.1732V13.2055H25.3888V16.1329H15.1732V25.2507H11.8799Z" fill="white"/>
<path d="M33.2174 25.6166C29.8631 25.6166 27.6675 24.0004 27.6675 21.195C27.6675 18.42 29.3142 16.9258 32.8515 16.2244L38.4319 15.1571C38.4319 12.6566 37.2731 11.4063 34.9556 11.4063C32.882 11.4063 31.7232 12.3517 31.2963 14.1203L27.9419 13.9069C28.5518 10.6745 31.0828 8.66188 34.9556 8.66188C39.3467 8.66188 41.6643 11.1319 41.6643 15.3401V21.6524C41.6643 22.4452 41.9387 22.6892 42.5486 22.6892H43.128V25.2507C42.9146 25.3117 42.3962 25.3422 41.9387 25.3422C40.0786 25.3422 38.9808 24.6408 38.7064 22.7502C37.883 24.4578 35.7484 25.6166 33.2174 25.6166ZM33.7663 23.0551C36.6633 23.0551 38.4319 21.2255 38.4319 18.6335V17.5967L33.7053 18.5115C31.7537 18.8774 31.0219 19.6398 31.0219 20.89C31.0219 22.2927 32.0282 23.0551 33.7663 23.0551Z" fill="white"/>
<path d="M51.4284 25.6166C46.8543 25.6166 44.3842 23.3296 44.1403 20.1277L47.4946 19.9752C47.7691 21.7744 48.9279 22.9026 51.4284 22.9026C53.441 22.9026 54.7217 22.2928 54.7217 20.8595C54.7217 19.6703 54.1119 19.1519 50.849 18.603C46.0309 17.7491 44.5367 16.3464 44.5367 13.6934C44.5367 10.7355 46.8238 8.66188 51.032 8.66188C55.1792 8.66188 57.3747 11.0404 57.8321 13.9983L54.5083 14.1813C54.2033 12.5041 53.0141 11.3759 51.0015 11.3759C48.8974 11.3759 47.8911 12.2907 47.8911 13.5714C47.8911 15.0047 48.8669 15.584 51.5199 16.011C56.5514 16.8343 58.0761 18.176 58.0761 20.829C58.0761 23.8784 55.3011 25.6166 51.4284 25.6166Z" fill="white"/>
<path d="M65.9626 25.2507C62.8827 25.2507 61.4495 23.9089 61.4495 20.8595V11.6808H58.9795V9.02781H61.4495V5.21604H64.6819V9.02781H68.9816V11.6808H64.6819V20.6156C64.6819 22.1403 65.3223 22.5977 66.664 22.5977H68.9816V25.2507H65.9626Z" fill="white"/>
<path d="M71.5769 25.2507V3.59985H74.8703V12.8701H84.8723V3.59985H88.1657V25.2507H84.8723V15.8585H74.8703V25.2507H71.5769Z" fill="white"/>
<path d="M97.156 25.2507V6.61877H90.5083V3.59985H107.097V6.61877H100.449V25.2507H97.156Z" fill="white"/>
<path d="M109.436 25.2507V3.59985H113.949L120.383 21.3779L126.818 3.59985H131.331V25.2507H128.037V9.39374L122.213 25.2202H118.554L112.729 9.39374V25.2507H109.436Z" fill="white"/>
<path d="M135.498 25.2507V3.59985H138.791V22.2318H149.342V25.2507H135.498Z" fill="white"/>
<path fill-rule="evenodd" clip-rule="evenodd" d="M8.27979 28.8508V0H29.5376V6.27296C31.1662 5.44568 33.0196 5.06202 34.9555 5.06202C37.8159 5.06202 40.5302 5.87882 42.5191 7.89462C42.6466 8.02384 42.7691 8.15591 42.8867 8.29066C43.2005 7.92661 43.5523 7.58503 43.9419 7.26981C45.8645 5.71433 48.3764 5.06202 51.0319 5.06202C52.5979 5.06202 54.0624 5.31905 55.3794 5.83174V5.42796H57.8494V1.61619H67.9768V0H78.4702V9.27021H81.2722V0H116.475L120.383 10.7997L124.292 0H142.391V18.6319H152.942V28.8508H124.437V28.8203H121.518L120.383 31.9564L119.248 28.8203H116.329V28.8508H105.836V10.2189H104.049V28.8508H93.5559V10.2189H91.7656V28.8508H81.2722V19.4586H78.4702V28.8508H65.9625C63.9885 28.8508 61.7553 28.4323 60.0524 26.7905C59.8664 26.6111 59.6949 26.4252 59.537 26.2336C59.1514 26.637 58.7216 27.0023 58.2541 27.326C56.2948 28.683 53.8436 29.2168 51.4283 29.2168C49.4803 29.2168 47.6425 28.8848 46.0301 28.1657L44.1169 28.7123C43.615 28.8557 43.098 28.8948 42.8813 28.9103C42.5692 28.9326 42.2385 28.9423 41.9386 28.9423C40.8215 28.9423 39.4598 28.7715 38.1988 28.051C36.6682 28.8333 34.9177 29.2168 33.2173 29.2168C31.0124 29.2168 28.7586 28.6905 26.9712 27.2972C25.0757 25.8196 24.0674 23.6394 24.0674 21.1951C24.0674 20.7017 24.1026 20.2129 24.177 19.7331H18.7732V28.8508H8.27979ZM43.1279 25.2508V22.6893H42.5485C42.4945 22.6893 42.4431 22.6874 42.3944 22.6834C42.2038 22.6676 42.0528 22.6194 41.9386 22.5262C41.8697 22.4699 41.8143 22.3972 41.7718 22.3053C41.7074 22.1661 41.6726 21.9829 41.6656 21.7459C41.6654 21.7405 41.6652 21.735 41.6651 21.7295C41.6645 21.7044 41.6642 21.6788 41.6642 21.6525V15.3402C41.6642 15.2789 41.6637 15.2179 41.6627 15.1573C41.6544 14.642 41.6104 14.1537 41.5315 13.6936C41.5111 13.5749 41.4884 13.4581 41.4634 13.3432C41.368 12.9055 41.2389 12.4954 41.0764 12.1143C40.964 11.8503 40.8355 11.6003 40.6912 11.3646C40.6014 11.2179 40.5055 11.0767 40.4034 10.9411C39.2936 9.46712 37.4625 8.66203 34.9555 8.66203C32.7852 8.66203 31.0363 9.29408 29.8107 10.4187C29.5032 10.7008 29.2287 11.014 28.9887 11.3559C28.6054 11.902 28.3102 12.5216 28.1098 13.2056C28.0965 13.2508 28.0837 13.2963 28.0713 13.342C28.0214 13.5259 27.9782 13.7143 27.9418 13.907L31.2962 14.1205C31.4251 13.5866 31.6206 13.1278 31.8878 12.7473C32.506 11.8673 33.5078 11.4065 34.9555 11.4065C35.7033 11.4065 36.3305 11.5367 36.837 11.797C37.3632 12.0675 37.7592 12.4785 38.0249 13.0299C38.1564 13.3025 38.2559 13.6096 38.3237 13.9509C38.3889 14.2796 38.4246 14.64 38.4308 15.0324C38.4315 15.0736 38.4318 15.1153 38.4318 15.1573L32.8514 16.2246C32.2187 16.35 31.6465 16.5008 31.1333 16.6798C30.4165 16.9298 29.815 17.2348 29.325 17.6023C29.2064 17.6913 29.0943 17.784 28.9887 17.8804C28.4326 18.3881 28.0563 19.0004 27.8517 19.7331C27.7522 20.0897 27.6934 20.4747 27.6743 20.8902C27.6697 20.9901 27.6674 21.0917 27.6674 21.1951C27.6674 24.0006 29.863 25.6168 33.2173 25.6168C33.4025 25.6168 33.5856 25.6106 33.7662 25.5984C34.4473 25.5525 35.0932 25.4217 35.6845 25.2189C36.8054 24.8345 37.7304 24.1913 38.3285 23.3766C38.4745 23.1776 38.6011 22.9684 38.7063 22.7503C38.8243 23.5636 39.0948 24.1569 39.5127 24.5689C39.5178 24.5739 39.5228 24.5788 39.5279 24.5837C39.8815 24.9257 40.3388 25.1404 40.8971 25.2508C41.0469 25.2805 41.2039 25.3026 41.3682 25.3177C41.5496 25.3343 41.7398 25.3423 41.9386 25.3423C42.0861 25.3423 42.2398 25.3391 42.3876 25.3328C42.4423 25.3305 42.4961 25.3277 42.5485 25.3245C42.7943 25.3095 43.0087 25.2849 43.1279 25.2508ZM38.4318 17.5968V18.6336C38.4318 18.6972 38.4308 18.7604 38.4286 18.8231C38.4076 19.4438 38.2831 20.0179 38.0642 20.5301C37.9232 20.8601 37.743 21.1644 37.5261 21.4389C37.3812 21.6224 37.2198 21.7926 37.0428 21.9483C36.2457 22.649 35.1312 23.0553 33.7662 23.0553C33.5742 23.0553 33.3911 23.0459 33.2173 23.0275C31.9361 22.8915 31.1604 22.2588 31.0386 21.1951C31.0274 21.0971 31.0218 20.9954 31.0218 20.8902C31.0218 19.7293 31.6527 18.9891 33.305 18.5963C33.3103 18.595 33.3156 18.5938 33.3209 18.5925C33.4434 18.5637 33.5714 18.5367 33.7052 18.5116L38.4318 17.5968ZM25.3887 16.1331V13.2056H15.1732V6.61892H25.9376V3.6H11.8798V25.2508H15.1732V16.1331H25.3887ZM61.5625 22.205C61.9248 24.1441 63.1649 25.0972 65.3815 25.2336C65.5682 25.2451 65.7619 25.2508 65.9625 25.2508H68.9815V22.5978H66.6639C66.4039 22.5978 66.1703 22.5807 65.9625 22.5419C65.1575 22.3916 64.7412 21.9169 64.6877 20.8597C64.6838 20.7816 64.6818 20.7003 64.6818 20.6157V11.6809H68.9815V9.02796H64.6818V5.21619H61.4494V9.02796H58.9794V11.6809H61.4494V20.8597C61.4494 21.3521 61.4868 21.8001 61.5625 22.205ZM44.1402 20.1278C44.1493 20.247 44.1614 20.3649 44.1767 20.4815C44.23 20.8892 44.3209 21.2806 44.4493 21.6525C44.5753 22.0178 44.7374 22.3643 44.9353 22.6893C45.1484 23.0393 45.403 23.3643 45.6989 23.6607C45.9994 23.9618 46.3426 24.2335 46.7279 24.4718C47.9044 25.1994 49.4744 25.6168 51.4283 25.6168C54.7445 25.6168 57.2558 24.3422 57.9091 22.0612C58.0162 21.6874 58.0733 21.2865 58.0759 20.8597C58.076 20.8495 58.076 20.8394 58.076 20.8292C58.076 20.2642 58.0068 19.7587 57.8494 19.305C57.6272 18.6645 57.2289 18.1273 56.6009 17.6717C56.1033 17.3108 55.4615 17.0012 54.6486 16.7321C53.8015 16.4518 52.7687 16.2155 51.5198 16.0111C51.4501 15.9999 51.3816 15.9886 51.3143 15.9772C51.3066 15.9759 51.2989 15.9746 51.2913 15.9732C51.2508 15.9663 51.2108 15.9594 51.1712 15.9524C48.853 15.543 47.9461 14.9757 47.8934 13.6936C47.8918 13.6536 47.891 13.6129 47.891 13.5716C47.891 12.2908 48.8973 11.376 51.0014 11.376C51.0115 11.376 51.0217 11.376 51.0319 11.3761C52.4173 11.384 53.4091 11.9295 53.9873 12.8214C54.2414 13.2133 54.4156 13.6721 54.5082 14.1815L57.832 13.9985C57.8108 13.8613 57.7859 13.7253 57.7571 13.5907C57.6118 12.9099 57.3701 12.2655 57.0293 11.6809C56.7764 11.2472 56.469 10.8464 56.1058 10.4881C55.8845 10.2696 55.6424 10.0669 55.3794 9.88216C54.2934 9.11929 52.8502 8.66203 51.0319 8.66203C51.0217 8.66203 51.0115 8.66204 51.0014 8.66206C47.6867 8.66997 45.5698 9.9683 44.8306 11.972C44.6486 12.4653 44.5502 13.0014 44.5379 13.5716C44.537 13.6121 44.5366 13.6527 44.5366 13.6936C44.5366 14.3063 44.6163 14.8523 44.7982 15.3402C44.9118 15.645 45.0653 15.9271 45.2642 16.1887C45.3356 16.2826 45.4128 16.3738 45.4961 16.4625C45.9408 16.9359 46.5593 17.3367 47.3902 17.6798C48.2823 18.0481 49.4193 18.3498 50.8489 18.6031C50.8757 18.6076 50.9024 18.6121 50.9289 18.6167C50.983 18.6259 51.0363 18.6351 51.0889 18.6443C51.0912 18.6447 51.0935 18.6451 51.0958 18.6455C54.1159 19.1745 54.7112 19.6918 54.7215 20.8292C54.7216 20.8393 54.7216 20.8495 54.7216 20.8597C54.7216 22.2929 53.4409 22.9028 51.4283 22.9028C49.8882 22.9028 48.857 22.4748 48.228 21.7256C47.8358 21.2584 47.5999 20.6664 47.4945 19.9753L44.1402 20.1278ZM71.5768 25.2508H74.8702V15.8586H84.8722V25.2508H88.1656V3.6H84.8722V12.8702H74.8702V3.6H71.5768V25.2508ZM97.1559 25.2508H100.449V6.61892H107.097V3.6H90.5082V6.61892H97.1559V25.2508ZM109.436 25.2508H112.729V9.39388L118.554 25.2203H122.213L128.037 9.39388V25.2508H131.331V3.6H126.818L120.383 21.3781L113.949 3.6H109.436V25.2508ZM138.791 3.6H135.498V25.2508H149.342V22.2319H138.791V3.6Z" fill="black"/>
<path d="M11.8799 25.2507V3.59985H25.9377V6.61877H15.1732V13.2055H25.3888V16.1329H15.1732V25.2507H11.8799Z" fill="#3CDD8C"/>
<path d="M33.2174 25.6166C29.8631 25.6166 27.6675 24.0004 27.6675 21.195C27.6675 18.42 29.3142 16.9258 32.8515 16.2244L38.4319 15.1571C38.4319 12.6566 37.2731 11.4063 34.9556 11.4063C32.882 11.4063 31.7232 12.3517 31.2963 14.1203L27.9419 13.9069C28.5518 10.6745 31.0828 8.66188 34.9556 8.66188C39.3467 8.66188 41.6643 11.1319 41.6643 15.3401V21.6524C41.6643 22.4452 41.9387 22.6892 42.5486 22.6892H43.128V25.2507C42.9146 25.3117 42.3962 25.3422 41.9387 25.3422C40.0786 25.3422 38.9808 24.6408 38.7064 22.7502C37.883 24.4578 35.7484 25.6166 33.2174 25.6166ZM33.7663 23.0551C36.6633 23.0551 38.4319 21.2255 38.4319 18.6335V17.5967L33.7053 18.5115C31.7537 18.8774 31.0219 19.6398 31.0219 20.89C31.0219 22.2927 32.0282 23.0551 33.7663 23.0551Z" fill="#3CDD8C"/>
<path d="M51.4284 25.6166C46.8543 25.6166 44.3842 23.3296 44.1403 20.1277L47.4946 19.9752C47.7691 21.7744 48.9279 22.9026 51.4284 22.9026C53.441 22.9026 54.7217 22.2928 54.7217 20.8595C54.7217 19.6703 54.1119 19.1519 50.849 18.603C46.0309 17.7491 44.5367 16.3464 44.5367 13.6934C44.5367 10.7355 46.8238 8.66188 51.032 8.66188C55.1792 8.66188 57.3747 11.0404 57.8321 13.9983L54.5083 14.1813C54.2033 12.5041 53.0141 11.3759 51.0015 11.3759C48.8974 11.3759 47.8911 12.2907 47.8911 13.5714C47.8911 15.0047 48.8669 15.584 51.5199 16.011C56.5514 16.8343 58.0761 18.176 58.0761 20.829C58.0761 23.8784 55.3011 25.6166 51.4284 25.6166Z" fill="#3CDD8C"/>
<path d="M65.9626 25.2507C62.8827 25.2507 61.4495 23.9089 61.4495 20.8595V11.6808H58.9795V9.02781H61.4495V5.21604H64.6819V9.02781H68.9816V11.6808H64.6819V20.6156C64.6819 22.1403 65.3223 22.5977 66.664 22.5977H68.9816V25.2507H65.9626Z" fill="#3CDD8C"/>
<path d="M71.5769 25.2507V3.59985H74.8703V12.8701H84.8723V3.59985H88.1657V25.2507H84.8723V15.8585H74.8703V25.2507H71.5769Z" fill="#3CDD8C"/>
<path d="M97.156 25.2507V6.61877H90.5083V3.59985H107.097V6.61877H100.449V25.2507H97.156Z" fill="#3CDD8C"/>
<path d="M109.436 25.2507V3.59985H113.949L120.383 21.3779L126.818 3.59985H131.331V25.2507H128.037V9.39374L122.213 25.2202H118.554L112.729 9.39374V25.2507H109.436Z" fill="#3CDD8C"/>
<path d="M135.498 25.2507V3.59985H138.791V22.2318H149.342V25.2507H135.498Z" fill="#3CDD8C"/>
<path d="M153 28.8H8.28L0 36.72H144.72L153 28.8Z" fill="black"/>
<path d="M91.0801 9.35986H94.6801V28.7999H91.0801V9.35986Z" fill="black"/>
<path d="M104.04 9.35986H107.64V28.7999H104.04V9.35986Z" fill="black"/>
<path d="M77.3999 18H82.0799V28.8H77.3999V18Z" fill="black"/>
<path d="M17.6401 19.0801H27.0001V29.8801H17.6401V19.0801Z" fill="black"/>
<path d="M20.52 27.3599H29.88V29.8799H20.52V27.3599Z" fill="black"/>
<path d="M34.2002 26.28H79.9202V29.88H34.2002V26.28Z" fill="black"/>
<path d="M8.45996 0L-3.91006e-05 7.74V36.54L8.45996 28.8V0Z" fill="black"/>
<path d="M11.9824 3.94902H26.0402V6.96794H15.2757V13.5547H25.4913V16.4821H15.2757V25.5999H11.9824V3.94902ZM33.3199 25.9658C31.6122 25.9658 30.2603 25.5795 29.2642 24.807C28.268 24.0142 27.77 22.9265 27.77 21.5441C27.77 20.1617 28.1867 19.0741 29.0202 18.2813C29.8537 17.4884 31.165 16.9192 32.954 16.5736L38.5344 15.5063C38.5344 13.0058 37.3756 11.7555 35.0581 11.7555C33.0455 11.7555 31.8257 12.6602 31.3988 14.4695L28.0444 14.256C28.3494 12.6297 29.1117 11.3489 30.3315 10.4138C31.5716 9.47863 33.1471 9.01105 35.0581 9.01105C37.2333 9.01105 38.8902 9.6006 40.0286 10.7797C41.1874 11.9385 41.7668 13.575 41.7668 15.6893V22.0015C41.7668 22.3878 41.8379 22.6623 41.9802 22.8249C42.1225 22.9672 42.3462 23.0383 42.6511 23.0383H43.2305V25.5999C43.0272 25.6608 42.6308 25.6913 42.0412 25.6913C41.0857 25.6913 40.3437 25.488 39.8152 25.0815C39.2866 24.6749 38.9512 24.0142 38.8088 23.0993C38.4023 23.9532 37.7009 24.6444 36.7048 25.1729C35.7086 25.7015 34.5803 25.9658 33.3199 25.9658ZM33.8688 23.4043C35.2919 23.4043 36.4201 22.9977 37.2536 22.1845C38.1075 21.3713 38.5344 20.304 38.5344 18.9826V17.9458L33.8078 18.8607C32.8523 19.0436 32.1611 19.3282 31.7342 19.7145C31.3276 20.1007 31.1243 20.609 31.1243 21.2392C31.1243 21.9304 31.3581 22.4691 31.8257 22.8554C32.3136 23.2213 32.9946 23.4043 33.8688 23.4043ZM51.5309 25.9658C49.3149 25.9658 47.5768 25.4677 46.3164 24.4716C45.0559 23.4754 44.3647 22.1439 44.2428 20.4768L47.5971 20.3244C47.9021 22.276 49.2133 23.2518 51.5309 23.2518C52.5677 23.2518 53.3707 23.0892 53.9399 22.7639C54.5294 22.4183 54.8242 21.8999 54.8242 21.2087C54.8242 20.7818 54.7226 20.4463 54.5193 20.2024C54.316 19.9381 53.9399 19.7145 53.391 19.5315C52.8421 19.3282 52.0289 19.1351 50.9515 18.9521C49.3454 18.6675 48.085 18.3118 47.1702 17.8848C46.2554 17.4579 45.6048 16.9395 45.2186 16.3296C44.8323 15.7198 44.6392 14.9574 44.6392 14.0426C44.6392 12.5179 45.2084 11.2981 46.3469 10.3833C47.4853 9.46846 49.0812 9.01105 51.1344 9.01105C53.1064 9.01105 54.6717 9.50912 55.8305 10.5053C56.9893 11.5014 57.6907 12.7822 57.9346 14.3475L54.6108 14.5305C54.4481 13.6563 54.0619 12.9753 53.452 12.4874C52.8624 11.9791 52.0797 11.725 51.1039 11.725C50.0875 11.725 49.3149 11.9283 48.7864 12.3349C48.2578 12.7212 47.9935 13.2497 47.9935 13.9206C47.9935 14.6321 48.2578 15.1607 48.7864 15.5063C49.3353 15.8519 50.2806 16.1365 51.6223 16.3601C53.2893 16.6244 54.6006 16.97 55.5561 17.3969C56.5116 17.8035 57.1824 18.3118 57.5687 18.9216C57.9753 19.5112 58.1786 20.2634 58.1786 21.1782C58.1786 22.6623 57.5585 23.8312 56.3184 24.685C55.0987 25.5389 53.5028 25.9658 51.5309 25.9658ZM66.0651 25.5999C64.5201 25.5999 63.3816 25.2543 62.6498 24.5631C61.9179 23.8515 61.552 22.7334 61.552 21.2087V12.03H59.082V9.37698H61.552V5.56521H64.7844V9.37698H69.084V12.03H64.7844V20.9647C64.7844 21.6966 64.9368 22.215 65.2418 22.5199C65.567 22.8046 66.0753 22.9469 66.7665 22.9469H69.084V25.5999H66.0651Z" fill="white"/>
<path d="M71.6794 3.94902H74.9727V13.2192H84.9748V3.94902H88.2682V25.5999H84.9748V16.2077H74.9727V25.5999H71.6794V3.94902Z" fill="#FFCCCC"/>
<path d="M97.2585 6.96794H90.6107V3.94902H107.2V6.96794H100.552V25.5999H97.2585V6.96794Z" fill="#3CDD8C"/>
<path d="M109.539 3.94902H114.052L120.486 21.7271L126.92 3.94902H131.433V25.5999H128.14V9.74291L122.316 25.5694H118.656L112.832 9.74291V25.5999H109.539V3.94902Z" fill="#FFC435"/>
<path d="M135.6 3.94902H138.894V22.5809H149.445V25.5999H135.6V3.94902Z" fill="#8C8CF3"/>
</svg>