<svg id="Layer_1" data-name="Layer 1" xmlns="http://www.w3.org/2000/svg" viewBox="0 0 1000 1000"><defs><style>.cls-1{fill:#fff;}</style></defs><path class="cls-1" d="M899.13,303.22,925.85,234l-1.15-4.28L660.36,299.38c28.18-40.78,18.49-73.48,18.49-73.48s-84.41,53.91-148.26,52.49S446.18,260,348.28,291.16s-125.56,127-153.93,147.55S77,526.32,77,526.32l.19,1.2L157.4,502s-22,20.75-68.77,83.77c0,0-.82-.75-2.18-2l.07.43S124.12,641.59,161,631a73.31,73.31,0,0,0,12.45-5.16c14.85,8.27,34.24,16.4,55.65,18.64a343.88,343.88,0,0,1-26.58-36l10-6.51L211,603l30.57,11.22-3.38-28.73.3-.19,30,11-3.74-26.13c3.8-2,7.61-3.87,11.4-5.63l31.31-118.44L437,357.84l-10.28,25.89c-26.25,64.56-75.55,79.81-75.55,79.81l-20.57,7.8c-15.31,18.09-21.74,22.54-27,83.25,12.33-3.11,24.12-3.83,34.8-1,55.33,14.9,74.49,81.58,59.59,100-3.73,4.62-12.61,12.52-23.82,21.77H351.67l-.29,18.19-2.31,1.8H326.23l-.29,17.75c-2,1.54-4,3.05-6,4.52-21.47.45-48.65-18.27-48.65-18.27,0,17,14.19,43.27,14.19,43.27l2.51-1.22L285.86,743s57.46,38.31,93.63,24.12c32.18-12.61,115.45-78.28,187.34-109.35l217.54-57.32,28.69-74.31L647.28,569.85V503.09l194.47-51.24,28.69-74.32-223.16,58.8V369.58ZM504.31,444.69l51.62-13.6.69,2.59-16.1,41.72L487,489.5ZM522.13,534l-53.5,14.1,17.29-44.81,51.62-13.6.69,2.59Zm69.71-15-53.51,14.1,17.3-44.8,51.62-13.61.69,2.59Z"/></svg>