<?xml version="1.0" encoding="UTF-8" standalone="no"?>
<svg
   width="64"
   height="64"
   viewBox="0 0 32 32"
   preserveAspectRatio="xMidYMid"
   version="1.1"
   id="svg1"
   sodipodi:docname="palletsprojects_flask-icon.svg"
   xml:space="preserve"
   inkscape:version="1.3.2 (091e20e, 2023-11-25)"
   xmlns:inkscape="http://www.inkscape.org/namespaces/inkscape"
   xmlns:sodipodi="http://sodipodi.sourceforge.net/DTD/sodipodi-0.dtd"
   xmlns="http://www.w3.org/2000/svg"
   xmlns:svg="http://www.w3.org/2000/svg"><defs
     id="defs1" /><sodipodi:namedview
     id="namedview1"
     pagecolor="#ffffff"
     bordercolor="#000000"
     borderopacity="0.25"
     inkscape:showpageshadow="2"
     inkscape:pageopacity="0.0"
     inkscape:pagecheckerboard="0"
     inkscape:deskcolor="#d1d1d1"
     inkscape:zoom="12.015625"
     inkscape:cx="32"
     inkscape:cy="32"
     inkscape:window-width="1392"
     inkscape:window-height="942"
     inkscape:window-x="1918"
     inkscape:window-y="25"
     inkscape:window-maximized="0"
     inkscape:current-layer="svg1" /><g
     id="g1439"
     transform="translate(8.3539823,-2.2654867)"
     style="fill:#000000"><path
       style="fill:#000000;fill-opacity:1"
       d="M 0,9.4370741 V 9.3741482 L 0.29166667,9.1454075 0.58333333,8.9166667 0.35459255,9.2083333 0.12585176,9.5 H 0.06292588 0 Z M 14.359649,5.3333333 V 4.9166667 L 14.443713,5.125 14.527778,5.3333333 14.443713,5.5416667 14.359649,5.75 Z"
       id="path1442" /><path
       style="fill:#000000;fill-opacity:1"
       d="m 18.625,28.556287 0.208333,-0.08407 0.208334,0.08407 0.208333,0.08406 h -0.416667 -0.416666 z m 2.086505,-0.0051 0.294839,-0.07683 0.205161,0.08301 0.205162,0.08301 -0.5,-0.0062 -0.5,-0.0062 z M 8.4088246,23.791667 7.75,23.083333 8.4583333,23.742158 9.1666667,24.400983 V 24.450491 24.5 H 9.117158 9.0676493 Z"
       id="path1441"
       sodipodi:nodetypes="ccccccccccccccccccccccc" /><path
       style="fill:#38a8be;fill-opacity:1;stroke-width:1.00878"
       d="M 8.1439407,30.648054 C 7.6675675,30.543581 7.1669051,30.477085 6.7148292,30.334631 6.2627533,30.192177 5.4401041,29.803739 5.4401041,29.803739 L 4.1653789,29.272846 2.9181432,28.453875 1.6709074,27.634903 0.5883496,26.639003 -0.49420845,25.643102 3.9925116,23.342685 8.4792314,21.042268 h 0.1268717 0.1268728 l 0.3948453,0.74429 0.3948455,0.744291 0.8937483,1.083534 c 0,0 0.321573,0.546129 0.89375,1.083534 0.572177,0.537405 0.562764,0.488001 1.281077,0.940063 0.718313,0.452062 1.281078,0.773611 1.281078,0.773611 l 1.297045,0.406992 1.297046,0.406992 1.207371,0.118732 1.207373,0.118731 0.515968,-0.113326 0.515968,-0.113326 v -0.218439 -0.21844 l 0.462359,-0.174561 0.746423,-0.266691 0.173879,0.223288 0.718973,-0.314132 0.320906,-0.142957 0.297875,-0.08154 0.533126,0.796092 0.479386,0.765382 -0.09547,0.248801 -0.09547,0.248802 -0.678139,0.271337 -0.67814,0.271338 -0.153548,0.08458 0.153548,0.207418 -0.378294,0.244686 -0.401327,0.167912 -0.439327,0.190451 -0.347198,0.121357 -0.04606,-0.30881 -0.06909,-0.239714 h -0.06405 -0.06405 l -1.142944,0.430204 -1.142944,0.430203 -1.693263,0.421557 -1.693263,0.421557 -2.521961,0.0727 c 0,0 -1.569226,0.217973 -2.5219595,0.0727 -0.9527331,-0.145273 -0.9527546,-0.20894 -1.4291278,-0.313413 z m -10.7304991,-7.798382 -0.8210335,-1.218947 -0.2893372,-0.562049 -0.2893372,-0.56205 0.05443,-0.03888 0.05443,-0.03888 L 1.2505809,18.142134 6.3785682,15.8554 C 6.5652583,15.778 6.7102793,15.728248 6.8750861,15.638665 l 0.4485284,1.85358 0.4945939,1.746098 -0.047292,0.03415 -0.047302,0.03415 -4.65624,2.380993 -4.65624,2.380995 h -0.088329 -0.088329 z m -2.7162651,-4.948631 -0.3483028,-0.787396 -0.4330115,-1.388819 -0.4330114,-1.388819 -0.3614357,-0.05152 -0.3614359,-0.05152 -0.5569807,-1.053256 -0.5569808,-1.053256 0.097334,-0.30667 0.097333,-0.30667 6.7645496,-2.8901015 6.7645497,-2.890102 c 0,0 0.2182268,-0.1043294 0.3426951,-0.133462 C 5.8369473,5.5703198 5.878594,5.765409 5.878594,5.765409 l 0.028309,0.5023763 0.051339,0.5254086 0.057071,1.0221233 0.064748,1.0298007 0.1623317,2.4336531 0.2237496,2.295461 c 0,0 0.010177,0.07526 -0.047615,0.163271 -0.057792,0.08802 -0.1244093,0.09416 -0.1244093,0.09416 l -5.42115472,2.397676 -5.50560608,2.459095 h -0.1609384 -0.1609383 z"
       id="path1439"
       sodipodi:nodetypes="zzccccccccccccczzcccccccccccccccccccccccccccccccccccczzcccccccccccccccccccccccccccccczccccccczcccccc" /></g></svg>
