<?xml version="1.0" encoding="utf-8"?>
<svg xmlns="http://www.w3.org/2000/svg" viewBox="0 0 207 78">
  <g fill="#00ADD8">
    <path d="M16.2 24.1c-.4 0-.5-.2-.3-.5l2.1-2.7c.2-.3.7-.5 1.1-.5h35.7c.4 0 .5.3.3.6l-1.7 2.6c-.2.3-.7.6-1 .6l-36.2-.1zM1.1 33.3c-.4 0-.5-.2-.3-.5l2.1-2.7c.2-.3.7-.5 1.1-.5h45.6c.4 0 .6.3.5.6l-.8 2.4c-.1.4-.5.6-.9.6l-47.3.1zM25.3 42.5c-.4 0-.5-.3-.3-.6l1.4-2.5c.2-.3.6-.6 1-.6h20c.4 0 .6.3.6.7l-.2 2.4c0 .4-.4.7-.7.7l-21.8-.1z"/>
    <path d="M129 22.6c-6.4 1.6-10.8 2.8-17.1 4.4-1.5.4-1.6.5-2.9-1-1.5-1.7-2.6-2.8-4.7-3.8-6.4-3.1-12.6-2.2-18.3 1.9-6.8 4.9-10.3 12-10.2 20.6.1 8.4 5.9 15.3 14.2 16.4 7.2 1 13.1-1.6 17.7-7.1 1-1.2 1.9-2.5 3.1-4.1H90.4c-2.1 0-2.6-1.3-1.9-3 1.3-3.1 3.7-8.3 5.1-10.9.3-.6 1-1.6 2.5-1.6h36.4c-.2 2.7-.2 5.4-.6 8.1-1.1 7.2-4 13.8-8.8 19.5-7.9 9.4-17.8 14.8-30.1 15.6-10.1.7-19.1-2.1-26.7-9.1-6.9-6.3-10.6-14.2-11.4-23.5-.9-11.1 2.5-21 9.4-29.6C72.3 6.2 82.2.6 94.1.1c9.4-.4 17.8 2.4 24.8 9 4.5 4.2 7.7 9.4 9.7 15.4.5 1.2.1 1.8-1.6 2.1z"/>
    <path d="M162.8 77.2c-9-.2-17.2-2.8-24.2-8.6-5.8-4.8-9.5-11-10.7-18.5-1.6-10.1 1.2-19.1 7.2-27 6.5-8.6 15.1-13.7 25.6-15.3 9-1.3 17.4.2 24.8 5.4 6.6 4.6 10.8 11 12.4 18.8 1.9 10-1 18.9-6.8 26.9-5.5 7.5-12.7 12.6-21.6 15.1-2.3.6-4.6.9-6.7 3.2zm22-37.2c-.1-1.3-.1-2.3-.3-3.3-1.6-8.6-8.9-13.7-17.5-12.4-8.4 1.3-13.9 6-16.4 14-2 6.4-.5 12.3 4.2 17.1 3.4 3.5 7.7 5 12.5 4.8 6.6-.3 11.9-3.1 15.4-8.7 2.3-3.6 3.3-7.6 2.1-11.5z"/>
  </g>
</svg>
