<svg width="32" height="32" viewBox="0 0 32 32" fill="none" xmlns="http://www.w3.org/2000/svg">
<path d="M17.42 13.51C17.42 13.51 24.6625 1.90748 24.8275 1.61748C24.9925 1.32748 25.0275 0.794983 24.5725 0.794983C24.1175 0.794983 12.835 12.3125 12.835 12.3125L4.8225 17.0625C4.8225 17.0625 4.285 17.3925 4.3675 17.805C4.45 18.2175 4.81 18.235 4.975 18.235C5.14 18.235 13.6875 18.19 14.185 18.175C14.8025 18.1575 14.65 19.035 14.65 19.035L9.24 27.54C9.24 27.54 6.8775 30.81 6.8775 31.0325C6.8775 31.36 7.2725 31.5225 7.64 31.3025C7.925 31.1325 26.35 15.52 27.1625 14.4475C27.3825 14.155 27.495 13.385 26.5875 13.385C25.68 13.385 18.4525 15.49 18.4525 15.49L17.42 13.51Z" fill="#FEB804"/>
<path d="M16.1525 12.5875C15.93 12.8925 15.87 13.4025 16.35 13.4325C16.8275 13.46 26.5875 13.3875 26.5875 13.3875C26.5875 13.3875 19.615 19.795 17.505 21.7075C15.395 23.62 8.40751 29.815 7.93751 30.2525C7.47751 30.6825 7.06001 31.0775 6.89001 31.0225C6.86251 31.015 6.82751 30.8675 7.48501 29.785C8.08501 28.7975 13.845 19.145 14.07 18.78C14.295 18.415 14.4925 18.105 14.605 17.935C14.7175 17.765 15.0825 16.8375 14.3225 16.8375C13.5625 16.8375 4.82251 17.0625 4.82251 17.0625C4.82251 17.0625 10.86 11.94 12.605 10.5625C14.35 9.18498 24.24 0.794983 24.5725 0.794983C24.905 0.794983 16.3775 12.28 16.1525 12.5875Z" fill="#FFC927"/>
<path d="M15.8625 17.6875C16.3125 17.04 16.755 16.9925 17.0225 17.1525C17.3675 17.36 17.4025 17.8375 16.9675 18.415C16.2825 19.33 11.2475 26.0675 11.055 26.305C10.69 26.755 10.1525 26.5575 10.5025 25.905C10.795 25.365 15.3975 18.3575 15.8625 17.6875ZM8.70749 16.3725C7.84499 16.95 7.04249 16.0875 7.61999 15.455C8.19749 14.8225 11.9875 11.6675 12.755 11.015C13.5225 10.3625 18.0025 6.465 18.35 6.185C18.81 5.815 19.095 6.19 18.805 6.575C18.5175 6.96 15.35 10.125 13.9525 11.41C12.8725 12.405 9.52749 15.8225 8.70749 16.3725Z" fill="#FFE567"/>
</svg>
