<svg width="450" height="450" viewBox="0 0 450 450" fill="none" xmlns="http://www.w3.org/2000/svg">
<path d="M68.4913 242.337C100.798 242.337 126.992 268.227 126.992 300.168C126.992 332.11 100.798 358 68.4913 358C36.1877 357.998 10 332.108 10 300.168C10 268.228 36.1877 242.339 68.4913 242.337ZM145.065 92C177.369 92 203.562 117.892 203.564 149.832C203.564 152.552 203.374 155.227 203.005 157.846C200.057 178.812 195.721 202.462 207.662 220.032L221.408 240.256L224.808 244.383C224.953 244.559 225.138 244.7 225.347 244.794C225.556 244.888 225.783 244.933 226.013 244.925C226.242 244.917 226.466 244.856 226.668 244.747C226.869 244.639 227.043 244.485 227.176 244.299L230.052 240.256L242.623 221.757C255.164 203.303 250.617 178.37 248.462 156.24C248.282 154.379 248.192 152.51 248.192 150.64C248.192 118.7 274.38 92.81 306.683 92.808C338.989 92.808 365.183 118.699 365.183 150.64C365.183 153.745 364.935 156.792 364.458 159.764C361.275 179.599 356.714 201.535 366.871 218.927L372.67 228.2C378.167 236.993 388.017 241.774 397.991 244.665C422.271 251.701 439.999 273.886 440 300.168C440 332.11 413.813 358 381.508 358C349.202 358 323.016 332.109 323.016 300.168C323.016 296.739 323.318 293.38 323.897 290.115C327.366 270.56 331.956 248.88 321.916 231.687L309.161 209.846L308.395 208.8C308.267 208.624 308.099 208.48 307.907 208.379C307.714 208.278 307.5 208.223 307.282 208.217C307.065 208.212 306.848 208.256 306.65 208.347C306.453 208.438 306.278 208.573 306.141 208.742L292.512 228.796C280.292 246.778 284.888 271.054 287.757 292.531C288.091 295.03 288.262 297.579 288.262 300.168C288.262 332.11 262.068 358 229.763 358C197.457 357.999 171.272 332.109 171.272 300.168C171.272 277.48 174.818 252.151 162.019 233.318L161.006 231.826C150.726 216.701 132.473 209.196 116.412 200.256C98.6019 190.345 86.5725 171.479 86.5725 149.832C86.5745 117.893 112.76 92.001 145.065 92Z" fill="white"/>
</svg>
