<svg xmlns="http://www.w3.org/2000/svg" width="48" height="48" fill="none">
  <rect width="48" height="48" fill="#000" rx="24"/>
  <path fill="#fff" d="M36.109 17.5974C36.0934 11.1453 30.839 5.9 24.3831 5.9c-6.4659 0-11.7267 5.2609-11.7267 11.7268 0 .0202.0037.0394.0037.0596C9.2734 19.745 7 23.4594 7 27.7033 7 34.1701 12.2599 39.43 18.7267 39.43c2.0816 0 4.0338-.5516 5.7308-1.507 1.697.9554 3.6501 1.507 5.7316 1.507 6.4669 0 11.7268-5.2608 11.7268-11.7267 0-4.3054-2.3386-8.0666-5.8069-10.1059zM24.4575 35.4587c-2.122-1.5722-3.5849-3.9842-3.8731-6.7477 1.1931.4112 2.4679.6443 3.7987.6443 1.3896 0 2.7167-.2551 3.953-.7012-.2735 2.7874-1.742 5.2214-3.8786 6.8046zm-9.6406-16.5782c1.1959-.5314 2.5175-.8343 3.9098-.8343a9.5872 9.5872 0 0 1 3.8126.7875c-1.9403 1.6759-3.3307 3.9695-3.8502 6.5778-2.077-1.5253-3.5225-3.8547-3.8722-6.531zm9.5662 8.4043c-1.3372 0-2.612-.2735-3.7712-.7682.3313-2.6873 1.7704-5.0314 3.8456-6.5687 2.0586 1.5254 3.4895 3.8428 3.8364 6.5026-1.1968.5332-2.5185.8343-3.9108.8343zm1.9926-8.4521a9.6043 9.6043 0 0 1 3.8125-.7874c1.3373 0 2.6121.2735 3.7722.7682-.3267 2.6478-1.7282 4.9598-3.7529 6.4998-.5342-2.5689-1.9154-4.8248-3.8318-6.4806zm-1.9926-10.863c4.9855 0 9.1 3.7969 9.6057 8.6502-1.1931-.4102-2.4679-.6443-3.7997-.6443-2.0815 0-4.0346.5516-5.7316 1.5071-1.6961-.9555-3.6483-1.5071-5.7308-1.5071-1.3895 0-2.7167.2552-3.9529.7003.48-4.8799 4.6055-8.7062 9.6093-8.7062zm-5.6564 29.3916c-5.326 0-9.658-4.332-9.658-9.658 0-3.1371 1.5098-5.9207 3.8337-7.6866.6828 3.2867 2.7525 6.0639 5.5609 7.7169.0101 3.5308 1.5924 6.6935 4.0769 8.8393a9.5766 9.5766 0 0 1-3.8135.7884zm11.4624 0a9.587 9.587 0 0 1-3.8125-.7875c2.4918-2.1522 4.0787-5.3269 4.0787-8.8696 0-.0202-.0037-.0404-.0037-.0596 2.7599-1.6787 4.7809-4.4532 5.4316-7.7243 2.3982 1.7595 3.964 4.5881 3.964 7.783-.001 5.3251-4.333 9.658-9.6581 9.658z"/>
</svg>
