<svg width="126" height="89" viewBox="0 0 126 89" fill="none" xmlns="http://www.w3.org/2000/svg">
<path fill-rule="evenodd" clip-rule="evenodd" d="M20.8333 58.1237C17.8608 48.5643 18.2294 38.278 21.8785 28.9559C25.5276 19.6338 32.24 11.8308 40.9122 6.82967C49.5843 1.82855 59.7001 -0.0729989 69.5963 1.43767C79.4925 2.94833 88.5803 7.78128 95.3654 15.142C93.6523 15.9833 91.8964 16.8582 90.0979 17.7666C84.1076 11.7921 76.315 7.95878 67.9263 6.85992C59.5375 5.76107 51.0205 7.45797 43.6934 11.688C36.3664 15.918 30.638 22.4452 27.3949 30.2593C24.1518 38.0734 23.5748 46.7387 25.7533 54.9138C24.0645 55.9929 22.4245 57.0629 20.8333 58.1237ZM125.229 8.24148C124.98 8.17459 124.715 8.20924 124.492 8.33779H124.52C111.729 13.9351 99.1313 19.9418 86.7454 26.3467L62.6628 15.5442C62.2073 15.3437 61.7112 15.2526 61.2142 15.278C60.7172 15.3034 60.233 15.4446 59.8004 15.6905C59.3705 15.9375 59.0049 16.2823 58.7332 16.697C58.4615 17.1117 58.2914 17.5846 58.2366 18.0773L55.9229 38.8732L44.4001 33.9806C43.9547 33.7903 43.4713 33.7055 42.9877 33.7326C42.5041 33.7598 42.0335 33.8983 41.6122 34.1373C41.1909 34.3762 40.8304 34.7092 40.5589 35.1103C40.2874 35.5115 40.1123 35.9698 40.0471 36.4498L37.5207 54.6071C24.8722 62.6269 12.4978 71.0891 0.421165 79.9801C0.219757 80.1197 0.0780993 80.3297 0.0240828 80.5687C-0.0299337 80.8077 0.00764788 81.0583 0.129465 81.2709C0.251283 81.4835 0.448433 81.6427 0.681942 81.7169C0.91545 81.7912 1.16835 81.7751 1.39059 81.672C23.2903 72.025 44.6592 61.2154 65.406 49.2893C86.111 37.2809 106.158 24.1725 125.462 10.0205C125.685 9.89193 125.848 9.68001 125.915 9.43133C125.981 9.18265 125.947 8.91757 125.818 8.69443C125.69 8.47129 125.478 8.30836 125.229 8.24148ZM43.6587 50.7634C47.2169 48.5628 50.7961 46.397 54.396 44.2661L45.1225 40.3273L43.6587 50.7634ZM61.3686 40.1974C67.6773 36.5687 74.0473 33.0466 80.4759 29.6325L63.3944 21.9731L61.3686 40.1974ZM94.9235 66.2917C99.1386 59.9736 101.389 52.5492 101.392 44.9541C101.394 41.645 100.967 38.3497 100.121 35.1506C101.81 34.041 103.45 32.9558 105.041 31.895C107.986 41.4449 107.601 51.7119 103.948 61.0141C100.295 70.3164 93.5918 78.1025 84.9356 83.0969C76.2793 88.0913 66.1835 89.9979 56.302 88.5045C46.4205 87.0111 37.3391 82.2061 30.5454 74.8767C32.2342 74.0353 33.9931 73.1605 35.8221 72.2521C41.2139 77.6013 48.0683 81.2351 55.5217 82.6954C62.9751 84.1557 70.694 83.3772 77.7057 80.458C84.7174 77.5389 90.7083 72.6098 94.9235 66.2917ZM121.9 70.5566C122.642 69.4452 123.039 68.1386 123.039 66.802C123.039 65.0096 122.326 63.2906 121.059 62.0232C119.792 60.7558 118.073 60.0437 116.28 60.0437C114.944 60.0437 113.637 60.4401 112.526 61.1827C111.414 61.9253 110.548 62.9808 110.037 64.2157C109.525 65.4506 109.391 66.8094 109.652 68.1204C109.913 69.4314 110.556 70.6356 111.502 71.5807C112.447 72.5259 113.651 73.1695 114.962 73.4303C116.273 73.691 117.632 73.5572 118.867 73.0457C120.101 72.5342 121.157 71.668 121.9 70.5566ZM15.2272 20.0996C15.2272 20.7638 15.0301 21.413 14.6609 21.9652C14.2917 22.5173 13.7671 22.9475 13.1533 23.2012C12.5395 23.455 11.8642 23.5209 11.2129 23.3907C10.5616 23.2604 9.96351 22.9399 9.4945 22.4696C9.02549 21.9993 8.70656 21.4004 8.5781 20.7487C8.44963 20.0971 8.51747 19.422 8.7729 18.8089C9.02833 18.1958 9.45991 17.6722 10.013 17.3045C10.5662 16.9369 11.2159 16.7416 11.8801 16.7434C12.3204 16.7434 12.7564 16.8302 13.1631 16.999C13.5698 17.1678 13.9392 17.4152 14.2501 17.7269C14.561 18.0387 14.8074 18.4088 14.9751 18.8159C15.1427 19.223 15.2284 19.6593 15.2272 20.0996Z" fill="#4ECAFF"/>
</svg>
