<svg width="218" height="33" viewBox="0 0 218 33" fill="none" xmlns="http://www.w3.org/2000/svg">
<g clip-path="url(#clip0_313_5149)">
<path fill-rule="evenodd" clip-rule="evenodd" d="M8.82077 20.2869C7.84759 17.1571 7.96826 13.7894 9.16298 10.7373C10.3577 7.68528 12.5554 5.13057 15.3946 3.4932C18.2339 1.85583 21.5458 1.23326 24.7858 1.72785C28.0259 2.22245 31.0012 3.80476 33.2227 6.21465C32.6618 6.49011 32.0869 6.77654 31.4981 7.07395C29.5368 5.11791 26.9855 3.86287 24.2391 3.5031C21.4926 3.14334 18.7041 3.6989 16.3052 5.08381C13.9063 6.46872 12.0309 8.60573 10.9691 11.1641C9.90725 13.7224 9.71836 16.5594 10.4316 19.236C9.87869 19.5893 9.34174 19.9396 8.82077 20.2869ZM43.0001 3.95552C42.9187 3.93362 42.8319 3.94497 42.7588 3.98705H42.7678C38.5802 5.81962 34.4557 7.78619 30.4005 9.88318L22.5158 6.34639C22.3667 6.28076 22.2043 6.25091 22.0416 6.25923C21.8788 6.26755 21.7203 6.3138 21.5787 6.3943C21.4379 6.47517 21.3182 6.58806 21.2293 6.72383C21.1403 6.8596 21.0846 7.01443 21.0667 7.17575L20.3092 13.9843L16.5366 12.3825C16.3908 12.3202 16.2325 12.2924 16.0742 12.3013C15.9159 12.3102 15.7618 12.3555 15.6238 12.4338C15.4859 12.512 15.3679 12.621 15.279 12.7524C15.1901 12.8837 15.1328 13.0338 15.1114 13.1909L14.2843 19.1357C10.1432 21.7613 6.0918 24.5319 2.13789 27.4428C2.07195 27.4885 2.02557 27.5573 2.00788 27.6355C1.9902 27.7138 2.0025 27.7958 2.04239 27.8654C2.08227 27.935 2.14682 27.9871 2.22327 28.0114C2.29972 28.0357 2.38252 28.0305 2.45528 27.9967C9.62525 24.8383 16.6214 21.2992 23.414 17.3946C30.1928 13.463 36.7563 9.17135 43.0762 4.53797C43.1493 4.49588 43.2026 4.4265 43.2245 4.34508C43.2464 4.26366 43.235 4.17687 43.1929 4.10382C43.1509 4.03076 43.0815 3.97742 43.0001 3.95552ZM16.2939 17.8772C17.4588 17.1567 18.6307 16.4476 19.8093 15.75L16.7731 14.4604L16.2939 17.8772ZM22.0921 14.4179C24.1576 13.2299 26.2431 12.0767 28.3479 10.9589L22.7554 8.45124L22.0921 14.4179ZM33.0779 22.9614C34.458 20.8928 35.1949 18.4621 35.1958 15.9754C35.1964 14.892 35.0565 13.8131 34.7796 12.7657C35.3325 12.4025 35.8694 12.0472 36.3904 11.6998C37.3547 14.8265 37.2285 18.1879 36.0326 21.2335C34.8367 24.2791 32.642 26.8282 29.8079 28.4634C26.9738 30.0986 23.6685 30.7228 20.4333 30.2339C17.198 29.7449 14.2248 28.1717 12.0005 25.7721C12.5534 25.4966 13.1293 25.2102 13.7281 24.9128C15.4934 26.6641 17.7375 27.8538 20.1778 28.3319C22.618 28.81 25.1452 28.5552 27.4408 27.5994C29.7365 26.6437 31.6979 25.0299 33.0779 22.9614ZM41.91 24.3576C42.1531 23.9937 42.2829 23.5659 42.2829 23.1283C42.2829 22.5415 42.0497 21.9787 41.6348 21.5637C41.2198 21.1488 40.6571 20.9157 40.0702 20.9157C39.6326 20.9157 39.2048 21.0454 38.841 21.2886C38.4771 21.5317 38.1935 21.8773 38.026 22.2816C37.8585 22.6859 37.8147 23.1308 37.9001 23.56C37.9855 23.9892 38.1962 24.3834 38.5056 24.6929C38.8151 25.0023 39.2094 25.2131 39.6386 25.2984C40.0678 25.3838 40.5127 25.34 40.917 25.1725C41.3213 25.005 41.6668 24.7214 41.91 24.3576ZM6.98538 7.83743C6.98538 8.05489 6.92084 8.26745 6.79997 8.44822C6.67909 8.62899 6.50733 8.76983 6.30637 8.85291C6.10541 8.93599 5.88431 8.95758 5.67108 8.91493C5.45784 8.87229 5.26203 8.76734 5.10848 8.61337C4.95492 8.45939 4.85051 8.26331 4.80845 8.04996C4.76639 7.83662 4.7886 7.61558 4.87222 7.41485C4.95585 7.21412 5.09715 7.04272 5.27825 6.92234C5.45934 6.80196 5.67207 6.73801 5.88953 6.7386C6.03369 6.7386 6.17644 6.76704 6.30959 6.8223C6.44274 6.87756 6.56367 6.95855 6.66546 7.06063C6.76726 7.1627 6.84792 7.28386 6.90281 7.41715C6.95771 7.55045 6.98577 7.69327 6.98538 7.83743Z" fill="#4ECAFF"/>
<path fill-rule="evenodd" clip-rule="evenodd" d="M57.8579 10.5786C57.8579 10.5786 57.858 10.5786 57.9 10.5786L68.4024 19.0784L78.9048 10.5786H78.9467V13.3815L68.4864 22.1685L60.1334 15.3575H60.0915V23.3597H57.914L57.8579 10.5786ZM76.7622 23.3738H78.9888V16.9131H76.8393L76.7622 23.3738Z" fill="#4ECAFF"/>
<path fill-rule="evenodd" clip-rule="evenodd" d="M94.0207 10.7681C96.4082 10.7681 98.7958 12.3587 98.7958 14.8182V16.1776H96.5623V14.8182C96.5623 14.0264 95.666 13.0034 94.0207 13.0034H86.3959C84.7505 13.0034 83.8543 14.0264 83.8543 14.8182V16.1776H81.6208V14.8182C81.6208 12.3587 84.0084 10.7681 86.3959 10.7681H94.0207ZM98.7958 18.4129V19.2117C98.7958 21.6643 96.4082 23.2549 94.0207 23.2549H86.3959C84.0084 23.2549 81.6208 21.6643 81.6208 19.2117V18.4129H83.8894V19.2117C83.8894 19.9965 84.7856 21.0196 86.4309 21.0196H94.0557C95.7011 21.0196 96.5973 19.9965 96.5973 19.2117V18.4129H98.7958Z" fill="#4ECAFF"/>
<path fill-rule="evenodd" clip-rule="evenodd" d="M119.459 19.2117V14.8181C119.459 12.3586 117.072 10.768 114.656 10.8801H102.284V13.0593H102.291V17.593H104.791V13.0593H114.656C116.302 13.0593 117.205 14.0824 117.205 14.8742V19.2677C117.205 20.0525 116.302 21.0756 114.656 21.0756H102.284V23.2548H114.684C117.072 23.2548 119.459 21.6642 119.459 19.2117Z" fill="#4ECAFF"/>
<path fill-rule="evenodd" clip-rule="evenodd" d="M125.181 15.8834H135.222V18.0627H122.955V10.8032H140.459V12.9825H125.147L125.181 15.8834ZM122.948 23.241H140.452V21.0548H122.948V23.241Z" fill="#4ECAFF"/>
<path fill-rule="evenodd" clip-rule="evenodd" d="M159.435 23.2897V23.3317H156.824L152.945 17.3826V17.3406H156.284C157.601 17.3406 158.238 16.5348 158.238 16.0092V14.3555C158.238 13.83 157.601 13.0171 156.284 13.0171H143.625V10.8379H156.284C158.343 10.8379 160.485 12.2394 160.485 14.4116V16.0653C160.485 17.9923 158.84 19.2956 157.041 19.5689V19.6039L159.435 23.2897Z" fill="#4ECAFF"/>
<path d="M145.761 23.0374H143.612V16.4434H145.761V23.0374Z" fill="#4ECAFF"/>
<path d="M150.249 19.5408L150.214 17.313L154.417 17.348L154.452 19.5408H150.249Z" fill="#4ECAFF"/>
<path fill-rule="evenodd" clip-rule="evenodd" d="M164.455 10.3125C164.455 10.3125 164.455 10.3125 164.497 10.3125L176.995 19.1696V10.6348H179.229V23.43C179.229 23.43 179.229 23.43 179.187 23.43L164.434 12.9192L164.455 10.3125ZM164.455 23.0586H166.626V16.8923H164.525L164.455 23.0586Z" fill="#4ECAFF"/>
<path d="M185.972 21.6562H183.905V23.7188H185.972V21.6562Z" fill="#4ECAFF"/>
<path fill-rule="evenodd" clip-rule="evenodd" d="M209.384 22.2947C210.194 22.2947 210.594 21.7711 210.594 21.4322V21.2165C210.553 20.9876 210.435 20.7796 210.26 20.6266C210.084 20.4736 209.862 20.3847 209.63 20.3745V18.8856C210.245 18.9078 210.829 19.1593 211.267 19.5906C211.706 20.022 211.967 20.602 212 21.2165V21.4322C211.961 22.0888 211.663 22.7031 211.173 23.1416C210.683 23.58 210.04 23.8071 209.384 23.7734H201.001V22.2947H209.384ZM201.828 19.7734C201.338 19.335 201.041 18.7207 201.001 18.0641V17.8587C201.038 17.2012 201.335 16.5852 201.825 16.1462C202.316 15.7072 202.96 15.4811 203.617 15.5175H212V16.9859H203.617C202.807 16.9859 202.407 17.5199 202.407 17.8587V18.0641C202.407 18.4029 202.807 18.9267 203.617 18.9267V18.9268H207.814V20.4055H203.614C202.959 20.4382 202.317 20.2111 201.828 19.7734ZM198.6 15.5895H197.051V20.3336H197.061V21.4117C197.061 21.8327 196.435 22.4386 195.307 22.4386H190.176C190.156 22.4411 190.138 22.4508 190.125 22.466C190.112 22.4811 190.104 22.5006 190.104 22.5208V23.6914C190.104 23.7115 190.112 23.731 190.125 23.7461C190.138 23.7612 190.156 23.771 190.176 23.7735H195.307C196.948 23.7735 198.6 22.8288 198.6 21.3604V19.4812L198.6 19.4811V15.5895Z" fill="#4ECAFF"/>
</g>
<defs>
<clipPath id="clip0_313_5149">
<rect width="218" height="33" fill="white"/>
</clipPath>
</defs>
</svg>
