<svg height="966" viewBox="0 0 264.583 255.588" width="1000" xmlns="http://www.w3.org/2000/svg"><linearGradient id="a" x1="0%" x2="100%" y1="0%" y2="0%"><stop offset="0" stop-color="#ea2845"/><stop offset="1" stop-color="#ea2868"/></linearGradient><path d="M153.338 45.652c-1.809 0-3.489.388-5.04.905 3.296 2.197 5.105 5.105 6.01 8.4.065.453.194.776.258 1.228.065.388.13.776.13 1.164.258 5.686-1.487 6.397-2.715 9.757-1.874 4.33-1.357 8.982.905 12.73.194.453.452.97.776 1.422-2.456-16.349 11.179-18.804 13.699-23.91.194-4.458-3.49-7.43-6.397-9.498-2.78-1.68-5.3-2.198-7.626-2.198zm20.55 3.684c-.26 1.486-.065 1.098-.13 1.874-.064.517-.064 1.163-.129 1.68-.129.517-.258 1.034-.452 1.55-.13.518-.323 1.035-.517 1.552-.259.517-.452.969-.71 1.486-.195.258-.324.517-.518.775l-.388.582c-.323.452-.646.905-.969 1.292-.388.388-.71.84-1.163 1.163v.065c-.388.323-.775.711-1.228 1.034-1.357 1.034-2.908 1.81-4.33 2.779-.452.323-.904.581-1.292.969-.452.323-.84.646-1.227 1.034-.453.388-.776.775-1.164 1.228-.323.387-.71.84-.969 1.292-.323.452-.646.905-.905 1.357-.258.517-.452.97-.71 1.486-.194.517-.388.97-.517 1.487a20.921 20.921 0 0 0-.453 1.615c-.064.259-.064.582-.129.84-.065.259-.065.517-.129.776 0 .516-.065 1.098-.065 1.615 0 .388 0 .775.065 1.163 0 .517.065 1.034.194 1.616.065.517.194 1.034.323 1.55.194.518.323 1.034.517 1.551.13.324.323.647.452.905l-14.862-5.751c-2.52-.71-4.976-1.357-7.496-1.939l-4.071-.969a119.971 119.971 0 0 0-11.76-1.745c-.13 0-.195-.064-.324-.064-3.877-.388-7.69-.582-11.567-.582-2.843 0-5.686.13-8.465.323-3.942.259-7.884.776-11.825 1.422-.97.129-1.94.323-2.908.517-2.004.387-3.942.84-5.816 1.292l-2.908.776c-.97.387-1.874.84-2.779 1.227l-2.132.97c-.13.064-.259.064-.323.129-.646.323-1.228.581-1.81.904-.193.065-.323.13-.452.194-.71.323-1.421.711-2.003 1.034-.452.194-.905.453-1.292.646-.194.13-.453.259-.582.324-.582.323-1.163.646-1.68.969-.582.323-1.099.646-1.551.97-.452.322-.905.58-1.292.904-.065.064-.13.064-.194.129-.388.258-.84.581-1.228.905l-.13.129-.968.775c-.13.065-.26.194-.388.259-.323.258-.646.581-.97.84-.064.129-.193.194-.258.258-.388.388-.775.711-1.163 1.099-.065 0-.065.065-.13.13-.387.322-.775.71-1.163 1.098-.064.064-.064.129-.129.129a15.16 15.16 0 0 0-.969 1.034c-.13.129-.323.258-.452.387-.323.388-.711.776-1.099 1.164-.065.129-.194.193-.258.323-.517.517-.97 1.034-1.487 1.55l-.193.194c-1.034 1.099-2.133 2.197-3.296 3.167a36.732 36.732 0 0 1-3.619 2.843 48.856 48.856 0 0 1-3.877 2.455 39.382 39.382 0 0 1-4.071 1.94 46.55 46.55 0 0 1-4.2 1.55c-2.714.582-5.493 1.68-7.884 1.874-.517 0-1.098.13-1.615.194-.582.129-1.099.258-1.616.388l-1.55.581c-.518.194-1.035.452-1.552.71-.452.324-.969.582-1.421.906-.453.323-.905.71-1.293 1.098-.452.323-.904.776-1.292 1.163-.388.453-.775.84-1.099 1.293-.323.517-.71.969-.969 1.486-.323.452-.646.97-.904 1.486-.26.582-.517 1.099-.711 1.68a49.803 49.803 0 0 0-.582 1.68c-.129.517-.258 1.034-.323 1.551 0 .065-.065.13-.065.194-.129.582-.129 1.357-.194 1.745-.064.452-.129.84-.129 1.292 0 .259 0 .582.065.84.065.453.13.84.259 1.228s.258.775.452 1.163v.065c.194.388.452.775.71 1.163.26.388.518.776.84 1.163.324.323.712.711 1.1 1.034.387.388.775.71 1.227 1.034 1.551 1.357 1.939 1.81 3.942 2.843.323.194.646.323 1.034.517.065 0 .129.065.194.065 0 .13 0 .194.064.323.065.517.194 1.034.324 1.551a8.71 8.71 0 0 0 .516 1.55c.194.389.324.776.517 1.164.065.13.13.259.194.323.259.517.517.97.776 1.422l.969 1.357c.323.387.71.84 1.099 1.227.387.388.775.711 1.227 1.099 0 0 .065.065.13.065.387.323.775.646 1.163.904.452.324.904.582 1.421.84.453.26.97.517 1.487.711.387.194.84.323 1.292.453.065.065.129.065.258.129.26.065.582.129.84.194-.193 3.49-.258 6.785.26 7.948.58 1.292 3.424-2.65 6.267-7.173-.388 4.459-.646 9.693 0 11.244.711 1.615 4.588-3.425 7.948-8.982 45.816-10.598 87.625 21.066 92.019 65.783-.84-6.98-9.435-10.857-13.377-9.887-1.938 4.782-5.234 10.92-10.533 14.733a41.434 41.434 0 0 0-.646-12.924c-1.421 5.945-4.2 11.502-8.013 16.284-6.138.453-12.277-2.52-15.508-6.979-.259-.194-.323-.581-.517-.84-.194-.452-.388-.904-.517-1.357a5.365 5.365 0 0 1-.388-1.357c-.065-.452-.065-.904-.065-1.421v-.97c.065-.452.194-.904.323-1.357.13-.452.259-.904.453-1.357.258-.452.452-.904.775-1.357 1.099-3.101 1.099-5.622-.904-7.108a7.36 7.36 0 0 0-1.228-.646c-.259-.065-.582-.194-.84-.259-.194-.064-.323-.129-.517-.194-.453-.129-.905-.258-1.357-.323a4.923 4.923 0 0 0-1.357-.193c-.453-.065-.97-.13-1.422-.13-.323 0-.646.065-.97.065-.516 0-.968.065-1.42.194-.453.065-.905.13-1.358.259-.452.129-.905.258-1.357.452-.452.194-.84.388-1.292.581-.388.194-.776.453-1.228.647-15.056 9.822-6.074 32.826 4.2 39.482-3.877.711-7.819 1.551-8.917 2.391l-.13.13c2.78 1.68 5.687 3.101 8.724 4.329 4.136 1.357 8.53 2.585 10.469 3.102v.064a62.516 62.516 0 0 0 16.284 1.163c28.626-2.003 52.083-23.78 56.348-52.47.13.58.259 1.098.388 1.68.194 1.163.452 2.39.581 3.618v.065c.13.581.194 1.163.259 1.68v.259c.065.581.13 1.163.13 1.68.064.71.128 1.421.128 2.132v1.034c0 .323.065.71.065 1.034 0 .388-.065.775-.065 1.163v.905c0 .452-.065.84-.065 1.292 0 .259 0 .517-.064.84 0 .453-.065.905-.065 1.422-.065.194-.065.388-.065.581-.064.517-.129.97-.194 1.487 0 .194 0 .387-.064.581-.065.646-.194 1.228-.259 1.874v.13c-.129.581-.258 1.227-.388 1.81v.193l-.387 1.745c0 .064-.065.194-.065.258-.13.582-.259 1.163-.452 1.745v.194c-.194.646-.388 1.228-.517 1.81-.065.064-.065.128-.065.128l-.582 1.939c-.258.646-.452 1.228-.71 1.874-.259.646-.453 1.292-.711 1.874-.259.646-.517 1.228-.776 1.874h-.064c-.26.581-.517 1.228-.84 1.81-.065.193-.13.322-.194.451-.065.065-.065.13-.13.194-4.2 8.465-10.403 15.897-18.158 21.713-.517.323-1.034.71-1.55 1.098-.13.13-.324.194-.453.323-.452.323-.905.646-1.421.97l.193.387h.065l2.714-.388h.065c1.68-.258 3.36-.581 5.04-.904.452-.065.97-.194 1.422-.323.323-.065.581-.13.904-.194.453-.065.905-.194 1.357-.259.388-.129.776-.194 1.164-.323 6.462-1.55 12.73-3.683 18.74-6.203-10.275 14.022-24.04 25.33-40.13 32.762 7.432-.517 14.863-1.745 22.036-3.813 26.042-7.69 47.948-25.201 61.065-48.788a103.145 103.145 0 0 1-17.382 41.55 101.732 101.732 0 0 0 17.253-14.345c14.475-15.12 23.974-34.313 27.205-54.926a102.9 102.9 0 0 1 1.874 31.146c46.655-65.072 3.877-132.535-14.023-150.305-.064-.129-.129-.194-.129-.323-.064.065-.064.065-.064.13 0-.066 0-.066-.065-.13 0 .775-.065 1.55-.13 2.326-.193 1.487-.387 2.908-.646 4.33-.323 1.421-.71 2.843-1.098 4.265a53.747 53.747 0 0 1-1.55 4.135 55.49 55.49 0 0 1-1.94 3.942c-.71 1.228-1.486 2.52-2.326 3.683a49.368 49.368 0 0 1-2.65 3.49c-.969 1.163-2.002 2.197-3.036 3.23a41.646 41.646 0 0 1-1.874 1.616c-.517.453-.97.84-1.487 1.293-1.163.904-2.326 1.745-3.618 2.52-1.228.775-2.52 1.55-3.813 2.197-1.357.646-2.714 1.228-4.07 1.81-1.358.516-2.78.969-4.201 1.356a52.05 52.05 0 0 1-4.33.97c-1.486.258-2.972.387-4.394.517-1.034.064-2.068.129-3.102.129-1.486 0-2.972-.13-4.394-.259-1.486-.129-2.972-.323-4.394-.646-1.486-.259-2.908-.646-4.33-1.099h-.064c1.422-.129 2.843-.258 4.265-.516a46.84 46.84 0 0 0 4.33-.97 45.495 45.495 0 0 0 4.2-1.357c1.421-.517 2.778-1.163 4.07-1.81 1.358-.645 2.586-1.356 3.878-2.132 1.228-.84 2.455-1.68 3.619-2.584a35.333 35.333 0 0 0 3.295-2.908c1.099-.97 2.068-2.068 3.037-3.167a63.86 63.86 0 0 0 2.714-3.49c.13-.193.259-.451.388-.645.646-1.034 1.292-2.068 1.874-3.102a44.537 44.537 0 0 0 1.939-3.942 45.28 45.28 0 0 0 1.55-4.135c.453-1.357.776-2.78 1.099-4.2.259-1.487.517-2.909.646-4.33.13-1.486.259-2.973.259-4.394 0-1.034-.065-2.068-.13-3.102-.128-1.486-.322-2.908-.516-4.33a46.844 46.844 0 0 0-.97-4.33c-.452-1.356-.904-2.778-1.421-4.135-.517-1.357-1.163-2.714-1.81-4.006-.71-1.293-1.421-2.585-2.197-3.813a71.347 71.347 0 0 0-2.584-3.554 136.72 136.72 0 0 0-2.973-3.295 40.422 40.422 0 0 0-1.68-1.616 118.979 118.979 0 0 0-8.982-6.333c-.452-.258-.84-.452-1.293-.646-2.132-1.357-4.135-2.068-6.138-2.714z" fill="url('#a')" fill-rule="evenodd" transform="translate(0 -41.412)"/></svg>
