<?xml version="1.0" encoding="utf-8"?>
<!-- Generator: Adobe Illustrator 20.0.0, SVG Export Plug-In . SVG Version: 6.00 Build 0)  -->
<svg version="1.1" id="Layer_1" xmlns="http://www.w3.org/2000/svg" xmlns:xlink="http://www.w3.org/1999/xlink" x="0px" y="0px"
     width="100px" height="100px" viewBox="-18 -38 186 186" style="enable-background:new 0 0 141.7 141.7;" xml:space="preserve">
<style type="text/css">
	.st0{fill:#FFFFFF;}
	.st1{fill:#494545;}
	.st2{fill:url(#SVGID_1_);}
	.st3{fill:url(#SVGID_2_);}
	.st4{fill:url(#SVGID_3_);}
	.st5{fill:url(#SVGID_4_);}
	.st6{font-family:'MyriadPro-Regular';}
	.st7{font-size:12px;}
</style>
<g>
	<path class="st0" d="M73.9,89.8c-0.2-1.2,0.2-2.4-0.2-3.6c-0.3-1-1-1.1-1.5-1.9c-1.3-2.1-2.5-4.9-2.7-7.5c-0.1-2.3-1-4.5-1.1-6.8
		c-0.1-1.1,0.1-2.3,0-3.4c0-0.5-0.1-1-0.2-1.6c0-0.1-0.1-0.7-0.2-1l0.3-0.7c-0.1-0.2,2.5-0.2,3.3-0.2c1.3,0,2.6,0.1,3.9,0.1
		c2.7,0.1,5.2,0.1,7.8-0.3c5.9-0.9,8.6-3.3,9.9-4.3c5.4-3.9,7.8-10.2,7.8-10.2c0.9-2,0.9-5.5,2.8-7.1c2.2-1.9,6-1.7,8.6-2.9
		c1.5-0.7,2.6-1,4.1-0.7c1.1,0.2,3.2,1.6,3.7-0.3c-0.4-0.2-0.5-0.7-0.7-0.9c2.1-0.2,0-5.1-0.8-6.1c-1.3-1.5-3.5-2.2-5.8-2.8
		c-2.7-0.7-5.2-1.6-7.8-1.1c-4.5,0.9-4.2-1.7-6.8-1.7c-3.2,0-8.8,0.2-9.8,3.2c-0.5,1.4-0.9,1.5-1.7,2.6c-0.7,0.9,0.1,1.8-0.2,2.9
		c-0.4,1.1-0.9,5-1.4,6.4c-0.9,2.3-2,5.2-4,5.2c-2.8,0.3-5,0.4-7.3-0.4c-1.4-0.5-3.7-1.3-4.8-1.7c-5.2-2.2-6.1-4.6-6.1-4.6
		c-0.6-0.9-2-2.4-2.6-4.4c-0.6-2.1-1.6-3.9-2-5.1c-0.4-1.2-1.5-3-2.3-5c-1-2.6-2.5-4.5-3.6-5.4c-1.6-1.4-3.1-3.7-6.4-3
		c-0.6,0.1-2.7,0.2-4.4,1.6c-1.1,0.9-1.5,2.9-2.5,4.5c-0.6,0.9-1.6,3.6-2.6,5.9c-0.7,1.6-1,2.7-1.7,3.3c-0.6,0.4-1.3,1-2.1,0.7
		c-0.5-0.2-1.1-0.5-1.6-1c-0.8-0.6-2.5-3.6-3.6-5.7c-0.9-1.9-2.9-4.7-4-6.3c-1.6-2.2-2.6-2.8-5-2.8c-5.2,0-5.6,2.9-7.9,7.2
		c-1,1.9-1.4,4.8-3.4,7.1c-1.2,1.3-4.8,6.8-7.4,7.7v0l0,0v38.8l0,0.1v-0.2c0.2-0.5,0.3-1,0.5-1.4c1-2.1,3.3-4.1,4.6-6.2
		c0.7-1.2,1.5-2.3,1.9-3.6c0.4-1.1,0.6-2.7,1.2-3.6c0.7-1.1,1.8-1.5,2.9-1.7c1.8-0.3,3.3,2.5,5.5,3.6c1,0.4,5.4,2,6.7,2.3
		c2.2,0.5,4.6,1,6.8,1.4c1.2,0.2,2.3,0.4,3.6,0.5c1.1,0.1,5.2,0.2,5.5,0.5c-2.1,1.1-3.3,4.1-4.1,6.2c-0.8,2.2-1.4,4.7-2.4,6.8
		c-1.1,2.4-3.4,3.4-3.1,6.2c0.1,1.1,0.3,2.3,0.1,3.5c-0.2,1.3-0.7,2.3-1.1,3.5c-0.5,1.6-1.1,6.9-1.8,8.5l4.6-0.6l0,0
		c0.5-1.2,1-6.2,1.1-6.7c0.9-2.5,2-4.6,3.7-6.5c1.7-1.9,1.6-4.3,2.6-6.6c1.1-2.4,2.5-4.3,3.9-6.6c2.5-4.1,4.1-9.2,9.4-10.3
		c0.6-0.1,3.8,2.2,5.2,3.6c1.6,1.6,3.4,3.4,4.5,5.6c2.1,4.2,3.8,10.3,4.5,13.6c0.4,1.9,0.7,2,2,3.6c0.6,0.7,1.8,2.9,2.2,3.7
		c0.4,0.9,1,2.9,1.5,4c0.3,0.6,1.1,2.5,1.6,4.2l4.3-0.1c0,0,0.1,0,0.1,0c0,0,0,0,0,0c0,0,0-0.1,0-0.1C75.9,99.5,74.6,94.6,73.9,89.8
		z"/>
	<path class="st1" d="M71.1,64.9L71.1,64.9C71.1,64.7,71.1,64.7,71.1,64.9z"/>
	<g>
		<g>
			
				<linearGradient id="SVGID_1_" gradientUnits="userSpaceOnUse" x1="-686.854" y1="80.5562" x2="-686.854" y2="80.3999" gradientTransform="matrix(1 0 0 -1 758 145.28)">
				<stop  offset="0" style="stop-color:#F29104"/>
				<stop  offset="1" style="stop-color:#EC6813"/>
			</linearGradient>
			<path class="st2" d="M71.1,64.9L71.1,64.9C71.1,64.7,71.1,64.7,71.1,64.9z"/>
			<g>
				
					<linearGradient id="SVGID_2_" gradientUnits="userSpaceOnUse" x1="-705.428" y1="79.4728" x2="-705.428" y2="40.6105" gradientTransform="matrix(1 0 0 -1 758 145.28)">
					<stop  offset="0" style="stop-color:#F29104"/>
					<stop  offset="1" style="stop-color:#EC6813"/>
				</linearGradient>
				<path class="st3" d="M72.1,99.9c-0.5-1-1.1-3.1-1.5-4c-0.4-0.8-1.6-3-2.2-3.7c-1.3-1.5-1.6-1.6-2-3.6c-0.7-3.4-2.4-9.4-4.5-13.6
					c-1.1-2.2-2.9-4-4.5-5.6c-1.4-1.4-4.6-3.7-5.2-3.6c-5.3,1-6.9,6.2-9.4,10.3c-1.4,2.3-2.8,4.2-3.9,6.6c-1,2.2-0.9,4.7-2.6,6.6
					c-1.7,1.9-2.9,4-3.7,6.5c-0.2,0.5-0.6,5.5-1.1,6.7c0,0,0,0,0,0l7.8-0.5c7.3,0.5,5.2,3.3,16.5,2.7l17.9-0.6l0,0
					C73.2,102.4,72.4,100.5,72.1,99.9z"/>
			</g>
			<g>
				<g>
					
						<linearGradient id="SVGID_3_" gradientUnits="userSpaceOnUse" x1="-686.9772" y1="164.3948" x2="-686.9771" y2="40.6383" gradientTransform="matrix(1 0 0 -1 758 145.28)">
						<stop  offset="0" style="stop-color:#F29104"/>
						<stop  offset="1" style="stop-color:#EC6813"/>
					</linearGradient>
					<path class="st4" d="M124.1-19.1H17.9C8-19.1,0-11.1,0-1.2v39v0c2.6-0.9,6.2-6.4,7.4-7.7c2-2.3,2.4-5.3,3.4-7.1
						c2.3-4.2,2.7-7.2,7.9-7.2c2.4,0,3.4,0.6,5,2.8c1.1,1.5,3.1,4.4,4,6.3c1.1,2.2,2.8,5.1,3.6,5.7c0.6,0.4,1.1,0.8,1.6,1
						c0.8,0.3,1.5-0.3,2.1-0.7c0.7-0.6,1-1.7,1.7-3.3c1-2.3,2-4.9,2.6-5.9c1-1.6,1.4-3.6,2.5-4.5c1.6-1.4,3.8-1.5,4.4-1.6
						c3.3-0.7,4.8,1.6,6.4,3c1.1,1,2.5,2.9,3.6,5.4c0.8,2,1.8,3.9,2.3,5c0.4,1.1,1.4,2.9,2,5.1c0.6,1.9,2,3.4,2.6,4.4
						c0,0,0.9,2.4,6.1,4.6c1.1,0.5,3.4,1.3,4.8,1.7c2.3,0.8,4.5,0.7,7.3,0.4c2,0,3.1-2.9,4-5.2c0.5-1.4,1.1-5.3,1.4-6.4
						c0.3-1.1-0.5-1.9,0.2-2.9c0.8-1.1,1.3-1.2,1.7-2.6c1-3.1,6.6-3.2,9.8-3.2c2.7,0,2.3,2.6,6.8,1.7c2.6-0.5,5.1,0.3,7.8,1.1
						c2.3,0.6,4.5,1.3,5.8,2.8c0.8,1,2.9,5.9,0.8,6.1c0.2,0.2,0.4,0.7,0.7,0.9c-0.5,1.9-2.5,0.5-3.7,0.3c-1.5-0.3-2.6,0-4.1,0.7
						c-2.6,1.1-6.3,1-8.6,2.9c-1.9,1.6-1.9,5.1-2.8,7.1c0,0-2.5,6.3-7.8,10.2c-1.4,1-4.1,3.4-9.9,4.3c-2.6,0.4-5.1,0.4-7.8,0.3
						c-1.3-0.1-2.6-0.1-3.9-0.1c-0.8,0-3.4-0.1-3.3,0.2l-0.3,0.7c0,0.2,0.1,0.8,0.2,1c0.1,0.6,0.1,1.1,0.2,1.6c0,1.1-0.1,2.3,0,3.4
						c0.1,2.3,1,4.4,1.1,6.8c0.1,2.6,1.4,5.4,2.7,7.5c0.5,0.8,1.2,0.9,1.5,1.9c0.4,1.1,0,2.4,0.2,3.6c0.7,4.7,2.1,9.7,4.2,14
						c0,0,0,0.1,0,0.1c0,0,0,0,0,0c2.6-0.4,5.3-1.4,8.7-1.9c6.3-0.9,15-0.5,20.6-1c14.2-1.3,21.9,5.8,34.6,2.9V-1.2
						C142-11.1,134-19.1,124.1-19.1z M71.1,64.9C71.1,64.7,71.1,64.7,71.1,64.9L71.1,64.9z"/>
				</g>
			</g>
			<g>
				
					<linearGradient id="SVGID_4_" gradientUnits="userSpaceOnUse" x1="-738.3776" y1="85.364" x2="-738.3776" y2="41.4928" gradientTransform="matrix(1 0 0 -1 758 145.28)">
					<stop  offset="0" style="stop-color:#F29104"/>
					<stop  offset="1" style="stop-color:#EC6813"/>
				</linearGradient>
				<path class="st5" d="M32.8,81.3c1-2.2,1.6-4.6,2.4-6.8c0.8-2.1,2-5.1,4.1-6.2c-0.3-0.3-4.4-0.4-5.5-0.5
					c-1.2-0.1-2.4-0.3-3.6-0.5c-2.2-0.4-4.7-0.9-6.8-1.4c-1.3-0.3-5.8-1.9-6.7-2.3c-2.3-1-3.8-3.9-5.5-3.6c-1.1,0.2-2.2,0.6-2.9,1.7
					c-0.6,0.9-0.8,2.5-1.2,3.6c-0.5,1.2-1.3,2.4-1.9,3.6C3.8,71,1.5,72.9,0.5,75C0.3,75.5,0.2,76,0,76.5v0.2v7.9v14v2
					c1.2,0.2,2.4,0.4,3.7,0.8c10,2.7,12.4,2.9,22.2,1.8l0.9-0.1v0c0.7-1.6,1.3-6.9,1.8-8.5c0.4-1.3,0.9-2.3,1.1-3.5
					c0.2-1.2,0-2.4-0.1-3.5C29.4,84.7,31.7,83.7,32.8,81.3z"/>
			</g>
		</g>
	</g>
</g>
<text transform="matrix(1 0 0 1 8.0118 124.3814)" class="st6 st7"> </text>
<path class="st1" d="M36.1,128.9c-1.4,0-2.7-0.2-3.8-0.7c-1.2-0.5-2.1-1.2-3-2.1c-0.8-0.9-1.5-2.1-1.9-3.4c-0.5-1.3-0.7-2.9-0.7-4.5
	c0-1.7,0.2-3.2,0.7-4.5c0.5-1.3,1.1-2.4,1.9-3.3c0.8-0.9,1.8-1.6,3-2.1c1.2-0.5,2.4-0.7,3.8-0.7c1.4,0,2.7,0.2,3.8,0.7
	c1.2,0.5,2.1,1.2,3,2.1c0.8,0.9,1.5,2,1.9,3.4c0.5,1.3,0.7,2.8,0.7,4.5c0,1.7-0.2,3.2-0.7,4.5c-0.5,1.3-1.1,2.5-1.9,3.4
	c-0.8,0.9-1.8,1.6-3,2.1C38.8,128.7,37.5,128.9,36.1,128.9z M36.1,124.9c1.4,0,2.5-0.6,3.4-1.8c0.8-1.2,1.2-2.9,1.2-5
	c0-2.1-0.4-3.7-1.2-4.9c-0.8-1.2-2-1.7-3.4-1.7c-1.4,0-2.5,0.6-3.4,1.7c-0.8,1.2-1.2,2.8-1.2,4.9c0,2.1,0.4,3.8,1.2,5
	C33.6,124.3,34.7,124.9,36.1,124.9z"/>
<path class="st1" d="M47.2,118.3c0-1.7,0.3-3.2,0.8-4.6c0.5-1.3,1.2-2.5,2.1-3.4c0.9-0.9,2-1.6,3.1-2.1c1.2-0.5,2.5-0.7,3.8-0.7
	c1.3,0,2.5,0.3,3.5,0.8c1,0.5,1.9,1.2,2.6,1.9l-2.6,2.9c-0.5-0.5-1.1-0.9-1.6-1.1c-0.5-0.3-1.2-0.4-1.9-0.4c-0.7,0-1.4,0.2-2,0.5
	c-0.6,0.3-1.2,0.7-1.6,1.3c-0.5,0.6-0.8,1.3-1.1,2.1c-0.3,0.8-0.4,1.8-0.4,2.8c0,2.1,0.5,3.8,1.4,5c0.9,1.2,2.1,1.8,3.7,1.8
	c0.8,0,1.6-0.2,2.2-0.5c0.6-0.3,1.2-0.8,1.7-1.3l2.6,2.8c-0.9,1-1.9,1.8-3,2.3c-1.1,0.5-2.3,0.8-3.6,0.8c-1.3,0-2.6-0.2-3.8-0.7
	c-1.2-0.5-2.2-1.1-3.1-2s-1.6-2-2.1-3.3C47.4,121.6,47.2,120,47.2,118.3z"/>
<path class="st1" d="M65.1,124.2c0-1.7,0.7-2.9,2.1-3.9c1.4-0.9,3.7-1.6,6.8-1.9c0-0.7-0.3-1.3-0.6-1.7c-0.4-0.4-1-0.6-1.8-0.6
	c-0.7,0-1.4,0.1-2,0.4c-0.7,0.3-1.4,0.6-2.2,1l-1.7-3.1c1-0.6,2.1-1.1,3.2-1.5c1.1-0.4,2.3-0.6,3.5-0.6c2,0,3.6,0.6,4.7,1.7
	c1.1,1.2,1.6,3,1.6,5.4v9h-3.8l-0.4-1.6h-0.1c-0.7,0.6-1.4,1.1-2.1,1.4c-0.8,0.4-1.6,0.6-2.5,0.6c-0.7,0-1.4-0.1-1.9-0.4
	c-0.6-0.2-1.1-0.6-1.5-1c-0.4-0.4-0.7-0.9-0.9-1.5C65.2,125.5,65.1,124.8,65.1,124.2z M69.5,123.8c0,0.5,0.2,0.9,0.5,1.1
	c0.3,0.2,0.8,0.4,1.3,0.4c0.6,0,1-0.1,1.4-0.3c0.4-0.2,0.8-0.6,1.2-1v-2.8c-1.7,0.2-2.8,0.6-3.5,1C69.9,122.7,69.5,123.2,69.5,123.8
	z"/>
<path class="st1" d="M81.4,113.1h3.8l0.3,2h0.1c0.7-0.7,1.4-1.2,2.1-1.7c0.7-0.5,1.6-0.7,2.7-0.7c1.1,0,2,0.2,2.7,0.7
	c0.7,0.5,1.2,1.1,1.6,2c0.7-0.7,1.4-1.3,2.2-1.9c0.8-0.5,1.7-0.8,2.8-0.8c1.7,0,2.9,0.6,3.7,1.7c0.8,1.1,1.2,2.7,1.2,4.7v9.8H100
	v-9.2c0-1.1-0.2-1.9-0.5-2.4c-0.3-0.4-0.8-0.6-1.5-0.6c-0.8,0-1.7,0.5-2.7,1.5v10.7h-4.7v-9.2c0-1.1-0.2-1.9-0.5-2.4
	c-0.3-0.4-0.8-0.6-1.5-0.6c-0.8,0-1.7,0.5-2.7,1.5v10.7h-4.7V113.1L81.4,113.1z"/>
<g>
	<path class="st1" d="M107.4,106.2h4.7v17.6c0,0.5,0.1,0.8,0.3,1c0.2,0.2,0.4,0.3,0.6,0.3c0.1,0,0.2,0,0.3,0c0.1,0,0.2,0,0.3-0.1
		l0.6,3.5c-0.3,0.1-0.6,0.2-1,0.3c-0.4,0.1-0.9,0.1-1.4,0.1c-0.8,0-1.5-0.1-2-0.4c-0.6-0.3-1-0.6-1.3-1.1c-0.3-0.5-0.6-1-0.7-1.7
		c-0.1-0.6-0.2-1.4-0.2-2.2L107.4,106.2L107.4,106.2z"/>
</g>
</svg>