<svg width="227" height="224" viewBox="0 0 227 224" fill="none" xmlns="http://www.w3.org/2000/svg">
<g clip-path="url(#clip0_5685_1792)">
<rect width="227" height="224" rx="112" fill="#CC0000"/>
<path fill-rule="evenodd" clip-rule="evenodd" d="M-25.7871 224.199H78.1841C78.1841 224.199 58.3111 133.52 124.116 96.8012C138.461 89.8259 184.129 63.7673 258.883 119.043C261.252 117.069 263.49 115.49 263.49 115.49C263.49 115.49 195.053 47.1846 118.851 54.8179C80.553 58.2397 33.437 93.1162 5.79908 139.179C-21.8388 185.243 -25.7871 224.199 -25.7871 224.199Z" fill="white"/>
<path fill-rule="evenodd" clip-rule="evenodd" d="M-25.7871 224.199H78.1841C78.1841 224.199 58.3111 133.52 124.116 96.8012C138.461 89.8259 184.129 63.7673 258.883 119.043C261.252 117.069 263.49 115.49 263.49 115.49C263.49 115.49 195.053 47.1846 118.851 54.8179C80.553 58.2397 33.437 93.1162 5.79908 139.179C-21.8388 185.243 -25.7871 224.199 -25.7871 224.199Z" fill="white"/>
<path fill-rule="evenodd" clip-rule="evenodd" d="M-25.7871 224.201H78.1841C78.1841 224.201 58.3111 133.522 124.116 96.803C138.461 89.8277 184.129 63.7691 258.883 119.045C261.252 117.071 263.49 115.491 263.49 115.491C263.49 115.491 195.053 47.1863 118.851 54.8196C80.4214 58.2415 33.3054 93.1179 5.66747 139.181C-21.9704 185.244 -25.7871 224.201 -25.7871 224.201ZM190.841 62.1898L191.368 53.3719C190.183 52.7139 186.893 51.1346 178.602 48.7656L178.075 57.4518C182.418 58.8995 186.63 60.4788 190.841 62.1898Z" fill="white"/>
<path fill-rule="evenodd" clip-rule="evenodd" d="M178.338 90.0902L177.812 98.3816C182.155 98.5132 186.498 99.0396 190.841 99.9609L191.368 91.8011C186.893 90.8799 182.55 90.3534 178.338 90.0902ZM129.643 49.0282H130.959L128.327 41C124.247 41 120.036 41.2632 115.692 41.7897L118.193 49.5546C122.01 49.1598 125.826 49.0282 129.643 49.0282ZM135.96 97.4603L138.987 106.541C142.804 104.699 146.621 103.12 150.437 101.935L147.542 93.2488C143.067 94.5649 139.25 96.0126 135.96 97.4603ZM76.2097 62.8471L70.2873 53.7661C66.9971 55.477 63.5752 57.3195 60.0218 59.4253L66.0758 68.6379C69.4976 66.5322 72.7879 64.558 76.2097 62.8471ZM103.19 122.071L109.507 131.547C111.744 128.257 114.376 125.23 117.272 122.203L111.349 113.253C108.322 116.017 105.559 119.044 103.19 122.071ZM84.1062 164.449L94.7666 172.872C95.293 167.74 96.2143 162.607 97.5304 157.474L88.0545 149.972C86.3436 154.842 85.1591 159.711 84.1062 164.449ZM26.4615 101.935L17.1172 93.7753C13.6954 97.0655 10.4051 100.356 7.37813 103.646L17.512 112.332C20.2758 108.779 23.3028 105.225 26.4615 101.935ZM-13.2845 160.764L-28.4195 155.237C-30.9201 160.896 -33.6839 167.476 -35 171.03L-19.865 176.557C-18.154 172.083 -15.3902 165.634 -13.2845 160.764ZM82.1321 197.878C82.3953 204.853 83.0534 210.513 83.7114 214.461L99.5045 220.12C98.32 214.987 97.1355 209.196 96.3459 203.011L82.1321 197.878Z" fill="white"/>
</g>
<defs>
<clipPath id="clip0_5685_1792">
<rect width="227" height="224" rx="112" fill="white"/>
</clipPath>
</defs>
</svg>
