<svg width="128" height="128" viewBox="0 0 128 128" fill="none" xmlns="http://www.w3.org/2000/svg">
<path d="M29.7171 1.01099C27.0537 1.15458 24.9074 1.5743 22.7444 2.39165C21.6657 2.7948 19.8975 3.67291 18.9244 4.2804C14.8542 6.81529 11.7515 10.6259 10.1335 15.0606C9.81096 15.9387 8.93798 18.7387 8.37638 20.6661C4.63423 33.5504 2.51017 47.6386 2.05421 62.5497C1.98193 64.9245 1.98193 70.5796 2.05421 72.9157C2.36004 82.8012 3.31086 91.7258 5.03458 100.827C5.73519 104.511 6.85839 109.459 7.50896 111.707C8.83789 116.274 11.5514 120.162 15.4103 123.012C17.9958 124.922 20.9317 126.204 24.1846 126.833C25.7526 127.137 27.8211 127.275 29.3446 127.176C31.452 127.038 35.6334 126.48 39.0308 125.878C54.3441 123.166 68.4897 118.312 81.3176 111.364C89.4413 106.963 96.3862 102.197 103.086 96.4145C109.764 90.6599 115.458 84.4691 120.468 77.5216C121.63 75.9145 122.214 74.9757 122.798 73.7938C124.299 70.7453 125.006 67.7134 125 64.3225C125 61.1636 124.399 58.3581 123.104 55.4863C122.481 54.1001 121.886 53.106 120.552 51.2173C115.636 44.2643 110.182 38.2059 103.531 32.3188C93.2223 23.1954 80.9784 15.7123 67.3054 10.173C64.3417 8.97464 61.4225 7.91981 57.9083 6.77663C50.4685 4.36324 41.2605 2.27016 33.4704 1.22639C32.2471 1.06071 30.5846 0.966811 29.7171 1.01099Z" fill="#0B84F3" fill-opacity="0.1"/>
<path d="M36.9327 14.4471C34.8369 14.5601 33.148 14.8904 31.4459 15.5336C30.5971 15.8508 29.2056 16.5418 28.4399 17.0198C25.2371 19.0145 22.7956 22.0131 21.5223 25.5028C21.2685 26.1938 20.5816 28.3971 20.1397 29.9137C17.195 40.0524 15.5235 51.1385 15.1647 62.8721C15.1078 64.7408 15.1078 69.1909 15.1647 71.0291C15.4054 78.8081 16.1536 85.8308 17.51 92.9927C18.0613 95.8913 18.9451 99.7851 19.4571 101.554C20.5028 105.148 22.6381 108.207 25.6746 110.45C27.7092 111.953 30.0195 112.962 32.5791 113.457C33.813 113.696 35.4407 113.805 36.6396 113.726C38.2979 113.618 41.5883 113.179 44.2617 112.705C56.3118 110.571 67.443 106.751 77.5372 101.284C83.9298 97.8208 89.3948 94.0704 94.6672 89.5204C99.9222 84.9921 104.403 80.1205 108.345 74.6535C109.259 73.3889 109.719 72.6501 110.178 71.7201C111.36 69.3212 111.915 66.9354 111.911 64.2671C111.911 61.7813 111.438 59.5737 110.419 57.3139C109.929 56.2231 109.461 55.4408 108.411 53.9546C104.543 48.4832 100.25 43.7159 95.0173 39.0833C86.9051 31.9041 77.2703 26.0156 66.511 21.6568C64.1789 20.7137 61.8817 19.8837 59.1164 18.9841C53.262 17.085 46.0162 15.438 39.8862 14.6166C38.9236 14.4862 37.6153 14.4124 36.9327 14.4471Z" fill="#0B84F3" fill-opacity="0.3"/>
<path d="M44.3998 28.3829C42.8926 28.4642 41.678 28.7017 40.454 29.1642C39.8435 29.3923 38.8429 29.8893 38.2923 30.233C35.989 31.6675 34.2332 33.8239 33.3175 36.3335C33.135 36.8304 32.641 38.4149 32.3232 39.5056C30.2055 46.7967 29.0035 54.7691 28.7455 63.2072C28.7046 64.5511 28.7046 67.7513 28.7455 69.0733C28.9186 74.6674 29.4567 79.7178 30.4321 84.8681C30.8286 86.9527 31.4642 89.7529 31.8323 91.0248C32.5844 93.6094 34.1199 95.8095 36.3036 97.4222C37.7668 98.5035 39.4282 99.2285 41.2689 99.5848C42.1563 99.7567 43.3268 99.8348 44.189 99.7786C45.3815 99.7004 47.7478 99.3848 49.6703 99.0442C58.336 97.5097 66.3409 94.7626 73.6001 90.8311C78.1973 88.3403 82.1273 85.6432 85.919 82.3711C89.698 79.1146 92.9201 75.6112 95.7552 71.6797C96.4128 70.7703 96.7432 70.239 97.0736 69.5702C97.9232 67.8451 98.3228 66.1293 98.3197 64.2104C98.3197 62.4228 97.9798 60.8352 97.2467 59.2101C96.8943 58.4257 96.5576 57.8631 95.8024 56.7943C93.0208 52.8596 89.934 49.4313 86.1707 46.0998C80.3369 40.9369 73.4082 36.7022 65.6707 33.5676C63.9936 32.8895 62.3416 32.2926 60.353 31.6456C56.1428 30.2799 50.9321 29.0954 46.5237 28.5048C45.8315 28.411 44.8907 28.3579 44.3998 28.3829Z" fill="#0B84F3"/>
</svg>
