<?xml version="1.0" encoding="utf-8"?>
<svg xmlns="http://www.w3.org/2000/svg" viewBox="0 0 163.1 163.1" width="164" height="164" fill="none">
  <polygon points="158.515 102.705 152.445 92.445 123.085 109.815 155.695 69.485 160.625 66.675 159.405 64.895 161.645 62.115 151.355 53.795 146.645 59.625 51.575 113.655 86.725 72.595 152.195 37.735 145.975 26.055 110.315 45.035 127.875 24.535 117.815 15.925 78.295 62.085 39.045 82.995 69.095 44.405 87.925 34.885 81.945 23.075 27.085 50.815 42.045 31.585 31.595 23.455 0.015 64.055 0.505 64.435 6.405 76.105 41.415 58.395 9.505 99.365 14.735 103.435 17.845 109.275 54.705 89.645 14.115 137.065 24.175 145.675 26.195 143.315 124.115 87.485 91.605 127.705 92.135 128.135 92.085 128.165 98.825 139.555 142.065 113.965 125.415 140.065 136.575 147.175 163.085 105.625 158.515 102.705" fill="black"/>
</svg>
