<svg width="192" height="192" viewBox="0 0 192 192" fill="none" xmlns="http://www.w3.org/2000/svg">
<rect width="192" height="192" fill="#0B0B0B"/>
<g clip-path="url(#clip0_2001_272)">
<path d="M179.735 117.194L173.131 105.702L141.188 125.157L176.667 79.9872L182.03 76.84L180.703 74.8464L183.14 71.7328L171.945 62.4144L166.821 68.944L63.3884 129.458L101.63 83.4704L172.859 44.4272L166.092 31.3456L127.295 52.6032L146.4 29.6432L135.455 20L92.4587 71.6992L49.7562 95.1184L82.4494 51.8976L102.936 41.2352L96.4297 28.008L36.7442 59.0768L53.0201 37.5392L41.6509 28.4336L7.29309 73.9056L7.82619 74.3312L14.2452 87.4016L52.3347 67.5664L17.6178 113.453L23.3079 118.011L26.6914 124.552L66.7937 102.566L22.6333 155.677L33.5782 165.32L35.7759 162.677L142.309 100.147L106.939 145.194L107.516 145.675L107.462 145.709L114.795 158.466L161.838 129.805L143.723 159.037L155.865 167L184.707 120.464L179.735 117.194Z" fill="white"/>
</g>
<defs>
<clipPath id="clip0_2001_272">
<rect width="177.414" height="147" fill="white" transform="translate(7.29309 20)"/>
</clipPath>
</defs>
</svg>
