<svg width="139" height="112" viewBox="0 0 139 112" fill="none" xmlns="http://www.w3.org/2000/svg">
<g clip-path="url(#clip0_2001_208)">
<path d="M135.095 74.0544L129.927 65.296L104.899 80.1248L132.69 45.7072L136.897 43.2992L135.856 41.7872L137.769 39.424L128.998 32.3232L124.981 37.296L43.9465 83.3952L73.9081 48.3616L129.714 18.6144L124.411 8.6464L94.0129 24.8416L108.983 7.34721L100.412 0L66.7254 39.3904L33.262 57.232L58.8826 24.304L74.9262 16.184L69.8356 6.104L23.0697 29.7808L35.824 13.3616L26.9184 6.42881L0 41.0704L0.413951 41.3952L5.44857 51.352L35.287 36.2432L8.08894 71.2096L12.5418 74.6704L15.1933 79.6656L46.6205 62.9104L12.0159 103.376L20.586 110.712L22.3089 108.696L105.783 61.0624L78.07 95.3792L78.5175 95.7488L78.4728 95.7712L84.2234 105.493L121.077 83.664L106.89 105.93L116.4 112L139 76.5408L135.095 74.0544Z" fill="#0B0B0B"/>
</g>
<defs>
<clipPath id="clip0_2001_208">
<rect width="139" height="112" fill="white"/>
</clipPath>
</defs>
</svg>
