<svg enable-background="new 0 0 800 600" viewBox="0 0 800 600" xmlns="http://www.w3.org/2000/svg"><path d="m741.5 298.677-107.805-49.938-7.756-118.557c-.543-8.301-10.751-11.928-16.409-5.829l-80.808 87.096-115.15-29.259c-8.063-2.049-14.666 6.539-10.615 13.805l57.863 103.766-63.41 100.475c-4.44 7.035 1.688 15.969 9.849 14.361l116.569-22.966 75.96 91.355c5.319 6.397 15.708 3.33 16.702-4.93l14.18-117.961 110.357-44.012c7.727-3.08 8.021-13.91.473-17.406z" fill="#ffdc65"/><g fill="#fff182"><path d="m505.03 83.247c2.879 9.912 6.878 49.51 9.031 72.524.339 3.618-4.555 5.039-6.207 1.803-10.511-20.585-28.348-56.164-31.227-66.077-2.278-7.843 2.233-16.048 10.077-18.326 7.843-2.279 16.047 2.233 18.326 10.076z"/><path d="m732.954 164.209c-8.487 5.875-36.569 34.077-52.757 50.576-2.545 2.594.355 6.783 3.679 5.314 21.142-9.342 57.425-25.697 65.913-31.571 6.715-4.648 8.391-13.861 3.742-20.576-4.649-6.716-13.862-8.391-20.577-3.743z"/><path d="m740.534 427.586c-8.176-6.3-43.578-24.486-64.214-34.896-3.244-1.637-6.354 2.4-3.946 5.12 15.324 17.304 41.93 46.903 50.106 53.203 6.469 4.985 15.755 3.783 20.741-2.687 4.985-6.47 3.782-15.755-2.687-20.74z"/><path d="m467.394 507.678c3.455-9.726 23.346-44.199 35.045-64.133 1.839-3.134 6.641-1.428 6.091 2.163-3.497 22.848-9.81 62.143-13.265 71.87-2.734 7.696-11.189 11.719-18.885 8.985-7.697-2.733-11.72-11.189-8.986-18.885z"/></g><path d="m628.759 173.295-2.821-43.112c-.543-8.301-10.751-11.928-16.409-5.829l-80.808 87.096-115.149-29.258c-8.063-2.049-14.666 6.539-10.615 13.805l57.863 103.766-63.41 100.473c-4.44 7.035 1.688 15.969 9.849 14.361l15.515-3.057c69.301-128.504 163.804-207.337 205.985-238.245z" fill="#fdc850"/><g fill="#1f1f1f"><path d="m82.126 412.809c-.986 3.315-1.702 6.561-2.149 9.74-.449 3.181-.672 6.293-.672 9.337 0 6.18 1.364 12.224 4.098 18.136 2.73 5.91 6.761 11.15 12.091 15.718 5.328 4.567 11.889 8.239 19.681 11.016 7.791 2.774 16.746 4.165 26.868 4.165 7.074 0 14.194-.672 21.36-2.015 7.164-1.344 14.059-3.359 20.689-6.046 6.627-2.687 12.783-6.002 18.472-9.941 5.686-3.942 10.634-8.553 14.845-13.837 4.209-5.284 7.523-11.196 9.941-17.734 2.418-6.537 3.628-13.703 3.628-21.495 0-7.433-1.008-14.194-3.023-20.286-2.015-6.089-4.816-11.62-8.397-16.591-3.583-4.97-7.814-9.538-12.695-13.702-4.883-4.165-10.166-8.014-15.852-11.554-5.689-3.537-11.688-6.919-18.002-10.142-6.314-3.225-12.65-6.402-19.009-9.539-6.717-3.312-13.366-6.717-19.95-10.21-6.583-3.493-12.896-7.254-18.941-11.284-6.046-4.03-11.644-8.441-16.793-13.233-5.152-4.79-9.606-10.142-13.367-16.053s-6.717-12.471-8.867-19.681c-2.149-7.209-3.224-15.292-3.224-24.249 0-9.313 1.321-18.022 3.963-26.129 2.641-8.105 6.315-15.561 11.016-22.368 4.702-6.806 10.299-12.874 16.793-18.203 6.493-5.328 13.59-9.851 21.293-13.569 7.701-3.715 15.852-6.536 24.45-8.463 8.598-1.925 17.418-2.888 26.465-2.888 8.238 0 16.478.873 24.718 2.619 8.239 1.746 15.651 4.456 22.234 8.128 6.583 3.673 11.933 8.352 16.053 14.038 4.119 5.689 6.18 12.427 6.18 20.219 0 4.03-.762 7.771-2.283 11.218-1.524 3.449-3.606 6.448-6.248 9.001-2.642 2.552-5.709 4.546-9.202 5.978-3.493 1.433-7.166 2.149-11.016 2.149-1.255 0-2.553-.067-3.896-.201-1.343-.135-2.643-.424-3.896-.874l-1.209-1.209c1.612-5.643 2.418-10.657 2.418-15.047 0-7.523-1.299-13.724-3.896-18.606-2.599-4.88-5.978-8.753-10.142-11.621-4.165-2.865-8.867-4.88-14.106-6.045-5.239-1.163-10.502-1.746-15.785-1.746-9.135 0-17.622 1.411-25.457 4.232-7.839 2.821-14.622 6.785-20.354 11.89-5.732 5.104-10.232 11.197-13.501 18.27-3.27 7.075-4.903 14.868-4.903 23.375 0 7.254.985 13.837 2.956 19.749 1.969 5.911 4.723 11.308 8.262 16.188 3.537 4.882 7.724 9.36 12.561 13.433 4.836 4.077 10.097 7.883 15.785 11.42 5.686 3.538 11.688 6.919 18.002 10.142 6.314 3.224 12.695 6.404 19.144 9.539 6.358 3.136 12.806 6.381 19.345 9.74 6.536 3.359 12.896 7.032 19.076 11.016 6.18 3.986 11.977 8.352 17.398 13.098 5.417 4.748 10.163 10.031 14.24 15.852 4.074 5.823 7.275 12.315 9.606 19.479 2.327 7.167 3.493 15.137 3.493 23.913 0 12.002-1.77 22.996-5.307 32.98-3.538 9.988-8.352 18.966-14.441 26.935-6.092 7.971-13.212 14.957-21.36 20.958-8.151 5.999-16.884 10.992-26.197 14.978-9.316 3.985-18.942 6.963-28.884 8.934-9.941 1.97-19.748 2.957-29.421 2.957-6.091 0-12.607-.494-19.546-1.479-6.942-.986-13.861-2.484-20.756-4.5-6.898-2.015-13.525-4.591-19.883-7.724-6.36-3.136-11.957-6.874-16.793-11.219s-8.709-9.336-11.621-14.978c-2.909-5.642-4.366-11.957-4.366-18.943 0-4.477.806-8.551 2.418-12.225 1.612-3.671 3.762-6.828 6.449-9.471 2.686-2.641 5.753-4.679 9.202-6.113 3.447-1.432 7.007-2.149 10.68-2.149 1.343 0 2.708.113 4.098.336 1.388.225 2.798.604 4.232 1.142z"/><path d="m350.546 97.106c-1.792 15.227-3.56 30.832-5.306 46.818s-3.404 32.154-4.97 48.498c-1.568 16.345-3.023 32.758-4.366 49.236-1.344 16.481-2.509 32.712-3.493 48.699-.987 15.986-1.746 31.683-2.284 47.086-.537 15.405-.806 30.183-.806 44.333 0 8.867.111 16.48.336 22.838.222 6.36.581 11.734 1.075 16.121.491 4.389 1.163 7.926 2.015 10.613.85 2.687 1.902 4.748 3.157 6.18 1.253 1.433 2.731 2.398 4.433 2.888 1.7.494 3.715.739 6.045.739 4.299 0 8.934-.649 13.905-1.948 4.97-1.296 10.008-3.11 15.114-5.441l2.552 6.986c-3.224 2.599-7.277 5.24-12.158 7.927-4.883 2.687-10.008 5.152-15.382 7.389-5.374 2.238-10.636 4.05-15.785 5.441-5.151 1.386-9.606 2.082-13.366 2.082-4.837 0-8.666-1.232-11.487-3.695-2.821-2.462-4.97-6.469-6.448-12.023-1.478-5.552-2.419-12.785-2.822-21.696s-.604-19.769-.604-32.578c0-4.656.134-11.305.403-19.95.269-8.642.648-18.694 1.142-30.159.491-11.463 1.052-24.001 1.679-37.616.625-13.613 1.297-27.695 2.015-42.251.716-14.553 1.478-29.24 2.283-44.064.807-14.821 1.612-29.152 2.418-42.989.807-13.837 1.566-26.89 2.284-39.161.716-12.269 1.388-23.107 2.015-32.51.088-2.149.716-4.008 1.88-5.575 1.163-1.566 2.664-2.822 4.5-3.762 1.835-.941 3.896-1.634 6.18-2.082 2.284-.447 4.589-.672 6.919-.672 5.374 0 11.016 1.433 16.927 4.298z"/></g></svg>