<svg width="48" height="48" viewBox="0 0 48 48" fill="none" xmlns="http://www.w3.org/2000/svg">
<path d="M0 24C0 37.2548 10.7452 48 24 48C37.2548 48 48 37.2548 48 24C48 10.7452 37.2548 0 24 0C10.7452 0 0 10.7452 0 24Z" fill="#F7DF1E"/>
<path d="M27.6053 28.7181C28.5722 30.2968 29.8301 31.4571 32.0549 31.4571C33.9238 31.4571 35.1177 30.523 35.1177 29.2324C35.1177 27.6857 33.8911 27.1379 31.8339 26.2381L30.7063 25.7543C27.4514 24.3676 25.2891 22.6305 25.2891 18.9581C25.2891 15.5752 27.8667 13 31.8949 13C34.7627 13 36.8244 13.9981 38.3101 16.6114L34.7977 18.8667C34.0244 17.48 33.1901 16.9337 31.8949 16.9337C30.5737 16.9337 29.7364 17.7718 29.7364 18.8667C29.7364 20.2198 30.5745 20.7676 32.5097 21.6057L33.6373 22.0888C37.4697 23.7322 39.6335 25.4076 39.6335 29.1745C39.6335 33.2354 36.4434 35.4602 32.1592 35.4602C27.9703 35.4602 25.264 33.464 23.9398 30.8476L27.6053 28.7181ZM11.6716 29.109C12.3802 30.3661 13.0248 31.429 14.5745 31.429C16.0564 31.429 16.9912 30.8491 16.9912 28.5947V13.2575H21.5017V28.6556C21.5017 33.3261 18.7634 35.4518 14.7665 35.4518C11.155 35.4518 9.06362 33.5829 8 31.3318L11.6716 29.109Z" fill="black"/>
</svg>
