<svg width="111" height="111" viewBox="0 0 111 111" fill="none" xmlns="http://www.w3.org/2000/svg">
<g filter="url(#filter0_di_35_165)">
<g filter="url(#filter1_diiii_35_165)">
<mask id="path-2-inside-1_35_165" fill="white">
<path d="M16 35.1837H19.16V38.3437H16V35.1837ZM19.16 88.9035V79.4235H22.32V76.2635H25.48V73.1035H31.7999V69.9435H34.9599V66.7836H38.1199V73.1035H44.4399V76.2635H47.5998V79.4235H50.7598V82.5835H47.5998V85.7435H44.4399V88.9035H41.2799V85.7435H38.1199V82.5835H31.7999V85.7435H28.6399V92.0634H31.7999V95.2234H25.48V92.0634H22.32V88.9035H19.16ZM19.16 35.1837V28.8637H22.32V25.7038H25.48V22.5438H38.1199V25.7038H44.4399V28.8637H47.5998V35.1837H50.7598V38.3437H53.9198V41.5037H57.0798V44.6637H53.9198V47.8237H69.7197V50.9836H66.5598V54.1436H60.2398V60.4636H63.3998V63.6236H66.5598V66.7836H69.7197V73.1035H72.8797V76.2635H76.0397V79.4235H69.7197V82.5835H66.5598V85.7435H63.3998V82.5835H60.2398V76.2635H57.0798V69.9435H53.9198V66.7836H50.7598V60.4636H44.4399V57.3036H22.32V54.1436H25.48V50.9836H28.6399V47.8237H41.2799V44.6637H38.1199V38.3437H34.9599V32.0237H31.7999V28.8637H28.6399V32.0237H22.32V35.1837H19.16ZM38.1199 66.7836V63.6236H41.2799V66.7836H38.1199ZM41.2799 63.6236V60.4636H44.4399V63.6236H41.2799ZM50.7598 79.4235V76.2635H53.9198V79.4235H50.7598ZM50.7598 35.1837V32.0237H53.9198V35.1837H50.7598ZM53.9198 32.0237V28.8637H57.0798V22.5438H63.3998V25.7038H69.7197V22.5438H76.0397V32.0237H72.8797V35.1837H66.5598V38.3437H63.3998V35.1837H60.2398V41.5037H57.0798V32.0237H53.9198ZM76.0397 76.2635V73.1035H79.1997V76.2635H76.0397ZM76.0397 22.5438V19.3838H79.1997V22.5438H76.0397Z"/>
</mask>
<path d="M16 35.1837H19.16V38.3437H16V35.1837ZM19.16 88.9035V79.4235H22.32V76.2635H25.48V73.1035H31.7999V69.9435H34.9599V66.7836H38.1199V73.1035H44.4399V76.2635H47.5998V79.4235H50.7598V82.5835H47.5998V85.7435H44.4399V88.9035H41.2799V85.7435H38.1199V82.5835H31.7999V85.7435H28.6399V92.0634H31.7999V95.2234H25.48V92.0634H22.32V88.9035H19.16ZM19.16 35.1837V28.8637H22.32V25.7038H25.48V22.5438H38.1199V25.7038H44.4399V28.8637H47.5998V35.1837H50.7598V38.3437H53.9198V41.5037H57.0798V44.6637H53.9198V47.8237H69.7197V50.9836H66.5598V54.1436H60.2398V60.4636H63.3998V63.6236H66.5598V66.7836H69.7197V73.1035H72.8797V76.2635H76.0397V79.4235H69.7197V82.5835H66.5598V85.7435H63.3998V82.5835H60.2398V76.2635H57.0798V69.9435H53.9198V66.7836H50.7598V60.4636H44.4399V57.3036H22.32V54.1436H25.48V50.9836H28.6399V47.8237H41.2799V44.6637H38.1199V38.3437H34.9599V32.0237H31.7999V28.8637H28.6399V32.0237H22.32V35.1837H19.16ZM38.1199 66.7836V63.6236H41.2799V66.7836H38.1199ZM41.2799 63.6236V60.4636H44.4399V63.6236H41.2799ZM50.7598 79.4235V76.2635H53.9198V79.4235H50.7598ZM50.7598 35.1837V32.0237H53.9198V35.1837H50.7598ZM53.9198 32.0237V28.8637H57.0798V22.5438H63.3998V25.7038H69.7197V22.5438H76.0397V32.0237H72.8797V35.1837H66.5598V38.3437H63.3998V35.1837H60.2398V41.5037H57.0798V32.0237H53.9198ZM76.0397 76.2635V73.1035H79.1997V76.2635H76.0397ZM76.0397 22.5438V19.3838H79.1997V22.5438H76.0397Z" fill="url(#paint0_linear_35_165)"/>
<path d="M16 35.1837H19.16V38.3437H16V35.1837ZM19.16 88.9035V79.4235H22.32V76.2635H25.48V73.1035H31.7999V69.9435H34.9599V66.7836H38.1199V73.1035H44.4399V76.2635H47.5998V79.4235H50.7598V82.5835H47.5998V85.7435H44.4399V88.9035H41.2799V85.7435H38.1199V82.5835H31.7999V85.7435H28.6399V92.0634H31.7999V95.2234H25.48V92.0634H22.32V88.9035H19.16ZM19.16 35.1837V28.8637H22.32V25.7038H25.48V22.5438H38.1199V25.7038H44.4399V28.8637H47.5998V35.1837H50.7598V38.3437H53.9198V41.5037H57.0798V44.6637H53.9198V47.8237H69.7197V50.9836H66.5598V54.1436H60.2398V60.4636H63.3998V63.6236H66.5598V66.7836H69.7197V73.1035H72.8797V76.2635H76.0397V79.4235H69.7197V82.5835H66.5598V85.7435H63.3998V82.5835H60.2398V76.2635H57.0798V69.9435H53.9198V66.7836H50.7598V60.4636H44.4399V57.3036H22.32V54.1436H25.48V50.9836H28.6399V47.8237H41.2799V44.6637H38.1199V38.3437H34.9599V32.0237H31.7999V28.8637H28.6399V32.0237H22.32V35.1837H19.16ZM38.1199 66.7836V63.6236H41.2799V66.7836H38.1199ZM41.2799 63.6236V60.4636H44.4399V63.6236H41.2799ZM50.7598 79.4235V76.2635H53.9198V79.4235H50.7598ZM50.7598 35.1837V32.0237H53.9198V35.1837H50.7598ZM53.9198 32.0237V28.8637H57.0798V22.5438H63.3998V25.7038H69.7197V22.5438H76.0397V32.0237H72.8797V35.1837H66.5598V38.3437H63.3998V35.1837H60.2398V41.5037H57.0798V32.0237H53.9198ZM76.0397 76.2635V73.1035H79.1997V76.2635H76.0397ZM76.0397 22.5438V19.3838H79.1997V22.5438H76.0397Z" fill="url(#paint1_radial_35_165)" fill-opacity="0.4"/>
<path d="M16 35.1837H19.16V38.3437H16V35.1837ZM19.16 88.9035V79.4235H22.32V76.2635H25.48V73.1035H31.7999V69.9435H34.9599V66.7836H38.1199V73.1035H44.4399V76.2635H47.5998V79.4235H50.7598V82.5835H47.5998V85.7435H44.4399V88.9035H41.2799V85.7435H38.1199V82.5835H31.7999V85.7435H28.6399V92.0634H31.7999V95.2234H25.48V92.0634H22.32V88.9035H19.16ZM19.16 35.1837V28.8637H22.32V25.7038H25.48V22.5438H38.1199V25.7038H44.4399V28.8637H47.5998V35.1837H50.7598V38.3437H53.9198V41.5037H57.0798V44.6637H53.9198V47.8237H69.7197V50.9836H66.5598V54.1436H60.2398V60.4636H63.3998V63.6236H66.5598V66.7836H69.7197V73.1035H72.8797V76.2635H76.0397V79.4235H69.7197V82.5835H66.5598V85.7435H63.3998V82.5835H60.2398V76.2635H57.0798V69.9435H53.9198V66.7836H50.7598V60.4636H44.4399V57.3036H22.32V54.1436H25.48V50.9836H28.6399V47.8237H41.2799V44.6637H38.1199V38.3437H34.9599V32.0237H31.7999V28.8637H28.6399V32.0237H22.32V35.1837H19.16ZM38.1199 66.7836V63.6236H41.2799V66.7836H38.1199ZM41.2799 63.6236V60.4636H44.4399V63.6236H41.2799ZM50.7598 79.4235V76.2635H53.9198V79.4235H50.7598ZM50.7598 35.1837V32.0237H53.9198V35.1837H50.7598ZM53.9198 32.0237V28.8637H57.0798V22.5438H63.3998V25.7038H69.7197V22.5438H76.0397V32.0237H72.8797V35.1837H66.5598V38.3437H63.3998V35.1837H60.2398V41.5037H57.0798V32.0237H53.9198ZM76.0397 76.2635V73.1035H79.1997V76.2635H76.0397ZM76.0397 22.5438V19.3838H79.1997V22.5438H76.0397Z" stroke="url(#paint2_linear_35_165)" stroke-width="0.96341" mask="url(#path-2-inside-1_35_165)"/>
</g>
<rect x="79.3691" y="89" width="17" height="6" fill="url(#paint3_linear_35_165)"/>
<rect x="79.3691" y="89" width="17" height="6" fill="url(#paint4_radial_35_165)" fill-opacity="0.4"/>
<rect x="79.3691" y="89" width="17" height="6" fill="white" fill-opacity="0.2"/>
</g>
<defs>
<filter id="filter0_di_35_165" x="0" y="0" width="111" height="111.482" filterUnits="userSpaceOnUse" color-interpolation-filters="sRGB">
<feFlood flood-opacity="0" result="BackgroundImageFix"/>
<feColorMatrix in="SourceAlpha" type="matrix" values="0 0 0 0 0 0 0 0 0 0 0 0 0 0 0 0 0 0 127 0" result="hardAlpha"/>
<feOffset dy="0.481705"/>
<feColorMatrix type="matrix" values="0 0 0 0 0 0 0 0 0 0 0 0 0 0 0 0 0 0 0.5 0"/>
<feBlend mode="normal" in2="BackgroundImageFix" result="effect1_dropShadow_35_165"/>
<feBlend mode="normal" in="SourceGraphic" in2="effect1_dropShadow_35_165" result="shape"/>
<feColorMatrix in="SourceAlpha" type="matrix" values="0 0 0 0 0 0 0 0 0 0 0 0 0 0 0 0 0 0 127 0" result="hardAlpha"/>
<feOffset dy="0.481705"/>
<feComposite in2="hardAlpha" operator="arithmetic" k2="-1" k3="1"/>
<feColorMatrix type="matrix" values="0 0 0 0 0 0 0 0 0 0 0 0 0 0 0 0 0 0 0.628312 0"/>
<feBlend mode="normal" in2="shape" result="effect2_innerShadow_35_165"/>
</filter>
<filter id="filter1_diiii_35_165" x="13.5915" y="17.9387" width="66.7643" height="79.4042" filterUnits="userSpaceOnUse" color-interpolation-filters="sRGB">
<feFlood flood-opacity="0" result="BackgroundImageFix"/>
<feColorMatrix in="SourceAlpha" type="matrix" values="0 0 0 0 0 0 0 0 0 0 0 0 0 0 0 0 0 0 127 0" result="hardAlpha"/>
<feOffset dy="0.96341"/>
<feGaussianBlur stdDeviation="0.578046"/>
<feComposite in2="hardAlpha" operator="out"/>
<feColorMatrix type="matrix" values="0 0 0 0 0 0 0 0 0 0 0 0 0 0 0 0 0 0 0.15 0"/>
<feBlend mode="normal" in2="BackgroundImageFix" result="effect1_dropShadow_35_165"/>
<feBlend mode="normal" in="SourceGraphic" in2="effect1_dropShadow_35_165" result="shape"/>
<feColorMatrix in="SourceAlpha" type="matrix" values="0 0 0 0 0 0 0 0 0 0 0 0 0 0 0 0 0 0 127 0" result="hardAlpha"/>
<feOffset dx="-0.96341" dy="0.481705"/>
<feComposite in2="hardAlpha" operator="arithmetic" k2="-1" k3="1"/>
<feColorMatrix type="matrix" values="0 0 0 0 1 0 0 0 0 1 0 0 0 0 1 0 0 0 1 0"/>
<feBlend mode="normal" in2="shape" result="effect2_innerShadow_35_165"/>
<feColorMatrix in="SourceAlpha" type="matrix" values="0 0 0 0 0 0 0 0 0 0 0 0 0 0 0 0 0 0 127 0" result="hardAlpha"/>
<feOffset dx="-0.96341" dy="-1.44511"/>
<feGaussianBlur stdDeviation="0.674387"/>
<feComposite in2="hardAlpha" operator="arithmetic" k2="-1" k3="1"/>
<feColorMatrix type="matrix" values="0 0 0 0 1 0 0 0 0 1 0 0 0 0 1 0 0 0 0.55 0"/>
<feBlend mode="color-dodge" in2="effect2_innerShadow_35_165" result="effect3_innerShadow_35_165"/>
<feColorMatrix in="SourceAlpha" type="matrix" values="0 0 0 0 0 0 0 0 0 0 0 0 0 0 0 0 0 0 127 0" result="hardAlpha"/>
<feOffset dx="-0.96341" dy="-0.481705"/>
<feComposite in2="hardAlpha" operator="arithmetic" k2="-1" k3="1"/>
<feColorMatrix type="matrix" values="0 0 0 0 1 0 0 0 0 1 0 0 0 0 1 0 0 0 1 0"/>
<feBlend mode="normal" in2="effect3_innerShadow_35_165" result="effect4_innerShadow_35_165"/>
<feColorMatrix in="SourceAlpha" type="matrix" values="0 0 0 0 0 0 0 0 0 0 0 0 0 0 0 0 0 0 127 0" result="hardAlpha"/>
<feOffset dx="-2.40852" dy="-1.44511"/>
<feGaussianBlur stdDeviation="5.53961"/>
<feComposite in2="hardAlpha" operator="arithmetic" k2="-1" k3="1"/>
<feColorMatrix type="matrix" values="0 0 0 0 0 0 0 0 0 0 0 0 0 0 0 0 0 0 0.04 0"/>
<feBlend mode="normal" in2="effect4_innerShadow_35_165" result="effect5_innerShadow_35_165"/>
</filter>
<linearGradient id="paint0_linear_35_165" x1="79.1997" y1="19.3838" x2="16.5572" y2="95.6809" gradientUnits="userSpaceOnUse">
<stop offset="0.197748" stop-color="#EAEAEA" stop-opacity="0.7"/>
<stop offset="0.222849" stop-color="#EAEAEA" stop-opacity="0.95"/>
<stop offset="1" stop-color="#EDEDED" stop-opacity="0"/>
</linearGradient>
<radialGradient id="paint1_radial_35_165" cx="0" cy="0" r="1" gradientUnits="userSpaceOnUse" gradientTransform="translate(79.1997 53.0903) rotate(146.31) scale(75.9566 62.6503)">
<stop offset="0.435091" stop-color="white" stop-opacity="0"/>
<stop offset="0.703465" stop-color="white"/>
</radialGradient>
<linearGradient id="paint2_linear_35_165" x1="47.5998" y1="19.3838" x2="47.5998" y2="95.2234" gradientUnits="userSpaceOnUse">
<stop stop-color="#929292"/>
<stop offset="0.23" stop-color="#959595"/>
<stop offset="0.745" stop-color="#7D7D7D"/>
<stop offset="1" stop-color="#8F8F8F"/>
</linearGradient>
<linearGradient id="paint3_linear_35_165" x1="96.3691" y1="89" x2="94.0633" y2="98.5484" gradientUnits="userSpaceOnUse">
<stop offset="0.197748" stop-color="#EAEAEA" stop-opacity="0.7"/>
<stop offset="0.222849" stop-color="#EAEAEA" stop-opacity="0.95"/>
<stop offset="1" stop-color="#EDEDED" stop-opacity="0"/>
</linearGradient>
<radialGradient id="paint4_radial_35_165" cx="0" cy="0" r="1" gradientUnits="userSpaceOnUse" gradientTransform="translate(96.3691 91.6667) rotate(168.906) scale(17.3237 5.8457)">
<stop offset="0.435091" stop-color="white" stop-opacity="0"/>
<stop offset="0.703465" stop-color="white"/>
</radialGradient>
</defs>
</svg>
