<svg style="enable-background:new 0 0 33 33;" version="1.1" viewBox="0 0 33 33"  xml:space="preserve" xmlns="http://www.w3.org/2000/svg" xmlns:xlink="http://www.w3.org/1999/xlink">
    <path d="M16.1477825,0.840201442 C7.31178255,0.840201442 0.147782547,8.00420144 0.147782547,16.8402014 C0.147782547,25.6762014 7.31178255,32.8402014 16.1477825,32.8402014 C24.9837825,32.8402014 32.1477825,25.6762014 32.1477825,16.8402014 C32.1477825,8.00420144 24.9837825,0.840201442 16.1477825,0.840201442 Z M14.533,26.371 C14.533,26.899 14.105,27.324 13.579,27.324 C13.054,27.324 12.625,26.899 12.625,26.371 C12.625,25.845 13.053,25.417 13.578,25.417 C14.102,25.417 14.529,25.848 14.529,26.372 M14.75,5 L15.957,5.71 C15.361,6.981 15.428,7.453 15.461,7.558 C15.942,7.544 16.516,7.647 17.172,7.863 C18.254,8.223 19.119,8.988 19.61,10.023 C20.097,11.055 20.14,12.214 19.73,13.278 C19.719,13.306 19.707,13.334 19.695,13.361 L19.695,13.361 L19.925,13.439 C21.375,13.957 22.72,14.804 23.88,15.943 C23.898,15.962 23.915,15.978 23.93,15.996 L23.93,15.996 L24.065,16.127 L24.156,16.226 L24.232,16.306 C24.342,16.426 24.447,16.545 24.551,16.665 C24.598,16.721 24.647,16.773 24.692,16.834 C24.739,16.893 24.789,16.949 24.835,17.009 L24.835,17.009 L24.991,17.213 C26.389,19.066 27.174,21.288 27.175,23.487 C27.175,25.567 26.77,27.436 25.994,28.999 L25.994,28.999 L24.383,28.999 C25.508,27.174 25.763,25.05 25.763,23.487 C25.763,22.989 25.713,22.489 25.622,21.991 L25.622,21.991 L25.518,22.156 C24.605,23.452 22.85,23.945 21.045,23.413 C16.879,22.192 13.21,22.708 10.135,24.942 L10.135,24.942 L8.395,26.21 L9.38,23.119 L7.467,25.149 C7.728,26.571 8.314,27.883 9.147,28.997 L9.147,28.997 L7.45,28.997 C6.957,28.189 6.571,27.312 6.305,26.382 L6.305,26.382 L5,27.769 L5.0005667,25.4970384 C5.01020062,22.6453117 5.18361111,19.2052778 8.305,16.048 C9.379,14.965 10.619,14.126 11.965,13.564 C11.633,12.878 11.495,12.098 11.56,11.258 L11.56,11.258 L10.558,11.197 C9.53,11.133 8.742,10.247 8.803,9.218 L8.803,9.218 L8.803,9.215 L8.891,7.813 C8.951,6.829 9.771,6.058 10.761,6.058 C10.795,6.058 10.832,6.058 10.865,6.061 L10.865,6.061 L10.877,6.061 L12.273,6.147 C12.752,6.175 13.19,6.382 13.518,6.727 C13.815,6.294 14.133,5.854 14.463,5.399 L14.463,5.399 L14.75,5 Z M19.493,25.417 C20.019,25.417 20.447,25.848 20.447,26.372 L20.451,26.371 C20.451,26.899 20.023,27.324 19.496,27.324 C18.97,27.324 18.544,26.899 18.544,26.371 C18.544,25.845 18.967,25.417 19.493,25.417 Z M12.981,11.191 C13.104,10.189 13.559,9.242 14.211,8.221 C14.236,8.271 14.265,8.318 14.295,8.365 C14.559,8.763 15.008,8.99 15.494,8.97 C15.711,8.962 16.099,8.995 16.727,9.202 C17.441,9.438 18.013,9.946 18.335,10.627 C18.657,11.308 18.684,12.069 18.414,12.776 C18.241,13.221 17.96,13.596 17.608,13.885 L17.2,13.383 L17.198,13.38 C16.919,13.039 16.504,12.845 16.064,12.845 C15.729,12.845 15.4,12.962 15.139,13.175 C14.805,13.445 14.625,13.835 14.605,14.233 C13.405,13.692 12.805,12.59 12.977,11.192 L12.981,11.191 L12.981,11.191 Z M17.285,16.301 L16.766,16.726 C16.72,16.762 16.671,16.779 16.62,16.779 C16.554,16.779 16.487,16.749 16.443,16.694 L16.332,16.559 C16.249,16.459 16.265,16.309 16.366,16.225 L16.876,15.805 L15.821,14.506 C15.712,14.373 15.73,14.176 15.865,14.07 C15.923,14.022 15.991,13.998 16.059,13.998 C16.15,13.998 16.24,14.036 16.299,14.111 L19.262,17.756 C19.371,17.891 19.352,18.086 19.22,18.192 C19.181,18.221 19.138,18.245 19.094,18.255 C19.071,18.261 19.049,18.264 19.024,18.264 C18.934,18.264 18.846,18.224 18.784,18.151 L18.489,17.786 L17.444,18.64 C17.398,18.677 17.344,18.695 17.29,18.695 C17.222,18.695 17.151,18.665 17.104,18.605 L16.627,18.026 C16.545,17.924 16.559,17.774 16.662,17.69 L17.713,16.833 L17.287,16.3 L17.285,16.301 L17.285,16.301 Z M11.84,9.866 L10.644,9.791 C10.389,9.776 10.194,9.556 10.209,9.303 L10.299,7.902 C10.313,7.657 10.515,7.466 10.76,7.466 L10.784,7.466 L12.185,7.557 C12.308,7.563 12.421,7.617 12.502,7.709 C12.585,7.803 12.625,7.919 12.618,8.045 L12.611,8.146 C12.291,8.713 12.026,9.28 11.838,9.866 L11.84,9.866 L11.84,9.866 Z M24.364,21.347 C23.799,22.152 22.677,22.428 21.44,22.065 C17.554,20.924 14.044,21.162 10.972,22.766 L12.608,17.643 L7.317,23.252 C7.416,19.49 9.77,16.286 13.075,14.941 C13.546,15.314 14.109,15.601 14.748,15.782 C14.908,15.826 15.07,15.856 15.228,15.884 C15.045,16.342 15.109,16.881 15.438,17.291 L15.513,17.381 C15.341,17.831 15.408,18.356 15.734,18.755 L16.209,19.337 C16.475,19.662 16.868,19.85 17.288,19.85 C17.609,19.85 17.923,19.739 18.174,19.536 L18.459,19.304 C18.633,19.378 18.826,19.417 19.025,19.417 C19.138,19.417 19.247,19.407 19.355,19.382 C19.573,19.332 19.779,19.232 19.953,19.091 C20.576,18.581 20.673,17.656 20.162,17.031 L18.492,14.975 C18.637,14.858 18.773,14.731 18.9,14.594 C19.035,14.631 19.171,14.672 19.3,14.714 C19.566,14.811 19.833,14.912 20.095,15.029 C21.1,15.474 22.049,16.129 22.866,16.926 C22.895,16.956 22.925,16.981 22.951,17.009 L23.121,17.184 C23.159,17.223 23.197,17.263 23.232,17.304 C23.311,17.389 23.392,17.479 23.471,17.571 L23.597,17.721 C23.642,17.774 23.683,17.825 23.727,17.881 L23.841,18.031 C23.881,18.082 23.92,18.133 23.958,18.185 C24.796,19.334 24.945,20.514 24.362,21.342 L24.362,21.347 L24.364,21.347 Z M11.806,9.115 L10.971,9.064 L11.024,8.229 L11.858,8.28 L11.806,9.115 Z" style="fill-rule:evenodd;clip-rule:evenodd;"/>
</svg>
