<svg {{ with .size }} height="{{ . }}" {{ end }} style="enable-background:new 65 65 150 135;" version="1.1" viewBox="65 65 150 135" width="{{ .size }}" xml:space="preserve" xmlns="http://www.w3.org/2000/svg">
<style type="text/css">
	.st0{fill:#BABABA;}
</style>
<g>
	<g>
		<path class="st0" d="M99.4,151.2c0,7.1-5.8,12.9-12.9,12.9s-12.9-5.8-12.9-12.9c0-7.1,5.8-12.9,12.9-12.9h12.9V151.2z"/>
		<path class="st0" d="M105.9,151.2c0-7.1,5.8-12.9,12.9-12.9s12.9,5.8,12.9,12.9v32.3c0,7.1-5.8,12.9-12.9,12.9
			s-12.9-5.8-12.9-12.9C105.9,183.5,105.9,151.2,105.9,151.2z"/>
	</g>
	<g>
		<path class="st0" d="M118.8,99.4c-7.1,0-12.9-5.8-12.9-12.9s5.8-12.9,12.9-12.9s12.9,5.8,12.9,12.9v12.9H118.8z"/>
		<path class="st0" d="M118.8,105.9c7.1,0,12.9,5.8,12.9,12.9s-5.8,12.9-12.9,12.9H86.5c-7.1,0-12.9-5.8-12.9-12.9
			s5.8-12.9,12.9-12.9C86.5,105.9,118.8,105.9,118.8,105.9z"/>
	</g>
	<g>
		<path class="st0" d="M170.6,118.8c0-7.1,5.8-12.9,12.9-12.9c7.1,0,12.9,5.8,12.9,12.9s-5.8,12.9-12.9,12.9h-12.9V118.8z"/>
		<path class="st0" d="M164.1,118.8c0,7.1-5.8,12.9-12.9,12.9c-7.1,0-12.9-5.8-12.9-12.9V86.5c0-7.1,5.8-12.9,12.9-12.9
			c7.1,0,12.9,5.8,12.9,12.9V118.8z"/>
	</g>
	<g>
		<path class="st0" d="M151.2,170.6c7.1,0,12.9,5.8,12.9,12.9c0,7.1-5.8,12.9-12.9,12.9c-7.1,0-12.9-5.8-12.9-12.9v-12.9H151.2z"/>
		<path class="st0" d="M151.2,164.1c-7.1,0-12.9-5.8-12.9-12.9c0-7.1,5.8-12.9,12.9-12.9h32.3c7.1,0,12.9,5.8,12.9,12.9
			c0,7.1-5.8,12.9-12.9,12.9H151.2z"/>
	</g>
</g>
</svg>
