<svg xmlns="http://www.w3.org/2000/svg" width="483" height="400">
  <path fill="#EAF7FE" d="M316 92l15-18c-10-11-30-9-30-9l12-14-20-8c3-9 13-17 13-17-37-14-64 3-64 3 2-9 14-22 14-22-37 2-65 32-65 32 0-5 4-19 4-19s-20 14-31 35c-4 7-19 61-21 73 0 0-5-2-10-1 0 0 7 10 8 14s-7 33-10 38-7 7-9 8c0 0 3 5 6 6 0 0-1 16-3 20s-8 9-10 11c0 0 6 7 10 7l-6 10c-2 2-5-2-5-2l1 8c1 3 0 7-1 9s-5 15-6 21 1 11 1 11 2-3 4-4c0 0 0 13 3 19l9 13s-1-4 1-6c0 0 3 11 18 13 33 5 56 11 94-11 35-21 31-96 42-144 5-23 17-45 27-62 7-8 18-14 18-14h-9z"/>
  <ellipse cx="248" cy="377" fill="#E5E5E5" rx="230" ry="17"/>
  <path fill="#A1D4E9" d="M83 369l1-5c0-5 1-11 5-16l-3 1c5-6 10-10 13-11l-3-1c3-2 11-3 18-4l-3-2 13 1 21-4-2-6c8 0 20 2 23 3 2 0 3 5 4 5 0 0 20-11 20 8l-1 36-16-1h-28l-43 1v-2H92v-2-2l-9 1z"/>
  <path fill="#85C1CE" d="M92 368h-4c0-24 24-30 24-30-21 8-20 27-20 30zM97 363l6-9c8-11 22-12 22-12-25 5-23 30-23 30h-4l1-9h-2z"/>
  <path fill="#4F4E51" d="M162 82c-22-8-34-30-34-30s-6 16 1 33c6 12 19 20 26 24l7-27z"/>
  <path fill="#5C5B5D" d="M162 82c-22-8-34-30-34-30s2 30 30 43l4-13z"/>
  <g fill="#A1D4E9">
    <path d="M128 208l-8-8c-4-7-5-15-5-15-2 2-2 6-2 7a55 55 0 00-13-9l-8 1 3 61 21 10s20-31 12-47zM95 181l-12-5s4 3 3 6c0 2 3 2 6 2v-4l3 1z"/>
    <path d="M95 181l-4-1 1 4 8-1-5-2z"/>
  </g>
  <path fill="#CDEAF5" d="M183 64c13-22 56-42 64-45l9-12c-37 2-65 32-65 32 0-5 4-19 4-19s-20 14-31 35c-4 7-19 61-21 73 0 0-5-2-10-1 0 0 7 10 8 14s-7 33-10 38-7 7-9 8c0 0 3 5 6 6 0 0-1 16-3 20s-8 9-10 11c0 0 5 7 9 8l-5 9c-2 2-5-2-5-2l1 8c1 3 0 7-1 9s-5 15-6 21 1 11 1 11 2-3 4-4c0 0 0 13 3 19l9 13s-1-2 1-4c0 0 4 9 19 14 12 4 22 5 36 1 9-3 15-13 15-13-62 20-80-22-73-49 4-13 19-35 19-35-7 2-11-5-11-5s3 0 9-6c5-5 4-34 4-34l-6 1c1 0 2-1 6-10l-3-1v-1c2-6 1-13 3-19l2-5h6l4-17c12-54 25-85 25-85-2 6 2 16 2 16z"/>
  <path fill="#5D5C5E" d="M120 235c1 2 1 5-1 6l-38 28c-2 2-5 2-6 0l-56-74c-1-2-1-5 1-6l38-29c2-1 5-1 6 1l56 74z"/>
  <path fill="none" stroke="#738083" stroke-miterlimit="10" stroke-width="2" d="M120 235c1 2 1 5-1 6l-38 28c-2 2-5 2-6 0l-56-74c-1-2-1-5 1-6l38-29c2-1 5-1 6 1l56 74z"/>
  <path fill="#747F84" d="M109 229l-38 28-41-54 38-29z"/>
  <path fill="#414141" d="M98 247c2 2 1 4 0 5-2 1-4 1-5-1v-5c2-1 4 0 5 1z"/>
  <path fill="none" stroke="#414141" stroke-linecap="round" stroke-miterlimit="10" stroke-width="2" d="M39 187l12-9"/>
  <g fill="#E9F7FE" opacity=".5">
    <path d="M91 208l-33 26-18-25 33-25zM75 236l-10 7-5-6 10-7zM95 214l-21 16-2-2 21-16zM99 218l-22 16-2-2 22-16z"/>
    <g>
      <path d="M82 245l-10 8-5-7 10-7zM102 223l-21 17-2-3 21-16zM105 227l-21 16-2-3 21-16z"/>
    </g>
    <path d="M70 182l-33 25-3-3 34-26z"/>
  </g>
  <path fill="#A1D4E9" d="M99 207c-19 15-41 3-41 3 3-6 21-30 34-30 0 0 19 8 7 27zM87 224c-25-7-47-1-47-1-10 2-7 14-2 23l4 14 3-3c5 7 15 12 28 4 16-10 14-37 14-37z"/>
  <ellipse cx="214.2" cy="174" fill="#CDEAF5" rx="10.8" ry="13.7"/>
  <ellipse cx="160.3" cy="165.8" fill="#CDEAF5" rx="10.8" ry="13.7"/>
  <ellipse cx="213.2" cy="170.2" fill="#FFF" rx="10.7" ry="13.5"/>
  <ellipse cx="160.2" cy="162.2" fill="#FFF" rx="10.7" ry="13.5"/>
  <path fill="#4F4E51" d="M166 156v1c0 2-1 4-3 4l-2-3-2 4c0 4 3 7 5 7 3 0 6-3 6-7 0-3-2-5-4-6z"/>
  <path fill="#5C5B5D" d="M255 165c-4-3-9-4-9-4-4-2-13-4-23-5l-31-1h-12a38 38 0 01-4-2l-9-4-13-2-20-1-2 1-2 4v4l2 4 1 2v11c1 3 3 6 10 8l5 1c12 3 17 2 21 0s6-10 8-14v-2l1-1 1-1 3 1 2 1v4l1 4v1c0 3 1 9 4 11 1 2 6 4 11 6l11 2h21c4-1 5-3 7-7l1-1v-1l5-17 9 3 1-5zm-82-4l-4 11c-2 5-2 5-4 6-2 0-9 0-17-2-6-1-10-4-10-6v-18-1h8c6 0 14 3 17 4h2c5 2 8 4 8 6zm66 8l-5 17c-1 2-3 2-10 3h-1a91 91 0 01-24-4c-6-2-7-3-8-6l-1-15c0-2 0-3 2-3h25a143 143 0 0120 4c1 0 3 2 2 4z"/>
  <path fill="#4F4E51" d="M216 163v1c0 2-1 4-3 4l-2-3-2 4c0 4 3 7 5 7 3 0 6-3 6-7 0-3-2-5-4-6z"/>
  <path fill="#A1D4E9" d="M207 121s19-8 28 1c0 0 0-9-12-9-8 0-12 4-16 8zM211 111s6-6 17-4c0 0-4-4-9-3-4 1-6 3-8 7zM154 127s10 3 14 10c0 0 1-6-4-9-5-2-6-2-10-1zM171 126s-2-4-7-4c0 0 4-2 6 0 0 0 2 2 1 4z"/>
  <path fill="#5C5B5D" d="M176 198l25 5 2-4v5s-7 2-13 1l10-1s-13-1-24-6zM280 102l3 2c26 10 52-4 52-4s-4 16-20 27c-15 10-39 5-39 5-2 3-3 10-3 10s-4-9-1-24c2-10 7-16 8-16"/>
  <path fill="#747F83" d="M280 102l3 2c26 10 52-4 52-4s-23 31-62 15c0 0 1-7 7-13"/>
  <path fill="#CDEAF5" d="M125 231s10 2 16-2c0 0 2 9 10 15 0 0 7-12 14-14l1 11s13 1 25-9c0 0-3 14-30 15v-8s-6 7-10 16c0 0-14-10-16-19h-12l2-5z"/>
  <path fill="#85C1CE" d="M76 222s-13 10-22 13c0 0 22-5 29-8 0 0-6 15-24 21 0 0 17-2 24-8 0 0-8 23-25 25 0 0 10 1 19-7 9-9 11-27 10-34l-11-2zM100 207l7-5s0 5-5 8l-2-3z"/>
  <path fill="#EAF7FE" d="M331 263c3-2 5-1 4-10-1-8-6-17-6-17M279 221l-5 2 6 2zM334 228s12-3 16-10"/>
  <path fill="#85C1CE" d="M130 330s16 10 39 7v-8s-13 1-26-4v3l-4-2v3l-9 1z"/>
  <path fill="#CDEAF5" d="M222 347h-3c-11 0-19-2-30-1l-22 1 10-10 1 3 6-10 11-15-17 6-4 6v1c-2-2-4-3-4-1l-1 2c-3 5-17 14-17 14l-2 1 3 1v2l-1 1v5l-1 10c0 2-2 4-4 4 0 0 2 2 3 1v1s-1 8 6 9h21l21 1v-3l12 1 2-4 18 1c3-19-2-26-8-27z"/>
  <path fill="#EAF7FE" d="M233 367v-6l1 1-3-8c-2-4-5-7-10-7l1-2c-4-1-7-2-14-1 4-1 8-4 12-7l2 1 2-5h-1l7-8 2 3 6-16-28 9-3 3-11-11-14 19-3 7c-1-1-1-3-2-2-4 4-8 8-12 10h8l-4 2 12-1c12-1 19 4 19 4v-1c1 1 4 3 6 8 0 1 2 8 1 10l2-1v9h8s1-10-1-18h2c-1-4-4-7-7-8l-1-1s16-2 16 23h3l7 1-1-1-2-6zm-27-8l2 4-2-4z"/>
  <path fill="#EAF7FE" d="M194 358l2-1c-3-2-7-2-9-2h-2s7 6 6 24h7s3-14-4-21z"/>
  <g>
    <path fill="#5D5C5E" d="M452 372c0 5-5 9-10 9H237c-6 0-10-4-10-9V227c0-5 4-10 10-10h205c5 0 10 5 10 10v145z"/>
    <path fill="none" stroke="#738083" stroke-miterlimit="10" stroke-width="2" d="M452 372c0 5-5 9-10 9H237c-6 0-10-4-10-9V227c0-5 4-10 10-10h205c5 0 10 5 10 10v145h0z"/>
    <path fill="#747F84" d="M247 231h185v136H247z"/>
    <path fill="#414141" d="M243 299c0 3-2 5-5 5-2 0-4-2-4-5 0-2 2-4 4-4 3 0 5 2 5 4z"/>
    <path fill="none" stroke="#414141" stroke-linecap="round" stroke-miterlimit="10" stroke-width="2" d="M440 290v18"/>
    <g fill="#E9F7FE" opacity=".5">
      <path d="M252 237h176v12H252zM252 252h176v58H252zM252 317h28v20h-28zM284 317h53v5h-53zM284 324h53v5h-53zM284 332h53v5h-53z"/>
      <g>
        <path d="M342 317h28v20h-28zM374 317h53v5h-53zM374 324h53v5h-53zM374 332h53v5h-53z"/>
      </g>
      <g>
        <path d="M252 343h28v20h-28zM284 343h53v5h-53zM284 351h53v5h-53zM284 358h53v5h-53z"/>
      </g>
      <g>
        <path d="M342 343h28v20h-28zM374 343h53v5h-53zM374 351h53v5h-53zM374 358h53v5h-53z"/>
      </g>
    </g>
  </g>
  <g>
    <path fill="#EAF7FE" d="M382 187l8 3-10-11-15-7 2-2h-10l-30-4 2-3-39 2 1-4-6 3c0-3 5-9 5-9-6 1-11 9-11 9l-1 5-7 47h112c1-9 0-21-2-29h1zm-94-20z"/>
    <path fill="#4F4E51" d="M330 260l-4 5-8-7-12 9-7-10c-2-3-2-14-2-14l-3 2 5-15s30-6 31 30z" opacity=".3"/>
    <path fill="#EAF7FE" d="M333 246c1-4-1-8-1-12l2-5c1-2 3-2 5-3a385 385 0 017-4c10-5 37-8 37-8-39-15-95 0-95 0-11 7-17 30-17 30 9-7 35-22 35-22-1 11-16 11 25 41 0-6 2-11 3-17h-1z"/>
    <path fill="#CDEAF5" d="M289 197c-7 5-13 12-18 19h15l13-10-15-1s21-5 29-9c10-8 17-13 26-16 0 0 1-1-1-1l4-1 10-3s-20-2-63 22z"/>
    <path fill="#4F4E51" d="M285 229h-19l-2 6-1 9 22-15z" opacity=".3"/>
    <path fill="#EAF7FE" d="M299 206s-26 15-27 29l-1 9 28-21v-17zM305 224c-5 16-5 16-4 24l2 8 11 11s10-7 9-14c-3-23-18-29-18-29z"/>
    <path fill="#EAF7FE" d="M293 230s4-5 14-6c7 0 0-5 0-5l-13 1"/>
    <path fill="#EAF7FE" d="M302 252l-2-12-2 2c3-15 2-15 5-19 3-7 3 21 3 21"/>
    <path fill="#CDEAF5" d="M317 240c1-5 1-13 3-18l-2 3c-2 4-4 10-4 17 0 8 7 17 7 17l2-2-4-8s-2-3-2-9z"/>
  </g>
</svg>