<?xml version="1.0" encoding="utf-8"?>
<!-- Generator: Adobe Illustrator 17.0.0, SVG Export Plug-In . SVG Version: 6.00 Build 0)  -->
<!DOCTYPE svg PUBLIC "-//W3C//DTD SVG 1.1//EN" "http://www.w3.org/Graphics/SVG/1.1/DTD/svg11.dtd">
<svg version="1.1" id="Layer_1" xmlns="http://www.w3.org/2000/svg" xmlns:xlink="http://www.w3.org/1999/xlink" x="0px" y="0px"
	 width="256px" height="256px" viewBox="0 0 256 256" enable-background="new 0 0 256 256" xml:space="preserve">
<rect x="65" y="68" fill="#7C7C7C" width="127" height="124"/>
<rect x="83.392" y="22.163" transform="matrix(-0.7071 0.7071 -0.7071 -0.7071 266.9294 23.9747)" fill="#86AD8A" width="90.215" height="90.215"/>
<path fill="#FFFFFF" d="M117.601,167.637c3.788-11.191,5.795-45.647,4.728-62.795c-0.128-2.057-0.333-4.445-0.692-6.351
	c-0.112-0.607-0.244-1.168-0.391-1.651c0-6.672,0-62.892,0-67.02c0-5.717,5.242-8.419,10.166,4.128
	c4.925,12.547,3.495,57.175,3.495,60.348c0,0.673-0.611,1.469-1.57,2.25c-0.383,0.247-0.73,0.499-1.051,0.754
	c-2.949,2.366-3.379,5.095-3.533,7.542c-1.067,17.148-1.554,51.604,2.234,62.795c4.438,13.112-4.004,14.759-6.691,14.759
	C121.605,182.395,113.163,180.748,117.601,167.637z"/>
<path fill="#FFFFFF" d="M103.019,47.413c-0.472,0.049-1.062,9.387-1.257,16.131c-0.238,8.194-0.607,15.482-2.908,15.482
	c-1.728,0-2.8-2.853-2.517-10.094c0.407-10.427,0.395-21.519-0.219-21.519c-0.774,0-4.358,22.999-4.358,31.09
	c0,5.803,2.487,11.269,5.603,14.115c0.01,0.008,0.019,0.019,0.033,0.027c0.093,0.081,0.191,0.166,0.278,0.247
	c0.005,0.004,0.01,0.004,0.01,0.008c2.252,2.053,2.819,4.283,2.971,6.32c1.286,17.143-1.128,59.614-5.678,70.804
	c-5.33,13.108,4.811,14.759,8.042,14.759c3.227,0,13.368-1.651,8.037-14.759c-4.55-11.191-6.96-53.661-5.678-70.804
	c0.153-2.037,0.719-4.267,2.971-6.32c0-0.004,0.005-0.004,0.01-0.008c0.088-0.081,0.185-0.166,0.278-0.247
	c0.014-0.008,0.023-0.019,0.033-0.027c3.116-2.845,5.764-8.314,5.604-14.115c-0.635-23.017-3.263-31.09-4.037-31.09
	c-0.614,0-0.613,12.286-0.438,21.024c0.143,7.158-0.471,10.383-2.49,10.383c-1.923,0-2.504-6.972-2.748-15.368
	c-0.196-6.762-0.804-16.039-1.54-16.039"/>
<path fill="#FFFFFF" d="M154.075,179.591c-2.546,0-10.532-1.562-6.332-13.967c3.585-10.59,5.483-50.779,4.474-67.007
	c-0.051-0.826-0.256-1.664-0.413-2.55c-0.443-2.504-3.543-4.555-5.338-6.356c-3.486-3.498-5.725-9.38-5.725-16.013
	c0-10.77,5.97-24.4,13.334-24.4c7.364,0,13.334,13.63,13.334,24.4c0,6.633-2.24,12.515-5.725,16.013
	c-1.795,1.801-4.895,3.852-5.338,6.356c-0.157,0.886-0.361,1.724-0.413,2.55c-1.01,16.227,0.889,56.416,4.474,67.007
	C164.607,178.03,156.621,179.591,154.075,179.591z"/>
<polyline fill="#CECCAE" points="65,68 65,192 192,192 "/>
<polygon fill="#3F894A" points="65,191.835 65,253 192,253 192,191.835 192,66.938 "/>
<g>
	<g>
		
			<line fill="none" stroke="#FFFFFF" stroke-width="0.5" stroke-miterlimit="10" x1="191.658" y1="82.55" x2="190.946" y2="83.253"/>
		
			<line fill="none" stroke="#FFFFFF" stroke-width="0.5" stroke-miterlimit="10" stroke-dasharray="2.02,2.02" x1="189.509" y1="84.672" x2="66.629" y2="206.035"/>
		
			<line fill="none" stroke="#FFFFFF" stroke-width="0.5" stroke-miterlimit="10" x1="65.91" y1="206.745" x2="65.199" y2="207.448"/>
	</g>
</g>
<g>
	<path fill="#FFFFFF" d="M85.353,211.117h6.328c0.827,0,1.665,0.067,2.513,0.201c0.848,0.135,1.608,0.414,2.28,0.838
		c0.672,0.424,1.22,1.014,1.644,1.768c0.424,0.756,0.636,1.753,0.636,2.994c0,1.116-0.331,2.089-0.993,2.916
		c-0.662,0.827-1.644,1.376-2.947,1.645v0.062c0.724,0.062,1.385,0.232,1.985,0.512c0.6,0.279,1.117,0.651,1.551,1.117
		c0.434,0.465,0.77,1.019,1.008,1.659c0.238,0.642,0.357,1.345,0.357,2.109c0,1.262-0.243,2.291-0.729,3.087
		c-0.486,0.797-1.097,1.422-1.83,1.877c-0.734,0.455-1.531,0.766-2.389,0.931c-0.858,0.166-1.66,0.248-2.404,0.248h-7.011V211.117z
		 M87.4,220.609h4.25c1.055,0,1.913-0.129,2.575-0.388c0.662-0.259,1.179-0.574,1.551-0.946c0.373-0.372,0.621-0.771,0.745-1.194
		s0.186-0.812,0.186-1.163c0-0.765-0.129-1.401-0.388-1.908c-0.259-0.506-0.605-0.909-1.039-1.21
		c-0.435-0.299-0.941-0.512-1.52-0.636c-0.579-0.124-1.189-0.186-1.831-0.186H87.4V220.609z M87.4,231.219h4.684
		c1.199,0,2.166-0.145,2.9-0.435c0.734-0.289,1.298-0.651,1.691-1.085c0.393-0.435,0.656-0.895,0.791-1.381
		c0.134-0.485,0.202-0.926,0.202-1.318c0-0.807-0.155-1.499-0.465-2.078s-0.713-1.05-1.21-1.412c-0.496-0.361-1.06-0.625-1.69-0.791
		c-0.631-0.165-1.267-0.248-1.908-0.248H87.4V231.219z"/>
	<path fill="#FFFFFF" d="M103.73,222.781c0-0.269-0.011-0.595-0.031-0.978c-0.021-0.383-0.036-0.771-0.046-1.163
		c-0.011-0.393-0.026-0.76-0.047-1.102c-0.021-0.341-0.031-0.604-0.031-0.791h1.861c0.021,0.538,0.036,1.055,0.046,1.551
		c0.01,0.497,0.036,0.817,0.078,0.962c0.476-0.848,1.086-1.54,1.83-2.078c0.745-0.538,1.654-0.807,2.73-0.807
		c0.186,0,0.367,0.016,0.543,0.047c0.175,0.03,0.357,0.067,0.543,0.108l-0.217,1.83c-0.248-0.082-0.486-0.124-0.713-0.124
		c-0.807,0-1.504,0.129-2.094,0.388c-0.589,0.259-1.075,0.615-1.458,1.07s-0.667,0.987-0.853,1.598s-0.279,1.267-0.279,1.97v7.817
		h-1.861V222.781z"/>
	<path fill="#FFFFFF" d="M126,229.047c0,0.27,0.01,0.595,0.031,0.978c0.021,0.383,0.036,0.771,0.046,1.163
		c0.01,0.394,0.026,0.761,0.047,1.102c0.02,0.341,0.031,0.604,0.031,0.791h-1.861c-0.021-0.537-0.036-1.055-0.046-1.551
		c-0.011-0.497-0.036-0.817-0.078-0.962h-0.093c-0.373,0.786-0.993,1.463-1.861,2.032c-0.869,0.568-1.882,0.853-3.04,0.853
		c-1.117,0-2.032-0.176-2.746-0.527s-1.272-0.812-1.675-1.38c-0.403-0.569-0.678-1.226-0.822-1.971
		c-0.145-0.744-0.217-1.509-0.217-2.295v-8.531h1.861v8.438c0,0.58,0.051,1.144,0.155,1.691s0.284,1.039,0.543,1.474
		c0.258,0.434,0.621,0.78,1.086,1.039s1.07,0.388,1.815,0.388c0.682,0,1.329-0.119,1.938-0.356c0.61-0.238,1.137-0.6,1.582-1.086
		s0.796-1.097,1.055-1.83c0.258-0.734,0.388-1.598,0.388-2.591v-7.166H126V229.047z"/>
	<path fill="#FFFFFF" d="M130.584,222.781c0-0.269-0.01-0.595-0.029-0.978c-0.021-0.383-0.037-0.771-0.047-1.163
		c-0.012-0.393-0.027-0.76-0.047-1.102c-0.021-0.341-0.031-0.604-0.031-0.791h1.861c0.02,0.538,0.035,1.055,0.047,1.551
		c0.01,0.497,0.035,0.817,0.076,0.962h0.094c0.373-0.785,0.992-1.463,1.861-2.032c0.869-0.568,1.883-0.853,3.041-0.853
		c1.115,0,2.025,0.176,2.729,0.527s1.258,0.812,1.66,1.381c0.404,0.568,0.684,1.225,0.838,1.97c0.154,0.744,0.232,1.51,0.232,2.295
		v8.531h-1.861v-8.438c0-0.579-0.051-1.143-0.154-1.691c-0.104-0.547-0.285-1.039-0.543-1.473c-0.26-0.435-0.621-0.781-1.086-1.04
		c-0.465-0.258-1.07-0.388-1.814-0.388c-0.684,0-1.33,0.119-1.939,0.357c-0.609,0.237-1.137,0.6-1.582,1.085
		c-0.445,0.486-0.797,1.097-1.055,1.831c-0.26,0.734-0.389,1.598-0.389,2.59v7.166h-1.861V222.781z"/>
	<path fill="#FFFFFF" d="M159.28,230.971c-0.703,0.849-1.5,1.474-2.389,1.877c-0.89,0.403-1.852,0.604-2.885,0.604
		c-1.097,0-2.11-0.186-3.041-0.559c-0.931-0.372-1.727-0.894-2.389-1.566c-0.662-0.672-1.179-1.468-1.551-2.389
		c-0.372-0.92-0.559-1.928-0.559-3.024c0-1.096,0.187-2.104,0.559-3.024s0.889-1.717,1.551-2.389s1.458-1.194,2.389-1.566
		c0.931-0.373,1.944-0.559,3.041-0.559c1.055,0,2.031,0.217,2.931,0.651c0.9,0.435,1.701,1.045,2.404,1.83l-1.489,1.117
		c-0.537-0.6-1.127-1.07-1.768-1.412c-0.642-0.341-1.334-0.512-2.078-0.512c-0.869,0-1.655,0.155-2.358,0.466
		c-0.703,0.31-1.303,0.729-1.799,1.256s-0.874,1.148-1.133,1.861c-0.259,0.714-0.388,1.474-0.388,2.28s0.129,1.566,0.388,2.28
		c0.259,0.713,0.637,1.334,1.133,1.861s1.096,0.946,1.799,1.256c0.703,0.311,1.489,0.466,2.358,0.466
		c0.785,0,1.504-0.181,2.155-0.543c0.651-0.361,1.215-0.843,1.69-1.442L159.28,230.971z"/>
	<path fill="#FFFFFF" d="M161.925,209.628h1.861v11.633h0.062c0.372-0.785,0.992-1.463,1.861-2.032
		c0.868-0.568,1.882-0.853,3.04-0.853c1.116,0,2.026,0.176,2.729,0.527s1.257,0.812,1.66,1.381c0.403,0.568,0.683,1.225,0.837,1.97
		c0.155,0.744,0.233,1.51,0.233,2.295v8.531h-1.861v-8.438c0-0.579-0.052-1.143-0.155-1.691c-0.104-0.547-0.285-1.039-0.543-1.473
		c-0.259-0.435-0.62-0.781-1.086-1.04c-0.465-0.258-1.07-0.388-1.814-0.388c-0.683,0-1.329,0.119-1.939,0.357
		c-0.609,0.237-1.137,0.6-1.582,1.085c-0.444,0.486-0.796,1.097-1.055,1.831s-0.388,1.598-0.388,2.59v7.166h-1.861V209.628z"/>
</g>
<g>
</g>
<g>
</g>
<g>
</g>
<g>
</g>
<g>
</g>
<g>
</g>
<g>
</g>
<g>
</g>
<g>
</g>
<g>
</g>
<g>
</g>
<g>
</g>
<g>
</g>
<g>
</g>
<g>
</g>
</svg>
