<svg width="71" height="16" viewBox="0 0 71 16" fill="none" xmlns="http://www.w3.org/2000/svg">
    <path d="M35.26 4c-2.76 0-4.75 1.8-4.75 4.5s2.24 4.5 5 4.5c1.668 0 3.138-.66 4.047-1.773l-1.912-1.104c-.505.552-1.273.875-2.135.875-1.197 0-2.215-.625-2.593-1.625h7.005c.056-.28.088-.57.088-.875C40.01 5.8 38.02 4 35.26 4zm-2.365 3.625C33.208 6.628 34.062 6 35.257 6c1.198 0 2.053.628 2.363 1.625h-4.725zM62.18 4c-2.76 0-4.75 1.8-4.75 4.5s2.24 4.5 5 4.5c1.667 0 3.137-.66 4.048-1.773l-1.913-1.104c-.505.552-1.273.875-2.135.875-1.197 0-2.215-.625-2.593-1.625h7.005c.055-.28.088-.57.088-.875C66.93 5.8 64.94 4 62.18 4zm-2.362 3.625C60.13 6.628 60.985 6 62.18 6c1.197 0 2.053.628 2.363 1.625h-4.726zM50.06 8.5c0 1.5.98 2.5 2.5 2.5 1.03 0 1.802-.467 2.2-1.23l1.92 1.107C55.885 12.202 54.395 13 52.56 13c-2.763 0-4.75-1.8-4.75-4.5S49.8 4 52.56 4c1.835 0 3.322.798 4.12 2.122L54.76 7.23C54.362 6.467 53.59 6 52.56 6c-1.518 0-2.5 1-2.5 2.5zm20.62-7.25v11.5h-2.25V1.25h2.25zM9.237 0l9.238 16H0L9.238 0zm23.096 1.25l-6.928 12-6.928-12h2.598l4.33 7.5 4.33-7.5h2.598zm14.727 3v2.423a2.85 2.85 0 00-.8-.123c-1.453 0-2.5 1-2.5 2.5v3.7h-2.25v-8.5h2.25v2.3c0-1.27 1.477-2.3 3.3-2.3z" fill="#000"/>
</svg>
