<svg width="70" height="16" viewBox="0 0 70 16" fill="none" xmlns="http://www.w3.org/2000/svg">
  <path d="M9.255.05l9.108 15.753H.148L9.255.05zM39.434 8.418c0-2.535-1.87-4.307-4.554-4.307-2.683 0-4.554 1.772-4.554 4.307 0 2.487 2.019 4.308 4.8 4.308 1.526 0 2.905-.566 3.79-1.6l-1.673-.96c-.517.517-1.28.837-2.117.837-1.23 0-2.29-.665-2.658-1.674l-.074-.172h6.966a3.76 3.76 0 00.074-.739zm-7.065-.738l.05-.148c.32-1.058 1.255-1.698 2.436-1.698 1.207 0 2.117.64 2.437 1.698l.05.148h-4.973zM65.945 8.418c0-2.535-1.871-4.307-4.554-4.307-2.683 0-4.554 1.772-4.554 4.307 0 2.487 2.018 4.308 4.8 4.308 1.526 0 2.904-.566 3.79-1.6l-1.673-.96c-.517.517-1.28.837-2.117.837-1.23 0-2.29-.665-2.659-1.674l-.073-.172h6.966a3.76 3.76 0 00.074-.739zM58.88 7.68l.05-.148c.32-1.058 1.255-1.698 2.436-1.698 1.206 0 2.117.64 2.437 1.698l.05.148H58.88zM54.13 7.015l1.673-.96c-.788-1.23-2.19-1.92-3.89-1.92-2.682 0-4.553 1.773-4.553 4.308 0 2.536 1.87 4.308 4.554 4.308 1.698 0 3.101-.69 3.89-1.92l-1.675-.96c-.443.738-1.23 1.157-2.215 1.157-1.55 0-2.585-1.034-2.585-2.585 0-1.55 1.034-2.585 2.585-2.585.96 0 1.772.419 2.215 1.157zM69.637 1.428h-1.97v11.077h1.97V1.428zM31.779 1.428h-2.265L25.182 8.91l-4.333-7.483H18.56l6.622 11.421 6.597-11.421zM45.71 6.4c.222 0 .444.025.665.074V4.382c-1.673.049-3.249.984-3.249 2.141V4.382h-1.97v8.123h1.97v-3.52c0-1.527 1.059-2.585 2.585-2.585z" fill="#000"/>
</svg>
