<svg width="100" height="100" viewBox="0 0 100 100" fill="none" xmlns="http://www.w3.org/2000/svg">
<path d="M49.8779 58.813L37.2099 39.0114L37.1908 55.6489L15.3588 18.8931H0V80.9427H15.187L15.2366 44.2328L36.8435 79.2977L49.8779 58.813Z" fill="white"/>
<path d="M37.2137 34.8435H52.3817L52.416 34.6679V18.8931H37.229L37.2099 34.6679L37.2137 34.8435Z" fill="white"/>
<path d="M75.8244 52.0458C72.1908 51.9769 68.9079 54.2048 67.6298 57.6069C69.7576 54.4249 73.809 53.1463 77.3779 54.5305C79.0267 55.2023 81.1947 56.2863 82.9122 55.7061C81.2787 53.4137 78.6393 52.0506 75.8244 52.0458Z" fill="#96D8E9"/>
<path d="M93.0343 59.5114C93.0343 57.6527 92.0229 57.2214 89.9237 56.458C88.3664 55.916 86.5992 55.3053 85.313 53.6259C85.0611 53.2939 84.8282 52.9198 84.5802 52.5229C84.0244 51.4948 83.2707 50.5868 82.3626 49.8511C81.1374 48.9504 79.5305 48.5114 77.4466 48.5114C73.265 48.5144 69.4978 51.0384 67.9046 54.9046C69.9187 52.1099 73.2659 50.5956 76.6947 50.928C80.1235 51.2605 83.1175 53.3895 84.5572 56.5191C85.2766 57.706 86.6952 58.2728 88.0343 57.9084C90.084 57.4695 89.9427 59.4084 93.0382 60.0649L93.0343 59.5114Z" fill="#48C4E5"/>
<path d="M99.7939 59.1145V59.0725C99.7481 46.7672 89.7595 36.2405 77.4466 36.2405C69.9264 36.2352 62.9091 40.0172 58.7786 46.3015L58.6985 46.1641L52.3779 36.2405L37.2137 36.2404L51.6221 58.8053L37.5611 80.9427H52.2901L58.6985 71.0992L65.2214 80.9427H79.9542L66.5954 59.9198C66.3737 59.5102 66.2533 59.0535 66.2443 58.5878C66.2433 55.6185 67.4224 52.7705 69.522 50.6708C71.6216 48.5712 74.4696 47.3921 77.4389 47.3931C83.6298 47.3931 84.6641 51.0954 86 52.8359C88.6374 56.271 93.9046 54.7672 93.9046 59.2481C93.9203 60.2981 94.4949 61.2599 95.4121 61.7713C96.3292 62.2827 97.4495 62.266 98.351 61.7274C99.2525 61.1889 99.7981 60.2103 99.7824 59.1603V59.1145H99.7939Z" fill="white"/>
<path d="M99.8092 62.2824C99.9589 63.3289 99.8107 64.3964 99.3817 65.3626C98.542 67.3053 97.1412 66.6565 97.1412 66.6565C97.1412 66.6565 95.9351 66.0687 96.6679 64.9427C97.4809 63.687 99.0878 63.8321 99.8092 62.2824Z" fill="#022F56"/>
</svg>
