<svg width="100" height="100" viewBox="0 0 100 100" fill="none" xmlns="http://www.w3.org/2000/svg">
<path d="M49.7923 17.5721C32.0263 17.5721 17.5723 32.0261 17.5723 49.7921C17.5723 67.5581 32.0263 82.0121 49.7923 82.0121C67.5583 82.0121 82.0123 67.5581 82.0123 49.7921C82.0123 32.0261 67.5583 17.5721 49.7923 17.5721ZM49.7923 66.4661C40.5823 66.4661 33.1183 59.0021 33.1183 49.7921C33.1183 40.5821 40.5823 33.1181 49.7923 33.1181C59.0023 33.1181 66.4663 40.5821 66.4663 49.7921C66.4663 59.0021 59.0023 66.4661 49.7923 66.4661Z" fill="black"/>
<path fill-rule="evenodd" clip-rule="evenodd" d="M52.4919 12.28V0.25C78.6399 1.648 99.4119 23.296 99.4119 49.792C99.4119 76.288 78.6399 97.93 52.4919 99.334V87.304C71.9799 85.912 87.4119 69.628 87.4119 49.792C87.4119 29.956 71.9799 13.672 52.4919 12.28ZM21.376 74.3919C16.21 68.4279 12.88 60.8319 12.286 52.4919H0.25C0.874 64.1619 5.542 74.7519 12.856 82.9059L21.37 74.3919H21.376ZM47.0921 99.334V87.304C38.7461 86.71 31.1501 83.386 25.1861 78.214L16.6721 86.728C24.8321 94.048 35.4221 98.71 47.0861 99.334H47.0921Z" fill="url(#paint0_linear_2028_412)"/>
<defs>
<linearGradient id="paint0_linear_2028_412" x1="54.4363" y1="7.21668" x2="5.66845" y2="55.9846" gradientUnits="userSpaceOnUse">
<stop stop-color="#0096FF"/>
<stop offset="1" stop-color="#FF1E56"/>
</linearGradient>
</defs>
</svg>
